<svg xmlns="http://www.w3.org/2000/svg" width="73.967" height="73.968" viewBox="0 0 73.967 73.968">
  <path id="img-cog" d="M727.83,152.937v-12.7h-10.1a26.462,26.462,0,0,0-3.09-7.47l7.136-7.136-8.979-8.98-7.136,7.136a26.565,26.565,0,0,0-7.47-3.09V110.6H685.5v10.1a26.563,26.563,0,0,0-7.47,3.09l-7.136-7.136-8.978,8.98,7.136,7.136a26.458,26.458,0,0,0-3.09,7.47h-10.1v12.7h10.1a26.468,26.468,0,0,0,3.09,7.471l-7.136,7.136,8.978,8.978,7.136-7.136a26.521,26.521,0,0,0,7.47,3.09v10.1h12.7v-10.1a26.522,26.522,0,0,0,7.47-3.09l7.136,7.136,8.979-8.978-7.136-7.136a26.471,26.471,0,0,0,3.09-7.471Zm-35.983,7.471a13.819,13.819,0,1,1,13.819-13.82A13.82,13.82,0,0,1,691.847,160.408Z" transform="translate(-654.863 -109.604)" fill="none" stroke="#45f7f6" stroke-miterlimit="10" stroke-width="2"/>
</svg>
