<svg xmlns="http://www.w3.org/2000/svg" width="267.183" height="222.423" viewBox="0 0 267.183 222.423"><g transform="translate(1242.415 513.346) rotate(180)" style="mix-blend-mode:luminosity;isolation:isolate"><path d="M1064,479.363c0,.039-.013.077-.019.116a.339.339,0,0,0,.052-.108c.008-.112.005-.226.009-.339-.275-.107-.432-.307-.332-.594a9.313,9.313,0,0,1,.422-.915c-.2-.314-.5-.58-.537-.879-.043-.348.25-.742.2-1.085-.074-.469.26-.988-.2-1.431a.788.788,0,0,1-.137-.716c.184-.4.015-.776.07-1.159a5.5,5.5,0,0,0-.019-1.628,6.8,6.8,0,0,1-.046-2.389,3.454,3.454,0,0,0-.029-1.638,1.963,1.963,0,0,1,.56-.2,5.724,5.724,0,0,1,.751.107.415.415,0,0,0,.391-.616,1.16,1.16,0,0,0-.128-.219,4.8,4.8,0,0,1-.855-2.192c-.068-.358-.094-.725-.139-1.092l.321.074c.066-.686.115-.735-.111-.942a.834.834,0,0,1-.234-.808c.027-.251.162-.527.1-.747a14,14,0,0,1-.25-3.022,16.249,16.249,0,0,0,0-2.148c-.191-.906.193-1.837-.1-2.74a3.836,3.836,0,0,0,.055-1.989,8.877,8.877,0,0,1,.058-2.767.52.52,0,0,0,0-.255,10.643,10.643,0,0,1,0-4.166,1.436,1.436,0,0,0-.094-.859,3.131,3.131,0,0,1-.161-1.526,3.044,3.044,0,0,0,.042-1.644,2.177,2.177,0,0,1,.4-1.906c-.01.112-.019.223-.03.336,0,.039-.013.077-.019.116a.339.339,0,0,0,.052-.108c.008-.112.005-.226.008-.339-.274-.108-.432-.308-.331-.6a9.194,9.194,0,0,1,.407-.886,1.766,1.766,0,0,1-.374-1.9,1.518,1.518,0,0,0-.046-.6,7.775,7.775,0,0,1-.183-2.881,4.492,4.492,0,0,0-.059-1.273c-.135-.871-.311-1.737-.474-2.615a5.739,5.739,0,0,0-1.828-.2,9.483,9.483,0,0,1-1.638.042,4.025,4.025,0,0,0-1.676.034.634.634,0,0,1-.586-.136.737.737,0,0,0-1.018-.121,1.183,1.183,0,0,1-1.02.12c-.391-.115-.881.161-1.318.132a3.21,3.21,0,0,0-1.492,0c-.124.049-.33-.054-.477-.127-.219-.108-.42-.252-.613-.371-.255.244-.347.559-.746.5a3.045,3.045,0,0,0-.87.062,1.4,1.4,0,0,1-1.4-.284c-.183-.2-.238.031-.362.117a.864.864,0,0,1-.484.05c-.707-.03-1.417-.132-2.119-.092a6.664,6.664,0,0,1-2.521-.212c-.194.132-.4.371-.52.335a5.54,5.54,0,0,0-1.473-.194c-.169-.005-.37-.326-.489-.289-.228.071-.4.307-.687.156-.409.445-.972.329-1.446.285a8.786,8.786,0,0,0-1.119-.017c-1.017.036-2.035.048-3.052.089-.995.039-1.988-.33-2.986-.023a.309.309,0,0,1-.246-.04c-.31-.244-.653-.1-.979-.1-.721.014-1.443.036-2.162.087a4.1,4.1,0,0,1-2.232-.083c-.125-.061-.328.048-.5.07a2.855,2.855,0,0,1-1.975-.108.577.577,0,0,0-.486-.007,2.477,2.477,0,0,1-1.615.109,9.49,9.49,0,0,0-2.384-.091,19.5,19.5,0,0,1-3.413.194c-.723-.036-1.45.074-2.173.049-.372-.013-.735-.24-1.108-.254s-.805.287-1.072.157c-.394-.193-.672.246-1.072,0-.27-.167-.735-.019-1.112-.007s-.761.045-1.139.042c-.292,0-.568-.008-.729-.373-.11-.245-.336-.162-.469.079-.054.1-.144.251-.228.257a7.775,7.775,0,0,1-2.01.07c-.751-.146-1.506-.089-2.255-.236a4.078,4.078,0,0,0-1.641.1,2.743,2.743,0,0,1-1.627.017.779.779,0,0,0-.6.045c-.552.362-1.058-.239-1.609-.028-.235.09-.463-.134-.619-.364-.121-.18-.284-.1-.445-.018a4.77,4.77,0,0,1-2.406.423c-.666-.024-1.333,0-2,.012-.546.011-1.1.133-1.54-.375-.106-.124-.4-.117-.6-.118-.6,0-1.191.019-1.786.028-.383.006-.768.021-1.149,0-1.451-.08-2.9-.177-4.349-.26-.768-.043-1.537-.065-2.305-.106a2.529,2.529,0,0,1-1.324-.419c-.627-.423-1.28-.806-1.928-1.209a11.921,11.921,0,0,0-.133-1.638,11.511,11.511,0,0,1-.237-4.08,11.511,11.511,0,0,0-.022-3.669c-.045-.2-.119-.47-.03-.616.232-.384.072-.742.063-1.119a5.85,5.85,0,0,1,.113-1.393,3.052,3.052,0,0,0-.03-1.633,3.13,3.13,0,0,1-.089-1c.011-.458.106-.913.1-1.37-.013-1.4-.031-2.8-.094-4.2-.09-1.993.18-3.985-.021-5.979a7.813,7.813,0,0,1,.069-1.262,3.4,3.4,0,0,0,.045-.758,9.339,9.339,0,0,1,.12-3.548,2.853,2.853,0,0,0-.052-1.513c-.474-1.283.022-2.61-.3-3.906-.162-.654.366-1.387.012-2.106-.039-.082.075-.234.109-.356.18-.653.356-1.306.538-1.959.032-.115.054-.262.136-.327.45-.361.813-.866,1.5-.834a1.852,1.852,0,0,0,.647-.24c-.148-.337-.258-.587-.412-.933a8.94,8.94,0,0,1,1.385.1,6.515,6.515,0,0,0,2.744-.24c.484-.09.926-.436,1.44-.118,1.5-.286,3.033.412,4.515-.2a.439.439,0,0,1,.253-.008c1,.249,2.025-.129,3.032.079a1.665,1.665,0,0,0,.5-.042,16.081,16.081,0,0,0,2.63-.063c.649.389,1.326.005,1.99.06.544.044,1.1-.1,1.651-.093.453,0,.905.135,1.357.13s.925-.118,1.388-.17a14.281,14.281,0,0,1,2.757.16,2.216,2.216,0,0,0,.862-.077,2.546,2.546,0,0,1,1.551-.18,3.015,3.015,0,0,0,1.883.005c.287-.085.555-.144.8.167a.706.706,0,0,0,.578.115,1.979,1.979,0,0,1,1.572.16c.1.066.334-.012.477-.083a5.482,5.482,0,0,0,.616-.405c.2.033.368.048.532.09a2.28,2.28,0,0,0,2.1-.1.823.823,0,0,1,.624-.06c.317.088.612.251.934.028,1.183.309,2.33-.1,3.451-.126a1.657,1.657,0,0,0,.268-1.493,3.04,3.04,0,0,1-.013-2.334c.1-.183.064-.627-.066-.712-.54-.353-.291-.841-.311-1.28-.012-.247.1-.527.027-.741-.432-1.2-.106-2.438-.244-3.652-.071-.63.048-1.28-.011-1.912-.067-.707.286-1.412-.022-2.121-.052-.121.088-.319.12-.484s.112-.367.051-.5c-.286-.611-.041-1.266-.2-1.893a2.516,2.516,0,0,1,.037-1.252,2.78,2.78,0,0,0,.011-1.116c-.126-1.227-.454-2.49.423-3.612.1-.127.089-.344.162-.667.234.394.377.637.551.931.006-.793.01-.794-.213-1.124-.062-.091-.22-.227-.211-.239.476-.572-.084-.785-.264-1.08l-.639.191c-.007-.158-.015-.315-.022-.473.072-.033.15-.1.215-.093.454.068.467-.193.391-.606-.334.15-.34.559-.61.7a3.048,3.048,0,0,0,.013-2.127,1.95,1.95,0,0,1-.008-.6c.653.374.2,1.024.62,1.537.013-.487-.114-.947.059-1.2.427-.616-.25-1.09-.1-1.645.018-.066-.209-.2-.322-.3.456-.42.083-1.283.887-1.56.356-.123.424-.6.488-.975.006-.04-.106-.1-.163-.151-.381.085-.318.663-.755.723-.142-1.363.238-2.7-.11-4.336-.181.478-.325.735-.689.436a5.047,5.047,0,0,0,0-2.308,8.047,8.047,0,0,1,.234-3.272,5.439,5.439,0,0,0,.27-2.125,15.573,15.573,0,0,0-.087-2.407c-.25-.848.1-1.6.039-2.39-.01-.127.011-.258-.01-.383a2.951,2.951,0,0,1,.178-1.623.928.928,0,0,0,.015-.72,1.3,1.3,0,0,1-.121-.969,11.3,11.3,0,0,1,.184-2.662c.038-.1-.035-.246-.067-.368a5.578,5.578,0,0,1,.1-2.279c.019-.135.173-.255.275-.374.261-.309.688-.534.523-1.054l-.032.04a5.9,5.9,0,0,0,.522-.94.454.454,0,0,0-.3-.59.358.358,0,0,0-.489.225l.054-.044c-.234-.129-.454-.263-.246-.587l.879.163c-.1-.637-.185-1.167-.271-1.707-.271-.181-.669-.171-.838-.581l.691-.22c-.123-.294-.226-.541-.271-.651-.255-.027-.427,0-.48-.065a.4.4,0,0,1-.022-.36,1.055,1.055,0,0,0,0-1.291c-.059-.076.01-.244,0-.369-.04-.5-.062-1.014-.141-1.514a7.074,7.074,0,0,0-.4-1.857c-.311-.676.179-1.245.052-1.864-.051-.249-.092-.5-.136-.751-.03-.167-.127-.363-.072-.5.359-.871,0-1.874.56-2.662-.211-.38-.391-.705-.561-1.009.039-.2.077-.371.1-.539.042-.32.379-.6.126-.959.3-.413-.049-.679-.2-1.011a1.4,1.4,0,0,1-.077-.749,13.773,13.773,0,0,0-.019-3.607,3.171,3.171,0,0,1,.118-1.832,3.482,3.482,0,0,0,.525-.091,1.58,1.58,0,0,0-.033-.3l.012.007c.292-.351.582-.7.893-1.079a3.324,3.324,0,0,0,.651-.005c1.2-.222,2.4-.655,3.623-.112a.33.33,0,0,0,.127.011q2.49-.012,4.979-.027a1.39,1.39,0,0,0,.381-.045,10.045,10.045,0,0,1,3.667-.126,5.109,5.109,0,0,0,2.276-.036,1.518,1.518,0,0,1,.76-.016,4.525,4.525,0,0,0,2.622-.356,1.547,1.547,0,0,1,.985-.138,3.083,3.083,0,0,0,1.754-.159,2.98,2.98,0,0,1,1.369-.18,1.938,1.938,0,0,0,.757-.018,4.714,4.714,0,0,1,1.737-.055c.69.024,1.4.331,2.078-.088a.452.452,0,0,1,.374-.012c.539.262,1.146-.1,1.71.287.6.411,1.177-.319,1.81-.26.084.008.169.009.254.01.378,0,.757.024,1.133,0a1.277,1.277,0,0,1,1.055.341c.119.122.219.323.387.194a1.922,1.922,0,0,0,.334-.543l1.7.148c0,.677,0,.677,1.069.905l.372-.528c.837.048,1.685.084,2.529.15.183.014.447.238.521.178a.558.558,0,0,1,.8-.056,2.511,2.511,0,0,0,1.817.436,10.421,10.421,0,0,1,1.407.017,1.049,1.049,0,0,1,.937,1.315,3.012,3.012,0,0,1-.191.845,1.479,1.479,0,0,0,.034,1.565,4.666,4.666,0,0,1,.243.715.875.875,0,0,1-.071.841,4.251,4.251,0,0,0-.414,2.569,4.354,4.354,0,0,1-.377,2.68l.45.571a16.711,16.711,0,0,1-.282,2.832,3.716,3.716,0,0,0,.094,2.1,2.628,2.628,0,0,1,.153.835,7,7,0,0,0,.114,1.4c.086.469-.137.891-.088,1.376a13.36,13.36,0,0,0-.018,2.132.153.153,0,0,1-.036.119c-.263.307-.122.651-.1.984.036.45.116.9.111,1.351a2.054,2.054,0,0,0,.415,1.3c.081.11.016.325.023.492q.089,1.94.181,3.881a5.407,5.407,0,0,1-.238,2.519.783.783,0,0,0,0,.614,1,1,0,0,1,.013,1.176,1.059,1.059,0,0,0-.044.849,3.42,3.42,0,0,1,.154,1.367,15.628,15.628,0,0,0,.033,1.65c.043.387.184.757-.158,1.075.064.547.115,1.1.2,1.641a.971.971,0,0,1-.211.947c-.171.167-.118.376.023.574a.958.958,0,0,1,.185.44c.116,1.436-.138,2.878.051,4.314a.573.573,0,0,1-.034.377c-.3.4-.117.849-.062,1.218a7.567,7.567,0,0,1,.012,1.506,4.877,4.877,0,0,0,.03,1.638.772.772,0,0,1-.232.8c-.2.191-.217,1.055-.028,1.12.4.139.291.3.193.553a.544.544,0,0,0-.031.333c.278.9-.2,1.817.1,2.715.041.122-.1.313-.175.464-.091.187-.2.365-.294.533.17.226.432.416.432.607a7.46,7.46,0,0,0,.121,1.488.818.818,0,0,1-.219.814c-.2.19-.2.333,0,.616a1.251,1.251,0,0,1,.083,1.076,2.808,2.808,0,0,0-.1,1.62,9.54,9.54,0,0,1-.031,1.612c-.026.388-.345.788.147,1.125.065.044.034.348-.048.465a.741.741,0,0,0-.115.7,2.63,2.63,0,0,1-.018.761l-.347.17.322.113c.02.278-.109.523.049.846a3.238,3.238,0,0,1,.118,1.242c.007.2-.05.4-.045.595.021.717.058,1.432.081,2.149a12.6,12.6,0,0,1,.029,2.164,5.428,5.428,0,0,0-.014,2.109c.027.11-.047.244-.061.368a7.139,7.139,0,0,0-.07.742c-.014,1.548.432,3.1,0,4.646.1.749.2,1.5.309,2.3.287.025.529.058.773.066,1.482.048,2.942-.247,4.431-.225,2.594.04,5.189-.064,7.784-.085.806-.007,1.622.154,2.418.08,2.45-.227,4.9-.181,7.357-.215,2.2-.03,4.393-.088,6.59-.1,1.356-.009,2.712.027,4.067.066a5.433,5.433,0,0,0,2.274-.069c.176-.071.415.026.624.025a14.857,14.857,0,0,0,2.738.014c.585-.109,1.237-.088,1.849-.149.423-.042.613.613,1.055.252a44.263,44.263,0,0,0,6.241.261c.08,0,.164.055.246.062a8,8,0,0,0,2.017.132,9.322,9.322,0,0,1,3.024-.178c.7-.352,1.432.087,2.144-.074.9-.2,1.827.229,2.738-.066.137-.045.324.074.49.106s.374.128.494.066c.567-.3,1.174-.042,1.76-.178a3.319,3.319,0,0,1,1.867.117.739.739,0,0,0,.38-.015,9.882,9.882,0,0,1,3.761-.057,1.748,1.748,0,0,0,1.457-.17,1.565,1.565,0,0,1,1.218-.077,3.564,3.564,0,0,0,2.135.011c.149-.041.411-.05.473.034a.853.853,0,0,0,.988.247,1.5,1.5,0,0,1,1.315.164,1.178,1.178,0,0,0,.357.066l.8-.544a6.188,6.188,0,0,1,.7.1,2.593,2.593,0,0,0,1.843-.08,2.17,2.17,0,0,1,.756-.085c.255.013.447.276.781.057.185-.121.55.052.834.057.334,0,.669-.03,1-.047.749-.042,1.5-.1,2.248-.111.186,0,.482.089.543.222.187.413.369.667.86.408.076-.04.248.031.336.1a2.16,2.16,0,0,0,1.935.3,2.812,2.812,0,0,1,.73.013,4.919,4.919,0,0,0,.965-.115,2.821,2.821,0,0,1,2.1.019.673.673,0,0,0,.913-.182.817.817,0,0,1,.683-.184,5.392,5.392,0,0,0,2.118-.142,4.023,4.023,0,0,1,.878-.029,2.93,2.93,0,0,0,.758.065c1.092-.283,2.2.049,3.295-.107.559-.08,1.156.208,1.736-.039a.354.354,0,0,1,.251.019,1.313,1.313,0,0,0,1.226.025c1.045.12,2.093-.3,3.143.04.215.071.493-.065.743-.076,1.192-.052,2.422-.419,3.508.427.179.14.5-.045.627.186-.03.168-.052.29-.074.411h-.773c.392.273.6.246.751-.027a1,1,0,0,0,.118.051c.313.089.29-.308.446-.333s.375.234.514.191a3.113,3.113,0,0,0,.71-.436c-.356-.63-.339-.666.236-.68a1.389,1.389,0,0,1,.077.342c-.015.426.276.3.5.292.138-.242-.107-.232-.206-.318l-.376-.318a4.193,4.193,0,0,0,2.681-.043c-.252.8-1.012.2-1.413.65.587.22,1.2-.12,1.658.3.01.01.065-.033.1-.049a4.362,4.362,0,0,1,2.56-.181c.665.982.722,1.013,1.411.827-.85-.723-.85-.723-.95-1.519l.982.251-.68.4a14.574,14.574,0,0,0,3.945.053.823.823,0,0,0-.037-.208c-.065-.1-.2-.193-.2-.29,0-.217.181-.264.359-.219a4.691,4.691,0,0,0,1.739.012,8.332,8.332,0,0,1,3.4.148,9.828,9.828,0,0,0,2.246.377,8.054,8.054,0,0,0,2.407-.129,10.921,10.921,0,0,1,2.513.019,2.112,2.112,0,0,0,.255,0,3,3,0,0,1,1.743.19.738.738,0,0,0,.841-.071.755.755,0,0,1,.473-.11,11.285,11.285,0,0,1,2.148.1,12.589,12.589,0,0,0,2.132.013c.381.02.759.12,1.139.126a.855.855,0,0,1,.7.418c.222.264.517.6.977.4l-.041-.03a6.046,6.046,0,0,0,.92.532.456.456,0,0,0,.585-.308.351.351,0,0,0-.2-.494l.047.051c.115-.2.252-.343.52-.241-.016.273-.034.547-.054.879l1.608-.264.585-.9c.112.31.182.5.264.729l.706-.232c-.092-.408-.031-.567.173-.54.084.011.192-.011.249.033a.871.871,0,0,0,1.158.025c.086-.063.242-.033.365-.044.589-.051,1.181-.073,1.765-.159a5.93,5.93,0,0,0,1.725-.383c.642-.314,1.161.191,1.742.074.249-.051.511-.052.755-.12a1.356,1.356,0,0,1,.989.018,1.44,1.44,0,0,0,.752.081,2.054,2.054,0,0,1,1.335.318c.063.036.165,0,.278,0l.9-.514c.216.042.383.08.551.106.317.051.609.354.957.1.415.345.673-.078,1.006-.184a2.449,2.449,0,0,1,.875-.055,11.636,11.636,0,0,0,2.742.008,12.236,12.236,0,0,1,2.005-.074.5.5,0,0,1,.584.518c.016.2.2.247.382.121l-.008.019c.057.063.112.127.172.187.091.088.185.173.278.26l.96,1.018c.194.612.656,1.146.511,1.9l-.63,1.119c-.118.643.552.712.508,1.239-.03.354.423.613.422,1.081a9.323,9.323,0,0,1,.037,1.242l.027-.03a.766.766,0,0,0-.1,1.133.769.769,0,0,1,.289.764,4.537,4.537,0,0,0,.1,2.008,3.922,3.922,0,0,1,.037,1,3.009,3.009,0,0,0-.054.756c.284,1.047-.081,2.109.123,3.161.117.6-.327,1.231.023,1.86.06.11-.072.32-.1.488a2.5,2.5,0,0,0-.06.619,9.493,9.493,0,0,1,.054,3.509.782.782,0,0,0,0,.38,11.527,11.527,0,0,1,.047,4.138c-.03.289-.124.679.018.857a1.631,1.631,0,0,1,.222,1.53,3.567,3.567,0,0,0-.029,1.888,1.1,1.1,0,0,1-.036.864,1.088,1.088,0,0,0-.112.621,2.389,2.389,0,0,1-.374,1.669l.588,1c-.036.2-.056.367-.1.532s-.185.333-.158.476c.075.4-.237.829.045,1.18a1.54,1.54,0,0,1,.265,1.2,6.851,6.851,0,0,0,.047,2.861,3.524,3.524,0,0,1-.151,2.421c-.228.13-.481-.155-.65.185.02.193.045.432.069.669l-.5.09c-.064.224-.121.426-.182.64a1.843,1.843,0,0,0-.408-.036,1,1,0,0,0-.307.137,2.2,2.2,0,0,1-1.649.187,4.738,4.738,0,0,0-1.074-.359,4.2,4.2,0,0,0-1.2.342c-.161.053-.307.186-.466.2a1.317,1.317,0,0,1-.6-.1,6.338,6.338,0,0,0-2.819-.426,2.966,2.966,0,0,1-2.19-.275.465.465,0,0,0-.583.088.876.876,0,0,1-.532.266,15.9,15.9,0,0,1-2.662-.316,2.892,2.892,0,0,0-1.6.033,9.611,9.611,0,0,1-3.383.279c-.631-.041-1.262-.094-1.891-.135-.445-.029-.907.22-1.338-.105a24.839,24.839,0,0,0-2.692.325,2.053,2.053,0,0,0-.659.324c-.287.181-.55-.293-.829-.007-.3.305-.482-.181-.8-.1a23.466,23.466,0,0,1-3.385.3,3.185,3.185,0,0,1-1.755-.244c-.144-.073-.383-.146-.488-.079a1.7,1.7,0,0,1-1.649-.005,1.745,1.745,0,0,0-.739.056,5.51,5.51,0,0,1-.855.121c-1.079-.033-2.183.357-3.236-.172-.464.073-.93.136-1.391.222a1.035,1.035,0,0,1-1.068-.218c-.074-.077-.312-.032-.462.007-.191.049-.366.207-.555.218a7.715,7.715,0,0,1-2.168.029,9.769,9.769,0,0,0-2.133.036c-.085,0-.19.016-.252-.025-.472-.316-.99-.087-1.466-.071a5.61,5.61,0,0,1-1.121,0,9.269,9.269,0,0,0-1.265-.053c-.5-.012-1.054.377-1.472-.241-.048-.071-.326-.021-.482.025a4.9,4.9,0,0,1-.682.267c-.263.035-.559-.11-.808-.048-.9.23-1.821-.2-2.721.092-.121.039-.31-.107-.459-.183-.184-.094-.357-.2-.511-.293-.324.207-.461.569-.9.479a3.021,3.021,0,0,0-.863.085,1.479,1.479,0,0,1-1.292-.246c-.26-.261-.307.042-.458.078a2.025,2.025,0,0,1-1.119.03,3.068,3.068,0,0,0-1.236-.077,5.9,5.9,0,0,1-2.681-.267c-.262.308-.527.572-.884.3a.7.7,0,0,0-.69-.106,2.888,2.888,0,0,1-.762-.012c-.019-.139-.038-.279-.056-.419l-.12-.005-.092.412c-.207-.03-.491-.162-.61-.073a2,2,0,0,1-1.571.182,2.658,2.658,0,0,0-.472.01c-.967.057-1.935.084-2.9.107a6.544,6.544,0,0,1-1.768-.031,2.967,2.967,0,0,0-1.479-.025,7,7,0,0,1-1.229-.11c-.888.019-1.775.116-2.663.132a7.247,7.247,0,0,1-2-.06,7.474,7.474,0,0,0-2.127.1c-.075,0-.155-.065-.233-.1l0-.231c0,.08,0,.162.007.248-.2-.044-.438-.19-.59-.126a3.806,3.806,0,0,1-1.866.106,8.941,8.941,0,0,0-2.825,0,9.177,9.177,0,0,1-1.894.144c-.722.019-1.445-.019-2.168-.006a3.346,3.346,0,0,1-1.991-.23c-.066-.041-.209-.072-.238-.039-.425.5-.952.149-1.424.163-1.125.033-2.252.011-3.362.011-.38-.606-.382-.606-.793,0a15.4,15.4,0,0,0-1.75.136c-.387.072-.634-.264-.959-.218a2.505,2.505,0,0,1-.963.024,4.927,4.927,0,0,0-2.654.085,1.142,1.142,0,0,1-.625.065c-.859-.255-1.749.174-2.6-.139-.48.145-.8-.127-1.1-.464a7.057,7.057,0,0,1-1.281.494,8.594,8.594,0,0,1-1.513.039c-.5,0-1-.023-1.5-.016-.554.007-1.108.047-1.663.057a4.2,4.2,0,0,1-1.515-.036c-.585-.227-1.072.057-1.6.044a.354.354,0,0,1-.127-.012,13.647,13.647,0,0,0-2.514-.323c-1.143-1.1-1.511-1.148-2.6-.328-.027.689-.109,1.389-.08,2.112a12.046,12.046,0,0,1-.246,2.653,1.129,1.129,0,0,0,.091.692c.154.418-.555.108-.488.51.02.119-.028.3.037.353.479.4.373.9.313,1.413a1.828,1.828,0,0,0,.024.74,4.735,4.735,0,0,1,.174,2.148,1.262,1.262,0,0,0-.039.5,15.457,15.457,0,0,1,.073,2.415c.115.832-.244,1.673.045,2.5-.353.612-.032,1.24-.038,1.861a8.5,8.5,0,0,1-.069,2.771.5.5,0,0,0,.013.254,10.422,10.422,0,0,1,0,4.278,1.194,1.194,0,0,0,.088.729,2.358,2.358,0,0,1,.136,1.833,2.5,2.5,0,0,0,.013,1.509,1.682,1.682,0,0,1,.055.752c-.017.12-.277.2-.3.325a1.172,1.172,0,0,0,.06.622,1.057,1.057,0,0,1-.09,1.08.731.731,0,0,0,.019.951,1.168,1.168,0,0,1,.15,1.414,3.011,3.011,0,0,0-.046,1.291,1.628,1.628,0,0,1,.257,1.318,10,10,0,0,0,.007,2.857,6.206,6.206,0,0,1,.129,1.621c-.011.291.036.7-.473.779-.151.023-.3.27-.391.447-.145.3-.15.724-.37.919-.443.391-.587.688-.042,1.069-.269.449.2.606.328.9a3.834,3.834,0,0,1,.209,1.236c.013.2-.067.385.07.6.258.4-.38.116-.329.4.036.2-.039.487.069.583a1.085,1.085,0,0,1,.288,1.179,2.225,2.225,0,0,0,.085,1.243,3.138,3.138,0,0,1,.156,1.008c-.045.717-.007,1.435-.035,2.144a11.2,11.2,0,0,1-.123,3.178.577.577,0,0,0,.07.365,1.32,1.32,0,0,1,.012.995,1.53,1.53,0,0,0-.069.618,9.421,9.421,0,0,1,.063,3.514.859.859,0,0,0,.019.38,9.77,9.77,0,0,1,.009,4.026,1.613,1.613,0,0,0,.072.987,2.385,2.385,0,0,1,.15,1.7,2.7,2.7,0,0,0,.006,1.632c.075.23.124.659.018.723-.394.238-.287.584-.219.851a1.335,1.335,0,0,1-.114,1.2.72.72,0,0,0,.077.947c.394.4.287.83.152,1.3-.151.532-.351,1.079.095,1.615a.871.871,0,0,1,.112.734c-.184.491,0,.98-.1,1.472a3.244,3.244,0,0,0,.042,1.385,8.529,8.529,0,0,1,.162,1.875,2.542,2.542,0,0,1-.287.8c-.669.1-.668.807-1.047,1.172-.111.107-.15.319-.272.378-.329.159-.82.162-1,.408-.339.455-.8.167-1.158.361a.778.778,0,0,1-.28.017,5.3,5.3,0,0,1-.738-.435c-.36-.292-.787-.328-1.033-.011-.271.349-.6.18-.881.294-.091.59-.622.267-.894.443-.362.232-.855-.1-1.134.325l.022.022c-.377-.555-.711-.668-1.206-.335-.214.143-.361.308-.664.245a4.363,4.363,0,0,0-2.013.116,4.26,4.26,0,0,1-1.14.043c-.25,0-.522-.129-.747-.066a19.98,19.98,0,0,1-2.54.084c-.828.126-1.661-.268-2.482.047-.569-.291-1.145-.052-1.721-.044a10.182,10.182,0,0,1-2.886-.018,1.137,1.137,0,0,0-.506.026,9.931,9.931,0,0,1-3.866-.036,1.224,1.224,0,0,0-.846.034,2.448,2.448,0,0,1-1.934.146,2.284,2.284,0,0,0-1.385.014,1.04,1.04,0,0,1-.5.091,7.735,7.735,0,0,0-.946-.31c-.353-.032-.724.137-1.075.1a3.825,3.825,0,0,1-.938-.348,1.5,1.5,0,0,1-1.779.371,1.8,1.8,0,0,0-.975-.126,3.4,3.4,0,0,0-.9.375c-.386.182-.758-.3-1-.142-.276.176-.419.072-.656.046a3.492,3.492,0,0,0-1.758.111,3.053,3.053,0,0,1-2.439-.124c-.02-.224-.038-.42-.054-.6a1.927,1.927,0,0,1-.962-.458,2.465,2.465,0,0,0-.637-.222,1.587,1.587,0,0,0,.072-.474,1.466,1.466,0,0,0-.217-.572,1.186,1.186,0,0,1,.123-1.583,5.491,5.491,0,0,0,.5-.926,6.691,6.691,0,0,1-1.225-3.72l.314.09c.107-.36.2-.715-.12-.968a.723.723,0,0,1-.22-.806,2.912,2.912,0,0,0-.065-1.5,4.9,4.9,0,0,1-.1-1.509,23.3,23.3,0,0,0-.018-2.9,12.689,12.689,0,0,0-.08-2.741,3.682,3.682,0,0,0,.054-1.987,9.07,9.07,0,0,1,.06-2.765.518.518,0,0,0-.005-.254,10.647,10.647,0,0,1,0-4.163,1.424,1.424,0,0,0-.1-.857,3.111,3.111,0,0,1-.159-1.525,3.046,3.046,0,0,0,.041-1.644,2.174,2.174,0,0,1,.4-1.9C1064.024,479.139,1064.016,479.251,1064,479.363Zm45.576-78.017c.005.011.066,0,.1,0l-.187-.252-.159.1.17-.063C1109.53,401.2,1109.549,401.274,1109.58,401.346Zm-89.419-39.989-.256-.044c.027.329.056.66.084.991.085.406.355.266.579.177a1.988,1.988,0,0,0-.074-.413l-.526.274c-.025-.339-.048-.677-.073-1.016Zm1.1,45.268a.757.757,0,0,0,.212-.077c-.026-.06-.04-.159-.08-.171a.286.286,0,0,0-.219.037c-.058.039-.081.126-.12.193l-.59-.275c.24.538.24.538.564.245A.875.875,0,0,0,1021.266,406.625ZM1240.083,382.9a.247.247,0,0,0,.213.009c.036-.021.048-.141.022-.193a.236.236,0,0,0-.172-.124,1.523,1.523,0,0,0-.331.1,2.27,2.27,0,0,0,.068-.344c0-.042-.065-.087-.1-.131a.928.928,0,0,0,0,.1c.012.115.028.228.043.343A1.066,1.066,0,0,0,1240.083,382.9Zm-69.954-3.122c-.041.031,0,.2.042.29.016.036.15.059.2.032s.048-.127.053-.2a1.89,1.89,0,0,0-.01-.232l.769.125c-.135-.479-.445-.2-.726-.082A.77.77,0,0,0,1170.13,379.774Zm-150.174-15.665c.049.312.1.623.173,1.084.243-.567.4-.975.592-1.371.161-.343-.072-.54-.243-.766l-.432.105.039.088.4-.191C1020.159,363.332,1020.423,363.9,1019.956,364.109Zm129.784,51.683a2.9,2.9,0,0,0-.165-1.554,1.883,1.883,0,0,1-.068-.854,6.71,6.71,0,0,0,.014-1.384c-.021-.713-.123-1.445.642-1.99-.157-.3-.308-.592-.465-.883a3.192,3.192,0,0,1-.24-.436.651.651,0,0,1,.355-.85,1.92,1.92,0,0,1,1.484-.051c-.481-.52-.908-.344-1.292-.393-.355-.046-.761.226-1.061-.106-.034-.359.226-.331.407-.409s.367-.195.526-.281c.01-.131.056-.244.017-.286a2.018,2.018,0,0,1-.526-1.489,2.6,2.6,0,0,0-.254-1.21,6.917,6.917,0,0,1-.089-1.911,4.257,4.257,0,0,0,.22-.72c.089-.708.161-1.418.2-2.129a1.168,1.168,0,0,0-.2-.6.62.62,0,0,1-.024-.606c.2-.466-.009-.962.117-1.437.028-.1-.057-.24-.1-.356a3.065,3.065,0,0,1-.01-2.968c-.112-.13-.292-.245-.3-.375a5.658,5.658,0,0,1,.052-2.408,2.836,2.836,0,0,0,.019-1.509c-.062-.334-.158-.661-.236-.992a18.094,18.094,0,0,1-.473-4.2c-1.156-.038-2.278-.108-3.4-.1a3.9,3.9,0,0,1-2.1-.345,1.567,1.567,0,0,0-.608-.1c-.621-.061-1.267.263-1.871-.126-.056-.036-.17-.008-.248.018a2.9,2.9,0,0,1-2.221-.209,1.1,1.1,0,0,0-.863-.023,1.832,1.832,0,0,1-2.032.049.478.478,0,0,0-.369-.043,10.721,10.721,0,0,1-3.268.161c-.539.028-1.078.08-1.616.107a5.139,5.139,0,0,1-1.726-.169c-.258-.076-.69.066-.8-.076-.337-.447-.505.064-.744.053a5.509,5.509,0,0,1-.6-.08c-.1-.016-.278-.076-.28-.069-.163.487-.534.286-.852.268a29.614,29.614,0,0,0-3.063-.145,22.854,22.854,0,0,1-3.378-.014c-1.217-.123-2.429-.056-3.644-.062a.7.7,0,0,1-.374-.065c-.505-.342-1.072-.192-1.615-.228-.372-.023-.743-.039-1.195-.062-.027.2-.054.394-.088.64a1.57,1.57,0,0,1-.314.039c-.579-.034-.752.071-.7.561.036.354.106.674-.3.945.283.854.583,1.724.857,2.6a6.072,6.072,0,0,1-.125,2.841c-.062.2-.219.423-.171.588a5.874,5.874,0,0,1,.031,2.231,3.415,3.415,0,0,0,.147,1.378c.188.557-.314,1.039-.078,1.574,0,0-.141.073-.216.112-.274.143-.185.362-.071.531a3.154,3.154,0,0,0,.459.447l-.385.551a2.107,2.107,0,0,1,.342.616,2.665,2.665,0,0,1-.1.741c-.026.2-.037.407-.055.61-.208.179-.292.357,0,.534-.3.313.1.631-.017,1.007l-.441-.138c-.01.067-.052.158-.024.192.316.394.748.746.315,1.327-.042.057.066.22.1.336.091.351.178.7.267,1.055-.5.322.047.578.08.857.053.445-.4.5-.5.815l.329.346c-.124.372-.738.745-.005,1.122a.986.986,0,0,1-.4,1.321c.235.832.644,1.621-.03,2.407l.519.271-.386.447a9.259,9.259,0,0,1,.321,2.087c-.033.245.071.549-.04.735a2.292,2.292,0,0,0,.015,1.944c.118.426.266.824-.195,1.145-.053.038-.07.148-.077.228-.039.4.6.572.358,1.02-.228.432.106.716.273,1a.8.8,0,0,1,.025.79,1.958,1.958,0,0,0,0,1.433,5.654,5.654,0,0,1,.241,1.371c.192,0,.4.015.6,0a5.234,5.234,0,0,1,1.014-.1,2.317,2.317,0,0,0,1.595-.295.8.8,0,0,1,.833.037c.2.17,0,.313,0,.462,0,.093.108.2.194.269a.293.293,0,0,0,.248.024c1.529-.651,3.089-.2,4.634-.123a9.429,9.429,0,0,0,2.285-.126,2.831,2.831,0,0,1,1.62.135c.15.054.357.17.454.113.826-.48,1.773-.039,2.618-.363.139-.054.332.022.5.047a8.592,8.592,0,0,0,1,.147c.881.025,1.764.026,2.645.017.4,0,.4-.023.808.308l1.914-.545c.412.354.752.647,1.094.933.023.019.082-.006.172-.015V423.2c.647.134,1.233-.246,1.862-.059.068.02.109.127.208.249l.692-.52c.5.185,1.054-.078,1.588.217.171.095.488-.375.856-.033a1.248,1.248,0,0,0,.832.121c.335-.025.66-.167,1-.206.292-.034.673.123.875-.013.447-.3.83.553,1.224,0,.459.019.92.024,1.378.061s.925.112,1.388.159a1.338,1.338,0,0,0,.624.007c.344-.155.519.293.61.234.195-.123.291-.392.6-.375.065,0,.136-.08.213-.128.068-.566-.3-1.157.068-1.714.036.071.054.17.112.209a.8.8,0,0,0,.395.182c.183,0,0-.231-.3-.307-.077-.02-.157-.032-.237-.048-.07-.148-.139-.3-.218-.465l.81-.357-.415-.6.534-.415-.476-1.23a4,4,0,0,0,.209-.978.99.99,0,0,1,.591-1c-.071.1-.145.2-.208.3-.016.028,0,.079.007.12.056-.021.155-.032.162-.064a2.2,2.2,0,0,0,.026-.359A1.094,1.094,0,0,1,1149.74,415.792Zm-47.935,54.8-.87-.118.572-.723c-.734,0-1.322-.022-1.909.006-.625.03-1.248.115-1.873.156a1.146,1.146,0,0,1-.479-.1c-.391-.157-.773-.336-1.23-.538-.073.255-.126.446-.179.633a1.126,1.126,0,0,1-.956-.227.522.522,0,0,0-.7.068.808.808,0,0,1-.935.235c-1.187-.47-2.476-.357-3.686-.715a4.327,4.327,0,0,0-1.617.082c-.413.048-.819.156-1.229.238-.359-.394-.694.056-1.043.031-.084-.006-.192.048-.252.012-.767-.464-1.636.063-2.433-.259-.191-.077-.52.187-.865.327a2.809,2.809,0,0,1-.621-.233,1.251,1.251,0,0,0-1.1-.059,3.537,3.537,0,0,1-2.781-.17,3.105,3.105,0,0,1-1.743.406,7.3,7.3,0,0,0-1.737.345c-.5.1-1,.16-1.5.253-.457.084-.816-.408-1.347-.139a3.167,3.167,0,0,1-1.253.117c-.459.015-.919,0-1.387,0-.068.461.1.942-.452,1.126a.362.362,0,0,0-.166.313c.156.435-.092.846-.047,1.258a13.758,13.758,0,0,1-.139,2.242,10.353,10.353,0,0,0,0,1.78,2.961,2.961,0,0,1-.01,1.754.757.757,0,0,0,.048.493,2.42,2.42,0,0,1-.172,1.864,1.279,1.279,0,0,0,.075,1.423,1.083,1.083,0,0,1,.03,1.207,1.5,1.5,0,0,0-.069,1.355c.244.583-.013,1.171.054,1.76.081.71.015,1.435.048,2.152a4.013,4.013,0,0,1-.217,2.3c-.13.233.293.521-.071.81-.293.234,0,.57.078.819a7.925,7.925,0,0,1,.132,2.524c-.021,1.531-.024,3.064-.079,4.6a4.642,4.642,0,0,1-.132,1.584,1.008,1.008,0,0,0-.03.628c.263.8-.071,1.6.036,2.407.036.273-.113.615-.552.487-.041-.011-.1-.049-.12-.035a.384.384,0,0,0-.17.529c.037.064.282.01.506.01v2.169l.771-.3a1.141,1.141,0,0,1,.209.281c.3.868.409.965,1.237.923.333-.016.66-.12.992-.142a.944.944,0,0,1,.594.1.375.375,0,0,0,.546.028.493.493,0,0,1,.332-.124,11.406,11.406,0,0,0,4.4.1c.567-.091,1.129.2,1.749.066a2.518,2.518,0,0,1,1.722.324,1.082,1.082,0,0,0,1.087-.119,1.242,1.242,0,0,1,1.424-.038,1.156,1.156,0,0,0,1.323-.035.54.54,0,0,1,.368-.08,21.1,21.1,0,0,0,4.169-.027c.254-.005.508.043.763.058.127.007.317-.061.373,0,.32.355.8,0,1.137.3.3.258.429-.106.671-.264l.845.261c.2-.127.353-.31.514-.315a8.744,8.744,0,0,1,1.4.081,11.29,11.29,0,0,0,3.3.022,6.756,6.756,0,0,1,1.748.107c1.246.138,2.5.026,3.745.08.168.007.381-.086.5-.013.785.483,1.664.184,2.533.3l.211.83.082-.007c0-.183-.078-.45.014-.536.405-.382.156-.685-.189-1.047l1.311-.371a3.658,3.658,0,0,0,.292-2.326,6.085,6.085,0,0,1-.005-1.843,10.824,10.824,0,0,0,.045-3.917c-.141-.663.272-1.221.077-1.874a2.606,2.606,0,0,1,.268-1.857,1.114,1.114,0,0,0-.057-1.1,1.429,1.429,0,0,1-.005-1.657.836.836,0,0,0,.092-.616,2.233,2.233,0,0,1-.155-1.466,4.724,4.724,0,0,0-.029-1.508c-.019-.379-.056-.757-.078-1.135s-.058-.766-.046-1.148a2.479,2.479,0,0,1,.148-1.117c.207-.349-.2-.788.235-1.053.038-.023-.007-.225-.049-.328-.207-.5-.211-.495.069-1,0-.293-.452-.315-.381-.7a11.324,11.324,0,0,0,.18-1.777c.021-.893-.03-1.788-.028-2.683a12.884,12.884,0,0,1,.083-1.884c.062-.413-.124-.828.076-1.228.231-.465-.108-.912-.068-1.377.036-.422.037-.847.054-1.27a1.292,1.292,0,0,1,.028-.5,6.248,6.248,0,0,0,.246-2.6c-.257-.3-.5-.016-.736-.039l-.5-.916c-.376.214-.694.394-1.014.574-.538-.319-.632.533-1.173.423a3.727,3.727,0,0,0-1.323.213c-.023,0-.034.075-.049.115l.022.022C1102.855,469.952,1102.555,469.934,1101.8,470.59Zm-82.95-65.631c-.323-.3.277-.768-.265-1.026-.158-.074-.257-.417-.264-.639a5.668,5.668,0,0,1,.079-1.669,14.919,14.919,0,0,0,.357-2.63c.008-.083.043-.2,0-.245-.476-.569-.066-1.219-.165-1.826-.068-.425.236-.913-.248-1.262-.036-.864-.453-1.752.159-2.58a.279.279,0,0,0,.024-.207c-.485-.209-.276-.656-.328-1a7.223,7.223,0,0,1-.022-1.143,1.121,1.121,0,0,1,.06-.494,2.292,2.292,0,0,0,.033-1.736,24.119,24.119,0,0,1-.5-2.463c-.118-.87-.139-1.755-.2-2.648-1.116-.032-2.25-.093-3.386-.088a3.615,3.615,0,0,1-2.1-.366,1.107,1.107,0,0,0-.485-.083c-.661-.052-1.345.267-2-.123-.083-.051-.255.009-.372.054a2.5,2.5,0,0,1-1.864-.144,1.473,1.473,0,0,0-1.446.039,1.207,1.207,0,0,1-1.318.033,1.013,1.013,0,0,0-.723-.152,5.45,5.45,0,0,1-2.017.143c-1.017-.02-2.029.082-3.043.086a3.79,3.79,0,0,1-1.474-.167c-.335-.144-.631.226-.837-.025-.305-.37-.5-.011-.752.014a2.939,2.939,0,0,1-.886-.188c-.082.412-.376.359-.685.336a29.939,29.939,0,0,0-3.191-.172c-1.134.043-2.263.033-3.394-.025-.2-.01-.394-.036-.592-.048a6.7,6.7,0,0,0-.878-.039,10.155,10.155,0,0,1-3.134-.206,8.612,8.612,0,0,0-2.065-.016c-.3.324.029.45.042.708l-1.034.612a6.22,6.22,0,0,1,.106,1.251,4.99,4.99,0,0,1-.38,1.472,6.355,6.355,0,0,0-.408,4.474,6.228,6.228,0,0,1,.22,1.637c.024,3.289.021,6.58.019,9.87a6.1,6.1,0,0,1-.2,1.643,5.222,5.222,0,0,0-.209,2.651,5.514,5.514,0,0,1-.026,1.509,2.626,2.626,0,0,0,.392,1.83c.109.146.073.391.148.572.117.284-.027.366-.256.456-.074.03-.094.2-.138.3.465.15-.045.853.537.947.067.01.179.124.168.161-.194.658.416,1.09.469,1.684a2.049,2.049,0,0,0,.324.819.992.992,0,0,1,.148,1.071.355.355,0,0,0,.052.333c.434.275.189.643.232.991.046.374.113.594-.209.87a.717.717,0,0,0-.11.682,3.347,3.347,0,0,1,.162,1.842l-.469.161c.032.062.047.145.1.18.6.417.6.416.959,1.33a4.047,4.047,0,0,0,.962-.014,1.281,1.281,0,0,1,1.283.37l-.684-.089c0,.03-.006.06-.008.091h.686a.327.327,0,0,1,.364-.4,2.955,2.955,0,0,1,.664.185c-.035.2-.069.389-.118.66.148.031.343.139.443.081a4.374,4.374,0,0,1,2.62-.271,10.253,10.253,0,0,1,2.272.217c.365.108.814-.11,1.219-.084.366.025.724.2,1.023-.156a2.926,2.926,0,0,1,1.728.358,3.2,3.2,0,0,1,1.731-.295,2.219,2.219,0,0,0,.752-.063,1.646,1.646,0,0,1,.5-.066,16.466,16.466,0,0,0,4.035.215,1.177,1.177,0,0,1,.569.2c.146.088.26.234.427.073.446-.424,1.064-.231,1.57-.514l1.244,1.032c.057-.206.1-.353.161-.573a2.536,2.536,0,0,0,.944-.125c.477-.27.793-.025,1.18.246.269-.517.718-.5,1.194-.5.493,0,.994.425,1.481-.01.615.462,1.258.2,1.924.157.583-.037,1.24-.36,1.81.111.467-.373.986-.047,1.476-.107a3.324,3.324,0,0,1,1.764.15c.417.183.944-.319,1.279.234.058-.042.113-.087.173-.125.205-.132.412-.262.589-.375v-2.188l.622-.324c-.135-.205-.239-.367-.34-.523.018-.286.7-.377.22-.794l.192.031-.212-.1c-.022-.205-.039-.412-.07-.615-.022-.156-.145-.376-.082-.45.341-.409.081-.9.164-1.341l.647.13c-.136-.542-.624-.627-.791-.848a15.61,15.61,0,0,0-.313-1.78c-.178-.606.209-1.185.051-1.739-.171-.6.078-1.17-.051-1.844l.669-.462-.57-.235c.059-.163.187-.339.159-.485-.035-.191-.232-.346-.295-.538a.7.7,0,0,1,.461-1.017,2.217,2.217,0,0,1,.613-.147,6.3,6.3,0,0,1,.857.089c-.93-.594-1.7-.187-2.435-.366-.107-.717.776-.392.88-.985-.1-.18-.254-.464-.409-.747.045-.066.079-.177.135-.19.372-.083.75-.142,1.125-.211.02.068.04.136.059.2a.527.527,0,0,0-.026-.086.623.623,0,0,0-.062-.083C1019.629,405.173,1019.222,405.06,1018.855,404.959Zm43.082-22.253c.027-.046-.016-.132-.028-.2-.08.046-.22.08-.231.138a2.241,2.241,0,0,0,0,.471c-.2.031-.405.056-.61.08l-.211-.543c-.331-.266-.587.506-.9.008a5,5,0,0,0-.845.106,2.419,2.419,0,0,1-1.224.064,8.774,8.774,0,0,0-3.362.225c-.165.03-.351.173-.481.129-1.145-.395-2.356.205-3.5-.252-.191-.075-.437.273-.735.023-.251-.209-.449.133-.678.205a1.267,1.267,0,0,1-1.22-.414c-.318.259.168.819-.468.974-.069-.153-.131-.3-.2-.441s-.157-.292-.245-.453a1.082,1.082,0,0,0-.39.037,3.145,3.145,0,0,1-1.653.4,1.2,1.2,0,0,0-1.091.365c-.2.238-.3-.22-.351-.164-.3.338-.691.06-1.035.177-.255.087-.625-.249-.95-.262-.924-.039-1.851-.013-2.776,0-.123,0-.254.107-.366.085a13.6,13.6,0,0,0-3.275.241,3.56,3.56,0,0,0-.376.069c-.572.09-1.088-.293-1.709-.112a7.142,7.142,0,0,1-1.775.086,1.168,1.168,0,0,1-.5-.019,3.36,3.36,0,0,0-2.249.012,20.824,20.824,0,0,1-3.752.575,4.169,4.169,0,0,0-.6.087,1.342,1.342,0,0,0-.384.955,14.749,14.749,0,0,0-.1,1.64,17.6,17.6,0,0,1-.465,4.4c-.049.286-.127.566-.172.852s-.192.66-.068.842c.509.747.065,1.324-.225,1.944a.656.656,0,0,0-.032.124,1.835,1.835,0,0,0,.248.578c.488.509.291,1.184.443,1.769a2,2,0,0,1-.275,1.088,1.337,1.337,0,0,0-.016,1.307c.236.415.144.945-.078,2.034l-1.115.224c.129.4.512.453.765.7a1.4,1.4,0,0,1,.065.316c.008.714-.036.756-.731.9a1.98,1.98,0,0,0-.43.2c-.141.368-.141.368.281.521.04.415.33.417.725.381-.071.3-.126.57-.2.838-.105.375.372.4.4.711l-.561.485a1.212,1.212,0,0,0,.852.5.344.344,0,0,1,.26.168c.049.181-.043.313-.241.371a1.414,1.414,0,0,0-.3.164c-.114.38.575.415.292.875-.11.182.329.542-.122.733.361.479-.187.971.062,1.521.178.392-.222.957.113,1.449a.906.906,0,0,1,.022.621,2.756,2.756,0,0,0,.43,1.76c.116.25.221.437.112.682-.133.292-.453.6-.407.849.066.342-.184.535-.224.861l.6.194c.22.349-.333.588-.105.982a3.679,3.679,0,0,1,.187.927c.093.367-.151.534-.456.689l.493.685-.284.646.552.372c-.037.158-.152.377-.09.455a1,1,0,0,0,.513.3,1.376,1.376,0,0,0,.636.027c1.392-.328,2.8.205,4.187-.081.544.257,1.06-.069,1.591-.078q.826-.014,1.653.021a13.418,13.418,0,0,1,2.165.155c.707.149,1.442-.164,2.12.193a.258.258,0,0,0,.232-.044,1.387,1.387,0,0,1,1.093-.241c1.1.009,2.206.045,3.31.059.848.01,1.7,0,2.543,0,.315,0,.628.066.942.062a3.8,3.8,0,0,0,.858-.1c.449-.109.7.171.971.436.528-.631,1.276-.323,1.947-.544l.8.968c.314-.233.558-.427.815-.6.284-.194.7.049.951-.278.023-.03.095-.065.106-.055.6.546,1.16-.089,1.76-.088l.928.851.428-.8a2.163,2.163,0,0,0,1.961.2,2.937,2.937,0,0,1,1.511-.017,4.268,4.268,0,0,0,2.372-.045.828.828,0,0,1,.724.063,1.972,1.972,0,0,0,.844.2.642.642,0,0,0,.74-.691c.017-.933.023-1.867-.016-2.8a3.617,3.617,0,0,1,.128-1.98.768.768,0,0,0-.144-.839.866.866,0,0,1-.219-.57c.121-1.233-.086-2.463-.02-3.7a1.285,1.285,0,0,1,.467-.972c.036-.34-.563-.218-.428-.657a6.356,6.356,0,0,0,.059-.881.333.333,0,0,1,.276-.181c.091.022.15.176.215.265a.969.969,0,0,0-.123-1.063,3.234,3.234,0,0,1-.383-1.7q.077-3.9.137-7.8c.01-.639-.01-1.277,0-1.915a3.422,3.422,0,0,1,.064-1.146c.512-1.32.183-2.687.3-4.028a7.17,7.17,0,0,0-.021-2.661c-.054-.186.059-.418.082-.63a4.21,4.21,0,0,0-.085-1.894,3.069,3.069,0,0,1-.015-1,4.425,4.425,0,0,0-.32-2.348,3.187,3.187,0,0,1-.209-.825l-.758-.2A3.71,3.71,0,0,0,1061.937,382.706Zm45.475,32.63c.036-.267.394-.491.6-.734.089.055.176.113.269.162.007,0,.045-.048.068-.074l-.364-.058a1.2,1.2,0,0,0-.211-.26c-.524-.339-.527-.334-.128-.983l-.417-.659a1.03,1.03,0,0,0,.153-1.335.677.677,0,0,1-.054-.492,3.821,3.821,0,0,0-.143-2.112c-.261-.825.154-1.573.173-2.392l.937-.1c-.052-.235-.263-.129-.4-.187a.692.692,0,0,1-.5-.725,5.463,5.463,0,0,1,.1-2.158c.06-.176-.043-.408-.077-.658l.625-.42-.592-.6,1.008-.315c.115-.261.007-.493-.286-.457a2.844,2.844,0,0,0-.47.149c-.155-.467.016-.885-.186-1.3-.142-.289.128-.759.032-1.1-.14-.493.173-.812.284-1.25a1.805,1.805,0,0,1-.276-.19c-.382-.373-.114-.907-.327-1.336-.128-.257.069-.482.251-.671l.139-.132c-.037.052-.076.1-.112.156a2.343,2.343,0,0,1-.216-.56c-.058-.457-.033-.927-.119-1.378-.063-.336.483-.467.2-.876a1.88,1.88,0,0,1-.135-.842.256.256,0,0,1,.115-.195c.411-.243.138-.474,0-.708a.961.961,0,0,0,.941.047.7.7,0,0,0-.869-.1c-.077-.878-.077-.878.488-1.66-.516.036-.388-.015-.6-.574-.183-.488-.136-.506.3-.459.044.005.135-.1.144-.164a.359.359,0,0,0-.077-.211c-.543.118-.462-.494-.768-.664a.525.525,0,0,1-.17-.438c.046-.361.264-.71.021-1.076.229-1.46.229-1.46-.4-2.316a2.942,2.942,0,0,1,.336-.07,2.647,2.647,0,0,1,.34.018c-.085-.129-.117-.24-.173-.253a2.441,2.441,0,0,0-1.97.163,4.036,4.036,0,0,1-2.374.246,27.55,27.55,0,0,0-4.019-.077c-.928.082-1.873-.038-2.81-.049-1.23-.013-2.46.031-3.688-.021-2.237-.1-4.477.07-6.707-.026-1.988-.085-3.983.083-5.965-.173a4.634,4.634,0,0,0-.9-.008,32.231,32.231,0,0,1-4.958-.107c-.927-.082-1.863-.033-2.794-.074-.416-.019-.829-.113-1.286-.179.021.211.037.4.059.633l-1.119.321a2.515,2.515,0,0,0-.378,1.55c.049.753.082,1.509.074,2.263a10.687,10.687,0,0,1-.145,1.745,5.269,5.269,0,0,0,.042,2.394c.153.537-.158,1.012-.11,1.5a4.357,4.357,0,0,1,.094,1.513,1.362,1.362,0,0,1-.093.371,1.568,1.568,0,0,0,.037,1.892.91.91,0,0,1-.032.973,1.433,1.433,0,0,0-.1,1.353c.271.583-.008,1.17.066,1.762a23.841,23.841,0,0,1,.069,2.539,3.2,3.2,0,0,1-.231,1.925c.274.454-.207.9.033,1.415a3.38,3.38,0,0,1,.153,1.6,49.661,49.661,0,0,0-.1,5.875,3.269,3.269,0,0,1-.151,1.5.776.776,0,0,0-.048.5,8.8,8.8,0,0,1,.07,2.4,2.441,2.441,0,0,0,.389,1.552,1.227,1.227,0,0,1,.247.829,2.532,2.532,0,0,0,.316,1.513,2.193,2.193,0,0,0,.614.076c1.053-.17,2.109.123,3.163-.03a1.232,1.232,0,0,1,.623.111,11.547,11.547,0,0,0,4.138.446c.935.042,1.872.071,2.808.054,2.084-.035,4.166-.111,6.25-.151.614-.011,1.236-.328,1.847.033a.286.286,0,0,0,.244,0,4.244,4.244,0,0,1,2.576-.15,5.42,5.42,0,0,0,.889-.047,3.411,3.411,0,0,1,1.853-.051.718.718,0,0,0,.5-.066c.613-.27.877.164,1.213.6a2.821,2.821,0,0,1,2.6-.447.855.855,0,0,0,.5.018,4.992,4.992,0,0,1,2.928.133,2.517,2.517,0,0,0,1.733-.1,2.228,2.228,0,0,1,2.3.316,3.1,3.1,0,0,0,2.67.439c.02-.109.063-.2.043-.265a2.369,2.369,0,0,1-.078-1.824c.109-.228-.042-.608-.138-.9a3.591,3.591,0,0,0-.4-.766.539.539,0,0,1,.146-.784c-.031.219.072.292.273.246.035-.008.063-.052.094-.079-.092-.053-.182-.112-.278-.155-.031-.013-.08.013-.12.021A7.117,7.117,0,0,1,1107.412,415.336Zm-84.52-65.946a3.105,3.105,0,0,1,.253,1.49,8.156,8.156,0,0,1-.235,3.115.757.757,0,0,0,.035.363,4.422,4.422,0,0,1,.231,1.37,5.178,5.178,0,0,0,.137,1.34,3.145,3.145,0,0,1-.5,2.261c.1.395.584.61.337,1.059a4.7,4.7,0,0,1,.335,3.431,2.155,2.155,0,0,0,.027.877,6.763,6.763,0,0,1,0,2.517,3.83,3.83,0,0,0,.176,1.6,8.616,8.616,0,0,1,.066,2.77c.016.538-.047,1.078-.059,1.617a4.163,4.163,0,0,1-.2,1.868.78.78,0,0,0-.033.613,6.743,6.743,0,0,1,.355,2.109,3,3,0,0,0,.364.152,4.037,4.037,0,0,1,1.52.547.886.886,0,0,0,.718.128,3.253,3.253,0,0,1,1.756,0,3.488,3.488,0,0,0,1.616.034,4.351,4.351,0,0,1,1.379-.034,8.39,8.39,0,0,0,1.763.13,8.466,8.466,0,0,1,1.619-.067c.929.021,1.86-.075,2.792-.121a2.424,2.424,0,0,1,.874-.024,5.132,5.132,0,0,0,2.022.115c.254-.01.509-.066.762-.056.672.031,1.343.123,2.014.123.634,0,1.267-.087,1.9-.133a5.393,5.393,0,0,1,1.208.158c.248.038.322.463.613.239.31-.238.441.114.656.178.385.113.474.051.613-.5a1.369,1.369,0,0,1,.1-.2,3.913,3.913,0,0,1,1.429.079,1.339,1.339,0,0,0,.87.115c.925-.346,1.849.054,2.771-.068a5.553,5.553,0,0,1,1.358.18,6.806,6.806,0,0,1,.787-.363,2.384,2.384,0,0,1,.977-.194,3.3,3.3,0,0,1,.919.412c.625-.141,1.21-.551,1.913-.4.325-.335.624.179.933.031a.661.661,0,0,1,.817.122.339.339,0,0,0,.33-.042c.319-.374.8.057,1.076-.2.293-.273.621-.153.936-.235a1.526,1.526,0,0,0,.168-1.228,5.107,5.107,0,0,1-.019-1.772,4.314,4.314,0,0,0,.016-1.53,20.655,20.655,0,0,0-.121-2.24,6.923,6.923,0,0,1,.015-2.146c.04-.768.084-1.538.188-2.3a8.578,8.578,0,0,1,.1-1.639c.1-.3-.211-.709-.226-1.072-.033-.8-.009-1.611.013-2.416.035-1.232.08-2.461.062-3.7a15.563,15.563,0,0,0-.075-1.69,1.006,1.006,0,0,1,.474-1c-.61-.511-.349-1.259-.578-1.912l.834-.726c.167-.625-.6-.525-.51-1.052a.918.918,0,0,0-.338-.989c.13-.179.255-.348.377-.514-.528-1.112-.528-1.112.229-1.989l-.571-.605a2.292,2.292,0,0,0,.177-2,8.023,8.023,0,0,1-.181-1.976l.312.2a4.374,4.374,0,0,0-.246-2.2,9.663,9.663,0,0,0,.332-1.362c.049-.559-.17-.769-.72-.822-.253-.025-.508-.04-.761-.043a2.969,2.969,0,0,1-1.35-.1c-.422-.2-.919.206-1.348-.115-1.168.149-2.316-.235-3.484-.13-.382.034-.772,0-1.146.072a1.761,1.761,0,0,1-1.239-.031.779.779,0,0,0-.5,0,4.424,4.424,0,0,1-1.9-.091,1.564,1.564,0,0,0-.747-.05c-1.251.435-2.521.031-3.78.119-1.693.118-3.4.057-5.1.073-.255,0-.511.01-.766,0a16.064,16.064,0,0,0-3.406.047,5.773,5.773,0,0,1-1.37-.1,4.861,4.861,0,0,0-1.017-.021,8.529,8.529,0,0,1-3.262-.156c-.08-.019-.184-.053-.246-.021a5.051,5.051,0,0,1-2.7.12c-.3-.012-.549-.1-.826.086a1.127,1.127,0,0,1-1.1.137c-.4-.173-.793.037-1.2-.028-.34-.053-.723.186-1.092.276a6.805,6.805,0,0,1-.869.151.678.678,0,0,1-.337-.092c-.532-.255-.531-.257-.966.214.214,1.05.447,2.116.643,3.188a2.081,2.081,0,0,1,.043,1.129c-.268.573.054,1.16-.2,1.723s.083,1.151.13,1.728a.869.869,0,0,1-.3.667c.016-.1.031-.2.045-.294-.021.015-.058.033-.057.044a2.189,2.189,0,0,0,.041.219C1022.832,348.431,1023.25,348.876,1022.893,349.391Zm161.944,33.06a.367.367,0,0,0-.073-.055.87.87,0,0,0-.117-.032c-.473.138-.911.5-1.43.152a3.393,3.393,0,0,1-1.61.269,7.8,7.8,0,0,1-2.986-.234.742.742,0,0,0-.362.033,3.029,3.029,0,0,0-.983.223c-.372.224-.691-.206-1.074.041-.249.162-.647.1-.977.131a2.852,2.852,0,0,1-2-.542c-.334.164-.5.568-.926.37a.422.422,0,0,0-.349.109,1.83,1.83,0,0,1-1.437.36,18.087,18.087,0,0,0-3.642.006,2.394,2.394,0,0,1-.38.046c-.532-.014-1.017-.328-1.6-.123a5.744,5.744,0,0,1-1.6.263,9.906,9.906,0,0,1-2.025-.04,14.371,14.371,0,0,0-2.622-.06c-.084,0-.193.072-.247.039-1.037-.619-2.048-.042-3.069.052-.166.015-.335,0-.542,0-.076.286-.158.569-.226.854-.04.16,0,.374-.1.482a1.75,1.75,0,0,0-.334,1.9c.088.246-.068.576-.1.869a3.462,3.462,0,0,0-.062,1.85c.167.41-.217.882-.006,1.332-.411.461.106,1.071-.264,1.569a.884.884,0,0,0,.011.726,1.961,1.961,0,0,1-.251,1.881,1.93,1.93,0,0,0-.1.282,7.843,7.843,0,0,1,.561.957c.144.338-.051.723.174,1.1.2.334-.065.728-.2,1.093-.187.519-.506.98-.058,1.626.361.519.006,1.23-.128,1.926l-1.122.295c.251.238.415.42.6.567a.76.76,0,0,1,.19.914.573.573,0,0,1-.589.4c-.253,0-.506.055-.759.085l.089.311c.01.036.025.073.037.11.007-.046.03-.1.016-.138a2.969,2.969,0,0,0-.128-.293,4.931,4.931,0,0,0,.683.142c.415.028.545.263.529.634a1.766,1.766,0,0,0-.358-.1.248.248,0,0,0-.2.108.228.228,0,0,0,.047.217.253.253,0,0,0,.223-.021,2.23,2.23,0,0,0,.286-.241c-.023.255.036.558-.084.753-.3.483-.118.787.394,1.03l-.736.607,1.232.646-.58.586c-.04.3.514.347.28.763-.112.2.28.505-.107.777-.158.111.377.462,0,.747-.318.24.1.449.073.662a6.039,6.039,0,0,0,.116,1.966c.075.342-.3.673.031.966.267.238.074.672.211.8.551.522.339.91,0,1.424a3.641,3.641,0,0,0-.3,1.155l.636.247a3.1,3.1,0,0,1-.153.484c-.086.171-.217.258-.028.508a1.611,1.611,0,0,1,.194.946c0,.21-.185.417-.347.745.058.081.2.273.386.545-.071.167-.168.39-.264.615.5.394.5.394.494,1.014a1.918,1.918,0,0,0,1.338.141,5.291,5.291,0,0,1,1.645-.013,8.758,8.758,0,0,0,1.787.008,16.487,16.487,0,0,0,2.1-.106,8.363,8.363,0,0,1,2.025.01c.724.037,1.447.119,2.17.177a17.609,17.609,0,0,0,1.76.117c.409-.01.815-.22,1.224-.226,1.145-.016,2.293-.018,3.434.061a17.954,17.954,0,0,0,2.28,0c.383-.021.731.082,1.094.084a5.838,5.838,0,0,0,.989-.134c.316-.053.592-.044.758.3a.3.3,0,0,0,.272.049c.5-.561,1.23-.131,1.735-.48l.929.972a3.645,3.645,0,0,1,.711-.545c.26-.109.686,0,.832-.165.382-.438.558-.105.835.142.453-.069.809-.685,1.589-.15l.484.589.426-.773a9.924,9.924,0,0,1,1.068.282c.422.159.735-.157,1.1-.189.61-.052,1.222-.07,1.836-.1-.015.1-.027.174-.043.28a4.913,4.913,0,0,0,2.007-.194c.256-.126.471.015.715.113a2.827,2.827,0,0,0,.983.156.579.579,0,0,0,.607-.537,3.833,3.833,0,0,0,.049-.886c-.131-1.154.349-2.287.1-3.441a14.375,14.375,0,0,0,.1-4.418,18.692,18.692,0,0,1,.188-3.138,2.118,2.118,0,0,0,.043-.743c-.406-1.253-.036-2.521-.115-3.781-.1-1.609-.046-3.228-.042-4.843,0-.851.053-1.7.053-2.55,0-.5-.053-1.008-.085-1.512a4.632,4.632,0,0,1,.035-1.748,2.68,2.68,0,0,0,.024-1.139,8.712,8.712,0,0,1,.153-3.132,1.378,1.378,0,0,0-.059-.481,4.813,4.813,0,0,1-.072-1.85,2.378,2.378,0,0,0-.12-1.694,2.822,2.822,0,0,1-.058-1.588,3.031,3.031,0,0,0-.207-1.485,4.855,4.855,0,0,1-.2-.988.393.393,0,0,1,.133-.318c.26-.176.352-.365.134-.625a.67.67,0,0,0-.761-.289c-1.023.252-2.06.452-3.1.639a1.9,1.9,0,0,1-1-.009c-.6-.252-1.268.128-1.82-.284-.455.064-.915.1-1.363.2-.355.077-.559-.137-.8-.307ZM1107.4,428.08c-.046-.051-.127-.1-.141-.165a1.432,1.432,0,0,0-.91-1.107c-.582-.268-1.065-.634-1.72-.279a.432.432,0,0,1-.246.051c-1.681-.246-3.382.236-5.058-.147a1.812,1.812,0,0,0-.5-.011c-.882.054-1.764.154-2.646.155a3.758,3.758,0,0,1-1.225-.295,2.869,2.869,0,0,0-1.727-.243c-.344.083-.765-.155-1.152-.248-.333.411-.724.225-1.151.187-.664-.06-1.345.1-2.014.071a4.868,4.868,0,0,1-1.62-.112,2.11,2.11,0,0,0-1.223.12,3.285,3.285,0,0,1-1.623.085,8.072,8.072,0,0,0-1.653-.03,18.691,18.691,0,0,0-3.562.1,2.932,2.932,0,0,1-.892-.011,17.015,17.015,0,0,0-3.545.02,1.864,1.864,0,0,1-.637-.016,9.415,9.415,0,0,0-2.791-.108c-.085,0-.187.056-.251.024-1.043-.508-2.046.09-3.1.029-.033.4-.084.729-.083,1.057.008,1.105,0,2.212.065,3.315a9.878,9.878,0,0,1-.148,2.649,4.423,4.423,0,0,0-.036,1.524,3.32,3.32,0,0,1,0,2,.368.368,0,0,0,.021.249,2.676,2.676,0,0,1-.217,2.218,1.025,1.025,0,0,0,.08,1.09,1.276,1.276,0,0,1,.095,1.432,1.254,1.254,0,0,0-.12.852,7.974,7.974,0,0,1,.135,2.266c.051.758.032,1.52.059,2.281a3.109,3.109,0,0,1-.234,2.042c.261.549-.3,1.056-.035,1.646a5.868,5.868,0,0,1,.182,2.511c-.024,1.532-.023,3.066-.1,4.6a3.952,3.952,0,0,1-.109,1.586.942.942,0,0,0-.048.627,11.866,11.866,0,0,1,.048,2.406c.043.353-.156.679-.648.5-.039-.015-.167.075-.172.126a3.141,3.141,0,0,0,.021.464l.389-.094a1.926,1.926,0,0,1,.114,1.06c-.014.331,0,.662,0,.994a1.289,1.289,0,0,0,.74-.2c.092.174.178.351.278.52a1.833,1.833,0,0,0,1.431.923c.668.089,1.326.258,2.17.428a7.483,7.483,0,0,1,3.27-.623,11.848,11.848,0,0,1,1.493.246c.171.027.2-.016.353-.381a7.836,7.836,0,0,1,3.32.516.594.594,0,0,0,.7-.123c.356-.421.778-.266,1.178-.193.372.068.726.231,1.093.334.162.046.388.127.5.057.382-.252.7-.529,1.236-.352a6.549,6.549,0,0,0,1.365.205.715.715,0,0,0,.356-.1.591.591,0,0,1,.86.246c.211.3.394.281.558-.058.124-.257.27-.251.481-.294.369-.075.508.615,1.009.224.253-.2.718-.112,1.083-.179a.445.445,0,0,1,.526.229c.043.068.333.057.447-.017a1.274,1.274,0,0,1,1.523.183,2.211,2.211,0,0,0,1.527.337,5.933,5.933,0,0,1,2.392.092,2.81,2.81,0,0,0,1.5,0,3.869,3.869,0,0,1,1.757-.029,2.6,2.6,0,0,0,.876.059c.414-.061.807-.283,1.241-.044.082.045.246-.021.359-.068a6.256,6.256,0,0,1,3.324-.144c-.091-.3-.17-.56-.27-.887l1.184-.335a3.07,3.07,0,0,0,.25-2.322c-.187-.59.25-1.161-.03-1.731a10.838,10.838,0,0,0,.072-4.292,2.5,2.5,0,0,1,.042-.617,3.922,3.922,0,0,0,.053-.868,3.058,3.058,0,0,1,.183-1.752,1.429,1.429,0,0,0-.032-1.451,1.27,1.27,0,0,1,.024-1.425,1.01,1.01,0,0,0,.126-.737,2.191,2.191,0,0,1-.147-1.466,4.177,4.177,0,0,0-.021-1.381c-.033-.677-.111-1.356-.1-2.032a19.654,19.654,0,0,1,.2-2.358c.024-.163.313-.309.09-.516-.4-.377-.169-.683.081-1-.027-.284-.456-.316-.386-.7a11.4,11.4,0,0,0,.18-1.776c.019-.894-.023-1.789-.034-2.683a6.261,6.261,0,0,1,.019-.884,13.407,13.407,0,0,1,.24-2.6c-.307-.706-.025-1.435-.086-2.151-.011-.127-.078-.279-.031-.377.482-.993.09-2.09.573-3.382Zm130.581-32.364c.021-.764-.012-1.53,0-2.294.01-.668.033-1.338.081-2a7.129,7.129,0,0,1,.065-1.2,5.774,5.774,0,0,0-.049-1.262c0-.421.051-.843.07-1.266.008-.168-.077-.375-.006-.5.545-.952.049-2.006.459-3.128l-.98.36c-.115-.394-.231-.791-.355-1.212a3.477,3.477,0,0,0-1.834-.328c-.17.014-.325.085-.436-.124-.038-.071-.24.093-.26.23-.432.249-.872-.45-1.3.014a9.886,9.886,0,0,0-1.49-.148c-.43.026-.908-.129-1.376-.1a10.1,10.1,0,0,0-1.271.1,1.72,1.72,0,0,1-1.117-.045.924.924,0,0,0-.619-.017,2.5,2.5,0,0,1-1.866-.141,1.446,1.446,0,0,0-1.54.093,1.068,1.068,0,0,1-1.21-.018,1.442,1.442,0,0,0-1.226-.094,7.531,7.531,0,0,1-1.509.082c-1.021.036-2.041.074-3.061.1a2.858,2.858,0,0,1-1.6-.211c-.271-.158-.672.266-.9-.179-.31.072-.616.159-.928.212a11.586,11.586,0,0,1-2.913.014,9.459,9.459,0,0,0-2.675.013,2.426,2.426,0,0,1-.633-.013c-.213-.015-.423-.057-.636-.067-.191-.01-.405.193-.616-.15l.56-.528c-.158-.059-.231-.115-.291-.1a19.334,19.334,0,0,1-3.942.236,7.513,7.513,0,0,0-2.019,0c-.918-.438-1.666.117-2.45.43-.131.053-.217.22-.394.408l.836.237a1.282,1.282,0,0,0-.493,1.222,17.882,17.882,0,0,1-.157,4.5,4.423,4.423,0,0,0,.014,1.4,3,3,0,0,1,.019,1.873.747.747,0,0,0,.056.495,2.407,2.407,0,0,1-.017,1.389,3.041,3.041,0,0,0,.046,2,.927.927,0,0,1,.053.63c-.394,1.119-.082,2.258-.109,3.385-.034,1.4.075,2.8.083,4.205,0,.719-.088,1.438-.114,2.159-.01.29.047.582.061.873a6.376,6.376,0,0,1-.053,2.523,1.668,1.668,0,0,0-.007.885,7.458,7.458,0,0,1-.082,3.147,2.691,2.691,0,0,0,.069.733,4.84,4.84,0,0,1,.008,1.747,1.841,1.841,0,0,0,.118,1.475,1.115,1.115,0,0,1,.077.864c-.124.331.059.536.095.8a4.688,4.688,0,0,1-.123,1.47c-.033.17-.091.289.013.453a1.564,1.564,0,0,1-.141,1.626c.086.065.17.172.218.158a13.728,13.728,0,0,1,2.245-.1c1.107-.15,2.191.042,3.284-.01a14.515,14.515,0,0,1,1.644.114c.124.009.3.047.363-.017.392-.427.838-.2,1.3-.2,1.264,0,2.525.077,3.788.089a2.884,2.884,0,0,0,.637-.146l.985.542a1.879,1.879,0,0,1,1.654-.517c.46.5.9.335,1.455.094a8.148,8.148,0,0,1,1.757-.283c.317-.059.644.31.956-.031.016-.018.19.123.3.17.3.127.6.34.777-.177.034-.1.291-.179.441-.173.54.024,1.078.1,1.618.133a4.737,4.737,0,0,0,.893,0,5.821,5.821,0,0,1,1.359-.207,3.717,3.717,0,0,0,1.355.01c.353-.076.721.134.831.663a3.776,3.776,0,0,1,.993-.489,7.908,7.908,0,0,1,1.513-.007c.252.008.585.168.741.059a1.845,1.845,0,0,1,1.45-.117,7.5,7.5,0,0,1,1.352.2,2.242,2.242,0,0,0,1.849-.06,1.523,1.523,0,0,1,1.478-.03,1.018,1.018,0,0,0,1.085-.133c.387-.246.808-.438,1.309-.705.3-.31.143-.8.129-1.254a3.66,3.66,0,0,1-.021-1.379c.136-.412-.217-.9.086-1.331-.055-1.172.293-2.35-.045-3.518-.013-.041-.033-.08-.041-.122-.124-.621.319-1.186.057-1.876a2.262,2.262,0,0,1,.321-1.713,1.046,1.046,0,0,0-.072-1.1,1.261,1.261,0,0,1-.056-1.529,1.346,1.346,0,0,0,0-1.3,4.963,4.963,0,0,1-.069-1.629c-.018-.851-.006-1.7-.063-2.552a5.555,5.555,0,0,1,.153-1.747c.068-.264-.071-.689.073-.8.424-.336-.035-.511-.042-.751a.94.94,0,0,1,.141-.592c.38-.442-.292-.265-.3-.484C1237.9,397.326,1237.96,396.522,1237.983,395.716Zm-174.56-89.01a.335.335,0,0,0-.085-.227,2.315,2.315,0,0,1-.418-2.037c.062-.467.219-.909-.088-1.356a.742.742,0,0,1-.011-.479c.116-.656.125-1.319.3-1.977a2.243,2.243,0,0,0-.092-1.732,1.678,1.678,0,0,1,.006-1.608.825.825,0,0,0-.05-.725,6.209,6.209,0,0,1-.691-1.35c-.07-.179-.393-.308-.625-.362a1.3,1.3,0,0,0-.753.031c-.368.155-.362-.308-.615-.3.04.261,0,.569-.323.414-.462-.223-.931.056-1.3-.071-.513-.174-1,0-1.492-.115a6.83,6.83,0,0,0-1.391-.084,5,5,0,0,0-.761.075c-.168.024-.33.085-.5.111-.621.093-1.192-.291-1.876-.066a2.337,2.337,0,0,1-1.713-.327,1.026,1.026,0,0,0-1.094.092,1.331,1.331,0,0,1-1.539.039.994.994,0,0,0-.734-.108,3.987,3.987,0,0,1-1.761.146c-1.063.033-2.125.086-3.187.115a2.851,2.851,0,0,1-1.13-.064c-.418-.175-.863-.039-1.267-.255s-.741.351-1.164.133a6.524,6.524,0,0,1-2.4.043,11.518,11.518,0,0,0-3.183.029,3.1,3.1,0,0,1-.755-.063,3.1,3.1,0,0,0-1.487.176,1.98,1.98,0,0,1-.856.195c-1.233-.042-2.467.089-3.695.028a6.665,6.665,0,0,0-3.128.369,2.855,2.855,0,0,0-.284,1.953,1.868,1.868,0,0,1-.007,1.247c-.2.381.286.808-.045,1.2a23.5,23.5,0,0,0-.073,3.14c.083.535.32,1.074-.019,1.621a.707.707,0,0,0,.015.5,2.738,2.738,0,0,1-.187,1.979,1.333,1.333,0,0,0,.083,1.33,1.276,1.276,0,0,1-.018,1.432,1.35,1.35,0,0,0,.015,1.3,4.806,4.806,0,0,1,.062,1.624,16.954,16.954,0,0,0,.054,2.162c.137.939-.211,1.835-.145,2.761.013.164-.241.342-.238.511,0,.188.222.369.238.561a15.655,15.655,0,0,1,.03,2.79,11.874,11.874,0,0,0-.014,3.059,7.366,7.366,0,0,1-.11,1.731c0,.022-.071.038-.142.074l-.442-.511c-.078.083-.174.142-.169.186a17.759,17.759,0,0,1,.161,4.712c-.068.615.273,1.257-.135,1.842a4.357,4.357,0,0,0,1.068,2.345c.072-.343.121-.575.172-.809.068.019.162.016.194.06a1.135,1.135,0,0,0,1.027.378c.671,0,1.339-.072,2.013-.068.709,0,1.405.124,2.108.149a10.5,10.5,0,0,0,2.271-.037,1.82,1.82,0,0,1,1.252.017.7.7,0,0,0,.491.032,3.376,3.376,0,0,1,1.891.052,2.642,2.642,0,0,0,1.509-.047,1.846,1.846,0,0,1,1.243-.018,2.684,2.684,0,0,0,1.135.056c1.13-.142,2.261,0,3.393-.094s2.291-.022,3.437-.025a2.5,2.5,0,0,1,.383-.016,6.189,6.189,0,0,0,2.631-.046.839.839,0,0,1,.254.019,11.588,11.588,0,0,0,2.4.1,13.068,13.068,0,0,1,2.283-.022.649.649,0,0,1,.128,0,3.285,3.285,0,0,0,2.058-.037,1.549,1.549,0,0,1,.751.04,4.159,4.159,0,0,0,1.949-.1,1.272,1.272,0,0,1,.748-.04c.333.168.528.045.8-.1.15-.081.412.07.591.015.531-.167,1.08.549,1.586-.05.469.078,1-.129,1.327.4.115-.174.214-.257.2-.311a19.886,19.886,0,0,1-.093-2.261c-.179-1.323.087-2.623.008-3.932a6.132,6.132,0,0,1,.069-.881c.011-.125.088-.313.033-.365-.549-.516-.219-1.1-.185-1.678a9.781,9.781,0,0,1,0-1.645,7.136,7.136,0,0,0,.063-1.76,2.128,2.128,0,0,1,.376-1.7,2.942,2.942,0,0,1-.391-.566,1.981,1.981,0,0,1-.139-.751.8.8,0,0,1,.186-.56.591.591,0,0,0,.155-.8c-.476-.675-.273-1.474-.481-2.194-.068-.236.124-.547.167-.71-.1-.2-.23-.333-.2-.426.041-.145.272-.262.27-.389,0-.178.208-.558-.287-.513a.555.555,0,0,1-.177-.418,12.64,12.64,0,0,0,.071-1.379,6.992,6.992,0,0,0-.021-1.648c-.013-.407-.236-.782-.076-1.234.113-.321-.056-.732-.046-1.1a2.841,2.841,0,0,1,.207-.681C1063.261,306.966,1063.4,306.941,1063.423,306.705Zm104.1,73.13c.3.11.547.2.793.292a4.088,4.088,0,0,0,.7.27c.112.02.254-.132.584-.321C1168.79,379.894,1168.289,379.34,1167.52,379.835ZM1108,411.16l.889-.16-.616-.878C1107.673,410.383,1107.73,410.712,1108,411.16Zm133.057-15.1c0,.047.15.144.18.127a.464.464,0,0,0,.223-.228.767.767,0,0,0-.042-.37c-.108-.381-.228-.758-.37-1.224C1241.05,394.985,1241.045,395.521,1241.058,396.057ZM991.924,379.289l-.743.281c1.181.115,1.181.115,1.559-.27C992.469,379.053,992.2,379.185,991.924,379.289Zm118.758,59.428c-.013.359-.157.75.182,1.038.188.159.313-.288.165-.68-.044-.117-.141-.215-.174-.331a5.9,5.9,0,0,1-.091-.665C1110.719,438.423,1110.687,438.569,1110.682,438.717Zm.427,42.755c-.085-.346-.223-.68-.383-1.148-.028.379-.066.652-.065.925a4.01,4.01,0,0,0,.077.573C1111.1,481.885,1111.161,481.684,1111.109,481.472Zm127.883-96.22a9.718,9.718,0,0,1-.284,1.446C1239.1,386.229,1239.1,386.229,1238.991,385.251Zm-174.613,110.3c-.188.529-.188.529.208.988A.7.7,0,0,0,1064.379,495.549Zm.015-42.115c-.2.559-.2.559.184,1.018C1064.825,454.056,1064.67,453.756,1064.394,453.434Zm40.81,56.5c0-.04,0-.08,0-.12a4.131,4.131,0,0,1-.708-.008c-.24-.042-.465-.166-.705-.222-.032-.007-.11.171-.22.351Zm7.129-128.185c.273-.018.546-.042.82-.049s.436.484.759.127C1113.372,381.477,1113.227,381.462,1112.332,381.75Zm-3.941,90.535c-.009.045.086.151.142.16a.225.225,0,0,0,.193-.106,3.083,3.083,0,0,0-.027-1.349C1108.594,471.421,1108.484,471.851,1108.391,472.285Zm-89.079-134.262c.513-.292.521-.294.057-.81Zm44.215-29.985c.06-.366.636-.391.366-1C1063.308,307.63,1063.308,307.63,1063.527,308.038Zm58.962,71.416c.575.266.576.267.9-.2A.7.7,0,0,0,1122.489,379.453Zm102.7,44.219c.035.028.164-.018.215-.067a.24.24,0,0,0,.063-.209c-.146-.279-.314-.345-.96-.346C1224.829,423.349,1225,423.523,1225.189,423.672Zm-130.047,88.275a.98.98,0,0,0-1.05.207C1094.591,512.394,1094.894,512.423,1095.142,511.947ZM1238.425,383.3l-.409-.22-.183.646Zm-87.248,23.1c.27.444.27.444,1.086,0Zm63.24,17.571a1.644,1.644,0,0,0,.351-.268c-.411-.158-.657-.121-.915.341A3.278,3.278,0,0,0,1214.417,423.977ZM1064.069,317.9c-.163.349-.121.59.223.776C1064.509,318.357,1064.419,318.128,1064.069,317.9Zm130.923,61.419c.028,0,.068-.116.1-.179-.13-.059-.259-.121-.394-.168a2.366,2.366,0,0,0-.127.253A2.847,2.847,0,0,0,1194.991,379.319Zm44.434,3.612c-.06.1-.162.2-.168.3,0,.072.123.152.19.229l.241-.3Zm-218.462-32.309c.008.063.157.106.243.159a1.257,1.257,0,0,0,.1-.324c0-.039-.122-.084-.225-.151C1021.035,350.418,1020.951,350.527,1020.964,350.623ZM1079.649,468.8c-.061-.026-.127-.081-.182-.071s-.121.08-.18.123c.048.055.1.109.173.193C1079.526,468.957,1079.587,468.877,1079.649,468.8Zm87.342-89.512a.375.375,0,0,0-.6.039A.371.371,0,0,0,1166.991,379.285Zm2.369,44.444c0,.06.086.123.134.184l.208-.257-.2-.107C1169.451,423.609,1169.362,423.668,1169.361,423.729ZM1110.67,479.2a.247.247,0,0,0,.008.238c.218.247.351.078.484-.124C1111.008,479.194,1110.9,478.935,1110.67,479.2Zm-.045-42.31c.059.281.09.427.121.572l.572-.183Zm73.852-57.063c-.068-.037-.134-.1-.2-.1s-.13.06-.194.095l.187.338C1184.365,380,1184.422,379.916,1184.476,379.829ZM1020.1,348.353c-.018.042.06.124.094.188a1.416,1.416,0,0,0,.237-.215c.017-.024-.065-.118-.129-.226A1.153,1.153,0,0,0,1020.1,348.353Zm89.071,64.008c0,.031.008.062.011.092l.45-.042c0-.034-.008-.069-.012-.1ZM1019.3,421.33c-.049-.019-.132.051-.2.08a1.268,1.268,0,0,0,.24.234c.037.021.131-.056.244-.108A1.358,1.358,0,0,0,1019.3,421.33Zm-29.164-41.7a.278.278,0,0,0,.15-.234.293.293,0,0,0-.232-.173c-.077.011-.136.144-.237.262C989.952,379.55,990.055,379.644,990.134,379.627ZM1096.563,512.1c.011.089.135.162.21.242.066-.083.175-.161.186-.25s-.093-.166-.184-.31C1096.67,511.932,1096.553,512.025,1096.563,512.1Zm-117.19-94.079c-.038-.01-.17.173-.168.266s.135.273.176.264a2.155,2.155,0,0,0,.475-.267A2.194,2.194,0,0,0,979.373,418.023Zm261.889-24.283c.072-.043.1-.173.123-.272,0-.018-.143-.106-.187-.087-.087.04-.15.132-.282.258C1241.084,393.694,1241.207,393.773,1241.262,393.74Zm-2.185-9.22c.071-.013.168,0,.207-.045s.046-.147.065-.225l-.214-.033C1239.116,384.318,1239.1,384.418,1239.077,384.52Zm-30.9-2.308a.8.8,0,0,0,.232-.138c-.065-.037-.128-.1-.2-.1s-.121.059-.182.091C1208.079,382.117,1208.139,382.219,1208.175,382.212Zm-143.916,74.125c0,.007.14.094.185.074.092-.042.211-.12.229-.2s-.1-.162-.227-.338C1064.355,456.085,1064.3,456.209,1064.259,456.337ZM1182.14,379.93c-.053,0-.11.078-.166.121a.618.618,0,0,0,.205.088,1.025,1.025,0,0,0,.286-.094A1.343,1.343,0,0,0,1182.14,379.93Zm-.313.935a1.851,1.851,0,0,0,.338.073.435.435,0,0,0,.069-.2,2.28,2.28,0,0,0-.327-.132C1181.873,380.716,1181.849,380.79,1181.827,380.865Zm-10.8-.1c-.028-.018-.084-.032-.1-.017-.083.071-.155.152-.231.23.028.021.069.065.082.058.1-.053.194-.117.287-.174C1171.048,380.822,1171.047,380.782,1171.027,380.769Zm-3.909,1.86c-.043-.021-.124.034-.188.056.034.063.054.153.107.179s.121-.034.185-.055C1167.189,382.746,1167.17,382.655,1167.118,382.63Zm-14.046,9.691c-.034-.011-.1.069-.151.107l.289.154.036-.112C1153.189,392.417,1153.139,392.344,1153.072,392.321Zm-.447,16.154c.045.027.1.086.132.075a.553.553,0,0,0,.156-.125l-.093-.048Zm.041,5.14c-.028-.014-.105.071-.161.111a2.216,2.216,0,0,0,.236.238c.013.01.1-.075.188-.143A1.511,1.511,0,0,0,1152.666,413.615Zm-2.306-5.459c-.05.016-.07.124-.1.19a1.392,1.392,0,0,0,.33.043c.034,0,.06-.12.116-.242A1.251,1.251,0,0,0,1150.36,408.156Zm-.257-3.036c-.141.023-.28.058-.418.089.014.031.03.088.045.089.143,0,.286-.005.428-.018.012,0,.02-.057.03-.088C1150.16,405.167,1150.127,405.116,1150.1,405.12Zm-41.137-3.047v.13h.512v-.13Zm-.747-8.1a2,2,0,0,0-.238-.122c-.024-.009-.069.038-.15.086ZM1106.888,510.4c.065.044.132.129.193.124a1.305,1.305,0,0,0,.324-.108l-.291-.282Zm0-1.4.256.19c.022-.077.077-.161.059-.228s-.114-.086-.176-.127C1106.98,508.887,1106.934,508.941,1106.888,509Zm.185-42.246-.176.246.209.118.108-.193Zm-38.745-84.389c-.025.072-.051.144-.077.216l.4.1.048-.136Zm-.735,90.124h.069v-.43h-.069Zm-.879,33.954c-.031.065-.1.152-.085.188a1.287,1.287,0,0,0,.224.24l.106-.239Zm.152-41.652c.025-.072.092-.168.067-.211a1.067,1.067,0,0,0-.232-.217c-.025.069-.05.138-.089.243Zm-.516,43.667-.265.167c.054.056.1.13.166.158.03.013.1-.065.151-.1C1066.384,508.6,1066.367,508.527,1066.35,508.453Zm-1.338-207.139c-.008.025.039.066.061.1.07-.129.139-.257.208-.386l-.152-.029C1065.091,301.1,1065.043,301.2,1065.012,301.314ZM1064.24,498.4c.063.033.13.1.189.092.161-.016.313-.08.239-.289-.02-.056-.112-.086-.229-.17Zm-.17-135.5c-.038.056-.113.118-.1.167.01.063.087.115.135.171.046-.054.092-.107.138-.161Zm-41.724-38.425c0,.016.116.048.178.073a.674.674,0,0,0,.065-.225c0-.057-.076-.109-.146-.2A2.587,2.587,0,0,0,1022.347,324.477Zm-.333,89.138c-.027-.014-.106.072-.161.113a1.7,1.7,0,0,0,.23.237c.019.013.108-.071.2-.135A1.769,1.769,0,0,0,1022.014,413.615Zm-1.512-9.132c.028,0,.042-.1.063-.156-.065-.022-.144-.076-.187-.056s-.066.115-.1.176A.654.654,0,0,0,1020.5,404.483Zm-.2-53.966c0,.033.037.069.057.1.049-.041.139-.082.138-.124a3.158,3.158,0,0,0-.1-.5C1020.348,350.282,1020.319,350.4,1020.306,350.517Zm-.683,57.8c.069.031.158.1.206.081.081-.035.138-.129.205-.2l-.235-.129Zm.15-5.391c.028.057.055.114.083.171l.237-.216-.109-.047Zm-.036-36.722c0-.143,0-.286-.006-.429,0-.011-.056-.019-.087-.028-.021.14-.046.28-.059.42,0,.028.045.06.069.09C1019.682,366.242,1019.735,366.226,1019.737,366.207Zm133.348,35.084a.88.88,0,0,0,.164.1c.025.01.068-.023.1-.038l-.1-.167Zm46.645-21.272.263.124c.029-.066.059-.131.088-.2l-.2-.089Zm-46.774,13.821.149-.063c-.015-.031-.028-.062-.042-.093l-.088.057Zm-2.557,13.195a1.2,1.2,0,0,0,.2.027c.017,0,.051-.083.047-.086a1.743,1.743,0,0,0-.173-.1C1150.445,406.926,1150.422,406.981,1150.4,407.036Zm.173-4.044c.066-.018.13-.043.2-.067-.013-.025-.03-.073-.038-.071-.067.013-.132.034-.2.054A.472.472,0,0,0,1150.57,402.991Zm47.155-17.489c.02-.024.049-.046.057-.074a.217.217,0,0,0,.006-.116c0-.015-.051-.018-.078-.026Zm-.671-2.747c.054-.028.078-.116.116-.177-.07-.021-.151-.071-.208-.053s-.063.114-.094.177C1196.931,382.723,1197.011,382.776,1197.054,382.755Zm40.917,36.936a1.736,1.736,0,0,0,.044.207c.018-.018.052-.036.051-.053a1.764,1.764,0,0,0-.03-.2C1238.013,419.659,1237.969,419.678,1237.971,419.691Zm.547-26.418c-.036.061-.1.123-.1.182s.069.124.107.187c.034-.063.069-.126.1-.188ZM1120.77,379.244c-.017-.01-.153.115-.144.132a.746.746,0,0,0,.189.235c.015.011.112-.079.209-.149A1.745,1.745,0,0,0,1120.77,379.244Zm-9.212,2.086c-.008.064-.045.147-.019.189s.121.08.185.118c.03-.06.058-.12.107-.22ZM1108.9,470.4a1.064,1.064,0,0,0,.106-.173c.01-.028-.022-.072-.036-.109l-.169.116C1108.835,470.287,1108.867,470.343,1108.9,470.4Zm131.868-63.111a.34.34,0,0,0,.084.063,1.9,1.9,0,0,0,.127-.162l-.106-.077A1.747,1.747,0,0,0,1240.769,407.287Zm.328,2.641.021-.077-.042-.019Zm-133.006,69.248c0,.068.071.132.112.2.037-.069.105-.139.1-.207s-.074-.13-.117-.194C1108.154,479.04,1108.088,479.109,1108.091,479.176Zm.12-41.888c.034-.071.1-.143.094-.21s-.08-.129-.124-.192l-.1.209C1108.125,437.16,1108.167,437.224,1108.211,437.288Zm-.865,73.85.273.109c.024-.061.083-.16.066-.176a.7.7,0,0,0-.207-.1Zm-10.427-1.848c-.059,0-.115.072-.173.113.064.033.129.094.191.09s.117-.073.176-.113C1097.048,509.347,1096.982,509.287,1096.919,509.29Zm-29.325-123.3c.014.033.062.051.1.076a.472.472,0,0,0-.008-.114c-.008-.026-.037-.045-.057-.068C1067.613,385.925,1067.583,385.969,1067.594,385.995Zm-.381,112.591c.017-.036.057-.089.046-.106a1.17,1.17,0,0,0-.149-.161c-.013.039-.027.078-.041.117Zm-.115-42.322a.424.424,0,0,0-.024.12.481.481,0,0,0,.042.116l.144-.135Zm-.718,51.205c-.008.037.086.137.117.131a.262.262,0,0,0,.171-.127c.022-.052-.027-.132-.108-.445A2.973,2.973,0,0,0,1066.38,507.468Zm0-42.082c-.008.037.086.138.117.131a.258.258,0,0,0,.171-.126c.022-.053-.027-.132-.108-.445A2.949,2.949,0,0,0,1066.38,465.386Zm-.791,43.413c-.059.039-.15.067-.168.12s.041.127.066.193l.165-.111Zm-.091-29.505a.507.507,0,0,0-.112.078.318.318,0,0,0,.1.029c.028,0,.056-.026.088-.042C1065.545,479.335,1065.512,479.289,1065.5,479.294Zm-.12-42.077a.466.466,0,0,0,.026.078,1.248,1.248,0,0,0,.147-.035l-.077-.062Zm.219-99.546c.01-.031.031-.063.027-.092s-.039-.046-.059-.069l-.031.1Zm-.574-27.5a1.532,1.532,0,0,0-.019.229c0,.024.052.045.08.067.026-.07.054-.141.08-.212Zm-.48,187.023c-.025.033-.076.077-.068.1a.825.825,0,0,0,.109.166l.072-.1Zm-.07-41.9a.891.891,0,0,0,.155.043.127.127,0,0,0,.035-.094.845.845,0,0,0-.117-.146C1064.52,455.176,1064.5,455.238,1064.472,455.3Zm-41.431-89.595c.055-.054.106-.113.156-.171l-.156-.112c-.026.072-.053.144-.08.215C1022.99,365.662,1023.039,365.709,1023.042,365.707Zm-.088-67.794a.232.232,0,0,0-.012.112.275.275,0,0,0,.055.088c0-.072.011-.144.017-.216C1022.993,297.9,1022.958,297.9,1022.954,297.913Zm-.532,103.369c.01.048.089.088.144.117.011.005.083-.062.078-.072a1.614,1.614,0,0,0-.12-.2C1022.486,401.181,1022.414,401.239,1022.422,401.282Zm-.211-8.871a1.674,1.674,0,0,0,.2.147c.016.01.062-.028.094-.045l-.12-.185Zm-.1,16.128a1.15,1.15,0,0,0,.107-.176c-.031-.007-.082-.031-.094-.019a1.466,1.466,0,0,0-.124.168C1022.043,408.524,1022.1,408.551,1022.111,408.539Zm-.66-81.727a.437.437,0,0,0-.021.11.5.5,0,0,0,.029.11l.062-.053C1021.5,326.923,1021.475,326.868,1021.451,326.811Zm.008-1.643c.033-.067.1-.136.091-.2s-.076-.124-.117-.186c-.033.068-.068.136-.1.2Zm-.561,89a1.082,1.082,0,0,0-.088.181c-.005.022.037.057.057.088l.137-.133Zm-.873-12.58h.173l-.086-.041Zm.356-68.7c.042-.09.084-.18.125-.27-.067-.029-.154-.1-.2-.078s-.066.127-.1.2Zm-.348,16.288c-.015,0-.033.071-.021.1s.08.052.09.042a.932.932,0,0,0,.106-.143A.8.8,0,0,0,1020.034,349.185Zm-.121-41.223.02-.078-.045-.014Zm-.913,94.41a.786.786,0,0,0,.169.1c.02.007.06-.043.091-.068l-.167-.1Zm-15.344-22.562c.036.019.07.052.106.054a.326.326,0,0,0,.115-.039c-.032-.061-.063-.121-.095-.184C1003.74,379.7,1003.7,379.753,1003.656,379.81Zm-20.672,1.9c-.019,0-.069.168-.043.193a.279.279,0,0,0,.221.065c.049-.011.079-.109.145-.209A1.612,1.612,0,0,0,982.984,381.712Zm212.714-2.578-.033-.076-.037.074Zm-.7.627-.1.035.091.047Zm-1.358,43.837-.034-.075-.035.077Zm-2.826-44.57.1.03-.013-.083Zm-5.784,1.314-.011-.071-.084.046Zm-4.357.175-.1.037.1.042Zm-2.372.855.095-.038-.1-.037Zm-.725,43.356.089-.031-.085-.034Zm-13.262-45.379.08-.141c-.038-.005-.08-.023-.111-.013s-.039.055-.058.085ZM1154,383.684c.01,0,.018-.045.028-.069l-.163.04A.578.578,0,0,0,1154,383.684Zm-2.5,30.713a.8.8,0,0,0,.113-.132c.005-.011-.05-.057-.077-.087-.023.035-.045.071-.067.106Zm-.01-10.685.05.1.042-.109Zm-.424,13.253a.518.518,0,0,0,.114.088c.013.006.051-.043.077-.068l-.093-.056Zm-.036-12.6a.975.975,0,0,0,.134.11c.006,0,.051-.054.078-.083l-.1-.066Zm-1.175-2.025a.362.362,0,0,0-.108-.03c0,.049,0,.1,0,.15l.106-.04C1149.862,402.393,1149.872,402.349,1149.86,402.34Zm-.164,1.969.063.125.03-.1Zm-9.983-23.932.034.077.031-.08Zm-5.211-.648a.282.282,0,0,0-.1-.032l.007.151.1-.034C1134.5,379.784,1134.515,379.74,1134.5,379.729Zm-10.459,2.445a1.294,1.294,0,0,0,.194-.011c.02,0,.031-.053.047-.08l-.2-.067C1124.068,382.068,1124.055,382.121,1124.042,382.174Zm-2.5-2.646c.029.026.065.077.086.071a1.163,1.163,0,0,0,.19-.086l-.084-.079Zm-.967,2.652a1.086,1.086,0,0,0,.188-.07c-.026-.025-.056-.076-.076-.072a1.065,1.065,0,0,0-.187.069C1120.526,382.132,1120.556,382.183,1120.576,382.179Zm120.374-.539c0-.015-.054-.045-.083-.068a1.243,1.243,0,0,0-.075.19c0,.016.053.046.083.069A1.135,1.135,0,0,0,1240.95,381.64Zm-1.178-.349.078-.021-.056-.084ZM1110.653,493.037c.022-.039.044-.079.065-.118-.033,0-.069-.019-.1-.008s-.033.047-.048.073Zm-.069-42.171.123.091c.016-.027.048-.06.042-.078s-.05-.036-.077-.053Zm-.082-30.549a1.188,1.188,0,0,0-.08.185c0,.017.049.049.076.075l.089-.187Zm-.16-4.052.1-.036-.1-.039Zm-.365-17.315c.013-.029.036-.059.034-.086s-.032-.048-.05-.072c-.013.028-.025.055-.037.083Zm-.555,23.1a.3.3,0,0,0-.112-.029q.006.078.013.156l.11-.034C1109.432,422.113,1109.441,422.064,1109.423,422.052Zm-.343,88.649.1-.034-.1-.041Zm-.371,1-.107-.033.016.094Zm129.78-114.948a1.289,1.289,0,0,0-.077.222c0,.022.057.054.088.081.041-.054.081-.109.13-.176Zm-129.836,31.292a.264.264,0,0,0-.018.1l.126-.025-.032-.09C1108.7,428.031,1108.663,428.028,1108.653,428.043Zm.088-7.445a1,1,0,0,0,.026-.205c0-.028-.058-.051-.089-.077-.034.067-.067.134-.1.2Zm-.181-13.674a.953.953,0,0,0-.182.08c.022.03.054.088.065.084a1.6,1.6,0,0,0,.2-.092C1108.614,406.968,1108.579,406.919,1108.56,406.923Zm-.049-11.954.088-.036-.089-.035Zm-.1,35.3a.744.744,0,0,0,.106-.117c.005-.008-.046-.052-.071-.08l-.067.092C1108.389,430.2,1108.4,430.238,1108.411,430.273Zm-.116-7.856-.012-.063-.072.042Zm.171-24.075-.07.016.05.078Zm-.082-4.957-.106-.03.008.078Zm-.273,89.211a1.189,1.189,0,0,0,.085.206c.033-.025.1-.057.094-.073a1.391,1.391,0,0,0-.089-.211C1108.167,482.544,1108.105,482.578,1108.11,482.6Zm0-42.082a1.168,1.168,0,0,0,.085.206c.033-.025.1-.058.094-.073a1.419,1.419,0,0,0-.089-.211C1108.167,440.463,1108.105,440.5,1108.11,440.514Zm-1.063,69.133-.013-.072-.073.047Zm.025-42.121-.08-.028.007.069Zm124.4-44.337-.01-.083-.095.049Zm-.161,1.576c.012,0,.021-.051.031-.079a.283.283,0,0,0-.1-.023c-.013,0-.021.05-.031.077A.353.353,0,0,0,1231.307,424.766Zm-135.35,87.154c-.031,0-.059.042-.088.065.034.017.069.049.1.046s.06-.042.09-.065C1096.026,511.949,1095.99,511.916,1095.957,511.92Zm-2.293-42.373c-.031,0-.058.038-.088.058.034.015.069.044.1.041s.059-.036.088-.057C1093.731,469.573,1093.7,469.544,1093.665,469.547Zm-.255,39.946c.039,0,.08-.078.121-.121-.028-.024-.063-.071-.084-.066a1.133,1.133,0,0,0-.185.081C1093.31,509.427,1093.359,509.492,1093.409,509.493Zm-5.777-41.137-.024-.074-.071.055Zm-4.648,43.53.142.075c.006-.034.026-.075.013-.1s-.056-.035-.086-.051Zm-15.577-18.5a1.147,1.147,0,0,0-.09.164c0,.013.048.046.074.071l.1-.171Zm-.059-41.891.14-.116c-.03-.026-.06-.074-.088-.073s-.059.05-.087.077C1067.325,451.419,1067.337,451.456,1067.348,451.494Zm-.29,43.469c-.006.033.071.082.116.118,0,0,.073-.051.068-.07a1.206,1.206,0,0,0-.072-.2C1067.13,494.862,1067.066,494.908,1067.058,494.962Zm.062-42.232a1.259,1.259,0,0,0-.069.2c0,.017.056.045.086.068.037-.049.074-.1.111-.15C1067.205,452.812,1067.163,452.77,1067.119,452.731Zm-.3,24.2.078-.013-.05-.095Zm.04-42.051.036-.105-.083.007Zm-1.312-137.093.115-.1c-.026-.021-.052-.06-.078-.059s-.05.042-.075.065Zm-.149,7.805-.141-.014c.008.033.008.073.028.095s.057.008.087.01C1065.383,305.656,1065.391,305.625,1065.4,305.6Zm-.369,49.489.081-.016-.057-.1Zm157.143,69.6.139.1.055-.083-.094-.053Zm.164-1.321-.049.1c.028-.009.055-.02.083-.03ZM1064.821,484.8c.026-.031.081-.071.075-.094a1.266,1.266,0,0,0-.1-.206c-.025.033-.051.065-.077.1Zm-.092-42.168c0,.022.057.076.087.075s.084-.06.079-.082a1.238,1.238,0,0,0-.09-.21A1.193,1.193,0,0,0,1064.729,442.629Zm-.82-103.653.011.074.08-.045Zm.105-4.99.026.08.03-.077Zm-.3-23.713c.016.035.032.071.05.106.027-.014.074-.027.075-.043a.281.281,0,0,0-.033-.1Zm-.151-9.146-.079.014.051.089Zm-7.941,123.583.084.024-.009-.068Zm156.142-42.5c.037,0,.085-.078.129-.122-.028-.026-.063-.078-.084-.072a1.406,1.406,0,0,0-.212.082C1211.648,382.139,1211.7,382.2,1211.76,382.21Zm-172.822,41.4c-.011.046-.022.093-.033.139a.27.27,0,0,0,.1-.024c.018-.011.016-.048.024-.074Zm171.409-42.989c.022-.042.045-.081.067-.121l-.106.034Zm-2.715.541c.039,0,.083-.068.124-.107-.028-.022-.061-.066-.084-.062a1.149,1.149,0,0,0-.194.069C1207.53,381.1,1207.58,381.159,1207.633,381.162Zm-181.967-46.235c.01,0,.028-.067.022-.071a.409.409,0,0,0-.1-.035l-.021.085A.315.315,0,0,0,1025.666,334.926Zm-1.7,43.751c0,.011.045.018.068.027-.01-.042-.021-.085-.039-.157A.573.573,0,0,0,1023.963,378.678Zm183.405,3.205-.013-.07-.086.047ZM1023.11,335.622c-.02-.056-.083-.094-.127-.141-.026.027-.078.062-.072.079a1.131,1.131,0,0,0,.093.185C1023.043,335.7,1023.119,335.646,1023.11,335.622Zm-.72-14.744c0,.045.08.092.125.138.025-.031.074-.069.068-.095a1.168,1.168,0,0,0-.083-.21C1022.459,320.766,1022.391,320.822,1022.39,320.878Zm-.121,4.429-.1-.058.028.09C1022.224,325.329,1022.247,325.317,1022.269,325.307Zm-.566,28.9-.032.1.075-.008Zm-.28,7.715-.034.092.081-.006Zm-.552,41.778c.013.03.026.059.037.089.025-.011.068-.021.069-.036s-.017-.057-.027-.086Zm.094-51.7a.269.269,0,0,0-.027-.092c-.025.01-.071.021-.071.031a.269.269,0,0,0,.028.093C1020.922,352.021,1020.965,352.01,1020.966,352Zm-.072-29.694a.652.652,0,0,0,.089-.118c0-.012-.047-.048-.071-.074-.016.032-.033.064-.051.1C1020.872,322.241,1020.884,322.272,1020.894,322.3Zm-.369,94.652a.265.265,0,0,0-.1-.031c0,.049,0,.1,0,.148l.1-.035C1020.528,417.01,1020.54,416.968,1020.526,416.957Zm.126-69.312.063-.017-.046-.074Zm.044-9.871c.014-.035.046-.074.039-.105s-.051-.053-.078-.079c-.013.037-.027.073-.041.109Zm-.548-.226a.292.292,0,0,0-.02.094c0,.009.043.017.066.025l.021-.092Zm-.027-27.1c0,.05-.011.1-.016.151.031-.008.074-.007.091-.027s.007-.062.008-.094Zm-.366,96.532c.024.027.056.08.069.076a1.135,1.135,0,0,0,.164-.083l-.063-.085Zm-.4-65.249c0,.009.044.017.068.026-.011-.042-.02-.083-.037-.155A.583.583,0,0,0,1019.35,341.732Zm-25.98,40.3c-.02,0-.049.062-.074.1a1.362,1.362,0,0,0,.224.068c.018,0,.047-.065.071-.1A1.18,1.18,0,0,0,993.37,382.031Zm-3.51.091c.03.025.066.076.086.07a1.178,1.178,0,0,0,.194-.091l-.09-.072Zm-9.186,37.68.024-.1-.069.01Zm-.344-1.334c0,.021.054.049.084.074a1.427,1.427,0,0,0,.068-.209c0-.019-.057-.048-.086-.072A1.175,1.175,0,0,0,980.331,418.468Zm-.982-2.007-.092-.031.012.082Z" transform="translate(0 0)" fill="#45f7f6" fill-rule="evenodd"/><path d="M1071.376,406.767h-.35c-.149-.371-.3-.742-.458-1.139.023.005-.011-.013-.02,0-.086.083-.168.168-.288.294-.106-.251-.446-.392-.181-.727.006-.009-.1-.091-.135-.153-.185-.377-.578-.629-.644-1.076a.882.882,0,0,1-.306-.754c-.022-.346-.248-.669-.1-1.039a.48.48,0,0,0-.077-.363,1.367,1.367,0,0,1-.089-1.3.665.665,0,0,0-.1-.587.627.627,0,0,1-.022-.655.814.814,0,0,0-.008-.806,1.474,1.474,0,0,1,.012-.968,2.783,2.783,0,0,0,.005-.664c-.022-.272-.055-.545-.056-.818s.026-.559.053-.837c.045-.459.1-.916.156-1.373a3.56,3.56,0,0,1,.1-.4l.317.123c.22-.261-.066-.413-.126-.646.032-.066.077-.155.119-.246a2.17,2.17,0,0,0,.294-1.378.676.676,0,0,1,.071-.372c.139-.322.3-.636.449-.951,0,.054,0,.105,0,.156-.006-.048-.011-.1-.016-.146a2.882,2.882,0,0,1,.519-1.529,1.369,1.369,0,0,1,.484-.823.528.528,0,0,0,.1-.346,1.212,1.212,0,0,1,.568-1.009.341.341,0,0,0,.036.141c.014.018.081-.007.124-.013-.015-.016-.026-.037-.043-.046-.044-.023-.089-.04-.133-.06a1.367,1.367,0,0,1,.251-.265,3.845,3.845,0,0,0,.881-.8c.2-.232.362-.557.771-.506.056.007.177-.122.187-.2.05-.365.348-.468.566-.64l.25.15c.094-.112.182-.234.288-.339a.585.585,0,0,1,.752-.177c.224.12.438.03.674-.141.071.395.127.711.183,1.027.139.038.177-.049.187-.156a3.3,3.3,0,0,1,.044-.56,2.16,2.16,0,0,1,.239-.452c.106-.194.256-.19.448.012a.585.585,0,0,0,.118.074c.2-.049.026-.226.147-.353l.632-.042c.016.154.034.308.066.6.082-.323.176-.507-.085-.588l.226-.409a1.131,1.131,0,0,0,.94-.054,1.666,1.666,0,0,1,1.19-.121c.391.056.75.256,1.16.3a2.869,2.869,0,0,1,.809.394c.007.127.016.319.026.515.3-.034.3-.034.245-.412l.535-.04a4.916,4.916,0,0,1,.23.563,3.291,3.291,0,0,1,.043.563l.447-.637.461.3c.03.163.056.313.088.5l.38-.047c.121.207.25.423.379.639l-.017-.017c.067.134.133.268.224.449l.35-.258a2.74,2.74,0,0,1,.378.36,1.179,1.179,0,0,0,.417.413.882.882,0,0,1,.354.559c.133.63.6,1.14.625,1.8a2.984,2.984,0,0,1,.476,1.278c.044.2.15.437.083.593-.151.344.033.589.139.862a6.607,6.607,0,0,1,.355,2.245c0,.111-.087.224-.125.339-.024.069-.063.16-.04.214a4.111,4.111,0,0,1,.126,1.053,18.667,18.667,0,0,1,.037,2.357,6.743,6.743,0,0,1-.474,1.973c-.176.479-.307.974-.442,1.466a1.428,1.428,0,0,1-.452.782.747.747,0,0,0-.276.356c-.1.476-.487.842-.485,1.356,0,.111-.1.227-.171.333-.167.258-.339.511-.5.745a2.513,2.513,0,0,1,.287.324c.092.15.139.329.234.478a1.713,1.713,0,0,0,1.667.684c.327-.019.567-.4.938-.2a1.947,1.947,0,0,0,.115-.161c.244-.319.263-.327.635-.22.072.021.142.056.256.1a1.584,1.584,0,0,0,.4.767.53.53,0,0,1,.084.8,2.111,2.111,0,0,0-.2.752c-.142.057-.237.094-.328.128.05-.205.213-.415-.032-.6-.292.223.037.395.041.59-.1.264-.19.519-.547.537-.069,0-.119.186-.2.263s-.181.087-.254.15c-.357.3-.417.3-.721-.19-.026.194-.046.35-.072.546-.15.02-.313.091-.435.048-.226-.08-.39-.1-.5.156a.143.143,0,0,1-.118.07.937.937,0,0,0-.656.128,1.789,1.789,0,0,1-.528.047c-.418.019-.691-.149-.747-.676a3.4,3.4,0,0,1-.26.407.35.35,0,0,1-.2.064c-.18-.415-.715-.119-.911-.465,0-.113.007-.231,0-.348-.007-.07-.021-.1-.133-.075a.667.667,0,0,1-.66-.222c-.294-.3-.619-.576-.933-.861-.018-.017-.042-.031-.048-.051s.011-.036.02-.054l.014.11-.6-.48c-.26.145-.206.528-.494.643a.5.5,0,0,1-.645.448.445.445,0,0,0-.421.286.655.655,0,0,1-.691.366.761.761,0,0,0-.792.483,6.6,6.6,0,0,1-1.52-.092,5.161,5.161,0,0,1-1.578,0,3.888,3.888,0,0,1-2.147-.679c-.042-.029-.116-.035-.131-.071-.181-.415-.613-.414-.942-.581a.667.667,0,0,1-.116-.1c.092-.076.192-.15-.015-.278.014.123.026.212.036.3a.732.732,0,0,1-.606-.659c0-.018-.088-.027-.135-.042a.892.892,0,0,0,.018-.142c0-.025-.024-.049-.037-.074a.265.265,0,0,1,.022.074A1.381,1.381,0,0,1,1071.376,406.767Zm6.179-7.91a.814.814,0,0,0,.377-.71c.033-.035.066-.072.1-.107.191-.19.247-.2.407-.045a3.144,3.144,0,0,1,.232.271c-.127-.048-.252-.154-.415,0,.017.069.036.15.058.247l.357-.248c.136-.179.27-.358.444-.588.1.131.164.273.267.316.233.1.132-.22.307-.269.246.256.689.01.941.336.438.016.491.478.761.671.442-.036.736.06.887.395.121.27.249.038.375.07.052.1.108.215.173.34a.791.791,0,0,1,.275-.081c.083.008.16.085.237.128a1.418,1.418,0,0,0,.459-1.25.91.91,0,0,1,.173-.568,1.013,1.013,0,0,0,.158-.5,1.736,1.736,0,0,1,.11-.676c.2-.368-.13-.771.124-1.125.045-.062-.018-.195-.023-.3a3.318,3.318,0,0,1,.026-1.06c.083-.313-.1-.69-.066-1.027a1.412,1.412,0,0,0-.1-.663,3.622,3.622,0,0,1-.453-1.586c.006-.1-.114-.226-.2-.324-.115-.137-.251-.255-.374-.386-.173-.185-.383-.351-.337-.653.042-.27-.435-.194-.344-.508.007-.021-.064-.084-.106-.1a2.263,2.263,0,0,0-.292-.034l-.045-.554-1.93-.834c-.031-.078-.072-.187-.13-.334l-.294.325c-.533-.194-1.174-.165-1.56-.7a1.074,1.074,0,0,1-.781-.03l-.309-.827c-.749.306-.9,1.03-1.268,1.562l-.242-.028c-.018.042-.035.085-.051.127-.114.306-.192.676-.485.825a1.171,1.171,0,0,0-.411.4,2.991,2.991,0,0,1-.392.551c-.166.143-.192.45-.28.685-.026.071-.036.177-.086.2-.429.228-.423.671-.532,1.053a1.84,1.84,0,0,1-.258.54,1.363,1.363,0,0,0-.289.819.848.848,0,0,1-.581.951c0,.161.039.377-.006.4-.333.136-.265.445-.36.672.093.085.166.148.263.235a1.362,1.362,0,0,0-.382.812c-.063.248.073.458.038.676s-.22.422-.21.625a7.739,7.739,0,0,0,.021,1.21,9.259,9.259,0,0,1,.066,1.219c.026.329.075.657.133.982a4.582,4.582,0,0,0,.159.593,4.307,4.307,0,0,0,1.024,2.245c.033.027.039.092.046.141.051.318.347.416.536.61s.023.573.357.689c.048-.079.1-.157.157-.254.166.219.215.549.579.389.024-.01.1.038.112.072.137.421.554.374,1.024.706l.365-.761.477.187c.094-.2.127-.406.248-.49.211-.145.519-.1.726-.29a.552.552,0,0,0,.494.019c.119-.037.3.113.4.159l.693-.664.237.415c.013-.36.013-.36-.262-.39.224-.238.473-.031.665-.025.146-.156.271-.275.379-.409s.043-.281-.106-.425a.689.689,0,0,1-.19-.222,1.856,1.856,0,0,0-1.157-1.018.353.353,0,0,0-.429.049c-.041.039-.176.055-.187.036-.119-.214-.3-.105-.466-.118-.087-.006-.167-.095-.263-.153.424-.3.387-.288.2-.73-.092-.211-.353-.454-.1-.747.049-.057.011-.195,0-.294-.034-.276-.065-.554-.115-.827a.711.711,0,0,1,.3-.736.643.643,0,0,0-.007.543c.02.038-.041.119-.06.186a.417.417,0,0,0-.119.473.146.146,0,0,0,.1.083c.033,0,.1-.056.1-.078C1077.63,399.19,1077.591,399.023,1077.556,398.857Zm-1.4-13.27c-.031.065-.082.129-.066.148a.793.793,0,0,0,.159.139c.025-.054.08-.124.064-.161C1076.291,385.662,1076.215,385.631,1076.157,385.587Zm-6.743,17.544-.1-.131a.98.98,0,0,0-.141.137c-.007.011.061.1.072.1A1.2,1.2,0,0,0,1069.415,403.131Zm7.875,1.626c-.08-.033-.135-.075-.158-.062a.562.562,0,0,0-.142.142s.069.085.077.08A2.611,2.611,0,0,0,1077.289,404.757Zm-.244-20.557a.725.725,0,0,0-.054-.109.081.081,0,0,0-.059.011.617.617,0,0,0-.013.118C1076.962,384.214,1077,384.206,1077.045,384.2Zm.2.841c0-.017.019-.04.013-.055s-.031-.019-.048-.029c-.006.028-.012.056-.018.084Zm2.11,2.082-.09-.113c-.014.015-.041.036-.039.043a.645.645,0,0,0,.071.106A.544.544,0,0,0,1079.357,387.123Zm-5.386,1.851a.635.635,0,0,0,.106.06c.009,0,.049-.037.047-.043a1.151,1.151,0,0,0-.07-.106Zm-2.919,9.981a.629.629,0,0,0,.066-.1c.006-.014-.016-.04-.026-.06l-.1.048Zm11.175-15.787c-.018-.037-.036-.073-.053-.11-.018.015-.053.035-.051.043a.594.594,0,0,0,.054.115Zm-3.693,1.211c-.011-.016-.02-.043-.034-.047s-.04.013-.059.02l.062.083C1078.513,384.416,1078.525,384.4,1078.534,384.379Zm.453.339-.042-.051a.839.839,0,0,0-.052.111c0,.012.026.033.04.05C1078.951,384.792,1078.968,384.756,1078.987,384.718Zm.707.1c-.006.019-.013.039-.02.057l.078.013a.169.169,0,0,0-.011-.061C1079.737,384.815,1079.712,384.818,1079.694,384.815Zm-1.082.561.027.059.026-.06Zm-.462.2-.018.059.089.016a.194.194,0,0,0-.014-.064C1078.2,385.578,1078.169,385.581,1078.15,385.578Zm2.783.141.049,0-.025-.052Zm-2.779.552.048-.052a.709.709,0,0,0-.112-.049c-.013,0-.034.028-.052.043Zm1.185.192c-.03.026-.06.052-.092.078.016.018.037.054.047.053a.64.64,0,0,0,.125-.048C1079.392,386.519,1079.368,386.492,1079.339,386.463Zm1.792.857-.047,0,.021.056Zm1.54.886.051.028.007-.043Zm-10.371,1.356c.015,0,.038-.009.039-.017a.157.157,0,0,0-.011-.056c-.014.005-.039.01-.039.016A.131.131,0,0,0,1072.3,389.563Zm-2.578,2.034c-.012-.028-.022-.05-.033-.072-.015.017-.041.033-.045.052s.017.042.028.063C1069.689,391.624,1069.707,391.609,1069.722,391.6Zm2.426-.043c.015-.005.043-.011.043-.018a.19.19,0,0,0-.014-.061c-.016,0-.046.01-.046.017A.23.23,0,0,0,1072.149,391.553Zm.606,0,.03.058.022-.059Zm9.212,7.927-.052-.033-.011.051Zm-5.466,5.781-.025-.059-.021.059Zm4.089,2.243.054.036a.55.55,0,0,0,.052-.1c0-.007-.029-.025-.046-.039Z" transform="translate(-36.973 -36.202)" fill="#45f7f6" fill-rule="evenodd"/></g></svg>