<svg xmlns="http://www.w3.org/2000/svg" width="625.703" height="520.597" viewBox="0 0 625.703 520.597">
  <g id="img-pubbing" transform="translate(625.703 520.597) rotate(180)" style="isolation: isolate">
    <g id="Background_Complete" data-name="Background Complete" transform="translate(154.63 65.755)">
      <g id="Group_1312" data-name="Group 1312">
        <g id="Group_1306" data-name="Group 1306">
          <g id="Group_1305" data-name="Group 1305" transform="translate(10.765 0)">
            <rect id="Rectangle_119" data-name="Rectangle 119" width="80.786" height="222.039" transform="translate(449.018 237.74) rotate(180)" fill="#f0f0f0"/>
            <rect id="Rectangle_120" data-name="Rectangle 120" width="417.995" height="15.701" transform="translate(433.507 15.701) rotate(180)" fill="#f0f0f0"/>
            <rect id="Rectangle_121" data-name="Rectangle 121" width="368.232" height="222.039" transform="translate(0 15.701)" fill="#f5f5f5"/>
            <rect id="Rectangle_122" data-name="Rectangle 122" width="369.646" height="81.27" transform="translate(0 141.439)" fill="#f0f0f0"/>
            <rect id="Rectangle_123" data-name="Rectangle 123" width="369.646" height="81.27" transform="translate(0 45.346)" fill="#f0f0f0"/>
            <rect id="Rectangle_124" data-name="Rectangle 124" width="13.976" height="81.27" transform="translate(382.208 222.709) rotate(180)" fill="#e6e6e6"/>
            <rect id="Rectangle_125" data-name="Rectangle 125" width="13.976" height="81.27" transform="translate(382.208 126.617) rotate(180)" fill="#e6e6e6"/>
          </g>
          <rect id="Rectangle_126" data-name="Rectangle 126" width="378.997" height="13.661" transform="translate(378.997 251.401) rotate(180)" fill="#f0f0f0"/>
          <rect id="Rectangle_127" data-name="Rectangle 127" width="92.076" height="13.661" transform="translate(378.997 237.74)" fill="#e6e6e6"/>
        </g>
      </g>
    </g>
    <g id="Desk" transform="translate(0 6.195)">
      <g id="Group_1332" data-name="Group 1332">
        <g id="Group_1313" data-name="Group 1313" transform="translate(0 0)">
          <rect id="Rectangle_132" data-name="Rectangle 132" width="601.233" height="21.576" transform="translate(0 270.356)" fill="#5c65ff"/>
          <rect id="Rectangle_133" data-name="Rectangle 133" width="160.906" height="21.576" transform="translate(0 270.356)" fill="#fff" opacity="0.3"/>
          <path id="Path_837" data-name="Path 837" d="M14,270.356H0L7.334,0H20.673l7.334,270.356Z" transform="translate(149.478 0)" fill="#407bff"/>
          <path id="Path_838" data-name="Path 838" d="M7.108,0h6.67V264.547L0,262.029Z" transform="translate(149.704 0)" fill="#fff" opacity="0.3"/>
          <path id="Path_839" data-name="Path 839" d="M14,270.356H0L7.334,0H20.673l7.334,270.356Z" transform="translate(16.804 0)" fill="#407bff"/>
          <path id="Path_840" data-name="Path 840" d="M7.108,0h6.67V264.547L0,262.029Z" transform="translate(17.03 0)" fill="#fff" opacity="0.3"/>
          <path id="Path_841" data-name="Path 841" d="M14,270.356H0L7.334,0H20.673l7.334,270.356Z" transform="translate(556.421 0)" fill="#407bff"/>
          <path id="Path_842" data-name="Path 842" d="M7.108,0h6.669V264.547L0,262.029Z" transform="translate(556.647 0)" fill="#fff" opacity="0.3"/>
          <path id="Path_843" data-name="Path 843" d="M14,270.356H0L7.334,0H20.673l7.334,270.356Z" transform="translate(423.747 0)" fill="#407bff"/>
          <path id="Path_844" data-name="Path 844" d="M7.108,0h6.67V264.547L0,262.029Z" transform="translate(423.973 0)" fill="#fff" opacity="0.3"/>
        </g>
        <g id="Group_1316" data-name="Group 1316" transform="translate(134.759 291.933)">
          <path id="Path_845" data-name="Path 845" d="M150.628,109.542H7.582c-5.135,0-8.455-4.2-7.379-9.336L19.254,9.336A12.164,12.164,0,0,1,30.548,0H173.594c5.135,0,8.455,4.2,7.379,9.336l-19.052,90.869A12.163,12.163,0,0,1,150.628,109.542Z" transform="translate(0 5.935)" fill="#263238"/>
          <path id="Path_846" data-name="Path 846" d="M26.813,0a8.469,8.469,0,0,0-7.638,6.367L.123,97.237a4.159,4.159,0,0,0,.662,3.545,3.825,3.825,0,0,0,3.061,1.292H146.895a8.476,8.476,0,0,0,7.639-6.369l19.052-90.87a4.175,4.175,0,0,0-.662-3.545A3.783,3.783,0,0,0,169.861,0Z" transform="translate(5.057 11.122)" fill="#fff"/>
          <path id="Path_847" data-name="Path 847" d="M18.126,2.785.076,88.88a3.507,3.507,0,0,0,3.433,4.226h23.21a3.5,3.5,0,0,0,3.431-2.787L48.2,4.226A3.506,3.506,0,0,0,44.769,0H21.557A3.506,3.506,0,0,0,18.126,2.785Z" transform="translate(121.674 15.604)" fill="#407bff" opacity="0.4"/>
          <g id="Group_1314" data-name="Group 1314" transform="translate(58.235 73.455)">
            <path id="Path_848" data-name="Path 848" d="M28.666,0l.783,3.734H.783L0,0Z" transform="translate(23.63 27.787)" fill="#3441af"/>
            <path id="Path_849" data-name="Path 849" d="M50.249,0l.783,3.734H.783L0,0Z" transform="translate(2.047 18.525)" fill="#ebebeb"/>
            <path id="Path_850" data-name="Path 850" d="M56.316,0,57.1,3.734H.783L0,0Z" transform="translate(-2.01 9.263)" fill="#ebebeb"/>
            <path id="Path_851" data-name="Path 851" d="M45.348,0l.783,3.734H.783L0,0Z" transform="translate(6.948)" fill="#ebebeb"/>
          </g>
          <g id="Group_1315" data-name="Group 1315" transform="translate(52.331 30.637)">
            <path id="Path_852" data-name="Path 852" d="M18.133,0l.783,3.734H.783L0,0Z" transform="translate(45.777 27.787)" fill="#3441af"/>
            <path id="Path_853" data-name="Path 853" d="M22.094,0l.783,3.734H.783L0,0Z" transform="translate(28.585 18.525)" fill="#ebebeb"/>
            <path id="Path_854" data-name="Path 854" d="M22.094,0l.783,3.734H.783L0,0Z" transform="translate(17.008 18.525)" fill="#ebebeb"/>
            <path id="Path_855" data-name="Path 855" d="M74.68,0l.783,3.734H.783L0,0Z" transform="translate(-5.385 9.262)" fill="#ebebeb"/>
            <path id="Path_856" data-name="Path 856" d="M56.941,0l.783,3.734H.783L0,0Z" transform="translate(3.129)" fill="#ebebeb"/>
          </g>
          <path id="Path_857" data-name="Path 857" d="M195.8,6.482H7.582C2.446,6.482-.873,3.566.2,0H207.1C206.023,3.566,200.94,6.482,195.8,6.482Z" transform="translate(21.609 0)" fill="#263238"/>
        </g>
        <g id="Group_1329" data-name="Group 1329" transform="translate(528.413 291.932)">
          <path id="Path_901" data-name="Path 901" d="M22.717,34.372H0L2.646,0H20.071Z" transform="translate(0 0)" fill="#407bff"/>
          <path id="Path_902" data-name="Path 902" d="M22.717,34.372H0L2.646,0H20.071Z" transform="translate(0 0)" fill="#fff" opacity="0.4"/>
        </g>
        <g id="Group_1331" data-name="Group 1331" transform="translate(44.812 291.932)">
          <path id="Path_903" data-name="Path 903" d="M11.151,58.242H43.814L32.663,0H0Z" transform="translate(0 0)" fill="#263238"/>
          <path id="Path_904" data-name="Path 904" d="M46.137,73.855H0L12.913,0H59.05Z" transform="translate(6.616 0)" fill="#407bff"/>
          <g id="Group_1330" data-name="Group 1330" transform="translate(3.887 0)">
            <path id="Path_905" data-name="Path 905" d="M0,73.855H2.729L15.641,0H12.913Z" transform="translate(0 0)" fill="#407bff"/>
            <path id="Path_906" data-name="Path 906" d="M0,73.855H2.729L15.641,0H12.913Z" transform="translate(0 0)" opacity="0.3"/>
          </g>
          <path id="Path_907" data-name="Path 907" d="M10.152,0,0,58.066H30.111L40.262,0Z" transform="translate(16.01 7.895)" fill="#fff"/>
          <path id="Path_908" data-name="Path 908" d="M10.151,0,0,58.066H1.429L11.581,0Z" transform="translate(44.692 7.895)" fill="#407bff" opacity="0.6"/>
        </g>
      </g>
    </g>
    <g id="Character" transform="translate(205.304 0)">
      <g id="Group_1346" data-name="Group 1346">
        <g id="Group_1341" data-name="Group 1341" transform="translate(0 3.244)">
          <path id="Path_909" data-name="Path 909" d="M3.736,3.461C4.391,2.041,4.171.544,3.244.116S1.034.489.377,1.907-.058,4.823.869,5.251,3.079,4.878,3.736,3.461Z" transform="translate(117.029 459.753)" fill="#263238"/>
          <path id="Path_910" data-name="Path 910" d="M1.164,15.536S1.724,5.863,0,.273C3.592-.909,7.363,2.134,7.363,2.134Z" transform="translate(120.167 444.822)" fill="#ff5652"/>
          <path id="Path_911" data-name="Path 911" d="M8.061,3.829a.907.907,0,0,0-.526-.2A7.278,7.278,0,0,1,1.71.455a.918.918,0,0,0-1.589.918A9.107,9.107,0,0,0,7.433,5.459a.917.917,0,0,0,.628-1.63Z" transform="translate(112.875 471.01)" fill="#263238"/>
          <path id="Path_912" data-name="Path 912" d="M25.41,65.945C30.88,47,36.976,32.287,44.441,23.931c0,0,.133-14.889-25.231-21.97C-8.682-5.825,2.016,12.085,2.016,12.085c14.206,7.885,12.808,19.779,2.155,24.3Z" transform="translate(147.47 399.404)" fill="#ff8b7b"/>
          <path id="Path_913" data-name="Path 913" d="M44.857,22.506c-.5,6.93-1.148,14.821-5.424,15.02-4.7.221-31.95-11.952-37.774-20.538S7.205,0,7.205,0Z" transform="translate(152.963 404.45)" fill="#263238"/>
          <g id="Group_1334" data-name="Group 1334" transform="translate(103.589 299.195)">
            <path id="Path_914" data-name="Path 914" d="M23.532,18.937,0,19.712.418,0S20.952,2.115,21.856,7.51Z" transform="translate(14.908 1.665)" fill="#ff8b7b"/>
            <path id="Path_915" data-name="Path 915" d="M2.468,10.081,0,0,15.326.04l-.418,19.713Z" transform="translate(0 1.625)" fill="#ff8b7b"/>
            <g id="Group_1333" data-name="Group 1333" transform="translate(28.989 0)">
              <path id="Path_916" data-name="Path 916" d="M103.922,102.529l-.49-5.056c-.161-1.626-.388-3.23-.593-4.836-.414-3.212-.918-6.4-1.471-9.591-1.065-6.387-2.447-12.736-4.024-19.128a197.209,197.209,0,0,0-5.884-19.243c-1.223-3.237-2.492-6.471-4.024-9.77a83.283,83.283,0,0,0-5.312-10c-.49-.832-1.088-1.7-1.665-2.552s-1.159-1.7-1.847-2.578-1.278-1.711-2.083-2.6l-1.154-1.31a18.562,18.562,0,0,0-1.311-1.373A40.492,40.492,0,0,0,61.809,6.255a72.537,72.537,0,0,0-22-5.571C36.355.274,32.947.115,29.588.041c-3.357-.094-6.677-.02-9.966.166-3.288.149-6.551.469-9.795.846-3.284.405-6.379.9-9.827,1.6L.566,21.14c11.361,2.258,23.256,4.576,33.449,7.974A69.759,69.759,0,0,1,41.2,31.876a32.48,32.48,0,0,1,5.7,3.084,7.863,7.863,0,0,1,2.573,2.513l.524.812c.209.264.434.727.66,1.092a14.345,14.345,0,0,1,.69,1.26c.232.451.472.869.7,1.4A92.491,92.491,0,0,1,57.162,56.07c1.446,5.206,2.822,10.646,3.92,16.238,1.2,5.564,2.154,11.269,3.129,16.986l1.347,8.6,1.209,8.372Z" fill="#407bff"/>
              <path id="Path_917" data-name="Path 917" d="M103.922,102.529l-.49-5.056c-.161-1.626-.388-3.23-.593-4.836-.414-3.212-.918-6.4-1.471-9.591-1.065-6.387-2.447-12.736-4.024-19.128a197.209,197.209,0,0,0-5.884-19.243c-1.223-3.237-2.492-6.471-4.024-9.77a83.283,83.283,0,0,0-5.312-10c-.49-.832-1.088-1.7-1.665-2.552s-1.159-1.7-1.847-2.578-1.278-1.711-2.083-2.6l-1.154-1.31a18.562,18.562,0,0,0-1.311-1.373A40.492,40.492,0,0,0,61.809,6.255a72.537,72.537,0,0,0-22-5.571C36.355.274,32.947.115,29.588.041c-3.357-.094-6.677-.02-9.966.166-3.288.149-6.551.469-9.795.846-3.284.405-6.379.9-9.827,1.6L.566,21.14c11.361,2.258,23.256,4.576,33.449,7.974A69.759,69.759,0,0,1,41.2,31.876a32.48,32.48,0,0,1,5.7,3.084,7.863,7.863,0,0,1,2.573,2.513l.524.812c.209.264.434.727.66,1.092a14.345,14.345,0,0,1,.69,1.26c.232.451.472.869.7,1.4A92.491,92.491,0,0,1,57.162,56.07c1.446,5.206,2.822,10.646,3.92,16.238,1.2,5.564,2.154,11.269,3.129,16.986l1.347,8.6,1.209,8.372Z" opacity="0.2"/>
            </g>
          </g>
          <g id="Group_1335" data-name="Group 1335" transform="translate(131.098 262.996)">
            <path id="Path_918" data-name="Path 918" d="M.909,115.287C6.609,91.606,13.969,51.906,15.652,0H119.27c.575,12.81-1.591,84.878-12.019,137.072a36.076,36.076,0,0,1-43.178,28.25l-.5-.113c-12.925-2.945-31.5-7.692-42.425-11.844l-.446-.17A32.45,32.45,0,0,1,.909,115.287Z" transform="translate(0 0)" fill="#45f7f6"/>
          </g>
          <path id="Path_919" data-name="Path 919" d="M0,15.76C.821,10.793,1.644,5.526,2.408,0c8.478,8.852,11.166,35.962,11.166,35.962Z" transform="translate(138.742 329.349)" opacity="0.2"/>
          <g id="Group_1336" data-name="Group 1336" transform="translate(10.424 296.394)">
            <path id="Path_920" data-name="Path 920" d="M24.219,18.267.775,20.465,0,.762a22.084,22.084,0,0,1,21.855,6.2Z" transform="translate(18.025 3.861)" fill="#ff8b7b"/>
            <path id="Path_921" data-name="Path 921" d="M7.549,13.885,0,.348,18.026,0,18.8,19.7Z" transform="translate(0 4.624)" fill="#ff8b7b"/>
            <path id="Path_922" data-name="Path 922" d="M125.409,90.9c-1.637-3.107-3.081-5.84-4.707-8.675-1.6-2.8-3.2-5.592-4.875-8.337q-4.982-8.268-10.421-16.3A273.168,273.168,0,0,0,81.144,26.365a133.175,133.175,0,0,0-15.38-14.622c-.7-.589-1.508-1.164-2.262-1.743-.787-.584-1.43-1.115-2.577-1.83a35.732,35.732,0,0,0-3.115-1.858c-1.048-.591-2.076-1.083-3.123-1.548a55.988,55.988,0,0,0-12.18-3.7,76.9,76.9,0,0,0-22.159-.5,95.288,95.288,0,0,0-10.26,1.828c-1.678.386-3.337.825-4.99,1.331C3.4,4.209,1.9,4.769,0,5.432L2.929,23.7c11.11,1.509,23.122,3.442,31.405,7.181a22.5,22.5,0,0,1,5.155,2.968,11.326,11.326,0,0,1,1.669,1.476c.138.158.672.635,1.1,1.023.439.414.876.763,1.32,1.225A129.511,129.511,0,0,1,54.207,49.512a343.944,343.944,0,0,1,19.942,28.6c3.184,5.006,6.291,10.1,9.381,15.212l4.574,7.694,4.406,7.546Z" transform="translate(35.056)" fill="#45f7f6"/>
          </g>
          <path id="Path_923" data-name="Path 923" d="M29.11,0H9.737L0,44.863H19.373Z" transform="translate(113.34 17.908)" fill="#ff8b7b"/>
          <path id="Path_924" data-name="Path 924" d="M25.623,22.023H47.388A1.692,1.692,0,0,0,49.039,20.7l3.826-17.22A2.848,2.848,0,0,0,50.028.035c-7.6.131-11.29.575-20.86.575C23.279.611,15.722,0,7.591,0-.362,0-1.6,8.039,1.727,8.768,16.653,12.033,17.7,16.535,22.479,20.832A4.7,4.7,0,0,0,25.623,22.023Z" transform="translate(96.377 0.037)" fill="#263238"/>
          <g id="Group_1337" data-name="Group 1337" transform="translate(113.339 37.917)" opacity="0.2">
            <path id="Path_925" data-name="Path 925" d="M19.381,24.842H0L5.4,0,24.409,1.717Z"/>
          </g>
          <path id="Path_926" data-name="Path 926" d="M50.664,57.4c6.986-17.912,11.987-28.041,7.324-41.05-7.011-19.568-32.2-21.536-44.4-6.073C2.61,24.191-6.971,51.146,6.871,65.963,20.51,80.562,43.676,75.308,50.664,57.4Z" transform="translate(116.012 430.703)" fill="#ff8b7b"/>
          <path id="Path_927" data-name="Path 927" d="M20.107,20.011c-2.909-3.9-5.125-6.847-5.125-6.847S9.019,27.976,11.3,34.768C8.4,40.521,2.538,32.045.328,43.248S7.679,66.483,11.3,68.973c.51-.83.483-4.021.483-4.021s14.316,12.761,34.7,10.97c-1.4-1.4-1.945-5.211-1.945-5.211s21.005-3.6,25.778-15.431a22.934,22.934,0,0,1-5.291,1.867,25.676,25.676,0,0,0,4.254-18.983C67.513,26.651,66.683,13.933,66.89,8.912S53.3-5.715,44.9,4.556,20.107,20.011,20.107,20.011Z" transform="translate(112.548 441.259)" fill="#263238"/>
          <path id="Path_928" data-name="Path 928" d="M12.076,15.985a19.61,19.61,0,0,0-.894-12.57C8.934-1.792,4.324-.6,2.027,4.017-.038,8.178-1.358,15.9,2.3,19.6,5.911,23.25,10.691,21,12.076,15.985Z" transform="translate(129.347 449.143)" fill="#ff8b7b"/>
          <g id="Group_1338" data-name="Group 1338" transform="translate(84.688 44.755)">
            <path id="Path_929" data-name="Path 929" d="M93.116,218.241S3.153,185.625.5,142.454C-4.386,62.949,28.136,0,28.136,0l29.8,3.185s-5.3,25.589-9.259,97.619c-4.974,90.509,148.637-2.12,117,117.437Z" fill="#407bff"/>
            <path id="Path_930" data-name="Path 930" d="M93.116,218.241S3.153,185.625.5,142.454C-4.386,62.949,28.136,0,28.136,0l29.8,3.185s-5.3,25.589-9.259,97.619c-4.974,90.509,148.637-2.12,117,117.437Z" fill="#fff" opacity="0.5"/>
          </g>
          <path id="Path_931" data-name="Path 931" d="M0,13.226C-.139,13.212,4.746,0,4.746,0l37.21,3.642L40.088,15.677Z" transform="translate(104.566 42.499)" fill="#407bff"/>
          <g id="Group_1339" data-name="Group 1339" transform="translate(0 0)">
            <path id="Path_932" data-name="Path 932" d="M25.032,0H5.66L0,44.863H19.372Z" transform="translate(33.725 15.711)" fill="#ff8b7b"/>
            <path id="Path_933" data-name="Path 933" d="M39.232,22.067l21.156.028a1.686,1.686,0,0,0,1.651-1.32L65.889,3.56A2.817,2.817,0,0,0,63.107.111C55.475.23,44.447.662,34.855.649,23.64.634,21.49.019,8.336,0,.383-.011-1.836,8.027,1.493,8.76c15.151,3.336,19.99,3.7,33.074,11.791A8.966,8.966,0,0,0,39.232,22.067Z" fill="#263238"/>
            <path id="Path_934" data-name="Path 934" d="M0,24.435,3.079,0,22.295,1.31,19.381,24.435Z" transform="translate(33.73 36.126)" opacity="0.2"/>
          </g>
          <g id="Group_1340" data-name="Group 1340" transform="translate(0.907 46.935)">
            <path id="Path_935" data-name="Path 935" d="M145.843,216.061S-1.578,202.987.013,128.95C1.667,51.942,30.434,0,30.434,0H59.22s-5.457,39.949-4.49,115.766c.29,22.713,46.185,30.218,91.008,32.867,38.719,2.29,74.961,24.359,90,60.11l3.077,7.317Z" fill="#407bff"/>
            <path id="Path_936" data-name="Path 936" d="M145.843,216.061S-1.578,202.987.013,128.95C1.667,51.942,30.434,0,30.434,0H59.22s-5.457,39.949-4.49,115.766c.29,22.713,46.185,30.218,91.008,32.867,38.719,2.29,74.961,24.359,90,60.11l3.077,7.317Z" fill="#45f7f6" opacity="0.5"/>
          </g>
          <path id="Path_937" data-name="Path 937" d="M0,13.307C-.13,13.3,4.936,0,4.936,0L39.681,2.481,37.655,14.527Z" transform="translate(24.607 41.37)" fill="#407bff"/>
        </g>
        <g id="Group_1345" data-name="Group 1345" transform="translate(65.858 0)">
          <g id="Group_1342" data-name="Group 1342" transform="translate(0 172.024)">
            <path id="Path_938" data-name="Path 938" d="M25.888,177.43l-18.7-72.08A225.292,225.292,0,0,1,0,48.822V15.316C0,6.857,6.236,0,13.927,0h95.89c7.693,0,13.927,6.857,13.927,15.316V48.822a225.3,225.3,0,0,0,7.19,56.528l16.518,63.676c2.538,9.782-4.143,19.519-13.392,19.519H39.28C33.06,188.545,27.594,184.008,25.888,177.43Z" transform="translate(93.691 0)" fill="#263238"/>
            <path id="Path_939" data-name="Path 939" d="M.328,34.9,3.468,17.025C5.119,7.622,13.39,0,21.939,0H128.525c8.551,0,14.143,7.622,12.492,17.025L137.877,34.9C136,45.6,126.589,54.269,116.859,54.269H14.542C4.813,54.269-1.549,45.6.328,34.9Z" transform="translate(0 0)" fill="#263238"/>
          </g>
          <g id="Group_1344" data-name="Group 1344" transform="translate(62.456 0)">
            <path id="Path_940" data-name="Path 940" d="M61.285,0H5.452L0,17.95H66.736Z" transform="translate(15.044 154.073)" fill="#407bff"/>
            <g id="Group_1343" data-name="Group 1343" transform="translate(38.437 20.622)">
              <rect id="Rectangle_134" data-name="Rectangle 134" width="19.95" height="133.451" transform="translate(0 0)" fill="#407bff"/>
              <path id="Path_941" data-name="Path 941" d="M19.95,0H0V130.246l19.95-2.03Z" fill="#fff" opacity="0.7"/>
              <path id="Path_942" data-name="Path 942" d="M4.765,0H0V129.2l4.765-.485Z" transform="translate(10.318)" fill="#fff" opacity="0.7"/>
            </g>
            <path id="Path_943" data-name="Path 943" d="M94.281,0H2.543a2.539,2.539,0,0,0-1.5,4.587L15.6,15.263a40.759,40.759,0,0,0,24.1,7.885H57.125a40.755,40.755,0,0,0,24.1-7.885L95.782,4.587A2.539,2.539,0,0,0,94.281,0Z" transform="translate(0 0)" fill="#407bff"/>
          </g>
        </g>
      </g>
    </g>
  </g>
</svg>
