<svg xmlns="http://www.w3.org/2000/svg" width="135.077" height="123.856" viewBox="0 0 135.077 123.856">
  <g id="img-code-thick" transform="translate(121.286 123.856) rotate(180)">
    <g id="Group_1327" data-name="Group 1327" transform="translate(1.167 0)">
      <g id="Group_1321" data-name="Group 1321" transform="translate(-29.974 15.693)">
        <g id="Group_1317" data-name="Group 1317" transform="translate(15.018 64.51)">
          <path id="Path_859" data-name="Path 859" d="M0,0H30.682l.688,3.3H.688Z" transform="translate(22.766 15.793)" fill="#fff"/>
          <path id="Path_860" data-name="Path 860" d="M0,0H12.315L13,3.3H.688Z" transform="translate(28.076 10.528)" fill="#fff" opacity="0.4"/>
          <path id="Path_861" data-name="Path 861" d="M0,0H18.975l.688,3.3H.688Z" transform="translate(8.271 10.528)" fill="#fff" opacity="0.4"/>
          <path id="Path_862" data-name="Path 862" d="M0,0H39.983l.688,3.3H.688Z" transform="translate(0 5.264)" fill="#fff" opacity="0.4"/>
          <path id="Path_863" data-name="Path 863" d="M0,0H33.8l.688,3.3H.688Z" transform="translate(5.088)" fill="#fff" opacity="0.4"/>
        </g>
        <path id="Path_864" data-name="Path 864" d="M.688,3.3H22.2L21.514,0H0Z" transform="translate(15.016 5.264)" fill="#fff" opacity="0.4"/>
        <g id="Group_1318" data-name="Group 1318" transform="translate(15.017 0)">
          <path id="Path_865" data-name="Path 865" d="M0,0H31.511L32.2,3.3H.688Z" transform="translate(23.884 15.793)" fill="#fff"/>
          <path id="Path_866" data-name="Path 866" d="M.688,3.3H30L29.309,0H0Z" transform="translate(11.096)" fill="#fff" opacity="0.4"/>
          <path id="Path_867" data-name="Path 867" d="M.688,3.3H22.2L21.514,0H0Z" transform="translate(19.826 5.264)" fill="#fff" opacity="0.4"/>
          <path id="Path_868" data-name="Path 868" d="M.688,3.3H43.717L43.028,0H0Z" transform="translate(0 10.528)" fill="#fff" opacity="0.4"/>
        </g>
        <g id="Group_1319" data-name="Group 1319" transform="translate(15.017 89.068)">
          <path id="Path_869" data-name="Path 869" d="M0,0H34.727l.688,3.3H.688Z" transform="translate(17.825 15.793)" fill="#fff"/>
          <path id="Path_870" data-name="Path 870" d="M.688,3.3H38.974L38.286,0H0Z" transform="translate(0)" fill="#fff" opacity="0.4"/>
          <path id="Path_871" data-name="Path 871" d="M.688,3.3H32.411L31.722,0H0Z" transform="translate(7.661 5.264)" fill="#fff" opacity="0.4"/>
          <path id="Path_872" data-name="Path 872" d="M.688,3.3H35.626L34.938,0H0Z" transform="translate(5.543 10.529)" fill="#fff" opacity="0.4"/>
        </g>
        <g id="Group_1320" data-name="Group 1320" transform="translate(15.018 24.359)">
          <path id="Path_873" data-name="Path 873" d="M0,0H24.128l.688,3.3H.688Z" transform="translate(37.586 31.586)" fill="#fff"/>
          <path id="Path_874" data-name="Path 874" d="M.688,3.3H47.84L47.152,0H0Z" transform="translate(0 15.793)" fill="#fff" opacity="0.4"/>
          <path id="Path_875" data-name="Path 875" d="M.688,3.3H20.222L19.534,0H0Z" transform="translate(28.044 21.057)" fill="#fff" opacity="0.4"/>
          <path id="Path_876" data-name="Path 876" d="M.688,3.3H20.222L19.534,0H0Z" transform="translate(7.515 21.057)" fill="#fff" opacity="0.4"/>
          <path id="Path_877" data-name="Path 877" d="M.688,3.3H43.717L43.028,0H0Z" transform="translate(6.318 26.321)" fill="#fff" opacity="0.4"/>
          <path id="Path_878" data-name="Path 878" d="M.688,3.3H38.146L37.458,0H0Z" transform="translate(6.401)" fill="#fff" opacity="0.4"/>
          <path id="Path_879" data-name="Path 879" d="M.688,3.3H11.58L10.892,0H0Z" transform="translate(33.402 5.264)" fill="#fff" opacity="0.4"/>
          <path id="Path_880" data-name="Path 880" d="M.688,3.3H16.237L15.548,0H0Z" transform="translate(16.653 5.264)" fill="#fff" opacity="0.4"/>
          <path id="Path_881" data-name="Path 881" d="M.688,3.3H43.717L43.028,0H0Z" transform="translate(3.026 10.529)" fill="#fff" opacity="0.4"/>
        </g>
      </g>
      <g id="Group_1325" data-name="Group 1325" transform="translate(56.279 4.083)">
        <g id="Group_1322" data-name="Group 1322" transform="translate(11.997 40.152)">
          <path id="Path_882" data-name="Path 882" d="M0,0H15.418l.688,3.3H.688Z" transform="translate(35.736 10.529)" fill="#fff" opacity="0.4"/>
          <path id="Path_883" data-name="Path 883" d="M0,0H23.756l.688,3.3H.688Z" transform="translate(10.079 10.529)" fill="#fff" opacity="0.4"/>
          <path id="Path_884" data-name="Path 884" d="M0,0H50.057l.688,3.3H.688Z" transform="translate(0 5.264)" fill="#fff" opacity="0.4"/>
          <path id="Path_885" data-name="Path 885" d="M0,0H42.314L43,3.3H.688Z" transform="translate(6.646)" fill="#fff" opacity="0.4"/>
        </g>
        <g id="Group_1323" data-name="Group 1323" transform="translate(2.164 68.323)">
          <path id="Path_886" data-name="Path 886" d="M.688,3.3H48.621L47.933,0H0Z" transform="translate(0)" fill="#fff" opacity="0.4"/>
          <path id="Path_887" data-name="Path 887" d="M.688,3.3H40.4L39.716,0H0Z" transform="translate(7.883 5.264)" fill="#fff" opacity="0.4"/>
          <path id="Path_888" data-name="Path 888" d="M.688,3.3H44.429L43.741,0H0Z" transform="translate(13.342 10.528)" fill="#fff"/>
        </g>
        <g id="Group_1324" data-name="Group 1324" transform="translate(0 0)">
          <path id="Path_889" data-name="Path 889" d="M.652,3.3H56.567L55.915,0H0Z" transform="translate(0 15.793)" fill="#fff" opacity="0.4"/>
          <path id="Path_890" data-name="Path 890" d="M.688,3.3H25.145L24.456,0H0Z" transform="translate(32.52 21.057)" fill="#fff" opacity="0.4"/>
          <path id="Path_891" data-name="Path 891" d="M.688,3.3H25.145L24.456,0H0Z" transform="translate(9.132 21.057)" fill="#fff" opacity="0.4"/>
          <path id="Path_892" data-name="Path 892" d="M.648,3.3H51.4L50.756,0H0Z" transform="translate(7.357 26.322)" fill="#fff" opacity="0.4"/>
          <path id="Path_893" data-name="Path 893" d="M.643,3.3H44.431L43.788,0H0Z" transform="translate(8.844)" fill="#fff" opacity="0.4"/>
          <path id="Path_894" data-name="Path 894" d="M.688,3.3H14.324L13.636,0H0Z" transform="translate(40.048 5.264)" fill="#fff" opacity="0.4"/>
          <path id="Path_895" data-name="Path 895" d="M.688,3.3H20.154L19.466,0H0Z" transform="translate(20.206 5.264)" fill="#fff" opacity="0.4"/>
          <path id="Path_896" data-name="Path 896" d="M.649,3.3H51.4L50.756,0H0Z" transform="translate(4.065 10.529)" fill="#fff" opacity="0.4"/>
        </g>
      </g>
      <g id="Group_1326" data-name="Group 1326" transform="translate(-10.078 0)">
        <path id="Path_897" data-name="Path 897" d="M.688,3.3H37.382L36.694,0H0Z" transform="translate(12.501)" fill="#fff" opacity="0.4"/>
        <path id="Path_898" data-name="Path 898" d="M.688,3.3H27.623L26.935,0H0Z" transform="translate(23.357 5.264)" fill="#fff" opacity="0.4"/>
        <path id="Path_899" data-name="Path 899" d="M.688,3.3H27.623L26.935,0H0Z" transform="translate(0 5.264)" fill="#fff" opacity="0.4"/>
        <path id="Path_900" data-name="Path 900" d="M.619,3.3H49.07L48.451,0H0Z" transform="translate(3.008 10.528)" fill="#fff" opacity="0.4"/>
      </g>
    </g>
  </g>
</svg>
