<svg xmlns="http://www.w3.org/2000/svg" width="1024.748" height="1969.602" viewBox="0 0 1024.748 1969.602">
  <g id="img-rope" transform="translate(-296.335 -1446.976)">
    <path id="mg-dottedline" d="M12304-1700c8,170-11,127,278,283,134.1,72.384,89.819,275-103,360-223.9,98.7-608.433,83.919-535,234,137,280,888,264,819,589s97.336,319.895,195.643,503.343" transform="translate(-11638 3147)" fill="none" stroke="#766ee7" stroke-width="1" stroke-dasharray="6 6"/>
    <g id="Group_2128" data-name="Group 2128" transform="translate(1071.898 3151.966) rotate(-21)">
      <path id="Path_1209" data-name="Path 1209" d="M0,23.109V10.165A1.55,1.55,0,0,1,1.243,8.611a1.5,1.5,0,0,1,1.745,1.473v3.736a1.515,1.515,0,0,0,1.518,1.494c.7,0,1.471-.487,1.471-1.14V1.574A1.549,1.549,0,0,1,7.219.02,1.5,1.5,0,0,1,8.964,1.494l-.027,9.747a1.507,1.507,0,0,0,1.576,1.525h0a1.508,1.508,0,0,0,1.439-1.506V8.3A1.55,1.55,0,0,1,13.2,6.744,1.5,1.5,0,0,1,14.94,8.217V25.68Z" transform="translate(17.638 0)" fill="#2c1e56"/>
      <path id="Path_1210" data-name="Path 1210" d="M4.355,0H19.44l4.075,8.668A2.891,2.891,0,0,1,20.6,12.774h0a2.894,2.894,0,0,1-1.333-.487L11.9,7.263,4.523,12.287a2.891,2.891,0,0,1-1.333.487h0A2.891,2.891,0,0,1,.28,8.668Z" transform="translate(13.674 60.505)" fill="#5c65ff"/>
      <g id="Group_2109" data-name="Group 2109" transform="translate(0 15.074)">
        <path id="Path_1211" data-name="Path 1211" d="M1.107.207l3.88,4.25-.94.859L.166,1.066A.637.637,0,0,1,1.107.207Z" transform="translate(0 4.586)" fill="#ffbe9d"/>
        <path id="Path_1212" data-name="Path 1212" d="M5.171,8.531l-.195-.525A11.017,11.017,0,0,1,2.11,1.161L2.1.969A1.023,1.023,0,0,0,.848.027h0A1.021,1.021,0,0,0,.062.915h0A11.014,11.014,0,0,0,2.1,8.549L3.877,11Z" transform="translate(1.171 0)" fill="#ffbe9d"/>
      </g>
      <g id="Group_2110" data-name="Group 2110" transform="translate(4.238 15.074)">
        <path id="Path_1213" data-name="Path 1213" d="M3.881.207,0,4.458l.941.859,3.88-4.25a.637.637,0,1,0-.94-.859Z" transform="translate(42.66 4.586)" fill="#ffbe9d"/>
        <path id="Path_1214" data-name="Path 1214" d="M0,8.531l.195-.525A11.016,11.016,0,0,0,3.06,1.161L3.07.969A1.023,1.023,0,0,1,4.322.027h0a1.023,1.023,0,0,1,.787.888h0A11.017,11.017,0,0,1,3.071,8.549L1.293,11Z" transform="translate(41.306 0)" fill="#ffbe9d"/>
        <path id="Path_1215" data-name="Path 1215" d="M43.409,1.927,30.469,19.365,28.876,37.4l-1.037.3a23.008,23.008,0,0,1-12.812.048L13.791,37.4,12.821,19.2,0,1.927,2.006,0l9.783,10.264a13.715,13.715,0,0,0,9.895,4.253h0A13.713,13.713,0,0,0,31.615,10.3L41.4.091Z" transform="translate(0 8.036)" fill="#fdbc00"/>
      </g>
      <path id="Path_1216" data-name="Path 1216" d="M.09,6.082C.052,3.756,2.116,1.031,5.1.231A6.764,6.764,0,0,1,12.6,3.2l.26.418a6.763,6.763,0,0,1,.725,5.524l-1.972,4.883L11.6,17.5,8.823,19.6,5.985,17.5l-.063-3.739L3.306,13.75A3.354,3.354,0,0,1,0,10.4V8.838Z" transform="translate(17.119 19.488)" fill="#ffbe9d"/>
      <path id="Path_1217" data-name="Path 1217" d="M0,0A1.477,1.477,0,0,0,1.478,1.477,1.477,1.477,0,0,0,2.955,0" transform="translate(19.957 29.653)" fill="#fff"/>
      <path id="Path_1218" data-name="Path 1218" d="M9.928,8.68,0,6.558A5.24,5.24,0,0,1,.344,5.045,7.6,7.6,0,0,1,9.58.253a8.012,8.012,0,0,1,6.065,7.514c0,3.332-3.051,6.245-3.051,6.245Z" transform="translate(16.934 17.537)" fill="#2c1e56"/>
      <path id="Path_1219" data-name="Path 1219" d="M0,1.691A1.691,1.691,0,1,0,1.691,0,1.691,1.691,0,0,0,0,1.691Z" transform="translate(25.659 25.697)" fill="#ff63be"/>
    </g>
    <g id="Group_2151" data-name="Group 2151" transform="matrix(0.978, -0.208, 0.208, 0.978, 164.388, 1978.697)">
      <g id="Group_279" data-name="Group 279" transform="translate(632.721 247.467)">
        <path id="Path_510" data-name="Path 510" d="M640.162,249.645s.8-1.439,1.172-2.035,1.993.872,1.993.872a1,1,0,0,1-.635,1.061c-.786.421-1.26.41-1.423.943s-1.121-.2-1.121-.2Z" transform="translate(-636.911 -247.467)" fill="#ed9c80"/>
        <path id="Path_511" data-name="Path 511" d="M659.776,250.188s-.732-1.571-1.077-2.184-2.031.783-2.031.783a1,1,0,0,0,.587,1.088c.766.455,1.24.465,1.379,1.006s1.129-.154,1.129-.154Z" transform="translate(-645.462 -247.665)" fill="#ed9c80"/>
        <path id="Path_527" data-name="Path 527" d="M644.344,249.735s.527-.128.631-.354.242-.584.49-.536c.322.062.045.8-.106.982" transform="translate(-639.085 -248.178)" fill="#ed9c80"/>
        <path id="Path_528" data-name="Path 528" d="M657.72,250.012s-.52-.151-.615-.382-.215-.595-.465-.558c-.324.048-.022.885.121,1.075" transform="translate(-645.382 -248.297)" fill="#ed9c80"/>
        <path id="Path_529" data-name="Path 529" d="M650.671,308.277s2.43,8.811,3.89,11.152,9.693,11.56,9.693,11.56h0c-3.2-8.209-4.143-10.521-6.142-13.71-1.17-4.643-.413-10.9-3.309-14.88-.882-1.214-4.895,1.085-4.895,1.085Z" transform="translate(-641.968 -275.747)" fill="#5c65ff"/>
        <path id="Path_530" data-name="Path 530" d="M642.643,303.489s-.357,12.609-.358,15,1.2,15.2,1.2,15.2-1.41.654.023-.11c.049-2.944,2.835-7.555,2.413-14.459,1.534-6.565,2.463-13.032,2.463-13.032l-.145-3.426Z" transform="translate(-638.018 -276.065)" fill="#5c65ff"/>
        <path id="Path_531" data-name="Path 531" d="M642.069,268.17a3.959,3.959,0,0,0-.837,3.8c.182.76-.838,1.892-1.528,2.474a2.561,2.561,0,0,0-.626,3.082c.651,1.178.808,1.26.5,2.408s-.318,3.535,2.917,3.05,3.2-8.406,3.2-8.406l-.429-3.442Z" transform="translate(-636.211 -258.194)" fill="#9f3a07"/>
        <path id="Path_532" data-name="Path 532" d="M650.392,271.632s-.136.077-.368.181c0,.117.006.23,0,.335.011.67,0,1.1,0,1.1a1.555,1.555,0,0,1-1.916.664.612.612,0,0,1-.119-.072.564.564,0,0,1-.214-.547,4.383,4.383,0,0,0,.061-.935,3.122,3.122,0,0,1-1.339-.226c-1.714-.719-.735-5.392-.735-5.392s2.92-1.242,3.832-.038S650.392,271.632,650.392,271.632Z" transform="translate(-639.678 -257.163)" fill="#ed9c80"/>
        <path id="Path_533" data-name="Path 533" d="M649.59,268.319a1.515,1.515,0,0,0,.652,1.38c.763.506,2.033.717,2.1,1.424a1.344,1.344,0,0,1-.294.835,4.943,4.943,0,0,0,.852-.128c.036-.056.333-1.688.333-1.688s-1.771-1.7-1.986-1.786A11.406,11.406,0,0,0,649.59,268.319Z" transform="translate(-641.8 -258.264)" fill="#d8836c"/>
        <path id="Path_534" data-name="Path 534" d="M652.834,279.508a1.555,1.555,0,0,1-1.916.664l-.014-.012c1.042.293,1.02-1,.858-1.248s-.674-.336-.674-.336a9.246,9.246,0,0,0,1.035-.173,4.079,4.079,0,0,1,.843-.149A5.609,5.609,0,0,1,652.834,279.508Z" transform="translate(-642.484 -263.419)" fill="#d8836c"/>
        <path id="Path_535" data-name="Path 535" d="M649.872,262.95a3.157,3.157,0,0,0-2.091,1.409c-.225.4,1.107.765,1.121,1.358.029,1.152,1.342,1.61,2.375,2.033.273.112.636.606.007,1.211a2.573,2.573,0,0,0-.808,1.895c.092.877,1.717.728,1.717.728s-2.31,6.974-2.02,7.955c.154.522,4.645,3.24,7.73.662a3.083,3.083,0,0,0,.353-4.3c-.818-.95-.815-1.6-.748-1.838a4.779,4.779,0,0,0-2.4-5.871,2.094,2.094,0,0,1-1.211-1.766,3.63,3.63,0,0,0-.966-2.483A3.491,3.491,0,0,0,649.872,262.95Z" transform="translate(-640.853 -255.463)" fill="#9f3a07"/>
        <path id="Path_536" data-name="Path 536" d="M643.4,263.771a1.253,1.253,0,0,0,.07,2.015c.7.471,1.84.749,3.555-.122,2.046-1.038,1.417-2.653.054-2.528C644.493,264.016,644.181,263.145,643.4,263.771Z" transform="translate(-638.351 -255.582)" fill="#9f3a07"/>
        <path id="Path_537" data-name="Path 537" d="M641.513,266s.075.827,1.2.644a1.143,1.143,0,0,0,.806-.872,2.727,2.727,0,0,0,2.531-1.262c.727-1.012,1.8-2.759,2.31-3.675a1.658,1.658,0,0,0,.154-1.226c-.5-1.929-2.384-6.694-2.384-6.694L648,252.24l2.863,7.089a2.906,2.906,0,0,1-.094,2.394c-1.016,2.027-2.973,5.488-3.89,7.27-.291,1.067,1.212,8.623,1.212,8.623a12.8,12.8,0,0,1-10.045.671c-.009-2.269.255-6.433.2-8.772-.06-2.4-1.306-2.168-4.5-8.741a3.125,3.125,0,0,1-.241-2.017,22.329,22.329,0,0,1,3.182-6.771,6.489,6.489,0,0,1,1.464.77s-1.672,4.184-2.252,5.917a1.363,1.363,0,0,0,.09,1.082C636.934,261.53,639.84,265.986,641.513,266Z" transform="translate(-633.43 -249.809)" fill="#ffc107"/>
      </g>
    </g>
    <g id="Group_2152" data-name="Group 2152" transform="translate(107.584 2325.79) rotate(-9)">
      <g id="Group_309" data-name="Group 309" transform="translate(362.784 234.257)">
        <path id="Path_557" data-name="Path 557" d="M416.763,234.947c-.019-.164-.23-.083-.284.053a.949.949,0,0,0-.029.117c.017-.27.028-.491.022-.545-.018-.155-.213-.1-.279.026,0-.109,0-.191,0-.225-.02-.2-.232-.115-.285.05a2.337,2.337,0,0,0-.046.277,1.355,1.355,0,0,0,0-.151c-.019-.164-.208-.12-.261.015a2.017,2.017,0,0,0-.055.319c-.024.164-.07.342-.09.508s-.195.86-.547.935c-.539.115-.2-.823-.578-1.033-.12-.066-.246.662-.255,1.073a4.589,4.589,0,0,0,.028.859,5.638,5.638,0,0,1,.149.732,3.033,3.033,0,0,1-.306.721l1.362.31a5.488,5.488,0,0,1,.486-.922,3.114,3.114,0,0,0,.825-1.459,6.052,6.052,0,0,0,.155-1.1S416.769,235,416.763,234.947Z" transform="translate(-390.698 -234.257)" fill="#feaf84"/>
        <path id="Path_558" data-name="Path 558" d="M391.862,250.677s4.319-.038,6.664-2.666c1.871-2.622,3.678-5.521,3.813-5.79.368.14,1.159.5,1.159.5a65.259,65.259,0,0,1-3.434,6.793,11.8,11.8,0,0,1-6.859,4.358C391.288,251.674,391.862,250.677,391.862,250.677Z" transform="translate(-378.604 -238.602)" fill="#feaf84"/>
        <g id="Group_303" data-name="Group 303" transform="translate(0 27.639)">
          <g id="Group_302" data-name="Group 302" transform="translate(0.711)">
            <path id="Path_563" data-name="Path 563" d="M375.723,302.958s-2.079-4.453,1.087-7.879a18.269,18.269,0,0,0,5.13,1.2,11.178,11.178,0,0,0,2.675-.174,57.541,57.541,0,0,1,.529,8.461Z" transform="translate(-370.188 -295.079)" fill="#5c65ff"/>
            <path id="Path_564" data-name="Path 564" d="M392.617,352.889c.057,0-.053,0,0,0,1.175-.036.16-.266.16-.266h0c-.279-5.185,1.832-13.966,1.844-16.651a2.971,2.971,0,0,0-.037-.513c-.285-1.953-2.3-1.613-3.079.224a7.237,7.237,0,0,0-.424,1.406,12.735,12.735,0,0,0-.234,1.97C390.636,343.555,392.133,349.559,392.617,352.889Z" transform="translate(-378.794 -316.391)" fill="#5c65ff"/>
            <path id="Path_565" data-name="Path 565" d="M384.467,310.052c.01.053.025.109.039.166.546,2.343,2.264,8.665,3.043,10.708v0a1.248,1.248,0,0,0,.92.616,2.071,2.071,0,0,0,2.583-2.247,4.988,4.988,0,0,0-.039-.734c-.2-1.646-.941-10.758-1.051-11.635s-.318-2.156-.789-2.3C386.82,303.922,383.723,306.774,384.467,310.052Z" transform="translate(-375.263 -300.23)" fill="#5c65ff"/>
            <path id="Path_568" data-name="Path 568" d="M369.319,336.925c1.51-1.542,3.724-.933,2.8,1.4-.991,2.5-4.085,9.444-5.715,14.372l-.113.321h0c.741-3.186-.79-9.182.863-13.039A10.244,10.244,0,0,1,369.319,336.925Z" transform="translate(-364.348 -317.445)" fill="#5c65ff"/>
            <g id="Group_301" data-name="Group 301" transform="translate(4.476 2.724)">
              <g id="Group_300" data-name="Group 300">
                <path id="Path_569" data-name="Path 569" d="M382.944,302.945c.155-3.66-4.293-1.051-6.424.244a3.107,3.107,0,0,0-1.275,2.533c-.085.96-.858,10.84-1.021,12.643-.367,4.065,3.074,1.709,3.361.574C378.311,316.076,382.859,304.94,382.944,302.945Z" transform="translate(-374.197 -301.073)" fill="#5c65ff"/>
              </g>
            </g>
            <path id="Path_570" data-name="Path 570" d="M372.807,333.582a9.8,9.8,0,0,1-1.591,4.394s2.609-1.338,2.731-1.524a10,10,0,0,0,.449-2.276C374.337,333.98,372.807,333.582,372.807,333.582Z" transform="translate(-368.095 -316.085)" fill="#5c65ff"/>
          </g>
        </g>
        <g id="Group_305" data-name="Group 305" transform="translate(5.973 2.981)">
          <g id="Group_304" data-name="Group 304">
            <path id="Path_571" data-name="Path 571" d="M384.2,248.158c.01.275.02,1.353-.553,1.61s-.94.371-.923.459c.006.04.063.229.124.415a.862.862,0,0,0,.331.519l.083,1.38-1.029,1.026-.336.334-.5-.462-1.646-1.5a1.68,1.68,0,0,0,.21-1.731c-.067-.126-.817-.957-1.415-1.794a4.477,4.477,0,0,1-.723-1.332c-.215-.957-.4-1.966.154-2.567s4.315-3.074,5.07-.173a14.459,14.459,0,0,0,1.146,1.844.438.438,0,0,1-.04.74C383.9,247.069,384.189,247.882,384.2,248.158Z" transform="translate(-376.844 -241.987)" fill="#feaf84"/>
            <path id="Path_572" data-name="Path 572" d="M384.3,258.008l-1.029,1.026-.313.152-.528-.279-1.646-1.5a1.68,1.68,0,0,0,.21-1.731c-.067-.126-.817-.957-1.415-1.794l-.07-.577s1.17-.322,1.217-.324a4.073,4.073,0,0,1,.578.625c.007.036-.087.715-.087.715s.154.888.339,1.561a.943.943,0,0,0,.845.647,3.123,3.123,0,0,0,.715-.02,1.349,1.349,0,0,0,.769-.4.862.862,0,0,0,.331.519Z" transform="translate(-377.88 -247.453)" fill="#f29d77"/>
            <path id="Path_573" data-name="Path 573" d="M378.824,246.151a3.271,3.271,0,0,0,1.3,2.773,3.6,3.6,0,0,0,3.533-.36c.237-.272.853-2-.19-2.576a1.847,1.847,0,0,0-2.037.414s-.579.652-.814.657-.885-.582-.978-1.811a.148.148,0,0,1,.114-.148c.265-.079.849-.389.552-1.575a.176.176,0,0,1,.159-.211,13.106,13.106,0,0,1,1.355-.139,1.818,1.818,0,0,1,.258.021.139.139,0,0,1,.1.066c.061.11.2.361.235.42.044.077.373.633.373.633a.4.4,0,0,0,.137-.361,5.649,5.649,0,0,1-.219-.778c.023-.113.344-.247.347-.5.005-.576-.219-2.782-1.969-1.426a3.064,3.064,0,0,1-.635.465c-.265.1-.564-.09-1.14-.05-.805.056-4.264.865-3.156,3.941s2.93,3.515,2.93,3.515S378.477,246.542,378.824,246.151Z" transform="translate(-375.928 -240.817)" fill="#9f3a07"/>
          </g>
          <path id="Path_574" data-name="Path 574" d="M381.127,252.07s-.171-.529-.613-.377c-.594.2-.54,1.7.753,1.5A3.948,3.948,0,0,1,381.127,252.07Z" transform="translate(-378.231 -246.736)" fill="#f29d77"/>
        </g>
        <path id="Path_575" data-name="Path 575" d="M385.846,278.026a27.621,27.621,0,0,1-10.559.058,67.408,67.408,0,0,0,.5-6.767l.008-.211c.047-1.322.071-2.267.1-2.306a48.4,48.4,0,0,1,.2-5.957,1.143,1.143,0,0,1,.255-.608,12.558,12.558,0,0,1,2.4-1.62s2.1,2.263,3.177-.241c1.181-.106,1.782.132,2.124,1.314C385.937,268.255,385.846,278.026,385.846,278.026Z" transform="translate(-369.605 -248.493)" fill="#ffc107"/>
        <path id="Path_576" data-name="Path 576" d="M391.827,259.414a10.445,10.445,0,0,0,3.952-.851,11.874,11.874,0,0,1,1.787,3.7,13.43,13.43,0,0,1-4.66,1.875A27.521,27.521,0,0,0,391.827,259.414Z" transform="translate(-378.629 -247.517)" fill="#ffc107"/>
        <path id="Path_577" data-name="Path 577" d="M392.662,261.341a9.457,9.457,0,0,1,1.611,4.143,12.01,12.01,0,0,0,3.748-1.71c-.6.193-3.147,1.142-3.5.356A12.155,12.155,0,0,0,392.662,261.341Z" transform="translate(-379.085 -249.033)" fill="#5f52dd" opacity="0.5" style="mix-blend-mode: multiply;isolation: isolate"/>
        <g id="Group_307" data-name="Group 307" transform="translate(5.448 13.365)">
          <path id="Path_583" data-name="Path 583" d="M374.773,274.537a8.994,8.994,0,0,0,3.26,4.594,1.644,1.644,0,0,0,2.086-.414c1.611-1.8,3.223-5.863,3.739-7.4-.945-.5-1.247-.424-1.247-.424s-2.286,3.174-3.6,5.3l-.979-1.708" transform="translate(-374.773 -267.609)" fill="#feaf84"/>
          <path id="Path_584" data-name="Path 584" d="M391.871,267.073a3.144,3.144,0,0,0,.44-1.194c.02-.514-.224-1.4.276-1.867a2.133,2.133,0,0,1,1.57-.315c1.09.18,1.386.5,1.327.733s-.814.31-1.012.7-.087.637-.137,1.066c-.075.646-.974.918-1.17,1.24C393.026,267.667,391.871,267.073,391.871,267.073Z" transform="translate(-384.101 -263.667)" fill="#feaf84"/>
        </g>
        <g id="Group_308" data-name="Group 308" transform="translate(4.746 13.31)">
          <path id="Path_586" data-name="Path 586" d="M375.761,263.546a5.93,5.93,0,0,0-2.53,4.295,14.729,14.729,0,0,0,1.3,5.145,4.061,4.061,0,0,0,3.66-1.7,15.006,15.006,0,0,0-1.416-2.925" transform="translate(-373.228 -263.546)" fill="#ffc107"/>
        </g>
      </g>
    </g>
  </g>
</svg>
