<svg xmlns="http://www.w3.org/2000/svg" xmlns:xlink="http://www.w3.org/1999/xlink" width="400.429" height="417.185" viewBox="0 0 400.429 417.185">
  <defs>
    <linearGradient id="linear-gradient" x1="0.178" y1="1.218" x2="0.704" y2="0.046" gradientUnits="objectBoundingBox">
      <stop offset="0" stop-color="#ff9f55"/>
      <stop offset="1" stop-color="#ffd255"/>
    </linearGradient>
    <linearGradient id="linear-gradient-2" x1="-0.115" y1="1.26" x2="0.921" y2="-0.021" xlink:href="#linear-gradient"/>
    <linearGradient id="linear-gradient-3" x1="0.287" y1="0.358" x2="1.103" y2="0.903" gradientUnits="objectBoundingBox">
      <stop offset="0" stop-color="#9a5cff"/>
      <stop offset="1" stop-color="#28256b"/>
    </linearGradient>
    <linearGradient id="linear-gradient-4" y1="0.5" x2="1" y2="0.5" gradientUnits="objectBoundingBox">
      <stop offset="0" stop-color="#9a5cff"/>
      <stop offset="0.995" stop-color="#4059bf"/>
    </linearGradient>
  </defs>
  <g id="img-questions" transform="translate(-408.72 -49.355)">
    <path id="Path_949" data-name="Path 949" d="M1760.58,284.057a38.8,38.8,0,0,0,2.265-10.591l7.084-2.831-1.5-8.151-1.5-8.151-7.628-.13a38.8,38.8,0,0,0-5.879-9.1l3-7.005-6.822-4.706-6.822-4.705-5.481,5.3a38.8,38.8,0,0,0-10.591-2.264l-2.831-7.084-8.151,1.5-8.151,1.5-.13,7.627a38.8,38.8,0,0,0-9.1,5.879l-7.005-3.005-4.706,6.822-4.705,6.822,5.3,5.481a38.787,38.787,0,0,0-2.265,10.59l-7.084,2.831,1.5,8.151,1.5,8.151,7.628.13a38.8,38.8,0,0,0,5.879,9.1l-3,7.005,6.822,4.706,6.822,4.705,5.481-5.3a38.8,38.8,0,0,0,10.591,2.264l2.831,7.084,8.151-1.5,8.151-1.5.13-7.627a38.784,38.784,0,0,0,9.1-5.879l7.005,3.005,4.705-6.822,4.705-6.822Zm-48.207,3.328a20.32,20.32,0,1,1,28.264-5.189A20.32,20.32,0,0,1,1712.373,287.385Z" transform="translate(-960.779 -132.693)" fill="url(#linear-gradient)"/>
    <path id="Path_950" data-name="Path 950" d="M1716.159,76.852a17.965,17.965,0,0,0,1.048-4.9l3.278-1.31-.692-3.772L1719.1,63.1l-3.53-.06a17.963,17.963,0,0,0-2.721-4.209l1.391-3.242-3.157-2.178-3.157-2.178-2.536,2.452a17.955,17.955,0,0,0-4.9-1.048l-1.31-3.278-3.772.693-3.772.693-.06,3.53a17.961,17.961,0,0,0-4.209,2.72l-3.242-1.39-2.178,3.157-2.178,3.157,2.451,2.536a17.956,17.956,0,0,0-1.048,4.9l-3.278,1.31.693,3.772.692,3.772,3.53.06a17.96,17.96,0,0,0,2.72,4.209l-1.391,3.242,3.157,2.178,3.157,2.178,2.537-2.452a17.954,17.954,0,0,0,4.9,1.048l1.31,3.278,3.772-.692,3.772-.693.06-3.53a17.954,17.954,0,0,0,4.209-2.72l3.242,1.391,2.178-3.157,2.178-3.157Zm-22.309,1.54a9.4,9.4,0,1,1,13.081-2.4A9.4,9.4,0,0,1,1693.849,78.392Z" transform="translate(-960.779 0)" fill="url(#linear-gradient-2)"/>
    <g id="Group_1351" data-name="Group 1351" transform="translate(522.281 64.457)">
      <path id="Path_951" data-name="Path 951" d="M925.285,403.54c0-38.512,2.98-54.922,8.948-69.461s18.262-27.21,36.909-38.027q8.389-5.033,20.692-11.464a168.065,168.065,0,0,0,24.046-15.379,88.132,88.132,0,0,0,19.853-20.971,48.366,48.366,0,0,0,8.109-27.682,45.73,45.73,0,0,0-4.474-20.691,47.4,47.4,0,0,0-11.743-15.1,48.823,48.823,0,0,0-17.057-9.227,66.046,66.046,0,0,0-19.852-3.076,57.614,57.614,0,0,0-22.369,4.194,76.343,76.343,0,0,0-18.175,10.625,89.405,89.405,0,0,0-14.54,14.54,159.741,159.741,0,0,0-10.9,15.379l-48.653-33.554a108.5,108.5,0,0,1,19.293-30.757,118.136,118.136,0,0,1,27.4-22.649,128.335,128.335,0,0,1,33.274-13.981,143.378,143.378,0,0,1,36.909-4.753,146.575,146.575,0,0,1,41.942,6.151,106.5,106.5,0,0,1,37.188,19.573q16.488,13.421,26.843,34.392t10.346,50.051q0,17.9-4.194,31.6a87.927,87.927,0,0,1-12.023,24.885,104.847,104.847,0,0,1-18.454,20.132,210.246,210.246,0,0,1-24.047,17.336q-11.193,6.711-22.369,12.862a134.612,134.612,0,0,0-20.412,13.7,66.66,66.66,0,0,0-15.1,17.336c-3.915,6.527-5.872,14.453-5.872,44.017ZM926.4,513.59V436.417h62.074V513.59Z" transform="translate(-876.073 -111.507)" fill="#5c65ff"/>
    </g>
    <g id="Group_1365" data-name="Group 1365" transform="translate(408.72 156.612)">
      <g id="Group_1352" data-name="Group 1352" transform="translate(183.743 105.121)">
        <path id="Path_952" data-name="Path 952" d="M1254.9,928.856s-20.209,17.89-26.193,22.668c-2.766,2.209-9.335,2.393-16.38,2.4-2.32,0-4.941.115-7.26,0h0c-9.259-.464-17.289-1.314-17.289-1.314s-24.006,1.217-22.832-13.677c0,0,2.8-4.507,6.381-5.536,3.31-.95,19.354,1.679,21.977,1.794,2.889.126,22.973,4.031,23.7,3.911.925-.152,9.535-5.207,14.139-8.007,7.028-4.274,13.707-7.714,13.707-7.714Z" transform="translate(-1164.903 -923.383)" fill="#45f7f6"/>
      </g>
      <g id="Group_1353" data-name="Group 1353">
        <path id="Path_953" data-name="Path 953" d="M1219.7,895.017l-153.181-26.472,3.65-21.438,153.181,26.472Z" transform="translate(-906.684 -760.52)" fill="url(#linear-gradient-3)"/>
        <rect id="Rectangle_137" data-name="Rectangle 137" width="6.832" height="20.62" transform="matrix(0.986, 0.168, -0.168, 0.986, 156.658, 85.995)" fill="#2d3038"/>
        <path id="Path_954" data-name="Path 954" d="M487.868,490.764a79.148,79.148,0,1,0,79.148,79.148A79.148,79.148,0,0,0,487.868,490.764Zm0,145.3a66.138,66.138,0,0,1-58.435-35.119h0a66.159,66.159,0,1,1,58.435,35.12Z" transform="translate(-408.72 -490.764)" fill="#3f444f"/>
        <path id="Path_955" data-name="Path 955" d="M572.877,561.473s-85.846-10.64-102.952,79.961h0a66.158,66.158,0,0,1,102.953-79.961Z" transform="translate(-449.212 -531.255)" fill="#c2c2c2" opacity="0.3"/>
      </g>
      <g id="Group_1354" data-name="Group 1354" transform="translate(125.537 105.121)">
        <path id="Path_956" data-name="Path 956" d="M926.947,1042.376s7.819,2.375,11.093,1.774,1.619-40.779,1.749-49.14c.1-6.781,3.81-24.684,3.81-24.684a.139.139,0,0,0,.005.03.03.03,0,0,1,.005.02c0,.01,0,.02,0,.03.368,1.341,5.375,19.92,5.549,28.847.184,9.265-1.207,44.7-1.207,44.7l13.8,1.343,39.666.973,8.274-.976s-.988-15.155-1.356-22.353c-.228-4.575-1.117-12.767-.889-20.745,0,0-.144-8.41.691-12.031.089-15.986,1.058-31.817,1.058-31.817q.8-10.872,1.122-20.347c-1.749-.924-3.85-2.007-5.534-2.807-5.206-2.479-12.459-5.817-17.114-7.953-2.727-1.252-5.395-2.166-5.395-2.166s-18.6-1.783-20.114-1.689a47.336,47.336,0,0,0-5.852,2c-6.6,2.5-19.314,7.6-21.341,9.056-2.971,2.126-9.25,52.656-9.533,56.194C924.931,997.012,926.947,1042.376,926.947,1042.376Z" transform="translate(-925.359 -923.383)" fill="#fff"/>
      </g>
      <path id="Path_957" data-name="Path 957" d="M1108.429,1399.045s-27.226,2.318-51.07,0v7.824s35.81,5.171,52.264-1.492Z" transform="translate(-899.748 -1178.344)" fill="#1d2033"/>
      <g id="Group_1355" data-name="Group 1355" transform="translate(185.459 107.948)">
        <path id="Path_958" data-name="Path 958" d="M1200.73,1055.5c-1.706-9.3-3.533-20.967-4.843-31.739v-.043c-.112-.913-.224-1.827-.328-2.732a.734.734,0,0,0-.017-.138c-.431-3.818-.793-7.463-1.051-10.807a33.977,33.977,0,0,1,.328-7.515c1.042-17.106,1.56-35.134,1.56-35.134.543-7.377,2.059-16.968,2.266-23.4a42.212,42.212,0,0,1-6.506-1.336s-14.926-5.429-20.174-7.644c0,0,4.429,10.41,7.756,33.661,1.275,8.928,3.637,23.966,5.36,39.314.681,6.05,1.784,12.177,2.853,17.951s2.085,11.194,2.585,15.822c.336,3.136.888,8.256,1.474,13.736.095.844.181,1.689.276,2.542h8.936C1201.049,1057.215,1200.885,1056.371,1200.73,1055.5Z" transform="translate(-1171.964 -935.016)" fill="#45f7f6"/>
      </g>
      <path id="Path_959" data-name="Path 959" d="M1115.345,954.518s.5,7.12-5.526,7.286-10.8-5.618-10.8-5.618l10,2.579,6.085-5.157Z" transform="translate(-931.281 -841.142)" fill="#cac7d1"/>
      <g id="Group_1356" data-name="Group 1356" transform="translate(159.183 58.68)">
        <path id="Path_960" data-name="Path 960" d="M1080.577,732.413s13.813,2.33,11.471,23.957-14.536,19.719-15.352,19.688-12.264.261-12.868-26.181C1063.827,749.877,1063.651,730.327,1080.577,732.413Z" transform="translate(-1063.827 -732.258)" fill="#eea987"/>
      </g>
      <g id="Group_1357" data-name="Group 1357" transform="translate(163.843 93.709)">
        <path id="Path_961" data-name="Path 961" d="M1101.146,878.921s0,8.909.365,10.837c.393,2.075-11.092,8.067-18.507,1.085,0,0,1.5-9.729,1.034-13.165S1101.146,878.921,1101.146,878.921Z" transform="translate(-1083.004 -876.419)" fill="#eea987"/>
      </g>
      <g id="Group_1358" data-name="Group 1358" transform="translate(186.555 77.057)">
        <path id="Path_962" data-name="Path 962" d="M1177.375,808.584s1.533-1.6,2.071.043-1.942,8.6-2.262,9.264c0,0-.283.633-.643.279S1177.375,808.584,1177.375,808.584Z" transform="translate(-1176.473 -807.885)" fill="#eea987"/>
      </g>
      <g id="Group_1359" data-name="Group 1359" transform="translate(157.166 75.345)">
        <path id="Path_963" data-name="Path 963" d="M1057.7,801.593s-1.466-1.663-2.071-.042,1.6,8.9,1.879,9.349c0,0,.476.747.85.408S1057.7,801.593,1057.7,801.593Z" transform="translate(-1055.527 -800.841)" fill="#eea987"/>
      </g>
      <g id="Group_1360" data-name="Group 1360" transform="translate(158.215 55.078)">
        <path id="Path_964" data-name="Path 964" d="M1090.2,737.2c-.476,2.959-.926,5.158-.926,5.158l-2.01,2.626s.119-5.8-.188-6.717c-.117-.346-.253-.958-.394-1.621-.231-1.094-.467-2.329-.629-2.74-.259-.657-11.839-4.039-22.154.709,0,0,.087.893.081,1.89,0,1.159-.131,2.457-.663,2.652-.989.362-.576,6.794-.576,6.794l-1.608-1.856s-.465-3.36-.922-7.222c0,0,0-.009,0-.028-.1-.9-.209-1.827-.31-2.746-.231-3.885.154-10.938,5.212-15.082,3.413-1.461,8.863-2.7,17.948.078,0,0,2.083.139,2.667.7C1091.379,726.022,1090.2,737.2,1090.2,737.2Z" transform="translate(-1059.843 -717.436)" fill="#323657"/>
      </g>
      <path id="Path_965" data-name="Path 965" d="M1091.157,900.62s2.2,3.062,7.328,2.946,7.346-2.786,7.346-2.786-2.425,5.072-7.37,5.018S1091.157,900.62,1091.157,900.62Z" transform="translate(-925.333 -801.03)" fill="#c78d71"/>
      <path id="Path_966" data-name="Path 966" d="M1145.311,930.973l-5.154,3.812s4.308-9.179,4.4-12.855Z" transform="translate(-962.427 -817.162)" fill="#a09ea6"/>
      <path id="Path_967" data-name="Path 967" d="M1158.254,921.93l3.527,3.26,3.688,11-6.458-5.216Z" transform="translate(-976.126 -817.162)" fill="#eae6f2"/>
      <path id="Path_968" data-name="Path 968" d="M1121.265,935.428A60.769,60.769,0,0,1,1117.51,945s-5.409-4.739-7.111-6.427S1121.265,935.428,1121.265,935.428Z" transform="translate(-939.78 -827.38)" fill="#eea987"/>
      <path id="Path_969" data-name="Path 969" d="M1109.761,953.032l5.659,5.3s-6.69-.444-7.94-1.559Z" transform="translate(-937.69 -840.707)" fill="#a09ea6"/>
      <path id="Path_970" data-name="Path 970" d="M1068.636,912.865s4.527,7.359,7.507,9.76l-5.022,8.336-8.05-14.624Z" transform="translate(-904.072 -810.3)" fill="#eae6f2"/>
      <g id="Group_1361" data-name="Group 1361" transform="translate(123.531 106.035)">
        <path id="Path_971" data-name="Path 971" d="M966.511,976.747c-1.094-21.088-12.616-48.13-13.935-49.6-1.026.388-4.636,1.9-5.774,2.353-6.23,2.465-18.942,6.963-20.657,8.2-2.973,2.129-8.592,55.11-8.945,58.644-.483,4.852,1.026,51.155,1.026,51.155a118.226,118.226,0,0,0,12.418,2.051,15.691,15.691,0,0,0,2.413.052c-.284.854-.56,1.689-.836,2.49h27.094c.078-.827.164-1.68.25-2.542.327-3.4.689-7.041,1.068-10.833.991-9.884,2.344-19.105,3.568-30.92C965.339,996.714,966.847,983.167,966.511,976.747Zm-32.4,21.492a165.553,165.553,0,0,1,3.792-22.363c1.706,5.92,3.87,32.868,3.87,32.868-.009,8.463-3.335,23.07-6.912,35.074C935.556,1031.754,933.66,1004.289,934.108,998.239Z" transform="translate(-917.105 -927.143)" fill="#45f7f6"/>
      </g>
      <g id="Group_1362" data-name="Group 1362" transform="translate(124.006 181.069)">
        <path id="Path_972" data-name="Path 972" d="M936.1,1253.7l-.172,29.6-.017,2.542H925.237c-1.706-.474-3.559-1.069-5.532-1.793l-.009-.75-.637-47.363Z" transform="translate(-919.058 -1235.942)" fill="#45f7f6"/>
      </g>
      <rect id="Rectangle_138" data-name="Rectangle 138" width="12.833" height="9.541" transform="translate(176.472 221.181)" fill="#3a4066"/>
      <g id="Group_1364" data-name="Group 1364" transform="translate(262.699 101.811)">
        <g id="Group_1363" data-name="Group 1363">
          <path id="Path_973" data-name="Path 973" d="M1490.412,911.791s-1.25,5.547-.049,7.085,1.765-.436,1.765-.436-.591,1.943.927,2.6,2.053-1.7,2.053-1.7a1.644,1.644,0,0,0,1.665,1.685c1.712.087,1.709-1.968,1.709-1.968s1.194,2.305,2.583.709c2.345-2.695,1.412-6.78,1.412-6.78s-.319-.963-1.971-.932a2.277,2.277,0,0,0-3.279-1.436s-2.137-1.94-3.444.015C1493.782,910.631,1491.386,908.7,1490.412,911.791Z" transform="translate(-1489.842 -909.758)" fill="#efaa88"/>
        </g>
      </g>
      <rect id="Rectangle_139" data-name="Rectangle 139" width="104.093" height="4.531" transform="translate(118.658 228.432)" fill="url(#linear-gradient-4)"/>
    </g>
    <g id="Group_1370" data-name="Group 1370" transform="translate(603.832 171.677)">
      <g id="Group_1366" data-name="Group 1366" transform="translate(27.706 1.888)">
        <path id="Rectangle_140" data-name="Rectangle 140" d="M3.131,0H66.64a3.131,3.131,0,0,1,3.131,3.131v0A3.131,3.131,0,0,1,66.64,6.262H3.131A3.131,3.131,0,0,1,0,3.131v0A3.131,3.131,0,0,1,3.131,0Z" fill="#d9d9d9" opacity="0.72"/>
        <rect id="Rectangle_141" data-name="Rectangle 141" width="79.498" height="6.262" rx="3.131" transform="translate(0 10.125)" fill="#d9d9d9" opacity="0.72"/>
      </g>
      <rect id="Rectangle_142" data-name="Rectangle 142" width="20.164" height="20.164" rx="9.693" fill="#ffc355"/>
      <g id="Group_1367" data-name="Group 1367" transform="translate(27.706 30.483)">
        <rect id="Rectangle_143" data-name="Rectangle 143" width="52.441" height="6.262" rx="3.131" fill="#d9d9d9" opacity="0.72"/>
        <rect id="Rectangle_144" data-name="Rectangle 144" width="64.502" height="6.262" rx="3.131" transform="translate(0 10.125)" fill="#d9d9d9" opacity="0.72"/>
      </g>
      <g id="Group_1368" data-name="Group 1368" transform="translate(6.45 3.534)">
        <path id="Path_974" data-name="Path 974" d="M1239.513,575.392a5.28,5.28,0,0,1,.051-.751,2.634,2.634,0,0,1,.2-.691,2.174,2.174,0,0,1,.418-.623,2.8,2.8,0,0,1,.716-.528l.589-.316a6.018,6.018,0,0,0,.717-.452,2.993,2.993,0,0,0,.605-.589,1.188,1.188,0,0,0,.256-.742,1.046,1.046,0,0,0-.409-.879,1.494,1.494,0,0,0-.938-.316,1.374,1.374,0,0,0-.606.128,2.278,2.278,0,0,0-.478.307,2.027,2.027,0,0,0-.367.4l-.273.392-1.757-1.228a3.4,3.4,0,0,1,1.407-1.62,4.138,4.138,0,0,1,2.175-.58,4.647,4.647,0,0,1,1.3.188,3.311,3.311,0,0,1,1.16.6,3.109,3.109,0,0,1,.836,1.057,3.485,3.485,0,0,1,.324,1.569,3.074,3.074,0,0,1-.4,1.629,3.6,3.6,0,0,1-1.186,1.151,7.263,7.263,0,0,1-.725.427,6.823,6.823,0,0,0-.674.392,1.93,1.93,0,0,0-.494.46,1.008,1.008,0,0,0-.187.614Zm.051,4.179v-2.559h2.234v2.559Z" transform="translate(-1238.233 -567.306)" fill="#fff"/>
      </g>
      <rect id="Rectangle_145" data-name="Rectangle 145" width="20.164" height="20.164" rx="9.693" transform="translate(0 28.463)" fill="#ffc355"/>
      <g id="Group_1369" data-name="Group 1369" transform="translate(6.45 31.998)">
        <path id="Path_975" data-name="Path 975" d="M1239.513,692.531a5.285,5.285,0,0,1,.051-.751,2.633,2.633,0,0,1,.2-.691,2.171,2.171,0,0,1,.418-.623,2.8,2.8,0,0,1,.716-.529l.589-.316a6.045,6.045,0,0,0,.717-.452,2.983,2.983,0,0,0,.605-.589,1.187,1.187,0,0,0,.256-.742,1.047,1.047,0,0,0-.409-.879,1.5,1.5,0,0,0-.938-.316,1.371,1.371,0,0,0-.606.128,2.275,2.275,0,0,0-.478.307,2.034,2.034,0,0,0-.367.4l-.273.392-1.757-1.228a3.4,3.4,0,0,1,1.407-1.62,4.136,4.136,0,0,1,2.175-.58,4.64,4.64,0,0,1,1.3.188,3.311,3.311,0,0,1,1.16.6,3.111,3.111,0,0,1,.836,1.058,3.485,3.485,0,0,1,.324,1.569,3.074,3.074,0,0,1-.4,1.629,3.6,3.6,0,0,1-1.186,1.152,7.283,7.283,0,0,1-.725.426,6.8,6.8,0,0,0-.674.393,1.928,1.928,0,0,0-.494.46,1.007,1.007,0,0,0-.187.614Zm.051,4.179v-2.559h2.234v2.559Z" transform="translate(-1238.233 -684.446)" fill="#fff"/>
      </g>
    </g>
    <rect id="Rectangle_146" data-name="Rectangle 146" width="24.714" height="1.845" transform="translate(795.81 223.969) rotate(180)" fill="#ffdc7d"/>
    <rect id="Rectangle_147" data-name="Rectangle 147" width="24.714" height="4.997" transform="translate(795.81 229.772) rotate(180)" fill="#ffdc7d"/>
  </g>
</svg>
