<svg xmlns="http://www.w3.org/2000/svg" width="615.647" height="401.333" viewBox="0 0 615.647 401.333">
  <g id="img-answers" transform="translate(-144.554 -46.457)">
    <g id="Group_2089" data-name="Group 2089" transform="translate(320.475 140.359)">
      <g id="Group_2083" data-name="Group 2083">
        <path id="Path_1157" data-name="Path 1157" d="M436.058,194.443A112.656,112.656,0,1,0,275.4,296.369V324.79H374.14s.6-15.951.816-30.191A112.612,112.612,0,0,0,436.058,194.443Z" transform="translate(-210.747 -81.789)" fill="#5c65ff"/>
        <g id="Group_2082" data-name="Group 2082" transform="translate(52.304 113.069)">
          <path id="Path_1158" data-name="Path 1158" d="M305.81,253.8s.016-.476.112-1.393c.109-.97.263-2.32.46-4.061.436-3.569,1.071-8.834,2.065-15.59s2.331-15.016,4.481-24.488a167.137,167.137,0,0,1,10.224-31.353,107.115,107.115,0,0,1,9.265-16.855,20.729,20.729,0,0,1,7.7-6.918,11.608,11.608,0,0,1,10.695.348,7.678,7.678,0,0,1,3.567,4.457,7.863,7.863,0,0,1-.47,5.783,16.011,16.011,0,0,1-8.7,7.5,30.8,30.8,0,0,1-23.42-1.658,31.207,31.207,0,0,1-15.906-18.8c-1.217-4.1-1.879-8.6-.667-13,1.063-4.367,5.313-8.279,10.237-7.827a7.278,7.278,0,0,1,5.735,3.973,10.2,10.2,0,0,1,.9,6.945c-1.087,4.7-4.478,8.218-7.92,11.194-7.1,5.868-16.77,9.126-26.258,7.62a29.282,29.282,0,0,1-21.785-16.241,17.024,17.024,0,0,1-.763-13.645,8.627,8.627,0,0,1,4.941-4.983,8.451,8.451,0,0,1,6.937.638A11.21,11.21,0,0,1,282,130.392a17.548,17.548,0,0,1,1.719,6.49A32.477,32.477,0,0,1,282,149.759a33.528,33.528,0,0,1-15.88,18.891,34.15,34.15,0,0,1-23.311,3.205c-3.755-.829-7.6-2.328-10.142-5.379-2.5-2.974-3.2-7.689-.627-10.851a7.366,7.366,0,0,1,5.063-2.474,10.582,10.582,0,0,1,5.374,1.044c3.346,1.653,5.39,4.755,6.9,7.731,2.83,6.11,5.105,12.045,7.4,17.716,9.01,22.7,15.4,41.415,19.683,54.376,2.139,6.485,3.718,11.545,4.779,14.979.5,1.68.893,2.982,1.172,3.917.258.885.356,1.35.356,1.35s-.189-.436-.489-1.308q-.47-1.387-1.3-3.875c-1.167-3.46-2.857-8.467-5.023-14.891-4.436-12.906-10.966-31.552-20.079-54.185-2.315-5.626-4.654-11.63-7.45-17.6-1.464-2.884-3.455-5.775-6.424-7.213-2.881-1.417-6.918-1.406-9.076,1.167-2.121,2.559-1.571,6.756.654,9.36,2.272,2.719,5.866,4.162,9.5,4.946a32.917,32.917,0,0,0,22.447-3.144,32.252,32.252,0,0,0,15.229-18.189A31.185,31.185,0,0,0,282.38,137c-.3-4.117-2.025-8.425-5.773-10.349a7.083,7.083,0,0,0-5.836-.555,7.247,7.247,0,0,0-4.143,4.231,15.674,15.674,0,0,0,.752,12.544,27.925,27.925,0,0,0,20.749,15.444c9.031,1.443,18.341-1.672,25.163-7.311,3.333-2.857,6.525-6.27,7.463-10.423a8.862,8.862,0,0,0-.768-6.014,5.907,5.907,0,0,0-4.67-3.266,7.928,7.928,0,0,0-5.6,1.807,9.731,9.731,0,0,0-3.211,5.047c-1.119,3.976-.526,8.305.64,12.233a29.938,29.938,0,0,0,15.207,18.04,29.638,29.638,0,0,0,22.415,1.669,14.88,14.88,0,0,0,8.069-6.865,6.649,6.649,0,0,0-2.61-8.755,10.5,10.5,0,0,0-9.637-.332,19.728,19.728,0,0,0-7.309,6.543,106.884,106.884,0,0,0-9.238,16.632,168.2,168.2,0,0,0-10.36,31.124c-2.216,9.424-3.62,17.658-4.7,24.392-1,6.705-1.783,11.933-2.323,15.545-.255,1.736-.454,3.08-.6,4.045C305.919,253.335,305.81,253.8,305.81,253.8Z" transform="translate(-230.427 -124.333)" fill="#fff"/>
        </g>
        <rect id="Rectangle_151" data-name="Rectangle 151" width="97.501" height="12.725" rx="1.975" transform="translate(64.655 248.555)" fill="#28256b"/>
        <path id="Path_1159" data-name="Path 1159" d="M326.214,182.19H241.437a6.363,6.363,0,1,0,0,12.725h9.3l12.348,23.5a8.174,8.174,0,0,0,7.234,4.372h30.292a8.17,8.17,0,0,0,7.274-4.449l12-23.422h6.328a6.363,6.363,0,1,0,0-12.725Z" transform="translate(-170.42 84.645)" fill="#28256b"/>
      </g>
      <g id="Group_2084" data-name="Group 2084" transform="translate(12.53 20.651)" opacity="0.2">
        <path id="Path_1160" data-name="Path 1160" d="M290.032,90.605c.489,2.046-8.05,5.076-19.558,12.762-11.46,7.521-25.822,20.682-34.489,39.275-8.614,18.625-9.392,38.093-7.739,51.7,1.56,13.748,4.755,22.226,2.876,23.172-.819.423-2.7-1.164-5.113-4.707a59.755,59.755,0,0,1-7.351-16.518,82.848,82.848,0,0,1-3.109-26.912,85.556,85.556,0,0,1,27.667-59.6,82.821,82.821,0,0,1,22.561-15,59.85,59.85,0,0,1,17.36-5.044C287.4,89.3,289.828,89.707,290.032,90.605Z" transform="translate(-215.462 -89.559)" fill="#fff"/>
      </g>
      <g id="Group_2085" data-name="Group 2085" transform="translate(99.976 12.717)" opacity="0.2">
        <path id="Path_1161" data-name="Path 1161" d="M276.814,94.76c-.771,3.774-7.091,5.661-14.232,5.656-7.141-.066-13.44-2.02-14.171-5.8-.316-1.871,1-3.872,3.585-5.432a22.6,22.6,0,0,1,21.288.112C275.846,90.877,277.148,92.891,276.814,94.76Z" transform="translate(-248.365 -86.574)" fill="#fff"/>
      </g>
      <g id="Group_2086" data-name="Group 2086" transform="translate(95.72 299.988)">
        <path id="Path_1162" data-name="Path 1162" d="M286.934,199.668c-.1.21-2.232-.765-5.823-1.794a47.161,47.161,0,0,0-28.637.829c-3.527,1.236-5.6,2.331-5.709,2.126-.08-.125,1.836-1.536,5.361-3.04a41.271,41.271,0,0,1,29.283-.848C285.012,198.238,287.006,199.538,286.934,199.668Z" transform="translate(-246.763 -194.664)" fill="#455a64"/>
      </g>
      <g id="Group_2087" data-name="Group 2087" transform="translate(81.187 279.156)">
        <path id="Path_1163" data-name="Path 1163" d="M309.757,187.52c0,.38-15.327.691-34.228.691S241.3,187.9,241.3,187.52s15.324-.694,34.234-.694S309.757,187.137,309.757,187.52Z" transform="translate(-241.295 -186.826)" fill="#455a64"/>
      </g>
      <g id="Group_2088" data-name="Group 2088" transform="translate(87.178 289.733)">
        <path id="Path_1164" data-name="Path 1164" d="M300.713,190.977c.011.189-3.179.526-8.348.85s-12.316.619-20.217.734-15.058.016-20.233-.162-8.372-.428-8.366-.614,3.205-.295,8.377-.367c5.587-.066,12.526-.149,20.2-.242l20.2-.327C297.5,190.775,300.705,190.783,300.713,190.977Z" transform="translate(-243.549 -190.806)" fill="#455a64"/>
      </g>
    </g>
    <g id="Group_2090" data-name="Group 2090" transform="translate(518.032 92.504)">
      <path id="Path_1165" data-name="Path 1165" d="M322.544,138.709h0a37.463,37.463,0,0,1-37.463-37.463h0a37.463,37.463,0,0,1,37.463-37.463h0a37.463,37.463,0,0,1,37.463,37.463h0A37.463,37.463,0,0,1,322.544,138.709Z" transform="translate(-285.081 -63.783)" fill="#455a64"/>
    </g>
    <g id="Group_2091" data-name="Group 2091" transform="translate(182.498 214.213)">
      <path id="Path_1166" data-name="Path 1166" d="M298.509,175.348s-.723.345-2.161.957q-2.213.929-6.389,2.692c-5.613,2.373-13.865,5.935-24.379,10.766-10.5,4.853-23.276,10.979-37.753,18.758-14.41,7.848-30.787,17.073-47.2,29.631a113.067,113.067,0,0,0-11.875,10.429,50.83,50.83,0,0,0-5.209,6.227,19.749,19.749,0,0,0-3.46,7.33A9.555,9.555,0,0,0,162,269.779a19.852,19.852,0,0,0,6.482,5.371,58.943,58.943,0,0,0,16.81,5.509c11.9,2.251,24.515,2.817,37.442,2.788,12.943-.053,26.258-.835,39.871-2.062,54.459-5.082,113.654-16.855,174.629-33.1,60.946-16.435,118.1-35.874,167.786-58.767,12.4-5.764,24.3-11.787,35.52-18.24,11.181-6.482,21.8-13.328,30.872-21.352,4.473-4.037,8.661-8.385,11.426-13.456a17.1,17.1,0,0,0,2.291-8.042,10.51,10.51,0,0,0-3.056-7.325c-3.9-3.88-9.342-5.7-14.482-7.038A108.167,108.167,0,0,0,652,111.481a257.774,257.774,0,0,0-29.439-.943c-9.31.165-18.086.643-26.279,1.233-16.39,1.2-30.465,2.785-41.946,4.215s-20.377,2.719-26.407,3.591q-4.481.654-6.857,1c-1.547.218-2.344.3-2.344.3s.781-.17,2.32-.436l6.838-1.14c6.02-.959,14.9-2.333,26.38-3.848s25.554-3.181,41.957-4.452c8.2-.627,16.988-1.143,26.322-1.342a256.856,256.856,0,0,1,29.553.85,108.63,108.63,0,0,1,15.739,2.567c5.222,1.363,10.788,3.139,15,7.29a11.608,11.608,0,0,1,3.375,8.053,18.173,18.173,0,0,1-2.4,8.574c-2.868,5.283-7.12,9.69-11.638,13.791-9.164,8.133-19.813,15.021-31.029,21.551-11.253,6.5-23.175,12.55-35.589,18.341-49.755,23-106.956,42.494-167.966,58.948-61.039,16.26-120.3,28.009-174.874,33.032-13.642,1.215-26.992,1.975-39.98,2.009-12.978.008-25.641-.579-37.668-2.878a60.009,60.009,0,0,1-17.129-5.666,20.914,20.914,0,0,1-6.825-5.7,13.454,13.454,0,0,1-1.959-4.016,21.258,21.258,0,0,1-.327-2.24c.069-.742.08-1.5.21-2.222a20.67,20.67,0,0,1,3.649-7.729,51.593,51.593,0,0,1,5.331-6.341,113.625,113.625,0,0,1,12.01-10.49c16.534-12.571,32.963-21.74,47.432-29.54,14.53-7.726,27.348-13.783,37.893-18.564,10.556-4.763,18.846-8.244,24.5-10.535l6.442-2.567C297.749,175.606,298.509,175.348,298.509,175.348Z" transform="translate(-158.831 -109.578)" fill="#575a89"/>
    </g>
    <g id="Group_2092" data-name="Group 2092" transform="translate(229.544 149.842)">
      <path id="Path_1167" data-name="Path 1167" d="M327.713,86.76s-.617.035-1.818.032c-1.246-.008-3.019-.024-5.331-.04l-20.5-.3c-17.775-.218-43.618-1.371-75.239,2.206a183.353,183.353,0,0,0-24.493,4.414,72.354,72.354,0,0,0-12.414,4.388,31.349,31.349,0,0,0-5.711,3.49,12.341,12.341,0,0,0-4.04,5.169,8.492,8.492,0,0,0,.361,6.448,19.51,19.51,0,0,0,4.005,5.656,58.212,58.212,0,0,0,11.7,8.627,183.354,183.354,0,0,0,27.85,12.688c19.688,7.319,41.024,13.148,63.32,18.234,22.309,5.068,45.643,9.278,69.664,12.714,48.051,6.82,94.34,10.168,136.374,9.1,20.969-.688,41.048-2.179,59.062-7.022a60.556,60.556,0,0,0,12.7-4.951,24.783,24.783,0,0,0,5.286-3.83,10.82,10.82,0,0,0,2.884-5.422,8.877,8.877,0,0,0-1.518-5.77,25.615,25.615,0,0,0-4.008-4.678,62.488,62.488,0,0,0-9.775-7.12c-13.666-8.063-27.236-13.132-39.084-17.429-11.909-4.215-22.341-7.343-30.9-9.775s-15.25-4.149-19.789-5.307c-2.24-.566-3.957-1-5.167-1.31-1.164-.3-1.751-.489-1.751-.489s.609.1,1.783.353q1.826.411,5.2,1.175c4.561,1.071,11.279,2.714,19.869,5.06s19.05,5.408,31,9.565c11.9,4.239,25.514,9.241,39.334,17.32a63.311,63.311,0,0,1,9.966,7.205,26.482,26.482,0,0,1,4.2,4.88,9.884,9.884,0,0,1,1.688,6.464,11.834,11.834,0,0,1-3.163,6.036,25.626,25.626,0,0,1-5.523,4.04,61.574,61.574,0,0,1-12.927,5.087c-18.189,4.941-38.311,6.466-59.338,7.194-42.135,1.137-88.488-2.179-136.608-9.007-24.055-3.444-47.421-7.667-69.767-12.765-22.335-5.116-43.706-10.979-63.466-18.359a184.3,184.3,0,0,1-28.02-12.834,59.375,59.375,0,0,1-11.928-8.845,20.731,20.731,0,0,1-4.234-6.033,9.65,9.65,0,0,1-.364-7.3,13.43,13.43,0,0,1,4.412-5.656,32.258,32.258,0,0,1,5.937-3.606,73.14,73.14,0,0,1,12.619-4.422,183.639,183.639,0,0,1,24.655-4.351c31.733-3.463,57.592-2.158,75.359-1.775,8.866.239,15.76.428,20.493.555l5.329.178C327.1,86.7,327.713,86.76,327.713,86.76Z" transform="translate(-176.533 -85.357)" fill="#575a89"/>
    </g>
    <g id="Group_2093" data-name="Group 2093" transform="translate(144.554 330.607)">
      <path id="Path_1168" data-name="Path 1168" d="M176.2,251.367h0a50.881,50.881,0,0,1-27.85-66.347h0a50.876,50.876,0,0,1,66.344-27.853h0a50.879,50.879,0,0,1,27.853,66.347h0A50.883,50.883,0,0,1,176.2,251.367Z" transform="translate(-144.554 -153.373)" fill="#45f7f6"/>
    </g>
    <g id="Group_2094" data-name="Group 2094" transform="translate(673.002 178.079)">
      <path id="Path_1169" data-name="Path 1169" d="M386.99,183.184h0a43.6,43.6,0,0,1-43.6-43.6h0a43.6,43.6,0,0,1,43.6-43.6h0a43.6,43.6,0,0,1,43.6,43.6h0A43.6,43.6,0,0,1,386.99,183.184Z" transform="translate(-343.391 -95.982)" fill="#45f7f6"/>
    </g>
    <g id="Group_2095" data-name="Group 2095" transform="translate(268.772 76.377)">
      <path id="Path_1170" data-name="Path 1170" d="M239.235,153.594h0a47.94,47.94,0,0,1-47.942-47.94h0a47.94,47.94,0,0,1,47.942-47.94h0a47.94,47.94,0,0,1,47.94,47.94h0A47.94,47.94,0,0,1,239.235,153.594Z" transform="translate(-191.293 -57.715)" fill="#45f7f6"/>
    </g>
    <g id="Group_2096" data-name="Group 2096" transform="translate(547.904 297.032)">
      <path id="Path_1171" data-name="Path 1171" d="M327.142,202.383h0a30.821,30.821,0,0,1-30.821-30.821h0a30.821,30.821,0,0,1,30.821-30.821h0a30.821,30.821,0,0,1,30.821,30.821h0A30.821,30.821,0,0,1,327.142,202.383Z" transform="translate(-296.321 -140.74)" fill="#455a64"/>
    </g>
    <g id="Group_2097" data-name="Group 2097" transform="translate(214.053 226.633)">
      <path id="Path_1172" data-name="Path 1172" d="M196.542,165.93h0A25.84,25.84,0,0,1,170.7,140.089h0a25.839,25.839,0,0,1,25.838-25.838h0a25.839,25.839,0,0,1,25.838,25.838h0A25.84,25.84,0,0,1,196.542,165.93Z" transform="translate(-170.704 -114.251)" fill="#fdbc00"/>
    </g>
    <path id="Path_1173" data-name="Path 1173" d="M332.155,83.895l2.415,4.416,4.416,2.415-4.416,2.415-2.415,4.416-2.415-4.416-4.416-2.415,4.416-2.415Z" transform="translate(299.661 62.06)" fill="#e8505b"/>
    <path id="Path_1174" data-name="Path 1174" d="M291.029,176.044l2.415,4.416,4.416,2.415-4.416,2.415-2.415,4.416-2.415-4.416-4.416-2.415,4.416-2.415Z" transform="translate(231.487 214.816)" fill="#e8505b"/>
    <path id="Path_1175" data-name="Path 1175" d="M155.99,127.341l3.569,6.525,6.525,3.568L159.559,141l-3.569,6.525L152.422,141l-6.525-3.568,6.525-3.568Z" transform="translate(2.226 134.081)" fill="#fdbc00"/>
    <path id="Path_1176" data-name="Path 1176" d="M271.354,46.457l3.569,6.525,6.525,3.569-6.525,3.568-3.569,6.525-3.568-6.525-6.525-3.568,6.525-3.569Z" transform="translate(193.464 0)" fill="#fdbc00"/>
    <path id="Path_1177" data-name="Path 1177" d="M347.63,151.12l5.565,10.175,10.175,5.565-10.175,5.565L347.63,182.6l-5.565-10.175L331.89,166.86l10.175-5.565Z" transform="translate(310.546 173.499)" fill="#e8505b"/>
  </g>
</svg>
