<svg xmlns="http://www.w3.org/2000/svg" width="633" height="364.7">
  <g data-name="Group 2125">
    <path data-name="Rectangle 12" fill="#a1c7ff" d="M0 66h600v2H0z"/>
  </g>
  <g data-name="Group 2124">
    <path data-name="Path 104" d="M73 69c-16 16-23 40-18 62s20 41 42 50c9 3 19 5 28 9 31 15 43 51 60 80 26 42 72 73 122 78s103-19 129-61c14-23 20-50 37-70a90 90 0 0147-31c16-4 33-4 49-7 26-6 50-21 60-45s3-53-19-66z" fill="#45f7f6" opacity=".2"/>
    <path data-name="Path 105" d="M120 69a52 52 0 00-15 47c4 17 16 31 33 38l21 7c24 11 33 39 47 61 19 31 54 55 93 59s79-15 99-47c10-17 15-37 28-53a69 69 0 0136-23c12-3 25-3 38-6 19-4 37-16 45-33s2-41-14-51z" fill="#a2fcfb"/>
  </g>
  <g data-name="Group 2131">
    <path data-name="Path 1209" d="M320 194v36a4 4 0 003 4 4 4 0 005-4v-10a4 4 0 014-4c2 0 5 1 5 3v35a4 4 0 003 4 4 4 0 005-4v-27a4 4 0 014-4 4 4 0 014 4v8a4 4 0 004 5 4 4 0 004-5v-48z" fill="#2c1e56"/>
    <path data-name="Path 1210" d="M321 90h42l11-24a8 8 0 00-8-11 8 8 0 00-4 1l-20 14-20-14a8 8 0 00-4-1 8 8 0 00-8 11z" fill="#5c65ff"/>
    <g data-name="Group 2109" fill="#ffbe9d">
      <path data-name="Path 1211" d="M274 203l11-12-3-2-11 12a2 2 0 003 2z"/>
      <path data-name="Path 1212" d="M289 193l-1 1a31 31 0 00-8 19v1a3 3 0 01-3 2 3 3 0 01-3-2 31 31 0 016-21l5-7z"/>
    </g>
    <g data-name="Group 2110">
      <path data-name="Path 1213" d="M412 203l-11-12 3-2 11 12a2 2 0 11-3 2z" fill="#ffbe9d"/>
      <path data-name="Path 1214" d="M397 193l1 1a31 31 0 018 19v1a3 3 0 003 2 3 3 0 003-2 31 31 0 00-6-21l-5-7z" fill="#ffbe9d"/>
      <path data-name="Path 1215" d="M403 189l-36-49-4-50-3-1a64 64 0 00-36 0l-3 1-3 51-35 48 5 5 27-28a38 38 0 0128-12 38 38 0 0128 12l27 28z" fill="#fdbc00"/>
    </g>
    <path data-name="Path 1216" d="M319 187c0 7 5 14 14 17a19 19 0 0020-9l1-1a19 19 0 002-15l-5-14v-9l-8-6-8 6v10h-7a9 9 0 00-9 9v5z" fill="#ffbe9d"/>
    <path data-name="Path 1217" d="M326 176a4 4 0 019 0" fill="#fff"/>
    <path data-name="Path 1218" d="M346 185l-28 6a15 15 0 001 5c4 10 15 16 26 13 10-3 16-12 16-21s-8-17-8-17z" fill="#2c1e56"/>
    <path data-name="Path 1219" d="M342 182a5 5 0 115 5 5 5 0 01-5-5z" fill="#e8505b"/>
  </g>
  <path data-name="Path 54" d="M144 251l5-5 1 7 7 3-7 3-1 8-5-6-7 1 3-6-3-6z" fill="#fff" stroke="#a1c7ff" stroke-linecap="round" stroke-linejoin="round" stroke-width="2"/>
  <path data-name="Path 1269" d="M474 35l4-3 1 5 4 2-5 2v6l-4-4-5 1 2-5-2-5z" fill="#fff" stroke="#a1c7ff" stroke-linecap="round" stroke-linejoin="round" stroke-width="2"/>
  <path data-name="Path 1270" d="M450 79l2-2v3l3 1-3 1v3l-2-2h-3l1-2-1-3z" fill="#fff" stroke="#fdbc00" stroke-linecap="round" stroke-linejoin="round"/>
  <path data-name="Path 1268" d="M121 212l2-3 1 4 3 1-3 2-1 4-2-3h-4l2-3-2-3z" fill="#fff" stroke="#fdbc00" stroke-linecap="round" stroke-linejoin="round" stroke-width="2"/>
  <g data-name="Group 2136">
    <path data-name="Rectangle 69" d="M184 211h70a4 4 0 014 3v36a4 4 0 01-4 3h-70a4 4 0 01-3-3v-36a4 4 0 013-3z" fill="#1a26cc" opacity=".2"/>
    <path data-name="Rectangle 70" d="M183 209h69a4 4 0 014 3v36a4 4 0 01-4 3h-69a4 4 0 01-4-3v-36a4 4 0 014-3z" fill="#f3f1ff"/>
    <path data-name="Path 169" d="M183 209h69a4 4 0 014 3v5a1 1 0 01-1 1h-75a1 1 0 01-1-1v-5a4 4 0 014-3z" fill="#1a26cc" fill-rule="evenodd"/>
    <path data-name="Path 184" d="M237 215a2 2 0 10-2-1 2 2 0 002 1z" fill="#fff" fill-rule="evenodd"/>
    <path data-name="Path 185" d="M243 215a2 2 0 10-1-1 2 2 0 001 1z" fill="#fff" fill-rule="evenodd"/>
    <path data-name="Path 186" d="M250 215a2 2 0 10-2-1 2 2 0 002 1z" fill="#fff" fill-rule="evenodd"/>
    <text transform="translate(217 239)" fill="#3441af" font-size="13" font-family="Rubik-Bold, Rubik" font-weight="700" opacity=".5">
      <tspan x="-23.7" y="0">Python</tspan>
    </text>
  </g>
  <g data-name="Group 2144">
    <path data-name="Rectangle 69" d="M98 105h43a4 4 0 014 3v36a4 4 0 01-4 3H98a4 4 0 01-4-3v-36a4 4 0 014-3z" fill="#1a26cc" opacity=".2"/>
    <path data-name="Rectangle 70" d="M99 103h44a4 4 0 013 3v36a4 4 0 01-3 3H99a4 4 0 01-3-3v-36a4 4 0 013-3z" fill="#f3f1ff"/>
    <path data-name="Path 169" d="M144 103H98c-1 0-2 1-2 3v5l1 1h49v-6c0-2-1-3-2-3z" fill="#1a26cc" fill-rule="evenodd"/>
    <path data-name="Path 184" d="M114 109a2 2 0 112-1 2 2 0 01-2 1z" fill="#fff" fill-rule="evenodd"/>
    <path data-name="Path 185" d="M108 109a2 2 0 112-1 2 2 0 01-2 1z" fill="#fff" fill-rule="evenodd"/>
    <path data-name="Path 186" d="M102 109a2 2 0 112-1 2 2 0 01-2 1z" fill="#fff" fill-rule="evenodd"/>
    <text transform="translate(121 131)" fill="#3441af" font-size="11" font-family="Rubik-Bold, Rubik" font-weight="700" opacity=".5">
      <tspan x="-16.1" y="0">React</tspan>
    </text>
  </g>
  <g data-name="Group 2137" transform="translate(-162 84)">
    <circle data-name="Ellipse 2" cx="33.9" cy="33.9" r="33.9" transform="rotate(-83 409 -154)" stroke="#a1c7ff" stroke-linecap="round" stroke-linejoin="round" fill="none"/>
    <g data-name="Group 31">
      <path data-name="Path 50" d="M542 260c-28-9-56-24-53-35 3-9 24-8 35-7l-4 4c-17-2-21 2-22 6-2 6 13 18 45 28s51 7 53 1c1-4 1-10-15-17l-1-5c17 8 27 18 25 24-3 12-35 9-63 1z" fill="none" stroke="#a1c7ff" stroke-linecap="round" stroke-linejoin="round"/>
    </g>
  </g>
  <g data-name="Group 47">
    <g data-name="Group 41">
      <path data-name="Path 64" d="M139 7l11 9-35 39s-2 0-6-3-3-5-3-5z" fill="#ffd9c0"/>
      <path data-name="Path 65" d="M146 8s6 4 4 8-5 1-8-1-6-7-2-8c3-2 7 3 7 5s-1 3-4 0 0-3 2-2" fill="#ffc088"/>
      <path data-name="Path 66" d="M142 10s-1 2 2 3 6-1 0-5c-6-5-8 1-4 4z" fill="#ffaf5f"/>
      <path data-name="Path 67" d="M143 12l1-2-2-1c-1 1 1 3 1 3z" fill="#f78d37"/>
      <path data-name="Path 68" d="M142 10l-3 2a16 16 0 006 4l2-3s-1 2-4 0-1-3-1-3z" fill="#ffd19f"/>
    </g>
    <g data-name="Group 42">
      <path data-name="Path 69" d="M58 22l14-10 28 41s0 3-4 6-8 3-8 3z" fill="#ffead7"/>
      <path data-name="Path 70" d="M61 14s7-5 10-3 0 7-3 9-9 6-10 1c-1-4 6-8 8-7s3 2-1 5-4-1-2-3" fill="#ffc088"/>
      <path data-name="Path 71" d="M62 20s3 1 5-2 0-7-6-2c-7 5-1 10 4 7z" fill="#ffaf5f"/>
      <path data-name="Path 72" d="M65 19l-2-3s-2 2-1 3c1 2 3 0 3 0z" fill="#f78d37"/>
      <path data-name="Path 73" d="M62 20l2 3a18 18 0 006-5l-2-4s1 2-2 5-4 1-4 1z" fill="#ffd19f"/>
    </g>
    <g data-name="Group 43">
      <path data-name="Path 74" d="M84 16l2 7-3 2-3-1-2-7a6 6 0 106-1z" fill="#b8daff"/>
      <path data-name="Rectangle 19" fill="#b8daff" d="M80 28l7-1 6 26-6 1z"/>
      <path data-name="Path 75" d="M89 51a6 6 0 108 5 6 6 0 00-8-5zm5 8l-3 2-3-1-1-3 3-3 3 1z" fill="#6486f2"/>
    </g>
    <g data-name="Group 44">
      <path data-name="Path 76" d="M87 65l2-7 3-1 3 3-2 7a7 7 0 10-6-2z" fill="#6486f2"/>
      <path data-name="Rectangle 20" fill="#a1c7ff" d="M90 54l8-28 6 2-8 28z"/>
      <path data-name="Path 77" d="M101 29a7 7 0 10-5-8 7 7 0 005 8zm-1-9l4-1 2 3-1 4-4 1-2-3z" fill="#a1c7ff"/>
    </g>
    <g data-name="Group 45">
      <path data-name="Path 78" d="M118 2l15 8-27 50s-3 2-8-1a10 10 0 01-5-6z" fill="#ffead7"/>
      <path data-name="Path 79" d="M127 0s8 4 7 9-7 3-10 2-9-6-5-10c4-3 10 2 10 4s-1 5-5 2 0-4 2-3" fill="#ffc088"/>
      <path data-name="Path 80" d="M122 5s0 2 4 3 7-3-1-7c-8-3-10 4-5 8z" fill="#ffaf5f"/>
      <path data-name="Path 81" d="M124 7l1-3s-2-1-3 0c-1 2 2 3 2 3z" fill="#f78d37"/>
      <path data-name="Path 82" d="M122 4l-2 4a16 16 0 007 4l2-5s-1 2-4 1-3-4-3-4z" fill="#ffd19f"/>
    </g>
    <g data-name="Group 46">
      <path data-name="Rectangle 21" fill="#ffac06" d="M64 37h52v31H64z"/>
      <path data-name="Rectangle 22" fill="#ff8f08" d="M116 37h28v31h-28z"/>
      <path data-name="Path 83" d="M104 52H53l11-15h52z" fill="#ffd8bd"/>
      <path data-name="Path 84" d="M122 52h28l-6-15h-29z" fill="#ffc69f"/>
    </g>
  </g>
  <g data-name="Group 2145">
    <path data-name="Rectangle 25" d="M252 89h13a2 2 0 012 3v12a2 2 0 01-2 3h-13a2 2 0 01-2-3V92a2 2 0 012-3z" fill="#9cc6e0"/>
    <path data-name="Rectangle 26" d="M252 111h13a2 2 0 012 3v12a2 2 0 01-2 3h-13a2 2 0 01-2-3v-12a2 2 0 012-3z" fill="#9cc6e0"/>
    <path data-name="Rectangle 27" d="M252 133h13a2 2 0 012 2v13a2 2 0 01-2 2h-13a2 2 0 01-2-2v-13a2 2 0 012-2z" fill="#9cc6e0"/>
    <path data-name="Rectangle 28" d="M252 155h13a2 2 0 012 2v13a2 2 0 01-2 2h-13a2 2 0 01-2-2v-13a2 2 0 012-2z" fill="#9cc6e0"/>
    <path data-name="Rectangle 29" d="M250 88h13a2 2 0 012 2v13a2 2 0 01-2 2h-13a2 2 0 01-2-2V90a2 2 0 012-2z" fill="#fff"/>
    <path data-name="Rectangle 30" d="M250 110h13a2 2 0 012 2v13a2 2 0 01-2 2h-13a2 2 0 01-2-2v-13a2 2 0 012-2z" fill="#fff"/>
    <path data-name="Rectangle 31" d="M250 131h13a2 2 0 012 3v12a2 2 0 01-2 3h-13a2 2 0 01-2-3v-12a2 2 0 012-3z" fill="#fff"/>
    <path data-name="Rectangle 32" d="M250 153h13a2 2 0 012 3v12a2 2 0 01-2 2h-13a2 2 0 01-2-2v-12a2 2 0 012-3z" fill="#fff"/>
    <path data-name="Path 126" d="M252 98a1 1 0 011-1l2 2 5-7a1 1 0 012 1l-6 8a1 1 0 01-2 0z" fill="#78c9d9" fill-rule="evenodd"/>
    <path data-name="Path 127" d="M254 123a1 1 0 11-1-2l2-3-2-3a1 1 0 111-1l3 3 2-3a1 1 0 112 1l-3 3 3 3a1 1 0 11-2 2l-2-3z" fill="#d84f50" fill-rule="evenodd"/>
    <path data-name="Path 128" d="M252 142a1 1 0 011-1l2 1 5-7a1 1 0 012 2l-6 8a1 1 0 01-2 0z" fill="#78c9d9" fill-rule="evenodd"/>
  </g>
  <path data-name="Path 1280" d="M461 231a4 4 0 114 4 4 4 0 01-4-4z" fill="none" stroke="#fdbc00" stroke-linecap="round" stroke-miterlimit="10" stroke-width="2"/>
  <g data-name="Group 2157" fill="none" stroke="#a1c7ff" stroke-linecap="round" stroke-miterlimit="10" stroke-width="3">
    <path data-name="Line 19" d="M37 136v-11"/>
    <path data-name="Line 20" d="M31 130h11"/>
  </g>
  <g data-name="Group 2158" fill="none" stroke="#a1c7ff" stroke-linecap="round" stroke-miterlimit="10" stroke-width="3">
    <path data-name="Line 19" d="M455 300v-11"/>
    <path data-name="Line 20" d="M449 294h11"/>
  </g>
</svg>
