<svg xmlns="http://www.w3.org/2000/svg" xmlns:xlink="http://www.w3.org/1999/xlink" width="660.194" height="495.65" viewBox="0 0 660.194 495.65"><defs><radialGradient id="a" cx="0.518" cy="0.393" r="0.5" gradientUnits="objectBoundingBox"><stop offset="0" stop-color="#15217e"/><stop offset="1" stop-color="#030a33"/></radialGradient><filter id="b" x="134.257" y="162.916" width="444.16" height="150.56" filterUnits="userSpaceOnUse"><feOffset dx="10" dy="-8" input="SourceAlpha"/><feGaussianBlur result="c"/><feFlood flood-opacity="0.6"/><feComposite operator="in" in2="c"/><feComposite in="SourceGraphic"/></filter><filter id="d" x="120.257" y="175.916" width="442.16" height="152.56" filterUnits="userSpaceOnUse"><feOffset dx="8" dy="-10" input="SourceAlpha"/><feGaussianBlur result="e"/><feFlood flood-color="#08cecd"/><feComposite operator="in" in2="e"/><feComposite in="SourceGraphic"/></filter><filter id="f" x="238.657" y="208.956" width="30" height="143" filterUnits="userSpaceOnUse"><feOffset dx="4" dy="-4" input="SourceAlpha"/><feGaussianBlur result="g"/><feFlood flood-color="#08cecd"/><feComposite operator="in" in2="g"/><feComposite in="SourceGraphic"/></filter><filter id="h" x="391.657" y="208.956" width="30" height="143" filterUnits="userSpaceOnUse"><feOffset dx="4" dy="-4" input="SourceAlpha"/><feGaussianBlur result="i"/><feFlood flood-color="#08cecd"/><feComposite operator="in" in2="i"/><feComposite in="SourceGraphic"/></filter></defs><g transform="translate(-225.343 803.956)"><path d="M4290.64-2380.438l99.36,7.157-54.311,82.94Z" transform="translate(-3508 1932)" fill="#fff"/><path d="M4290.64-2380.438l99.36,7.157-54.311,82.94Z" transform="translate(-3508 1948.403)" fill="none" stroke="#06062d" stroke-width="4"/><g transform="matrix(0.719, -0.695, 0.695, 0.719, 451.657, 142.567)"><path d="M4290.64-2380.438l71.244,5.132-38.942,59.47Z" transform="translate(-3508 1929.541)" fill="#ff5a00"/><path d="M4290.64-2380.438l71.244,5.132-38.942,59.47Z" transform="translate(-3506.031 1911.368)" fill="none" stroke="#06062d" stroke-width="4"/></g><g transform="matrix(-0.259, -0.966, 0.966, -0.259, 909.648, 321.172)"><path d="M4290.64-2380.438l87.342,6.291-47.742,72.908Z" transform="translate(-3516.311 1922.719)" fill="#fdbc00"/><path d="M4290.64-2380.438l96.138,6.925-52.55,80.251Z" transform="translate(-3505.343 1911.368)" fill="none" stroke="#06062d" stroke-width="4"/></g><path d="M25.888,41.333a17.676,17.676,0,0,0-15.44-15.147A17.675,17.675,0,0,0,25.888,11.04h0a17.674,17.674,0,0,0,15.44,15.147h0a17.675,17.675,0,0,0-15.44,15.148ZM0,5.124A5.979,5.979,0,0,0,5.223,0a5.979,5.979,0,0,0,5.224,5.124,5.979,5.979,0,0,0-5.224,5.125A5.978,5.978,0,0,0,0,5.124Z" transform="translate(804.671 -803.956)" fill="#45f7f6"/><path d="M25.888,41.333a17.676,17.676,0,0,0-15.44-15.147A17.675,17.675,0,0,0,25.888,11.04h0a17.674,17.674,0,0,0,15.44,15.147h0a17.675,17.675,0,0,0-15.44,15.148ZM0,5.124A5.979,5.979,0,0,0,5.223,0a5.979,5.979,0,0,0,5.224,5.124,5.979,5.979,0,0,0-5.224,5.125A5.978,5.978,0,0,0,0,5.124Z" transform="translate(348.328 -712.267) rotate(180)" fill="#45f7f6"/><path d="M25.888,41.333a17.676,17.676,0,0,0-15.44-15.147A17.675,17.675,0,0,0,25.888,11.04h0a17.674,17.674,0,0,0,15.44,15.147h0a17.675,17.675,0,0,0-15.44,15.148ZM0,5.124A5.979,5.979,0,0,0,5.223,0a5.979,5.979,0,0,0,5.224,5.124,5.979,5.979,0,0,0-5.224,5.125A5.978,5.978,0,0,0,0,5.124Z" transform="translate(475.763 -335.975) rotate(180)" fill="#45f7f6"/><path d="M341.547,467.781l-360.03,10.443-126.849,84.547,43.169-82.121-85.42,2.478-59.683-283.176,628.6-46.042Z" transform="translate(502.665 -889.161)" fill="url(#a)"/><path d="M341.547,467.781l-360.03,10.443-126.849,84.547,43.169-82.121-85.42,2.478-59.683-283.176,628.6-46.042Z" transform="translate(489.694 -899.91)" fill="none" stroke="#45f7f6" stroke-width="4"/><g transform="matrix(1, 0, 0, 1, 225.34, -803.96)" filter="url(#b)"><path d="M3.6-29.52h9v-81h-9v-29.52H82.62q23.22,0,35.46,9.99t12.24,32.31q0,22.32-12.24,32.31T82.62-55.44H63v25.92H80.28V0H3.6ZM69.12-81q10.44,0,10.44-11.52V-99q0-5.94-2.61-8.73t-7.83-2.79H63V-81ZM217.26,2.52Q189,2.52,173.61-9.9T158.22-50.22v-60.3h-9v-29.52h66.6v29.52h-7.2v69.48q0,5.94,2.61,8.73t7.83,2.79q5.22,0,7.83-2.79t2.61-8.73v-69.48h-7.2v-29.52h61.74v29.52h-9v60.3q0,27.9-14.94,40.32T217.26,2.52Zm86.76-32.04h9v-81h-9v-29.52h82.62q22.5,0,35.1,9.18t12.6,26.28q0,10.62-5.04,17.91a34.583,34.583,0,0,1-11.79,10.98,46.276,46.276,0,0,1-13.05,4.95v1.8a49.647,49.647,0,0,1,23.04,8.1Q437.76-54,437.76-36.36q0,18.9-14.22,27.63T386.64,0H304.02ZM373.14-81q5.22,0,7.83-2.79t2.61-8.73V-99q0-5.94-2.61-8.73t-7.83-2.79h-9.72V-81Zm1.26,51.48q5.22,0,7.83-2.79t2.61-8.73v-7.92q0-5.94-2.61-8.73t-7.83-2.79H363.42v30.96Z" transform="translate(130.66 310.96)" fill="#1a1963"/></g><g transform="matrix(1, 0, 0, 1, 225.34, -803.96)" filter="url(#d)"><path d="M3.6-29.52h9v-81h-9v-29.52H82.62q23.22,0,35.46,9.99t12.24,32.31q0,22.32-12.24,32.31T82.62-55.44H63v25.92H80.28V0H3.6ZM69.12-81q10.44,0,10.44-11.52V-99q0-5.94-2.61-8.73t-7.83-2.79H63V-81ZM217.26,2.52Q189,2.52,173.61-9.9T158.22-50.22v-60.3h-9v-29.52h66.6v29.52h-7.2v69.48q0,5.94,2.61,8.73t7.83,2.79q5.22,0,7.83-2.79t2.61-8.73v-69.48h-7.2v-29.52h61.74v29.52h-9v60.3q0,27.9-14.94,40.32T217.26,2.52Zm86.76-32.04h9v-81h-9v-29.52h82.62q22.5,0,35.1,9.18t12.6,26.28q0,10.62-5.04,17.91a34.583,34.583,0,0,1-11.79,10.98,46.276,46.276,0,0,1-13.05,4.95v1.8a49.647,49.647,0,0,1,23.04,8.1Q437.76-54,437.76-36.36q0,18.9-14.22,27.63T386.64,0H304.02ZM373.14-81q5.22,0,7.83-2.79t2.61-8.73V-99q0-5.94-2.61-8.73t-7.83-2.79h-9.72V-81Zm1.26,51.48q5.22,0,7.83-2.79t2.61-8.73v-7.92q0-5.94-2.61-8.73t-7.83-2.79H363.42v30.96Z" transform="translate(116.66 325.96)" fill="#fff"/></g><g transform="matrix(1, 0, 0, 1, 225.34, -803.96)" filter="url(#f)"><text transform="translate(238.66 322.96)" fill="#fff" font-size="120" font-family="Gilroy-Light, Gilroy" font-weight="300"><tspan x="0" y="0">.</tspan></text></g><g transform="matrix(1, 0, 0, 1, 225.34, -803.96)" filter="url(#h)"><text transform="translate(391.66 322.96)" fill="#fff" font-size="120" font-family="Gilroy-Light, Gilroy" font-weight="300"><tspan x="0" y="0">.</tspan></text></g><g transform="translate(703.429 -608)"><path d="M223.378,287.375l-.814,4.008-10.055-5.2h0a2.945,2.945,0,0,1,3.936-.428l1.189.865a1.421,1.421,0,0,0,2.069-1.144h0Z" transform="translate(-182.074 -156.881)"/><path d="M242.241,287.375l.813,4.008,10.056-5.2h0a2.945,2.945,0,0,0-3.936-.428l-1.19.865a1.42,1.42,0,0,1-2.068-1.144h0Z" transform="translate(-182.074 -156.881)"/><path d="M246.9,248.984l-2.942-26.807-10.207-4.032-.938.36-.937-.36-10.208,4.032-2.941,26.807a7.2,7.2,0,0,0-.04,1l1.02,35.494,3.675,1.9s2.51-4.523,3.668-15.454a118.933,118.933,0,0,0,.262-20.737l5.5-19.677,5.5,19.677a118.933,118.933,0,0,0,.262,20.737c1.158,10.931,3.668,15.454,3.668,15.454l3.675-1.9,1.02-35.494A7.2,7.2,0,0,0,246.9,248.984Z" transform="translate(-182.074 -156.881)" fill="#5c65ff"/><g transform="translate(0 0)"><g transform="translate(89.736 9.538)"><path d="M281.035,173.3l-7.768,2.475.548,1.719,7.768-2.476a.9.9,0,0,0-.548-1.718Z" transform="translate(-271.81 -166.419)" fill="#ffbe9d"/><path d="M271.967,174.193l.61-.507a15.6,15.6,0,0,0,8.356-6.378l.148-.228a1.449,1.449,0,0,1,2.2-.272h0a1.447,1.447,0,0,1,.337,1.646h0a15.6,15.6,0,0,1-7.9,7.932l-3.915,1.751Z" transform="translate(-271.81 -166.419)" fill="#ffbe9d"/></g><g transform="translate(0 9.538)"><path d="M184.784,173.3l7.769,2.475-.548,1.719-7.768-2.476a.9.9,0,0,1,.547-1.718Z" transform="translate(-182.074 -166.419)" fill="#ffbe9d"/><path d="M193.853,174.193l-.611-.507a15.594,15.594,0,0,1-8.355-6.378l-.148-.228a1.449,1.449,0,0,0-2.2-.272h0a1.447,1.447,0,0,0-.337,1.646h0a15.6,15.6,0,0,0,7.9,7.932l3.915,1.751Z" transform="translate(-182.074 -166.419)" fill="#ffbe9d"/></g><path d="M272.437,173.654,236.729,185.3c-.033,0-7.605,0-7.639,0l-35.707-11.642-1.1,3.894,27.973,13.307L221.093,222h23.634l.837-31.145,27.974-13.462Z" transform="translate(-182.074 -156.881)" fill="#fdbc00"/><path d="M245.115,168.009c.056-3.377-2.941-7.333-7.279-8.5a9.824,9.824,0,0,0-10.89,4.312l-.376.607a9.823,9.823,0,0,0-1.054,8.021l2.864,8.458-.152,4.1,4.493,4.031,4.008-3.75v-4.9l3.716.112a4.871,4.871,0,0,0,4.8-4.872v-3.629Z" transform="translate(-182.074 -156.881)" fill="#ffbe9d"/><path d="M227.242,207.084h0a3.2,3.2,0,0,0,3.2-3.215l-.165-34.064,14.97-3.978a7.169,7.169,0,0,0-.47-2.063,10.37,10.37,0,0,0-12.6-6.538h0a10.765,10.765,0,0,0-8.136,10.492c0,.4,0,25.581,0,36.172A3.2,3.2,0,0,0,227.242,207.084Z" transform="translate(-182.074 -156.881)"/><path d="M241.126,175.306a2.145,2.145,0,0,1-4.29,0" transform="translate(-182.074 -156.881)" fill="#fff"/></g><path d="M233.2,171.9a2.536,2.536,0,1,1-2.536-2.536A2.535,2.535,0,0,1,233.2,171.9Z" transform="translate(-182.074 -156.881)" fill="#ffbe9d"/></g><g transform="translate(615.429 -694)"><path d="M141.533,319.767l2.146,4.377h-13.5a3.276,3.276,0,0,1,3.671-2.436l1.618.247a1.581,1.581,0,0,0,1.459-2.188h4.6Z" transform="translate(-118.784 -216.372)"/><path d="M152.932,319.767l2.145,4.377h-13.5a3.277,3.277,0,0,1,3.671-2.436l1.618.247a1.581,1.581,0,0,0,1.46-2.188h4.6Z" transform="translate(-141.58 -216.372)"/><g transform="translate(4.792 0)"><path d="M104.749,320.169l11.938-30.7,13.7-6.942,15.544,8.4,4.35-6.677-16.947,1.883-22.746-5.155a5.689,5.689,0,0,0-3.559,4.36L96.765,320.169Z" transform="translate(-96.765 -216.372)" fill="#5c65ff"/><path d="M99.121,281.71a5.69,5.69,0,0,0-3.014,4.495l-7.815,33.964h7.455L106.729,291.2s13.909,3.4,23.439,3.4c4.183,0,8.787-3.935,8.787-8.788v-1.569Z" transform="translate(-76.962 -216.372)" fill="#5c65ff"/><path d="M79.068,280.689,74.962,274.4l9.6-20.171a8.451,8.451,0,0,1,7.632-4.82h12.239a10.276,10.276,0,0,1,8.94,5.209L123.93,270.5a4.561,4.561,0,0,1-1.914,6.678l-10.652,4.836v4.113L88.1,283.356l.615-21.85Zm35.117-7.524a1.634,1.634,0,0,0,.653-2.475l-3.475-4.648V274.4Z" transform="translate(-49.37 -216.372)" fill="#fdbc00"/><path d="M93.024,231.974c-.055-3.336,2.905-7.243,7.189-8.391a9.7,9.7,0,0,1,10.755,4.258l.372.6a9.7,9.7,0,0,1,1.041,7.923l-2.829,8.352-.02,4.694-4.151,1.988-3.924-1.988-.069-5.076-3.752-.011a4.811,4.811,0,0,1-4.74-4.811v-3.584Z" transform="translate(-55.407 -216.372)" fill="#ffbe9d"/><path d="M104.491,239.18a2.119,2.119,0,0,0,4.237,0" transform="translate(-62.934 -216.372)" fill="#fff"/><g transform="translate(47.359 61.387)"><g transform="translate(0 0.577)"><path d="M95.876,281.78h0a1.02,1.02,0,0,1,.433-1.376l3.965-2.068,2.652,1.31-5.674,2.566A1.02,1.02,0,0,1,95.876,281.78Z" transform="translate(-95.76 -278.336)" fill="#ffbe9d"/><path d="M95.318,284.083h0a1.022,1.022,0,0,1,.424-1.372l6.1-3.256.944,1.809L96.7,284.511A1.02,1.02,0,0,1,95.318,284.083Z" transform="translate(-95.064 -278.336)" fill="#ffbe9d"/><path d="M94.376,285.4h0a1.02,1.02,0,0,1,.432-1.376l5.288-2.757.943,1.808-5.287,2.758A1.02,1.02,0,0,1,94.376,285.4Z" transform="translate(-92.373 -278.336)" fill="#ffbe9d"/><path d="M93.433,285.9h0a1.02,1.02,0,0,1,.432-1.376l2.783-1.451.943,1.809-2.782,1.451A1.019,1.019,0,0,1,93.433,285.9Z" transform="translate(-87.982 -278.336)" fill="#ffbe9d"/></g><path d="M95.851,285.432l1.3-.678a2.59,2.59,0,0,0,.83-.685l.86-1.081-2.387-4.86-.111-.04a6.111,6.111,0,0,0-4.959.47Z" transform="translate(-87.299 -277.759)" fill="#ffbe9d"/></g><path d="M104.8,220.55h0a10.629,10.629,0,0,0-12.914,6.7,7.343,7.343,0,0,0-.482,2.114l4.137.269,1.5-2.684.653,2.79,7.209.5,4.738,11.253a34.608,34.608,0,0,0,2.772-6.377A10.985,10.985,0,0,0,104.8,220.55Z" transform="translate(-54.262 -216.372)" fill="#77310e"/><path d="M95.7,235.931a1.944,1.944,0,1,0,1.944-1.944A1.944,1.944,0,0,0,95.7,235.931Z" transform="translate(-45.003 -216.372)" fill="#ffbe9d"/><path d="M98.307,226.565v12.964a10.764,10.764,0,0,0,1.536-7.491C99.073,227.837,98.307,226.565,98.307,226.565Z" transform="translate(-48.022 -216.372)" fill="#77310e"/></g><g transform="translate(3.41 46.759)"><path d="M112.03,283.85h28.288a2.839,2.839,0,0,0-2.839-2.839H112.03Z" transform="translate(-100.681 -263.131)" fill="#fff"/><path d="M124.519,283.717h24.826a2.321,2.321,0,0,0,2.27-2.807L148.2,264.967a2.321,2.321,0,0,0-2.27-1.836H121.108a2.322,2.322,0,0,0-2.27,2.807l3.411,15.943A2.321,2.321,0,0,0,124.519,283.717Z" transform="translate(-118.785 -263.131)" fill="#fff"/><path d="M133.084,273.424a2.142,2.142,0,1,0,2.142-2.142A2.142,2.142,0,0,0,133.084,273.424Z" transform="translate(-118.785 -263.131)" fill="#ffd01f"/></g></g><g transform="translate(5.021 -796.596)"><path d="M355.2,239.134v18.194a2.179,2.179,0,0,0,1.747,2.184,2.1,2.1,0,0,0,2.453-2.071V252.19a2.129,2.129,0,0,1,2.133-2.1c.988,0,2.067.685,2.067,1.6V269.4a2.178,2.178,0,0,0,1.747,2.183,2.1,2.1,0,0,0,2.453-2.071l-.038-13.7a2.118,2.118,0,0,1,2.215-2.143h0A2.119,2.119,0,0,1,372,255.79v4.163a2.179,2.179,0,0,0,1.747,2.184,2.1,2.1,0,0,0,2.453-2.071V235.521Z"/><path d="M355.749,186.572h21.2l5.728-12.183a4.063,4.063,0,0,0-4.091-5.771h0a4.067,4.067,0,0,0-1.873.684l-10.365,7.062L355.985,169.3a4.063,4.063,0,0,0-1.873-.684h0a4.063,4.063,0,0,0-4.091,5.771Z" fill="#5c65ff"/><path d="M331.964,243.691l5.454-5.974L336.1,236.51l-5.455,5.974a.9.9,0,0,0,1.322,1.207Z" fill="#ffbe9d"/><path d="M339.322,238.438l-.274.738a15.485,15.485,0,0,0-4.028,9.621l-.014.27a1.437,1.437,0,0,1-1.76,1.324h0a1.435,1.435,0,0,1-1.105-1.248h0a15.481,15.481,0,0,1,2.864-10.73l2.5-3.445Z" fill="#ffbe9d"/><path d="M401.782,243.691l-5.455-5.974,1.322-1.207,5.454,5.974a.895.895,0,1,1-1.321,1.207Z" fill="#ffbe9d"/><path d="M394.424,238.438l.274.738a15.484,15.484,0,0,1,4.027,9.621l.014.27a1.437,1.437,0,0,0,1.76,1.324h0a1.438,1.438,0,0,0,1.106-1.248h0a15.486,15.486,0,0,0-2.864-10.73l-2.5-3.445Z" fill="#ffbe9d"/><path d="M397.38,236.425l-18.188-24.509-2.24-25.344-1.457-.428a32.339,32.339,0,0,0-18.008-.068l-1.738.5-1.363,25.57-18.021,24.283,2.82,2.709,13.751-14.427a19.277,19.277,0,0,1,13.908-5.978h0a19.274,19.274,0,0,1,13.959,5.934l13.757,14.343Z" fill="#fdbc00"/><path d="M354.6,235.675c-.054,3.269,2.847,7.1,7.046,8.224a9.508,9.508,0,0,0,10.54-4.173l.365-.588a9.505,9.505,0,0,0,1.019-7.764l-2.772-6.863-.025-4.884-3.9-2.959-3.989,2.962-.089,5.256-3.677.011a4.715,4.715,0,0,0-4.646,4.715V231.8Z" fill="#ffbe9d"/><path d="M358.459,229.936a2.076,2.076,0,0,1,4.153,0" fill="#fff"/><path d="M368.165,234.767l-13.955,2.982a7.365,7.365,0,0,0,.483,2.126,10.685,10.685,0,0,0,12.982,6.736,11.262,11.262,0,0,0,8.525-10.562c0-4.684-4.289-8.778-4.289-8.778Z"/><path d="M366.474,233.12a2.377,2.377,0,1,1,2.377,2.377A2.377,2.377,0,0,1,366.474,233.12Z" fill="#ff63be"/></g><g transform="translate(532.429 -548)"><path d="M273.044,278.9c1.6-5.22,3.9-7.436,8.189-7.7,1.9-.118,17.768-.118,19.664,0,4.284.266,6.266,2.951,7.879,8.255l3.616,14.629a5.588,5.588,0,0,1-1.367,4.547l-4.885,5.448-2.272-19.262-4.193,22.967H280.852l-3.117-22.967-3.084,19.121-4.762-5.4a5.586,5.586,0,0,1-1.332-4.552Z" transform="translate(-260.703 -240.957)" fill="#fdbc00"/><path d="M297.029,254.672c.056-3.349-2.917-7.273-7.219-8.426a9.742,9.742,0,0,0-10.8,4.276l-.373.6a9.739,9.739,0,0,0-1.045,7.955l2.84,7.031.026,5,3.994,3.032,4.086-3.035.092-5.385,3.768-.011a4.83,4.83,0,0,0,4.759-4.831v-2.243Z" transform="translate(-254.094 -240.957)" fill="#ffbe9d"/><path d="M285.515,260.552a2.127,2.127,0,0,1-4.254,0" transform="translate(-246.536 -240.957)" fill="#fff"/><path d="M281.417,265.016l-2.964-5.106a11.286,11.286,0,0,1-.932-2.059l-.018-.054a11.067,11.067,0,0,1,6.712-14.085c.276-.091.557-.173.842-.244a10.947,10.947,0,0,1,13.3,6.9,7.54,7.54,0,0,1,.495,2.178l-7,5.1a3.8,3.8,0,0,1-5.136-.621l-1.428-1.694Z" transform="translate(-255.52 -240.957)" fill="#9f3a07"/><path d="M294.343,257.29a2.435,2.435,0,1,1-2.436-2.436A2.436,2.436,0,0,1,294.343,257.29Z" transform="translate(-263.575 -240.957)" fill="#ffbe9d"/><path d="M261.449,307.725a5.605,5.605,0,0,1,6.148-2.406L278.219,308h24.394l10.622-2.681a5.637,5.637,0,0,1,6.148,2.461,5.764,5.764,0,0,1-2.6,8.3L297.83,322H277.753l-13.707-5.945A5.793,5.793,0,0,1,261.449,307.725Z" transform="translate(-260.592 -240.957)" fill="#5c65ff"/><path d="M311.647,320.33l-1.414,1.576-13.592.179h0a3.355,3.355,0,0,1,3.68-2.61l1.665.2a7.136,7.136,0,0,0,5.024-2.436Z" transform="translate(-288.048 -240.957)"/><path d="M276.439,319.534a5.667,5.667,0,0,0,1.218.142l1.664-.2a3.356,3.356,0,0,1,3.681,2.61l-13.818-.158Z" transform="translate(-231.946 -240.957)"/><g transform="translate(12.741 52.484)"><path d="M277.542,314.526h25.784a2.5,2.5,0,0,0,2.49-2.244l1.67-16.08A2.5,2.5,0,0,0,305,293.441H275.836a2.5,2.5,0,0,0-2.489,2.766l1.706,16.081A2.5,2.5,0,0,0,277.542,314.526Z" transform="translate(-273.332 -293.441)" fill="#fff"/><path d="M288.222,303.984a2.194,2.194,0,1,0,2.194-2.194A2.194,2.194,0,0,0,288.222,303.984Z" transform="translate(-273.333 -293.441)" fill="#ffd01f"/></g><path d="M293.25,253.273c-.048-.6-.138-2.335-.182-3.287-.419-5.07-5.9-9.147-11.6-9.026a11.8,11.8,0,0,0-10.718,7.9,10.837,10.837,0,0,0-.625,3.094l.053,1.2,29.311,1.672.068-1.193Z" transform="translate(-249.432 -240.957)"/></g><path d="M25.246,2.816h0A9.962,9.962,0,0,0,17.958-.007,9.929,9.929,0,0,0,8.9,9.936a10.324,10.324,0,0,0,4.044,8.384v4.719a3.885,3.885,0,0,0,3.792,3.918h3.707a3.858,3.858,0,0,0,3.792-3.918V18.362A10.216,10.216,0,0,0,28.364,10.1,10.671,10.671,0,0,0,25.246,2.816ZM20.317,24.6H16.61a1.563,1.563,0,0,1-1.559-1.685V18.994h6.7v3.918A1.41,1.41,0,0,1,20.317,24.6Zm2.106-7.836H19.643V13.517l2.444-1.9a1.112,1.112,0,0,0-1.348-1.769l-1.137.885V8.967a1.138,1.138,0,0,0-2.275,0v1.9L15.767,9.851a1.128,1.128,0,1,0-1.222,1.9l2.781,1.9v3.118H14.545a8.147,8.147,0,0,1-3.581-6.825,7.589,7.589,0,0,1,6.951-7.71h.463a7.528,7.528,0,0,1,5.14,2.106,8.334,8.334,0,0,1,2.359,5.687A7.507,7.507,0,0,1,22.424,16.761Z" transform="translate(608.597 -686.944)" fill="#45f7f6"/><g transform="translate(297.429 -605.275)"><path d="M10.4,13.724a1.354,1.354,0,0,0-2.015,0l-7.733,8a2.435,2.435,0,0,0,0,3.322l7.678,8a1.593,1.593,0,0,0,1.035.436,1.713,1.713,0,0,0,1.035-.436,1.354,1.354,0,0,0,0-2.015L2.995,23.472,10.4,15.794A1.416,1.416,0,0,0,10.4,13.724Z" fill="#45f7f6"/><path d="M54.072,21.729l-7.733-8a1.354,1.354,0,0,0-2.015,0,1.4,1.4,0,0,0,0,2.015l7.406,7.733L44.324,31.15a1.354,1.354,0,0,0,0,2.015,1.394,1.394,0,0,0,1.035.436,1.488,1.488,0,0,0,1.035-.436l7.678-8A2.369,2.369,0,0,0,54.072,21.729Z" transform="translate(-19.983)" fill="#45f7f6"/><path d="M31.673,14.331a1.591,1.591,0,0,0-1.906.871L23.831,31.757a1.591,1.591,0,0,0,.871,1.906c.163,0,.272.163.436.163a1.39,1.39,0,0,0,1.307-1.035l6.1-16.717A1.339,1.339,0,0,0,31.673,14.331Z" transform="translate(-10.817 -0.444)" fill="#45f7f6"/></g><path d="M29.279,24.062,22.3,17.032a2.291,2.291,0,0,0-3.234,0l-.141.141-2.156-2.109a9.3,9.3,0,0,0-.89-12.232,9.478,9.478,0,0,0-13.263,0,9.434,9.434,0,0,0,0,13.263A9.3,9.3,0,0,0,9.22,18.86a9.128,9.128,0,0,0,5.624-1.875l2.109,2.109-.141.141a2.291,2.291,0,0,0,0,3.234L23.8,29.452a2.017,2.017,0,0,0,1.64.609,2.728,2.728,0,0,0,1.64-.609l2.015-2.015A2.306,2.306,0,0,0,29.279,24.062ZM4.393,14.314a7.018,7.018,0,0,1,0-9.748A6.886,6.886,0,0,1,9.267,2.55a6.694,6.694,0,0,1,4.874,2.015,7.018,7.018,0,0,1,0,9.748A7.019,7.019,0,0,1,4.393,14.314ZM25.67,27.53l-6.749-6.749,1.734-1.734L27.4,25.8Z" transform="translate(803.541 -630.125)" fill="#45f7f6"/></g></svg>