<svg xmlns="http://www.w3.org/2000/svg" width="108.111" height="72.089" viewBox="0 0 108.111 72.089">
  <g id="logo-footer" transform="translate(-252.435 736.089)">
    <path id="Path_813" data-name="Path 813" d="M-153.562,205.493l-57.295,1.716L-231.043,221.1l6.87-13.5-13.594.407-9.5-46.538,100.035-7.567Z" transform="translate(507.776 -885.104)" fill="#28256b"/>
    <path id="Path_814" data-name="Path 814" d="M-153.562,205.493l-57.295,1.716L-231.043,221.1l6.87-13.5-13.594.407-9.5-46.538,100.035-7.567Z" transform="translate(503.596 -888.91)" fill="none" stroke="#fff" stroke-width="2"/>
    <text id="P.U.B" transform="translate(273 -696)" fill="#fff" font-size="26" font-family="AlfaSlabOne-Regular, Alfa Slab One"><tspan x="0" y="0">P.U.B</tspan></text>
    <g id="Group_2117" data-name="Group 2117" transform="translate(-77.973 -900.596)">
      <path id="Path_1209" data-name="Path 1209" d="M355.2,236.994v7.419a.888.888,0,0,0,.712.891.857.857,0,0,0,1-.844v-2.141a.868.868,0,0,1,.87-.856c.4,0,.843.279.843.654v7.222a.888.888,0,0,0,.712.89.857.857,0,0,0,1-.844l-.016-5.586a.864.864,0,0,1,.9-.874h0a.864.864,0,0,1,.825.863v1.7a.888.888,0,0,0,.712.891.857.857,0,0,0,1-.844V235.521Z" transform="translate(-14.683 -39.636)"/>
      <path id="Path_1210" data-name="Path 1210" d="M352.124,175.926h8.646l2.336-4.968a1.657,1.657,0,0,0-1.668-2.353h0a1.659,1.659,0,0,0-.764.279l-4.226,2.88-4.227-2.88a1.657,1.657,0,0,0-.764-.279h0a1.657,1.657,0,0,0-1.668,2.353Z" transform="translate(-11.383 0)" fill="#5c65ff"/>
      <g id="Group_2109" data-name="Group 2109" transform="translate(330.408 195.66)">
        <path id="Path_1211" data-name="Path 1211" d="M331.043,239.438,333.267,237l-.539-.492-2.224,2.436a.365.365,0,0,0,.539.492Z" transform="translate(-330.408 -235.881)" fill="#ffbe9d"/>
        <path id="Path_1212" data-name="Path 1212" d="M335.018,236.383l-.112.3a6.314,6.314,0,0,0-1.642,3.923l-.006.11a.586.586,0,0,1-.718.54h0a.585.585,0,0,1-.451-.509h0a6.313,6.313,0,0,1,1.168-4.375l1.019-1.4Z" transform="translate(-331.383 -234.968)" fill="#ffbe9d"/>
      </g>
      <g id="Group_2110" data-name="Group 2110" transform="translate(332.837 175.216)">
        <path id="Path_1213" data-name="Path 1213" d="M398.551,239.438,396.327,237l.539-.492,2.224,2.436a.365.365,0,0,1-.539.492Z" transform="translate(-371.877 -215.437)" fill="#ffbe9d"/>
        <path id="Path_1214" data-name="Path 1214" d="M394.424,236.383l.112.3a6.314,6.314,0,0,1,1.642,3.923l.006.11a.586.586,0,0,0,.718.54h0a.586.586,0,0,0,.451-.509h0a6.314,6.314,0,0,0-1.168-4.375l-1.019-1.4Z" transform="translate(-370.75 -214.524)" fill="#ffbe9d"/>
        <path id="Path_1215" data-name="Path 1215" d="M361.245,205.869l-7.416-9.994-.913-10.334-.594-.175a13.187,13.187,0,0,0-7.343-.028l-.709.2-.556,10.427-7.348,9.9,1.15,1.1,5.607-5.883a7.861,7.861,0,0,1,5.671-2.438h0a7.859,7.859,0,0,1,5.692,2.42l5.61,5.849Z" transform="translate(-336.365 -184.831)" fill="#fdbc00"/>
      </g>
      <path id="Path_1216" data-name="Path 1216" d="M354.523,224.418a3.783,3.783,0,0,0,2.873,3.353,3.877,3.877,0,0,0,4.3-1.7l.149-.24a3.876,3.876,0,0,0,.415-3.166l-1.13-2.8-.01-1.992-1.589-1.207-1.627,1.208-.036,2.143-1.5,0a1.923,1.923,0,0,0-1.895,1.923v.893Z" transform="translate(-14.251 -28.47)" fill="#ffbe9d"/>
      <path id="Path_1217" data-name="Path 1217" d="M358.459,228.707a.847.847,0,0,1,1.693,0" transform="translate(-16.613 -35.098)" fill="#fff"/>
      <path id="Path_1218" data-name="Path 1218" d="M359.9,230.328l-5.69,1.216a3,3,0,0,0,.2.867,4.357,4.357,0,0,0,5.294,2.747,4.592,4.592,0,0,0,3.476-4.307,5.843,5.843,0,0,0-1.749-3.579Z" transform="translate(-14.096 -34.75)"/>
      <path id="Path_1219" data-name="Path 1219" d="M366.474,231.713a.969.969,0,1,1,.969.969A.969.969,0,0,1,366.474,231.713Z" transform="translate(-21.359 -36.806)" fill="#ff63be"/>
    </g>
    <g id="Group_2116" data-name="Group 2116" transform="translate(-4971 1892.856)">
      <g id="Group_2114" data-name="Group 2114" transform="translate(5305.718 -2602.176)">
        <path id="Path_1190" data-name="Path 1190" d="M130.874,319.767l-.692,1.411h4.351a1.056,1.056,0,0,0-1.183-.785l-.522.08a.51.51,0,0,1-.47-.705h-1.484Z" transform="translate(-112.38 -287.666)"/>
        <path id="Path_1191" data-name="Path 1191" d="M142.272,319.767l-.692,1.411h4.351a1.056,1.056,0,0,0-1.183-.785l-.522.08a.51.51,0,0,1-.471-.705h-1.484Z" transform="translate(-120.103 -287.666)"/>
        <g id="Group_2106" data-name="Group 2106" transform="translate(0 0)">
          <g id="Group_2105" data-name="Group 2105">
            <path id="Path_1192" data-name="Path 1192" d="M111.445,293.609l-3.849-9.9-4.418-2.238-5.011,2.707-1.4-2.153,5.464.607,7.333-1.662a1.834,1.834,0,0,1,1.147,1.406l3.31,11.231Z" transform="translate(-89.736 -261.379)" fill="#5c65ff"/>
            <path id="Path_1193" data-name="Path 1193" d="M101.134,281.71a1.834,1.834,0,0,1,.972,1.449l2.519,10.95h-2.4l-3.54-9.338a40.253,40.253,0,0,1-7.556,1.1,2.982,2.982,0,0,1-2.833-2.833v-.506Z" transform="translate(-83.995 -261.879)" fill="#5c65ff"/>
            <path id="Path_1194" data-name="Path 1194" d="M89.671,259.493,91,257.466l-3.1-6.5a2.724,2.724,0,0,0-2.46-1.554H81.493a3.313,3.313,0,0,0-2.882,1.679l-3.4,5.12a1.471,1.471,0,0,0,.617,2.153l3.434,1.559v1.326l7.5-.893-.2-7.044ZM78.35,257.068a.527.527,0,0,1-.211-.8l1.12-1.5v2.694Z" transform="translate(-74.962 -239.991)" fill="#fdbc00"/>
            <path id="Path_1195" data-name="Path 1195" d="M99.27,226.064a3.052,3.052,0,0,0-2.318-2.705,3.128,3.128,0,0,0-3.467,1.373l-.12.193a3.128,3.128,0,0,0-.336,2.554l.912,2.693.006,1.513,1.338.641,1.265-.641.022-1.636,1.21,0a1.551,1.551,0,0,0,1.528-1.551v-1.155Z" transform="translate(-87.114 -222.267)" fill="#ffbe9d"/>
            <path id="Path_1196" data-name="Path 1196" d="M105.857,239.18a.683.683,0,0,1-1.366,0" transform="translate(-94.971 -233.06)" fill="#fff"/>
            <g id="Group_2104" data-name="Group 2104" transform="translate(5.294 18.558)">
              <g id="Group_2103" data-name="Group 2103" transform="translate(0.623 0.186)">
                <path id="Path_1197" data-name="Path 1197" d="M98.033,279.446h0a.329.329,0,0,0-.14-.444l-1.278-.667-.855.422,1.829.827A.329.329,0,0,0,98.033,279.446Z" transform="translate(-94.972 -278.336)" fill="#ffbe9d"/>
                <path id="Path_1198" data-name="Path 1198" d="M97.611,280.947h0a.329.329,0,0,0-.137-.442l-1.967-1.05-.3.583,1.961,1.047A.329.329,0,0,0,97.611,280.947Z" transform="translate(-94.595 -279.094)" fill="#ffbe9d"/>
                <path id="Path_1199" data-name="Path 1199" d="M96.408,282.6h0a.329.329,0,0,0-.139-.444l-1.7-.889-.3.583,1.7.889A.329.329,0,0,0,96.408,282.6Z" transform="translate(-93.956 -280.32)" fill="#ffbe9d"/>
                <path id="Path_1200" data-name="Path 1200" d="M94.658,283.983h0a.329.329,0,0,0-.139-.444l-.9-.468-.3.583.9.468A.328.328,0,0,0,94.658,283.983Z" transform="translate(-93.317 -281.545)" fill="#ffbe9d"/>
              </g>
              <path id="Path_1201" data-name="Path 1201" d="M92.348,280.233l-.419-.219a.834.834,0,0,1-.268-.221l-.277-.349.77-1.567.036-.013a1.97,1.97,0,0,1,1.6.152Z" transform="translate(-91.384 -277.759)" fill="#ffbe9d"/>
            </g>
            <path id="Path_1202" data-name="Path 1202" d="M94.094,220.31h0a3.427,3.427,0,0,1,4.163,2.161,2.367,2.367,0,0,1,.155.682l-1.334.087-.484-.865-.211.9-2.324.162-1.527,3.628a11.158,11.158,0,0,1-.894-2.056A3.541,3.541,0,0,1,94.094,220.31Z" transform="translate(-86.104 -220.196)" fill="#77310e"/>
            <path id="Path_1203" data-name="Path 1203" d="M96.953,234.614a.627.627,0,1,1-.627-.627A.627.627,0,0,1,96.953,234.614Z" transform="translate(-89.014 -229.541)" fill="#ffbe9d"/>
            <path id="Path_1205" data-name="Path 1205" d="M98.853,226.565v4.179a3.47,3.47,0,0,1-.5-2.415A6.088,6.088,0,0,1,98.853,226.565Z" transform="translate(-90.781 -224.512)" fill="#77310e"/>
          </g>
        </g>
        <g id="Group_2107" data-name="Group 2107" transform="translate(11.95 13.842)">
          <path id="Path_1206" data-name="Path 1206" d="M121.15,281.926h-9.12a.915.915,0,0,1,.915-.915h8.2Z" transform="translate(-112.03 -275.247)" fill="#fff"/>
          <path id="Path_1207" data-name="Path 1207" d="M127.538,269.768h-8a.748.748,0,0,1-.732-.9l1.1-5.14a.748.748,0,0,1,.732-.592h8a.748.748,0,0,1,.732.9l-1.1,5.14A.748.748,0,0,1,127.538,269.768Z" transform="translate(-116.608 -263.131)" fill="#fff"/>
          <path id="Path_1208" data-name="Path 1208" d="M134.465,271.973a.691.691,0,1,1-.691-.691A.691.691,0,0,1,134.465,271.973Z" transform="translate(-126.296 -268.654)" fill="#ffd01f"/>
        </g>
      </g>
    </g>
  </g>
</svg>
