<svg xmlns="http://www.w3.org/2000/svg" width="410" height="354">
  <defs/>
  <path fill="#fdbc00" d="M297 20c2-3 4-5 4-8l-1-9c0-2 3-2 3 0 0 4 2 8 1 11l-5 8a1 1 0 01-2-2z" data-name="Path 785"/>
  <path fill="#fdbc00" d="M288 72l3 2 3 2c2 1 0 4-2 3-2-2-6-4-7-7-1-1 2-2 3 0z" data-name="Path 786"/>
  <path fill="#fdbc00" d="M345 59c1 1 2 3 1 5s-3 1-4 1l1 5a4 4 0 01-1 4c-2 1-4-1-2-2 1-2-1-4-1-5a6 6 0 010-3 1 1 0 011-1c1-1 4 0 3-2-1-1-4-4-5-2-2 1-4-1-2-3 3-2 7 0 9 3z" data-name="Path 787"/>
  <path fill="#fdbc00" d="M109 22v1a1 1 0 01-1 0 3 3 0 00-1 0 1 1 0 01-2-2 4 4 0 014-1 2 2 0 010 2z" data-name="Path 788"/>
  <path fill="#fdbc00" d="M105 61l7 3a17 17 0 00-7-4c-1-1-1-4 1-3 3 0 4 2 6 3a12 12 0 014 5 2 2 0 01-1 2l-7-1a17 17 0 012 2l2 6c0 2-3 2-3 0 0-5-6-7-6-11a2 2 0 012-2z" data-name="Path 789"/>
  <path fill="#fdbc00" d="M83 117v-7a1 1 0 012 0v7a1 1 0 01-2 0z" data-name="Path 790"/>
  <path fill="#fdbc00" d="M73 141a3 3 0 012 1 2 2 0 010 2 2 2 0 01-2 0 1 1 0 010-3z" data-name="Path 791"/>
  <path fill="#fdbc00" d="M350 163a3 3 0 011-2 11 11 0 013 0 21 21 0 013-1c2 0 2 3 0 3a28 28 0 00-3 1l-2 1c0 1-1 3-2 1a14 14 0 01-1-1 1 1 0 011-2z" data-name="Path 792"/>
  <path fill="#fdbc00" d="M298 128l1 2a1 1 0 01-2 2l-2-1a1 1 0 113-3z" data-name="Path 793"/>
  <path fill="#fdbc00" d="M34 16c3 2 7 4 8 7 1 4-3 6-6 6-2 1-2-2-1-3a7 7 0 003-1v-2a11 11 0 00-5-4c-2 0-1-3 1-3z" data-name="Path 794"/>
  <path fill="#fdbc00" d="M26 52a2 2 0 012 1l1 1a2 2 0 01-1 2 2 2 0 01-2 0l-1-2a2 2 0 011-2z" data-name="Path 795"/>
  <path fill="#fdbc00" d="M38 141a1 1 0 010 3 1 1 0 010-3z" data-name="Path 796"/>
  <path fill="#fdbc00" d="M53 203l1 4 1 3c1 2-1 4-2 2-3-2-2-6-3-8 0-2 3-3 3-1z" data-name="Path 797"/>
  <path fill="#fdbc00" d="M111 188h-1 1z" data-name="Path 798"/>
  <path fill="#fdbc00" d="M109 188h2a1 1 0 00-1 0 13 13 0 01-1-1 14 14 0 00-1-1c-2-1-1-3 1-2 2 0 6 3 4 5a5 5 0 01-3 2c-1 0-2 0-2 2s-3 2-3 0c0-3 2-4 4-5z" data-name="Path 799"/>
  <path fill="#fdbc00" d="M317 237h4c2 0 2 3 0 3l-6-1c-1-2 1-4 2-2z" data-name="Path 800"/>
  <path fill="#fdbc00" d="M247 108a1 1 0 010 3 3 3 0 00-1 1l-1 1a2 2 0 01-2 0 2 2 0 010-2c1-2 2-3 4-3z" data-name="Path 801"/>
  <path fill="#fdbc00" d="M230 1a2 2 0 011-1 6 6 0 014 1 2 2 0 011 2 2 2 0 01-2 1 7 7 0 00-2-1 2 2 0 01-1 1 2 2 0 01-1-2z" data-name="Path 802"/>
  <path fill="#fdbc00" d="M396 17l6 1 6-1c1-1 3 1 2 2l-1 1a1 1 0 01-1 0 14 14 0 01-5 1 25 25 0 01-3 0 19 19 0 00-4-1c-2 0-2-3 0-3z" data-name="Path 803"/>
  <path fill="#fdbc00" d="M402 115c3 2 6 3 7 5a2 2 0 01-1 2 2 2 0 01-2-1l-2-2-3-1c-2-2 0-4 1-3z" data-name="Path 804"/>
  <path fill="#fdbc00" d="M385 222l5-2a2 2 0 012 2 1 1 0 01-2 1l-5 2a2 2 0 01-1-1 1 1 0 011-2z" data-name="Path 805"/>
  <path fill="#fdbc00" d="M80 263c2 0 3 2 5 3a13 13 0 013 5c1 0 1 3-1 2h-1a1 1 0 01-1-1 9 9 0 00-2-4l-3-2c-2-1-2-4 0-3z" data-name="Path 806"/>
  <path fill="#fdbc00" d="M73 312l2-2a2 2 0 012 1 2 2 0 010 2l-3 1a2 2 0 01-2 0 2 2 0 011-2z" data-name="Path 807"/>
  <path fill="#fdbc00" d="M36 254a44 44 0 004 6c1 1-1 3-2 2a48 48 0 01-5-6 1 1 0 013-2z" data-name="Path 808"/>
  <path fill="#fdbc00" d="M3 126l1 5a1 1 0 01-3 0l-1-3a1 1 0 013-2z" data-name="Path 809"/>
  <path fill="#fdbc00" d="M387 306h6a1 1 0 010 2h-6a1 1 0 010-2z" data-name="Path 810"/>
  <path fill="#fdbc00" d="M343 301c0 5-1 11 2 15a1 1 0 01-3 2c-3-5-2-11-2-17a1 1 0 013 0z" data-name="Path 811"/>
  <path fill="#fdbc00" d="M347 351a1 1 0 010 3 1 1 0 010-3z" data-name="Path 812"/>
</svg>
