<svg xmlns="http://www.w3.org/2000/svg" width="262.209" height="136.144" viewBox="0 0 262.209 136.144">
  <g id="img-color-papers" transform="translate(-383.406 -87.993)">
    <g id="Group_281" data-name="Group 281">
      <path id="Path_540" data-name="Path 540" d="M472.718,87.993a6.136,6.136,0,0,0,3.505,2.59c-1.181.9-1.166,1.5-1.234,2.828a7.176,7.176,0,0,1-3.228-2.6A2.3,2.3,0,0,1,472.718,87.993Z" fill="#f9d04e"/>
    </g>
    <g id="Group_2190" data-name="Group 2190" transform="translate(27 48)">
      <path id="Path_540-2" data-name="Path 540" d="M472.718,87.993a6.136,6.136,0,0,0,3.505,2.59c-1.181.9-1.166,1.5-1.234,2.828a7.176,7.176,0,0,1-3.228-2.6A2.3,2.3,0,0,1,472.718,87.993Z" fill="#f9d04e"/>
    </g>
    <g id="Group_282" data-name="Group 282">
      <path id="Path_541" data-name="Path 541" d="M560.117,89.584a6.142,6.142,0,0,0,3.506,2.59c-1.182.9-1.167,1.5-1.235,2.828a7.163,7.163,0,0,1-3.227-2.6A2.3,2.3,0,0,1,560.117,89.584Z" fill="#f9d04e"/>
    </g>
    <g id="Group_283" data-name="Group 283">
      <path id="Path_542" data-name="Path 542" d="M415.154,112.356a6.138,6.138,0,0,0,4.221,1.084c-.756,1.28-.517,1.829-.082,3.085a7.166,7.166,0,0,1-3.969-1.2A2.3,2.3,0,0,1,415.154,112.356Z" fill="#b0affd"/>
    </g>
    <g id="Group_2191" data-name="Group 2191" transform="translate(27 48)">
      <path id="Path_542-2" data-name="Path 542" d="M415.154,112.356a6.138,6.138,0,0,0,4.221,1.084c-.756,1.28-.517,1.829-.082,3.085a7.166,7.166,0,0,1-3.969-1.2A2.3,2.3,0,0,1,415.154,112.356Z" fill="#b0affd"/>
    </g>
    <g id="Group_284" data-name="Group 284">
      <path id="Path_543" data-name="Path 543" d="M441.528,135.224a6.139,6.139,0,0,0,2.949-3.209c.771,1.271,1.368,1.319,2.681,1.529a7.169,7.169,0,0,1-2.933,2.931A2.3,2.3,0,0,1,441.528,135.224Z" fill="#f9d04e"/>
    </g>
    <g id="Group_2188" data-name="Group 2188" transform="translate(27 48)">
      <path id="Path_543-2" data-name="Path 543" d="M441.528,135.224a6.139,6.139,0,0,0,2.949-3.209c.771,1.271,1.368,1.319,2.681,1.529a7.169,7.169,0,0,1-2.933,2.931A2.3,2.3,0,0,1,441.528,135.224Z" fill="#f9d04e"/>
    </g>
    <g id="Group_285" data-name="Group 285">
      <path id="Path_544" data-name="Path 544" d="M484.958,118.372a6.143,6.143,0,0,0,4.325-.539c-.235,1.468.189,1.891,1.054,2.9a7.164,7.164,0,0,1-4.133.337A2.3,2.3,0,0,1,484.958,118.372Z" fill="#b0affd"/>
    </g>
    <g id="Group_2187" data-name="Group 2187" transform="translate(27 48)">
      <path id="Path_544-2" data-name="Path 544" d="M484.958,118.372a6.143,6.143,0,0,0,4.325-.539c-.235,1.468.189,1.891,1.054,2.9a7.164,7.164,0,0,1-4.133.337A2.3,2.3,0,0,1,484.958,118.372Z" fill="#b0affd"/>
    </g>
    <g id="Group_286" data-name="Group 286">
      <path id="Path_545" data-name="Path 545" d="M557.45,118.767a6.14,6.14,0,0,0,3.363,2.772c-1.228.838-1.244,1.437-1.383,2.759a7.177,7.177,0,0,1-3.085-2.771A2.3,2.3,0,0,1,557.45,118.767Z" fill="#b0affd"/>
    </g>
    <g id="Group_287" data-name="Group 287">
      <path id="Path_546" data-name="Path 546" d="M642.252,170.5a6.14,6.14,0,0,0,3.363,2.772c-1.227.838-1.244,1.437-1.383,2.759a7.169,7.169,0,0,1-3.084-2.771A2.3,2.3,0,0,1,642.252,170.5Z" fill="#b0affd"/>
    </g>
    <g id="Group_2195" data-name="Group 2195" transform="translate(-150 36)">
      <path id="Path_546-2" data-name="Path 546" d="M642.252,170.5a6.14,6.14,0,0,0,3.363,2.772c-1.227.838-1.244,1.437-1.383,2.759a7.169,7.169,0,0,1-3.084-2.771A2.3,2.3,0,0,1,642.252,170.5Z" fill="#b0affd"/>
    </g>
    <g id="Group_288" data-name="Group 288">
      <path id="Path_547" data-name="Path 547" d="M629.358,140.5a6.143,6.143,0,0,0,3.364,2.773c-1.228.838-1.244,1.437-1.383,2.758a7.17,7.17,0,0,1-3.085-2.771A2.3,2.3,0,0,1,629.358,140.5Z" fill="#f9d04e"/>
    </g>
    <g id="Group_2194" data-name="Group 2194" transform="translate(-40 33)">
      <path id="Path_547-2" data-name="Path 547" d="M629.358,140.5a6.143,6.143,0,0,0,3.364,2.773c-1.228.838-1.244,1.437-1.383,2.758a7.17,7.17,0,0,1-3.085-2.771A2.3,2.3,0,0,1,629.358,140.5Z" fill="#f9d04e"/>
    </g>
    <g id="Group_289" data-name="Group 289">
      <path id="Path_548" data-name="Path 548" d="M597.428,142.445a6.145,6.145,0,0,0,4.252-.96c-.09,1.484.374,1.864,1.333,2.783a7.17,7.17,0,0,1-4.08.74A2.3,2.3,0,0,1,597.428,142.445Z" fill="#f9d04e"/>
    </g>
    <g id="Group_2193" data-name="Group 2193" transform="translate(-50 63)">
      <path id="Path_548-2" data-name="Path 548" d="M597.428,142.445a6.145,6.145,0,0,0,4.252-.96c-.09,1.484.374,1.864,1.333,2.783a7.17,7.17,0,0,1-4.08.74A2.3,2.3,0,0,1,597.428,142.445Z" fill="#f9d04e"/>
    </g>
    <g id="Group_290" data-name="Group 290">
      <path id="Path_549" data-name="Path 549" d="M578.553,203.774a6.143,6.143,0,0,0,3.476-2.63c.531,1.389,1.11,1.544,2.363,1.985a7.163,7.163,0,0,1-3.41,2.358A2.3,2.3,0,0,1,578.553,203.774Z" fill="#f9d04e"/>
    </g>
    <g id="Group_291" data-name="Group 291">
      <path id="Path_550" data-name="Path 550" d="M603.371,100.806a6.139,6.139,0,0,0,4.355.184c-.474,1.409-.126,1.9.56,3.035a7.168,7.168,0,0,1-4.132-.351A2.3,2.3,0,0,1,603.371,100.806Z" fill="#b0affd"/>
    </g>
    <g id="Group_292" data-name="Group 292">
      <path id="Path_551" data-name="Path 551" d="M518.672,100.8a6.138,6.138,0,0,0,4.354.2c-.48,1.407-.134,1.9.548,3.037a7.158,7.158,0,0,1-4.13-.367A2.3,2.3,0,0,1,518.672,100.8Z" fill="#f9d04e"/>
    </g>
    <g id="Group_2189" data-name="Group 2189" transform="translate(27 48)">
      <path id="Path_551-2" data-name="Path 551" d="M518.672,100.8a6.138,6.138,0,0,0,4.354.2c-.48,1.407-.134,1.9.548,3.037a7.158,7.158,0,0,1-4.13-.367A2.3,2.3,0,0,1,518.672,100.8Z" fill="#f9d04e"/>
    </g>
    <g id="Group_293" data-name="Group 293">
      <path id="Path_552" data-name="Path 552" d="M383.605,178.528a6.138,6.138,0,0,0,4.354.2c-.48,1.407-.134,1.9.548,3.037a7.158,7.158,0,0,1-4.13-.367A2.3,2.3,0,0,1,383.605,178.528Z" fill="#f9d04e"/>
    </g>
    <g id="Group_294" data-name="Group 294">
      <path id="Path_553" data-name="Path 553" d="M414.484,218.31a6.145,6.145,0,0,0,1.74,4c-1.474.19-1.76.716-2.484,1.831a7.172,7.172,0,0,1-1.492-3.869A2.3,2.3,0,0,1,414.484,218.31Z" fill="#f9d04e"/>
    </g>
    <g id="Group_295" data-name="Group 295">
      <path id="Path_554" data-name="Path 554" d="M406.356,157.6a6.143,6.143,0,0,0,3.2-2.965c.667,1.329,1.259,1.425,2.55,1.738a7.163,7.163,0,0,1-3.158,2.688A2.3,2.3,0,0,1,406.356,157.6Z" fill="#b0affd"/>
    </g>
    <g id="Group_2192" data-name="Group 2192" transform="translate(27 48)">
      <path id="Path_554-2" data-name="Path 554" d="M406.356,157.6a6.143,6.143,0,0,0,3.2-2.965c.667,1.329,1.259,1.425,2.55,1.738a7.163,7.163,0,0,1-3.158,2.688A2.3,2.3,0,0,1,406.356,157.6Z" fill="#b0affd"/>
    </g>
    <g id="Group_296" data-name="Group 296">
      <path id="Path_555" data-name="Path 555" d="M618.939,212.634a6.139,6.139,0,0,0,3.817-2.1c.326,1.45.877,1.687,2.054,2.3a7.177,7.177,0,0,1-3.714,1.845A2.3,2.3,0,0,1,618.939,212.634Z" fill="#b0affd"/>
    </g>
  </g>
</svg>
