<svg xmlns="http://www.w3.org/2000/svg" width="308.17" height="308.17" viewBox="0 0 308.17 308.17">
  <g id="abstract-dots" transform="translate(-45.667 -97.667)" opacity="0.34">
    <path id="Path_690" data-name="Path 690" d="M56.874,120.076a11.2,11.2,0,1,1,11.2-11.2A11.2,11.2,0,0,1,56.874,120.076Z" transform="translate(0 0)" fill="#fff8dc"/>
    <path id="Path_691" data-name="Path 691" d="M56.874,137.8a11.207,11.207,0,1,1,11.2-11.207A11.207,11.207,0,0,1,56.874,137.8Z" transform="translate(0 77.531)" fill="#fff8dc"/>
    <path id="Path_692" data-name="Path 692" d="M56.874,155.523a11.207,11.207,0,1,1,11.2-11.207A11.207,11.207,0,0,1,56.874,155.523Z" transform="translate(0 155.062)" fill="#fff8dc"/>
    <path id="Path_693" data-name="Path 693" d="M56.874,173.244a11.207,11.207,0,1,1,11.2-11.207A11.2,11.2,0,0,1,56.874,173.244Z" transform="translate(0 232.593)" fill="#fff8dc"/>
    <path id="Path_694" data-name="Path 694" d="M74.6,120.076a11.2,11.2,0,1,1,11.207-11.2A11.2,11.2,0,0,1,74.6,120.076Z" transform="translate(77.531 0)" fill="#fff8dc"/>
    <path id="Path_695" data-name="Path 695" d="M74.6,137.8A11.207,11.207,0,1,1,85.8,126.6,11.207,11.207,0,0,1,74.6,137.8Z" transform="translate(77.531 77.531)" fill="#fff8dc"/>
    <path id="Path_696" data-name="Path 696" d="M74.6,155.523A11.207,11.207,0,1,1,85.8,144.316,11.207,11.207,0,0,1,74.6,155.523Z" transform="translate(77.531 155.062)" fill="#fff8dc"/>
    <path id="Path_697" data-name="Path 697" d="M74.6,173.244A11.207,11.207,0,1,1,85.8,162.037,11.2,11.2,0,0,1,74.6,173.244Z" transform="translate(77.531 232.593)" fill="#fff8dc"/>
    <path id="Path_698" data-name="Path 698" d="M92.316,120.076a11.2,11.2,0,1,1,11.207-11.2A11.2,11.2,0,0,1,92.316,120.076Z" transform="translate(155.062 0)" fill="#fff8dc"/>
    <path id="Path_699" data-name="Path 699" d="M92.316,137.8A11.207,11.207,0,1,1,103.523,126.6,11.207,11.207,0,0,1,92.316,137.8Z" transform="translate(155.062 77.531)" fill="#fff8dc"/>
    <path id="Path_700" data-name="Path 700" d="M92.316,155.523a11.207,11.207,0,1,1,11.207-11.207A11.207,11.207,0,0,1,92.316,155.523Z" transform="translate(155.062 155.062)" fill="#fff8dc"/>
    <path id="Path_701" data-name="Path 701" d="M92.316,173.244a11.207,11.207,0,1,1,11.207-11.207A11.2,11.2,0,0,1,92.316,173.244Z" transform="translate(155.062 232.593)" fill="#fff8dc"/>
    <path id="Path_702" data-name="Path 702" d="M110.037,120.076a11.2,11.2,0,1,1,11.207-11.2A11.206,11.206,0,0,1,110.037,120.076Z" transform="translate(232.593 0)" fill="#fff8dc"/>
    <path id="Path_703" data-name="Path 703" d="M110.037,137.8A11.207,11.207,0,1,1,121.244,126.6,11.211,11.211,0,0,1,110.037,137.8Z" transform="translate(232.593 77.531)" fill="#fff8dc"/>
    <path id="Path_704" data-name="Path 704" d="M110.037,155.523a11.207,11.207,0,1,1,11.207-11.207A11.211,11.211,0,0,1,110.037,155.523Z" transform="translate(232.593 155.062)" fill="#fff8dc"/>
    <path id="Path_705" data-name="Path 705" d="M110.037,173.244a11.207,11.207,0,1,1,11.207-11.207A11.207,11.207,0,0,1,110.037,173.244Z" transform="translate(232.593 232.593)" fill="#fff8dc"/>
  </g>
</svg>
