<svg xmlns="http://www.w3.org/2000/svg" xmlns:xlink="http://www.w3.org/1999/xlink" width="1521.6" height="1052" viewBox="0 0 1521.6 1052">
  <defs>
    <linearGradient id="linear-gradient" x1="0.694" y1="-1.291" x2="0.448" y2="1.394" gradientUnits="objectBoundingBox">
      <stop offset="0" stop-color="#272425"/>
      <stop offset="0.12" stop-color="#656364" stop-opacity="0.71"/>
      <stop offset="0.354" stop-color="#bcbbbb" stop-opacity="0.31"/>
      <stop offset="0.622" stop-color="#efeeee" stop-opacity="0.075"/>
      <stop offset="1" stop-color="#fff" stop-opacity="0"/>
    </linearGradient>
    <linearGradient id="linear-gradient-2" y1="0.5" x2="1" y2="0.5" gradientUnits="objectBoundingBox">
      <stop offset="0" stop-color="#fff"/>
      <stop offset="1" stop-color="#fff" stop-opacity="0"/>
    </linearGradient>
    <linearGradient id="linear-gradient-4" x1="0.736" y1="0.127" x2="0.254" y2="0.888" gradientUnits="objectBoundingBox">
      <stop offset="0" stop-color="#fff" stop-opacity="0"/>
      <stop offset="1" stop-color="#fff"/>
    </linearGradient>
    <linearGradient id="linear-gradient-5" x1="0" y1="0.5" x2="1" y2="0.5" xlink:href="#linear-gradient"/>
  </defs>
  <g id="abstract" style="mix-blend-mode: overlay;isolation: isolate">
    <path id="Path_88" data-name="Path 88" d="M545.659,673.067c-26.205-12.463-56.946-14.144-86.094-10.647-82.207,9.861-151.437,56.406-224.979,88.271-77.417,33.545-165.254,45.6-249.123,27.857a253.236,253.236,0,0,1-25.669-6.784v59.458H639.5a152.236,152.236,0,0,1-35.5-56.376C590.072,734.855,591.2,694.726,545.659,673.067Z" transform="translate(40.207 220.778)" opacity="0.15" fill="url(#linear-gradient)"/>
    <path id="Path_89" data-name="Path 89" d="M626.845,127.449c19.463,35.015,59.884,55.105,99.749,67.84,50.6,16.163,103.8,23.9,155.17,37.762s102.48,34.95,138.294,72.154c43.613,45.306,59.33,108.731,98.453,157.507,60.2,75.055,157.84,95.354,243.494,71.043v-360.3a117.391,117.391,0,0,1-17.26,10.19c-63.649,30.6-149.159,24.506-205.881-14.665-26.462-18.272-47.952-43.362-80.121-53.042-22.2-6.68-46.481-5-70.039-4.728-40.331.474-83.3-4.307-114.376-26.086-27.917-19.562-42.388-53.05-32.435-82.56.229-.682.488-1.356.745-2.03H645.121a147.34,147.34,0,0,0-19.054,30.489C611.882,61.484,610.463,97.975,626.845,127.449Z" transform="translate(159.594 -0.536)" fill="url(#linear-gradient-2)"/>
    <path id="Path_90" data-name="Path 90" d="M839.84,85.126c31.08,21.779,74.044,26.56,114.376,26.086,23.558-.277,47.837-1.952,70.039,4.728,32.169,9.68,53.66,34.77,80.121,53.042,56.723,39.172,142.232,45.263,205.881,14.665a117.391,117.391,0,0,0,17.26-10.19V.536H808.149c-.257.674-.515,1.348-.745,2.03C797.451,32.076,811.923,65.564,839.84,85.126Z" transform="translate(194.082 -0.536)" fill="url(#linear-gradient-2)"/>
    <path id="Path_91" data-name="Path 91" d="M1389.006,782.8c-97.6,4.338-204.66-9.616-273.224-81.783-48.675-51.232-69.7-123.205-102.3-186.69S925.165,389.2,855.845,391.369c-50.391,1.576-93.1,36.3-136.979,62.048-69.813,40.967-152.568,61.4-231.513,46.648S334.688,432.594,302.06,356.6C256.525,250.541,292.948,116.275,231.105,19.5A165.759,165.759,0,0,0,216.957.536H-40.207V745.3A293.686,293.686,0,0,0,62.8,790.132c95.391,20.723,182.666-7.933,257.085-69.808,40.691-33.832,80.594-71.192,129.895-88.833,58.786-21.034,125.22-10.849,180.809,18.063S731.9,724.684,770.109,775.57c30.132,40.13,56.445,83.878,92.469,118.393,109.306,104.725,263.043,9.914,384.453,79.08,34.108,19.431,60.176,50.39,87.366,79.494h147V783.888C1451.525,779.237,1419.4,781.447,1389.006,782.8Z" transform="translate(40.207 -0.536)" fill="url(#linear-gradient-4)"/>
    <path id="Path_92" data-name="Path 92" d="M1198.262,462.712c-39.123-48.776-54.839-112.2-98.453-157.507C1064,268,1012.884,246.917,961.515,233.052s-104.57-21.6-155.17-37.762c-39.865-12.735-80.287-32.825-99.749-67.84-16.382-29.474-14.963-65.965-.778-96.424A147.34,147.34,0,0,1,724.871.536H177.32a152.039,152.039,0,0,1,14.149,17.147c61.843,87.48,25.42,208.856,70.954,304.73,32.628,68.7,106.35,116.36,185.293,129.694s161.7-5.136,231.513-42.17c43.876-23.275,86.588-54.667,136.979-56.091,69.32-1.961,125.041,53.764,157.637,111.153s53.625,122.453,102.3,168.766c68.564,65.238,175.624,77.852,273.224,73.931,30.4-1.222,62.519-3.22,92.387.985V533.755C1356.1,558.066,1258.462,537.768,1198.262,462.712Z" transform="translate(79.844 -0.536)" opacity="0.15" fill="url(#linear-gradient-5)"/>
  </g>
</svg>
