<svg data-name="Workshop Featured Image" xmlns="http://www.w3.org/2000/svg" xmlns:xlink="http://www.w3.org/1999/xlink" width="573.3" height="432.4"><defs><linearGradient id="a" x1=".1" y1="1" x2=".1" gradientUnits="objectBoundingBox"><stop offset="0" stop-color="gray" stop-opacity=".3"/><stop offset=".5" stop-color="gray" stop-opacity=".1"/><stop offset="1" stop-color="gray" stop-opacity=".1"/></linearGradient><linearGradient id="b" x1=".5" y1="1" x2=".5" y2="0" xlink:href="#a"/></defs><path data-name="Path 688" d="M220 59c25 21 57 20 85 9s53-30 81-44a227 227 0 0171-23c34-4 73 2 97 35 27 38 25 106-4 140-15 18-34 26-51 40s-33 37-31 63c1 24 17 43 33 55 12 9 27 19 29 38 1 18-12 33-24 41-40 26-89 26-129-1-14-10-27-22-42-30-39-20-83 0-124 7a206 206 0 01-105-9c-21-7-42-18-56-39-10-15-17-35-23-53L8 227c-3-13-7-25-8-38-1-24 6-47 15-67 23-48 62-82 104-90s86 8 118 44" fill="#f2f2f2"/><ellipse data-name="Ellipse 65" cx="120.7" cy="5.5" rx="120.7" ry="5.5" transform="translate(192 278)" fill="#fdbc00" opacity=".1"/><path data-name="Path 689" d="M317 260a109 109 0 10-109-109 110 110 0 00109 109zm0-217a108 108 0 11-108 108A109 109 0 01317 43z" fill="#fdbc00"/><path data-name="Path 690" d="M317 236a85 85 0 10-85-85 85 85 0 0085 85zm0-169a84 84 0 11-84 84 84 84 0 0184-84z" fill="#fdbc00"/><path data-name="Path 691" d="M317 210a59 59 0 10-59-59 59 59 0 0059 59zm0-116a57 57 0 11-57 57 57 57 0 0157-57z" fill="#fdbc00"/><ellipse data-name="Ellipse 67" cx="44.7" cy="7.3" rx="44.7" ry="7.3" transform="translate(434 339)" fill="#fff"/><g data-name="Title bar"><path data-name="Rectangle 3" fill="#9a98b3" d="M391 132h151v12H391z"/><g data-name="Group 1308" transform="translate(399 136)" fill="#fff"><circle data-name="Ellipse 3" cx="2.2" cy="2.2" transform="translate(16)" r="2.2"/><circle data-name="Ellipse 4" cx="2.2" cy="2.2" transform="translate(8)" r="2.2"/><circle data-name="Ellipse 5" cx="2.2" cy="2.2" r="2.2"/></g></g><g data-name="Group 1292" opacity=".1"><path data-name="Path 692" d="M400 143h136a7 7 0 017 8v86a7 7 0 01-7 7H400a7 7 0 01-7-7v-86a7 7 0 017-8z"/><g data-name="Group 1291" transform="translate(413 166)" opacity=".2"><rect data-name="Rectangle 107" width="110.5" height="6.7" rx="3.4"/><rect data-name="Rectangle 108" width="110.5" height="6.7" rx="3.4" transform="translate(0 30)"/><rect data-name="Rectangle 109" width="92.6" height="6.7" rx="3.4" transform="translate(18 45)"/><rect data-name="Rectangle 110" width="47.9" height="6.7" rx="3.4" transform="translate(63 15)"/></g></g><path data-name="Path 693" d="M399 143h136a7 7 0 017 7v86a7 7 0 01-7 7H399a7 7 0 01-7-7v-86a7 7 0 017-7z" fill="#fff"/><g data-name="Group 1293" transform="translate(412 159)" fill="#e6e6e6"><rect data-name="Rectangle 111" width="110.5" height="6.7" rx="3.4"/><rect data-name="Rectangle 112" width="110.5" height="6.7" rx="3.4" transform="translate(0 30)"/><rect data-name="Rectangle 114" width="47.9" height="6.7" rx="3.4" transform="translate(0 15)"/></g><path data-name="Path 694" d="M449 141l8 17 2 3 4 10 8 13v1l4-1 2-9v-2l-7-6-2-4-3-5-1-3-10-15s-7-11-10-6 5 7 5 7z" fill="#ffd2c6"/><path data-name="Path 695" d="M481 256l6 28c-1 1 1 5 1 7l3 9 1 21v9c0 3-2 5-3 7l-1 1a4 4 0 01-1 1 13 13 0 01-4 2h-1l-1 1v2l4 1h8s10 1 8-3a7 7 0 01-1-1v-1a22 22 0 010-9l1-14c3-14-2-29-2-29l-1-4v-9l2-13a26 26 0 000-5 27 27 0 000-4l-18-2a14 14 0 00-1 5z" fill="#ffd2c6"/><path data-name="Path 696" d="M481 344l4 1h8s10 1 8-3a7 7 0 01-1-1v-1a15 15 0 00-5 1c-2 1-5-2-5-2l-1-2v-1l-1 1a4 4 0 01-1 2l2 3h-4a2 2 0 01-2-1h-1l-1 1z" opacity=".1"/><path data-name="Path 697" d="M477 346l9 2h7l5 1s3 0 3-4c1-4-1-4-1-4a14 14 0 00-5 1c-3 1-5-2-5-2l-1-3-1 1a4 4 0 01-1 1l2 4h-4a2 2 0 01-3-2l-3 1a3 3 0 00-2 4z" fill="#000056"/><path data-name="Path 698" d="M460 275l1 4c-1 3 1 9 1 9l1 4 3 17 3 15a13 13 0 01-1 8v1a6 6 0 01-1 2 5 5 0 01-1 0 12 12 0 01-3 2h-1a16 16 0 01-1 1 2 2 0 01-1 0l1 3 6-2 7-2 4-2v-1-1c-1-3-3-12-2-19 1-8-2-20-3-23a14 14 0 01-1-4l2-11 4-10a28 28 0 002-6 19 19 0 000-4s-17-16-19 0v1c-2 14-1 16-1 18z" fill="#ffd2c6"/><path data-name="Path 699" d="M460 338l1 3 5-2 8-2 4-2v-1-1h-1a7 7 0 00-3 1h-3a4 4 0 00-2 0l-1-2a6 6 0 01-1 2 6 6 0 01-1 1v1a11 11 0 01-2 1 2 2 0 01-1 0h-1a16 16 0 01-1 1 2 2 0 01-1 0z" opacity=".1"/><path data-name="Path 700" d="M463 343h12a3 3 0 003-2v-7h-1a7 7 0 00-3 0l-3 1a4 4 0 00-2 0l-1-2a6 6 0 01-1 2 6 6 0 01-1 0v2a11 11 0 01-2 1 1 1 0 01-2-1 9 9 0 01-2 1 4 4 0 00-4 3c-1 3 6 3 7 2z" fill="#000056"/><path data-name="Path 701" d="M481 256h1a13 13 0 002 0l16 1a27 27 0 000-4l-18-2a14 14 0 00-1 5z" opacity=".1"/><path data-name="Path 702" d="M465 251a236 236 0 0017 4 14 14 0 002 0h17c3-9-4-21-4-21l-1-4-1-4h-25v2l-1 3-4 18z" fill="#002fbb"/><path data-name="Path 703" d="M461 257l3 1c3 2 13 2 16 2a19 19 0 000-4s-17-16-19 0v1z" opacity=".1"/><path data-name="Path 704" d="M461 256l3 1c3 2 13 2 16 2h1a4 4 0 003-2v-2-1a74 74 0 0010-5c2-2 2-13 1-19v-4l-25 2h-6v1l-2 11v5a10 10 0 000 3 13 13 0 00-1 4 9 9 0 010 4z" fill="#002fbb"/><circle data-name="Ellipse 68" cx="10.3" cy="10.3" r="10.3" transform="translate(477 148)" fill="#ffd2c6"/><path data-name="Path 705" d="M492 162s0 10 2 12a89 89 0 007 7l-2 6-9 1-10-11 2-3s2-6 1-9 9-3 9-3z" fill="#ffd2c6"/><path data-name="Path 706" d="M471 184v1l4-1 2-9v-2l-1-1s-4 0-3 3l-2 9z" opacity=".1"/><path data-name="Path 707" d="M464 230l5 1c3 1 7 0 8-1h18a4 4 0 011 0l-1-4h-25v2h-6v2z" opacity=".1"/><path data-name="Path 708" d="M477 173s-4 0-4 3l-2 9 1 1v6c-1 1-4 1-2 10v9c-1 2-1 8-3 10a54 54 0 00-3 8s10 2 13 0 19-1 19-1v-3a3 3 0 000-2c-1 0-2-2-1-3s-1-3 0-4l1-3a4 4 0 011-3l5-10 1-3s5-5 5-6l-2-5-5-5s-3 3-6 2l-9-7-2-2h-2-2a7 7 0 01-2 0z" fill="#fdbc00"/><path data-name="Path 709" d="M507 189l1 2a23 23 0 012 8 119 119 0 003 14l3 6 6 14 4 8s11 10 3 12-7-8-7-8a10 10 0 01-3-3l-10-19s-3-4-2-7c0 0-5-10-5-13a47 47 0 011-6l-1-6z" fill="#ffd2c6"/><path data-name="Path 710" d="M484 211l9 4h-7z" opacity=".1"/><path data-name="Path 711" d="M477 214s11 4 15 3c0 0-11 2-15-3z" opacity=".1"/><path data-name="Path 712" d="M477 215s9 6 15 5c0 0-13 3-15 2l5-2s-6-3-5-5z" opacity=".1"/><path data-name="Path 713" d="M487 140a10 10 0 018 2l5 4a26 26 0 003 1 8 8 0 015 9l-2 4 1 9a89 89 0 009 22 2 2 0 010 1 2 2 0 010 1c-4 4-10 6-15 6a12 12 0 01-7-1 9 9 0 01-2-3 14 14 0 01-3-9v-8a2 2 0 000-1h-3c-2-1-4-3-4-6v-7a15 15 0 00-2-8 9 9 0 01-2-4c-1-1 0-3 1-4l4-6a11 11 0 014-2z" opacity=".1"/><path data-name="Path 714" d="M488 139a10 10 0 018 2l4 4a26 26 0 003 1 8 8 0 015 9l-1 5c-1 2 0 5 1 8a89 89 0 008 22 2 2 0 011 2 2 2 0 01-1 0c-3 5-9 6-15 6a12 12 0 01-6-1 9 9 0 01-3-2 14 14 0 01-3-10l1-8a2 2 0 00-1-1h-2c-3 0-4-3-4-5v-7a15 15 0 00-3-9 9 9 0 01-2-3l2-5 4-6a11 11 0 014-2z" fill="#3f3d56"/><path data-name="Path 715" d="M492 239s-2 9-6 12z" opacity=".1"/><g data-name="Group 1294" opacity=".1"><path data-name="Path 716" d="M508 157z"/><path data-name="Path 717" d="M479 149a3 3 0 000 1 9 9 0 002 3 15 15 0 013 9l-1 7c0 2 2 5 4 5l3 1a2 2 0 010 1v7a14 14 0 003 10 9 9 0 003 2 12 12 0 006 1c5 0 11-1 15-5a2 2 0 01-1 1c-3 5-9 6-15 6a12 12 0 01-6-1 9 9 0 01-3-2 14 14 0 01-3-10l1-8a2 2 0 00-1-1h-2c-3 0-4-3-4-5v-7a15 15 0 00-3-9 9 9 0 01-2-3 4 4 0 011-3z"/></g><path data-name="Path 718" d="M296 406s20-1 18 13a3 3 0 01-2 4l-2-1a9 9 0 01-2 0 5 5 0 01-3-1s-6-2-8-11l-1-3 3 1a6 6 0 000 5l1-4 1 1s-2 4 0 7c0 0-1-5 1-7l2 1s-2 5 0 8c0 0-1-5 1-7l2 1s-2 5-1 8c0 0 0-7 2-7a13 13 0 012 2s-2 3-1 5l1-4 2 4a10 10 0 00-1-5 6 6 0 013 2s-1-2-4-2a15 15 0 00-2-3 12 12 0 015 1s-1-2-5-1l-2-2h5s-2-2-6 0l-2-2a21 21 0 015 0s-2-1-6 0l-2-1h4v-1a9 9 0 00-4 1l-4-2z" fill="#6c63ff"/><ellipse data-name="Ellipse 69" cx="14.3" cy="2.4" rx="14.3" ry="2.4" transform="translate(296 422)" fill="#6c63ff" opacity=".1"/><path data-name="Path 719" d="M137 389s21-1 18 13a3 3 0 01-1 4l-3-1a9 9 0 01-2 0 5 5 0 01-2-1s-6-2-8-12l-2-2 4 1a6 6 0 00-1 5l1-5 2 1s-2 5-1 8l1-7 3 1s-3 4-1 8l1-8 3 2s-3 4-1 7l1-7a13 13 0 012 3s-1 3 0 5l1-5 2 5a10 10 0 00-2-5 6 6 0 013 2s0-3-3-3a15 15 0 00-2-2 13 13 0 015 1s-2-2-6-1l-2-2h6s-2-2-7-1l-2-1a21 21 0 016 0s-3-2-7 0l-1-1 3-1h1a9 9 0 00-5 1l-4-2z" fill="#6c63ff"/><ellipse data-name="Ellipse 70" cx="14.3" cy="2.4" rx="14.3" ry="2.4" transform="translate(137 404)" fill="#6c63ff" opacity=".1"/><ellipse data-name="Ellipse 71" cx="41.2" cy="6.8" rx="41.2" ry="6.8" transform="translate(81 226)" fill="#fff"/><path data-name="Path 720" d="M797 163a22 22 0 010-11v-5s-2-11 7-18l6-5 4-2a4 4 0 010-1h1a17 17 0 001-2 2 2 0 01-2-1 3 3 0 01-1-1v-2a6 6 0 00-1-2l-3-3a15 15 0 01-2-6 5 5 0 010-2 7 7 0 011-1c1-3 1-6 3-8l6-2 6-2a7 7 0 012-1 1 1 0 011 1 1 1 0 001 1l3-1v1a7 7 0 003 0l-2 2a2 2 0 000 1 2 2 0 001 1l3 1a1 1 0 011 1 5 5 0 01-1 1 13 13 0 01-5 21v1l4 1a3 3 0 003-1c1-2 4 0 4 0s9-1 13 1l6-3 3-1h2c1 1 0-1 2-2l3-1 13-7 5-4 6-5a53 53 0 012-7l1-1 2-1a1 1 0 012 1c4 7 6 7 3 10-2 2-4 4-6 4l-10 13s-8 7-13 9l-5 3s-16 8-19 8-2 16-1 19l3 22s2 5 0 7v7c1 2 4 6 4 10a6 6 0 000 1 20 20 0 001 5 20 20 0 011 7v12l1 8s2 6 0 8a3 3 0 000 2 5 5 0 01-1 3 2 2 0 00-1 2v25s4 3 3 5l-1 2a2 2 0 011 0 41 41 0 005 4l7 3 4 1s2 0 1 3-11 2-11 2l-6-1-13-1-2-1a4 4 0 011-2v-2c-4-3 1-8 1-8a51 51 0 00-3-6l-1-21 1-9a3 3 0 00-1-3l-7-18-1 9-1 6a2 2 0 000 2 8 8 0 010 3 2 2 0 01-1 2l-1 2s-3-1-3 1a26 26 0 000 3v19l1 5a7 7 0 001 4 2 2 0 01-1 2l1 1a2 2 0 011 2 2 2 0 010 2 3 3 0 012 1 13 13 0 002 2 53 53 0 015 4 6 6 0 002 2 4 4 0 001 1c2 0 2 2 0 3s-7 2-12 1a4 4 0 01-3-1 44 44 0 00-6-2l-3-1a4 4 0 010-1 13 13 0 010-2 13 13 0 011-3v-6a10 10 0 00-1-2l-3-17s0-4-2-6 2-14 2-14l1-3v-9a5 5 0 010-1 7 7 0 001-5l-3-13s2-5 0-10a9 9 0 00-1-1v-9-2a7 7 0 000-1 6 6 0 01-4-3s-5-5-9-8-5-5-5-5c1-1-1-6-1-6zm17-41zm-3 49l5 5c1-2-1-6-1-6l-4-8a5 5 0 001 2c1 2-2 4-2 4l1 3z" transform="translate(-723 -64)" fill="url(#a)"/><path data-name="Path 721" d="M174 25l2 5a10 10 0 003-1 9 9 0 005-5c3-5-1-8-3-9s-3-2-5 1a54 54 0 00-2 7v2z" fill="#ffd2c6"/><g data-name="Title bar"><path data-name="Rectangle 3" fill="#9a98b3" d="M128 23h140v12H128z"/><g data-name="Group 1308" transform="translate(135 27)" fill="#fff"><circle data-name="Ellipse 3" cx="2.2" cy="2.2" transform="translate(16)" r="2.2"/><circle data-name="Ellipse 4" cx="2.2" cy="2.2" transform="translate(8)" r="2.2"/><circle data-name="Ellipse 5" cx="2.2" cy="2.2" r="2.2"/></g></g><path data-name="Path 722" d="M90 61l4 6s19 10 15-1a24 24 0 01-2-11 8 8 0 012-4s-19-10-16-3a9 9 0 011 4 15 15 0 01-2 6 20 20 0 01-2 3z" fill="#ffd2c6"/><path data-name="Path 723" d="M95 180s-2 12-1 14l1 6 3 17a10 10 0 012 2s-2 4-1 5a1 1 0 001 1c1 1 6-2 9-4a2 2 0 001-1 2 2 0 000-1 2 2 0 00-1-3h-1a2 2 0 001-2 7 7 0 01-1-4l-1-5v-19a27 27 0 010-3l3-1 1-2a2 2 0 001-2 8 8 0 000-3 2 2 0 010-2l1-5 1-10 6 18a3 3 0 012 3l-1 9 1 21a52 52 0 013 6s-6 5-1 7c4 3 14-4 14-4l-1-1 1-2c1-2-4-5-4-5l1-5-1-4 1-16a2 2 0 011-2 5 5 0 000-3 3 3 0 011-2v-8l-1-7v-13a20 20 0 00-1-7 21 21 0 01-1-5l-4-11-2-1-34-2-1 4v1 10a8 8 0 011 1c2 4 1 9 1 9l2 14a7 7 0 010 4 5 5 0 00-1 1v9l-1 3z" fill="#002fbb"/><path data-name="Path 724" d="M94 139a9 9 0 010 1h2l1-10h-4c0 3-1 7 1 9z" opacity=".1"/><path data-name="Path 725" d="M93 139a8 8 0 011 1h2l1-11h-4v10z" fill="#444053"/><path data-name="Path 726" d="M93 139a8 8 0 011 1h2l1-11h-4v10z" fill="#000056"/><path data-name="Path 727" d="M99 224a1 1 0 001 1c1 1 6-2 9-4a2 2 0 001-1c-2 0-3 2-3 2a2 2 0 00-3 1c-2 2-5 1-5 1z" opacity=".1"/><path data-name="Path 728" d="M98 231l3 1a51 51 0 016 2 4 4 0 003 0c5 1 10 0 12-1s2-2 0-3a4 4 0 01-1 0 6 6 0 01-2-2 54 54 0 00-5-4 13 13 0 01-3-3c-2-2-4 1-4 1a2 2 0 00-3 1c-2 2-5 1-5 1l-1 3v1a8 8 0 000 3z" fill="#000056"/><path data-name="Path 729" d="M98 231l3 1a51 51 0 016 2 4 4 0 003 0c5 1 10 0 12-1s2-2 0-3a4 4 0 01-1 0 20 20 0 01-5 1h-8l-4-1a7 7 0 00-3-1 7 7 0 01-3-1 8 8 0 000 3z" fill="#fff"/><path data-name="Path 731" d="M108 181a8 8 0 00-6-3 20 20 0 01-5 0 13 13 0 004 1 69 69 0 017 2z" opacity=".1"/><path data-name="Path 732" d="M107 182a9 9 0 00-3-1l-3-1a6 6 0 002 1l4 1z" opacity=".1"/><path data-name="Path 733" d="M106 183l-3 1" opacity=".1"/><path data-name="Path 734" d="M134 138l-3-3a3 3 0 00-1-2s-2 1 0 3a9 9 0 004 2z" opacity=".1"/><path data-name="Path 735" d="M93 48l1 3a11 11 0 003 2l6 3a12 12 0 004-1 8 8 0 012-4s-19-10-16-3z" opacity=".1"/><path data-name="Path 736" d="M90 43a13 13 0 1013-13 13 13 0 00-13 13z" fill="#ffd2c6"/><path data-name="Path 737" d="M90 61l4 6s19 10 15-1a24 24 0 01-2-11 10 10 0 000 3c0 1 0 3-4 4a11 11 0 01-11-4 20 20 0 01-2 3z" opacity=".1"/><path data-name="Path 738" d="M170 36l2 5a10 10 0 003-1l-5-6v2z" opacity=".1"/><path data-name="Path 739" d="M93 128c9 3 37 0 37 0a4 4 0 010-1l-2-1-33-2-2 4z" opacity=".1"/><path data-name="Path 740" d="M107 56l4 1a3 3 0 003-2h4l13 1 6-2 3-1 1-1 2-1 3-1 13-7 5-4 6-5s3 7 5 6l-11 13s-8 7-13 9l-5 3s-15 8-18 7-2 17-1 20l3 22v14s-29 3-37-1v-15c1-2-1-5-1-5l-5-11-12-13s-2-10 6-17l6-5 4-3h1a11 11 0 0011 4c4 0 4-2 4-4a10 10 0 010-2z" fill="#fdbc00"/><path data-name="Path 741" d="M92 98s17 1 21 6c0 0-5-2-9-1s-12-5-12-5z" opacity=".1"/><path data-name="Path 742" d="M111 117s-8 1-10-1l-2-3z" opacity=".1"/><path data-name="Path 743" d="M90 81s7 9-1 12z" opacity=".1"/><path data-name="Path 744" d="M132 66l-4 5z" opacity=".1"/><path data-name="Path 745" d="M140 63l-7 7 7-7z" opacity=".1"/><path data-name="Path 746" d="M115 58s6 9 2 14c0 0 2-6-2-14z" opacity=".1"/><path data-name="Path 747" d="M99 127l2 2h1l2 2c9 6 11-3 11-3s4 2 4 0-9-5-10-4a2 2 0 01-1 0 6 6 0 01-2-1 16 16 0 01-1-1z" fill="#ffd2c6"/><path data-name="Path 748" d="M90 43a13 13 0 006 11 7 7 0 001-1l1-3a10 10 0 012-4 2 2 0 012 0 5 5 0 001 1 2 2 0 002 0 3 3 0 000-3 27 27 0 010-4 5 5 0 012-5l4-1a5 5 0 001 0 13 13 0 00-22 9z" opacity=".1"/><path data-name="Path 749" d="M112 32l1 1a5 5 0 01-2 1l-5 1a5 5 0 00-2 4 29 29 0 001 5 3 3 0 010 2 2 2 0 01-2 1 5 5 0 01-2-1 2 2 0 00-1 0 10 10 0 00-3 3l-1 3a5 5 0 01-2 3 3 3 0 01-3 0l-1-3-4-5a14 14 0 01-2-6 5 5 0 010-2 7 7 0 011-1c1-3 1-6 3-8l6-2c2 0 4 0 6-2a7 7 0 012-1 1 1 0 011 1 1 1 0 001 1l3-1v1a7 7 0 003 0l-2 2a2 2 0 001 2l3 1z" fill="#3f3d56"/><path data-name="Path 750" d="M124 221v1c4 3 14-4 14-4l-1-1a2 2 0 00-1 1h-2l-2 3h-8z" opacity=".1"/><path data-name="Path 751" d="M124 228l14 1 6 1s10 1 11-3-1-2-1-2l-4-1a47 47 0 01-8-3 41 41 0 01-4-4s-2 0-2 2h-2l-2 2h-8v4s-2 2 0 3z" fill="#000056"/><path data-name="Path 752" d="M124 228l14 1 6 1s10 1 11-3-1-2-1-2l-5 1-7 1-7-1h-8a17 17 0 01-3-1s-2 2 0 3z" fill="#fff"/><path data-name="Path 754" d="M99 127l2 2 5-6a16 16 0 01-1-1z" opacity=".1"/><path data-name="Path 755" d="M79 78l-4 5v6a22 22 0 000 11v5l1 5s0 4 4 6 10 8 10 8 1 3 6 2l5 2 5-7-7-4s-3-3-4-3l-6-7s0-2-2-2c0 0 3-3 2-4v-8z" fill="#fdbc00"/><path data-name="Path 756" d="M85 101s-8 0-9 2 7-3 9-2z" opacity=".1"/><path data-name="Path 757" d="M102 128a2 2 0 000 1 3 3 0 002 2 3 3 0 003-3 3 3 0 000-1l1-3a6 6 0 01-2-1 13 13 0 01-1 3 3 3 0 00-1 0 3 3 0 00-2 2z" opacity=".1"/><path data-name="Path 758" d="M106 122l2 1s0 3-2 5-1-2-1-2l1-4z" fill="#000056"/><circle data-name="Ellipse 84" cx="2.8" cy="2.8" r="2.8" transform="translate(101 126)" fill="#e4aab4"/><circle data-name="Ellipse 85" cx="2.4" cy="2.4" r="2.4" transform="translate(102 126)" fill="#dce6f2"/><path data-name="Path 759" d="M115 129a14 14 0 01-14 2v3s5 3 10 1 4-6 4-6z" opacity=".1"/><path data-name="Path 760" d="M115 129a14 14 0 01-14 2v2s5 3 10 1 4-5 4-5z" opacity=".1"/><path data-name="Path 761" d="M115 129a14 14 0 01-14 2v2s5 3 10 1 4-5 4-5z" fill="#444053"/><path data-name="Path 762" d="M115 129a14 14 0 01-14 2v2s5 3 10 1 4-5 4-5z" fill="#000056"/><path data-name="Path 763" d="M133 217l-9 2c-2 1 1 1 1 1l8-3z" opacity=".1"/><path data-name="Path 764" d="M134 213s-6-2-7-4" opacity=".1"/><path data-name="Path 765" d="M126 182l-3 3 3-3z" opacity=".1"/><path data-name="Path 766" d="M125 187s-1 2-2 1" opacity=".1"/><path data-name="Path 767" d="M120 144l-6 14s-1-9 1-12a5 5 0 015-2z" opacity=".1"/><g data-name="Group 1295" opacity=".1"><path data-name="Path 768" d="M106 26h1a6 6 0 01-1 0z"/><path data-name="Path 769" d="M109 30h-1a2 2 0 010-2 3 3 0 010-1 7 7 0 002 0l-1 2a2 2 0 000 1z"/><path data-name="Path 770" d="M94 54a5 5 0 002-2l1-4a10 10 0 012-3 1 1 0 011 0 2 2 0 011 0 5 5 0 001 1 2 2 0 002 0 3 3 0 001-3 27 27 0 01-1-5 5 5 0 012-4l4-1a5 5 0 002-1l1 1a5 5 0 01-2 1l-5 1a5 5 0 00-2 4 29 29 0 001 5 3 3 0 010 2 2 2 0 01-2 1 5 5 0 01-2-1 2 2 0 00-1 0 10 10 0 00-2 3l-2 4a5 5 0 01-2 2 3 3 0 01-3 0 3 3 0 010-1 3 3 0 003 0z"/><path data-name="Path 771" d="M89 50l-3-3 3 3z"/></g><g data-name="Group 1297" opacity=".1"><path data-name="Path 772" d="M136 35h126a7 7 0 016 7v79a7 7 0 01-6 7H136a7 7 0 01-7-7V42a7 7 0 017-7z"/><g data-name="Group 1296" transform="translate(148 56)" opacity=".2"><rect data-name="Rectangle 115" width="101.9" height="6.2" rx="3.1"/><rect data-name="Rectangle 116" width="84.1" height="6.2" rx="3.1" transform="translate(18 28)"/><rect data-name="Rectangle 117" width="60.6" height="6.2" rx="3.1" transform="translate(41 14)"/></g></g><path data-name="Path 773" d="M134 34h126a7 7 0 017 7v79a7 7 0 01-7 7H134a7 7 0 01-6-7V41a7 7 0 016-7z" fill="#fff"/><g data-name="Group 1298" transform="translate(146 76)" fill="#e6e6e6"><rect data-name="Rectangle 118" width="101.9" height="6.2" rx="3.1"/><rect data-name="Rectangle 119" width="84.1" height="6.2" rx="3.1" transform="translate(0 28)"/><rect data-name="Rectangle 120" width="60.6" height="6.2" rx="3.1" transform="translate(0 14)"/></g><path data-name="Path 774" d="M530 294s-2 3 1 6 5 7 4 10c0 0-4-7-7-7s-2-5 2-9z" fill="#6c63ff"/><path data-name="Path 775" d="M530 294a3 3 0 000 1c-4 4-5 7-2 8 3 0 6 5 7 6a1 1 0 010 1s-4-7-7-7-2-5 2-9z" opacity=".1"/><path data-name="Path 776" d="M527 297v0c0-1 0 0 0 0z" fill="#ffd037"/><path data-name="Path 777" d="M525 298l2 1-1-1h-1z" fill="#ffd037"/><path data-name="Path 778" d="M540 294s2 3-1 6-5 7-4 10c0 0 4-7 8-7s1-5-3-9z" fill="#6c63ff"/><path data-name="Path 779" d="M540 294a3 3 0 011 1c3 4 5 7 1 8-3 0-6 5-7 6v1s4-7 8-7 1-5-3-9z" opacity=".1"/><path data-name="Path 780" d="M544 297l-1 2v-2c0-1 0 0 0 0h1z" fill="#ffd037"/><path data-name="Path 781" d="M545 298l-2 1 2-1c1 0 0 0 0 0z" fill="#ffd037"/><ellipse data-name="Ellipse 86" cx="19.8" cy="3" rx="19.8" ry="3" transform="translate(515 322)" fill="#6c63ff" opacity=".1"/><path data-name="Path 782" d="M525 306v4l1 1 1 13 4 2h8l4-2 2-13v-5l-2-1h-16l-2 1z" fill="#65617d"/><path data-name="Path 783" d="M525 307v1h20v-1z" fill="#9d9cb5"/><path data-name="Path 784" d="M525 309v1h20v-1z" fill="#9d9cb5"/><path data-name="Path 785" d="M525 310l1 1h19v-1z" fill="#9d9cb5"/><ellipse data-name="Ellipse 87" cx="44.7" cy="7.3" rx="44.7" ry="7.3" transform="translate(185 412)" fill="#fff"/><g data-name="Group 1300" opacity=".1"><path data-name="Path 786" d="M178 195h136a7 7 0 018 7v86a7 7 0 01-8 7H178a7 7 0 01-7-7v-86a7 7 0 017-7z"/><g data-name="Group 1299" transform="translate(191 233)" opacity=".2"><rect data-name="Rectangle 121" width="110.5" height="6.7" rx="3.4" transform="translate(0 15)"/><rect data-name="Rectangle 122" width="47.9" height="6.7" rx="3.4" transform="translate(63)"/></g></g><path data-name="Path 787" d="M179 193h137a7 7 0 017 8v86a7 7 0 01-7 7H179a7 7 0 01-7-7v-86a7 7 0 017-8z" fill="#fff"/><g data-name="Group 1301" transform="translate(192 225)" fill="#e6e6e6"><rect data-name="Rectangle 123" width="110.5" height="6.7" rx="3.4" transform="translate(0 15)"/><rect data-name="Rectangle 124" width="47.9" height="6.7" rx="3.4"/></g><path data-name="Path 788" d="M543 617l1-5a11 11 0 011-5v-7a18 18 0 00-1-3v-8s4-9 3-14 7-25 7-25a25 25 0 00-1-6 4 4 0 010-1c0-4 3-11 3-11v-13s-2-8 1-19l2-9h1l-12-2s4-15 7-18 4-11 4-11 1-11-1-14-2-9-2-9l-6-5a26 26 0 01-1-7v-4c0-1 2-5 1-6a5 5 0 010-2 24 24 0 010-5 13 13 0 015-2v-2h1v-2l-1-3c-2-7 6-7 6-7a4 4 0 013-2l-1 9a35 35 0 00-3 5v3a9 9 0 011 3 5 5 0 00-1 3 11 11 0 010 4l2-1 4 2h2l1 3 6-6a14 14 0 001-3 14 14 0 01-2 0 4 4 0 01-2-1 6 6 0 01-1-3 37 37 0 00-2-5 16 16 0 01-1-8 6 6 0 011-3l4-3 3-3a7 7 0 015 0 24 24 0 018 3 4 4 0 003 0 4 4 0 002-1 10 10 0 011 4 6 6 0 010 1 1 1 0 000 1 4 4 0 011 1 3 3 0 010 2 2 2 0 010 1 6 6 0 01-1 1 11 11 0 01-5 11l-1 1a14 14 0 00-1 6 2 2 0 000 1h1s9 0 12-2 5 5 5 5h9a9 9 0 016-2 18 18 0 015-3 5 5 0 012 0l6-6 8-10v-2a4 4 0 001 0 22 22 0 011-3v-2-6s4-10 8-2c0 0 8 5 1 10l-2 2-2 4v2l2 2a11 11 0 00-1 2s-9 11-10 15c0 0-22 14-30 15l2 6a54 54 0 010 6 81 81 0 003 19l1 7a48 48 0 002 8 21 21 0 010 8s4 9-5 3l-10-1v3a323 323 0 01-3 44v9a12 12 0 010 3 17 17 0 01-2 9l-1 6-2 6a4 4 0 000 1 4 4 0 010 1l-1 9-1 7 1 5h1a5 5 0 010 2 2 2 0 01-1 2c-2 1-3 2-1 2a17 17 0 011 1 1 1 0 011 1 5 5 0 01-1 2 26 26 0 01-2 5h-1a4 4 0 000 1 3 3 0 002 1 3 3 0 001 0 4 4 0 013 1c1 2 1 3-1 5l-7 2s-12 2-11-1l1-5a11 11 0 011-5l-2-8h-1l1-1a6 6 0 011 0s1-3-1-4a1 1 0 010-1 5 5 0 010-1 47 47 0 013-8l-1-4c-1-1 1-15 1-15v-11c1-4-1-7-1-7v-1l1-7v-13l-2-4-3 8-3 10a9 9 0 00-2 4 2 2 0 000 1 6 6 0 01-1 4l-2 6a6 6 0 00-2 4l-2 8-1 5v6a8 8 0 000 1v1-1a18 18 0 011 5l-2 7c-3 3-5 3-5 3l3 4a2 2 0 011 2 10 10 0 01-2 5 3 3 0 01-1 1 3 3 0 001 1 4 4 0 013 1c1 1 2 3 0 5l-7 2s-13 2-12-1z" transform="translate(-339 -202)" fill="url(#b)"/><path data-name="Path 789" d="M251 419l7-2v-5a4 4 0 00-3-1 3 3 0 01-1 0 3 3 0 01-1-1 5 5 0 01-1-3s-8-2-10 0a6 6 0 00-1 1 11 11 0 000 5l-1 5c0 3 11 1 11 1z" fill="#2d293d"/><path data-name="Path 790" d="M217 416l7-2c2-2 1-4 0-5a4 4 0 00-2-1 2 2 0 01-1-1 4 4 0 01-1 0c-2-1-2-3-2-3s-7-3-9 0a5 5 0 00-1 0 11 11 0 00-1 6l-1 5c-1 3 11 1 11 1z" fill="#2d293d"/><path data-name="Path 791" d="M242 407a6 6 0 00-1 1l12 2a5 5 0 01-1-3s-8-2-10 0z" opacity=".1"/><path data-name="Path 792" d="M208 404v3c2 3 10 2 13 0a4 4 0 01-1 0c-2-1-2-3-2-3s-7-3-9 0a5 5 0 00-1 0z" opacity=".1"/><path data-name="Path 793" d="M207 395a20 20 0 011 3v8c2 3 12 2 13 0s3-6 2-7l-3-4 4-3c3-3 2-10 1-12v-7l1-5 2-8a6 6 0 012-4l2-6a6 6 0 001-4l2-5 3-10 3-8 2 4v13l-1 8s2 4 1 7l-1 11v15l1 4s-4 9-3 10l1 4s-3 0-2 1l2 7 12 2a24 24 0 003-5c1-4-1-3-2-4s-1-1 1-2 1-4 1-4-3-5-2-5l1-7 2-10 1-7 1-6a17 17 0 002-12v-9l3-27v-19-4l-42-5a34 34 0 010 6l-2 9c-3 11-2 19-2 19l1 13s-4 9-3 12a26 26 0 011 6s-8 19-8 25-2 14-2 14v8z" fill="#002fbb"/><path data-name="Path 794" d="M230 345l-12-1s7 7 12 1z" opacity=".1"/><path data-name="Path 795" d="M220 331s-1 5 2 7c0 0-5-1-2-7z" opacity=".1"/><path data-name="Path 796" d="M220 317s11 9 15 8-15-8-15-8z" opacity=".1"/><path data-name="Path 797" d="M246 349s8 2 8 6-8-6-8-6z" opacity=".1"/><path data-name="Path 798" d="M244 389s12 3 8 4a57 57 0 01-8 3s-4 0 0-7z" opacity=".1"/><g data-name="Group 1302" opacity=".1"><path data-name="Path 799" d="M255 395a2 2 0 001-1s1 2-1 4h-1-1c-1-1 0-2 2-3z"/><path data-name="Path 800" d="M240 395v-2a5 5 0 011 2 2 2 0 00-1 0z"/><path data-name="Path 801" d="M242 347a13 13 0 011 3 14 14 0 00-1-2v-1z"/><path data-name="Path 802" d="M216 342a4 4 0 010-1v2a5 5 0 000-1z"/><path data-name="Path 803" d="M242 381a6 6 0 010-2 7 7 0 010 2z"/><path data-name="Path 804" d="M240 399a38 38 0 011 6l12 1a24 24 0 002-5h1v3a25 25 0 01-3 5l-12-2-2-7 1-1z"/><path data-name="Path 805" d="M255 382l-1 7v-3l1-7s2-7 1-9 2-8 2-8v-6a17 17 0 002-11v-9l4-28v-18-3a433 433 0 000 24l-3 27v9a17 17 0 01-2 12l-1 6-1 7c1 2-2 10-2 10z"/><path data-name="Path 806" d="M221 404a11 11 0 002-5c1 1 0 5-2 7-1 2-11 3-13 0v-2c3 2 12 1 13 0z"/><path data-name="Path 807" d="M206 393a19 19 0 012 3v1l-1-2a6 6 0 01-1-2z"/><path data-name="Path 808" d="M220 394a19 19 0 01-1-2s2 0 5-3c1-2 2-6 1-9 1 2 2 9-1 12l-4 2z"/><path data-name="Path 809" d="M225 373a51 51 0 000 6 8 8 0 000-1v-7l1-5 2-9a6 6 0 011-3l3-6a6 6 0 001-5c-1-2 1-5 1-5l3-10 3-8 2 5v1l-1-3-3 7-3 11s-2 2-2 5a6 6 0 01-1 4l-2 6a6 6 0 00-2 4l-2 8-1 5z"/></g><path data-name="Path 810" d="M217 197l1 3v3h4v-1a37 37 0 013-5c1 0 3-10 1-9a4 4 0 00-2 2s-8 0-7 7z" fill="#ffb9b9"/><path data-name="Path 811" d="M218 203h4v-1a4 4 0 00-4 0z" opacity=".1"/><path data-name="Path 812" d="M217 205l5 1v-1l1-2a4 4 0 00-6-1v1z" fill="#fdbc00"/><g data-name="Title bar"><path data-name="Rectangle 3" fill="#9a98b3" d="M172 184h151v12H172z"/><g data-name="Group 1308" transform="translate(179 188)" fill="#fff"><circle data-name="Ellipse 3" cx="2.2" cy="2.2" transform="translate(16)" r="2.2"/><circle data-name="Ellipse 4" cx="2.2" cy="2.2" transform="translate(8)" r="2.2"/><circle data-name="Ellipse 5" cx="2.2" cy="2.2" r="2.2"/></g></g><path data-name="Path 813" d="M302 197l6 3 1-1 1-4 3-2c6-5-1-10-1-10-4-8-8 2-8 2v8a22 22 0 00-1 3l-1 1z" fill="#ffb9b9"/><path data-name="Path 814" d="M302 197l6 3 1-1-5-3a7 7 0 01-1 0l-1 1z" opacity=".1"/><path data-name="Path 815" d="M302 199l6 3v-3l-4-3a6 6 0 01-2 0v2z" fill="#fdbc00"/><path data-name="Path 816" d="M233 220s27 3 22 1c-4-1-5-3-5-6a14 14 0 011-6 27 27 0 012-5s-21-12-17-1a17 17 0 012 5 14 14 0 01-1 5 15 15 0 01-4 7z" fill="#ffb9b9"/><path data-name="Path 817" d="M236 203a17 17 0 012 5c2 2 4 1 7 1h6a27 27 0 012-5s-21-12-17-1z" opacity=".1"/><circle data-name="Ellipse 88" cx="11.4" cy="11.4" r="11.4" transform="translate(233 187)" fill="#ffb9b9"/><path data-name="Path 818" d="M233 220s27 3 22 1c-4-1-5-3-5-6l-6-3a8 8 0 00-5 0 7 7 0 00-2 1 15 15 0 01-4 7z" opacity=".1"/><path data-name="Path 819" d="M217 205l5 1v-1a5 5 0 00-5-2z" opacity=".1"/><path data-name="Path 820" d="M302 199l6 3v-2a47 47 0 00-6-2z" opacity=".1"/><path data-name="Path 821" d="M222 289a172 172 0 0042 3v-4l-42-5a34 34 0 010 6z" opacity=".1"/><path data-name="Path 822" d="M211 287s35 6 39 5 23 0 23 0c9 6 5-3 5-3a21 21 0 000-8 50 50 0 01-1-8l-1-7-3-11v-8a55 55 0 00-1-6l-1-6c7-1 29-15 29-15 1-4 9-15 9-15a11 11 0 011-2c1-2-8-5-8-5l-8 10-6 6a5 5 0 00-2 0 17 17 0 00-4 3 8 8 0 00-6 2h-9s-3-7-5-5-12 2-12 2c-1-2-4-3-6-3a8 8 0 00-5-1 6 6 0 00-2 1l-6 6-1-3-2-1-4-1c-1-1-2 1-2 1a11 11 0 000-4 5 5 0 011-3c-3-9-10-2-10-2l-1 7v6l-1 4a26 26 0 002 7l5 5s0 6 2 9 1 14 1 14-2 8-4 11l-6 18z" fill="#000056"/><path data-name="Path 823" d="M262 224l2-4a23 23 0 003-1v-1l-5 2v4z" opacity=".1"/><path data-name="Path 824" d="M282 217l8 2-4-5a17 17 0 00-4 3z" opacity=".1"/><circle data-name="Ellipse 89" cx=".8" cy=".8" r=".8" transform="translate(306 203)" fill="#575988"/><circle data-name="Ellipse 90" cx=".8" cy=".8" r=".8" transform="translate(305 204)" fill="#575988"/><circle data-name="Ellipse 91" cx=".8" cy=".8" r=".8" transform="translate(304 206)" fill="#575988"/><circle data-name="Ellipse 92" cx=".8" cy=".8" r=".8" transform="translate(303 207)" fill="#575988"/><circle data-name="Ellipse 93" cx=".6" cy=".6" r=".6" transform="translate(212 207)" fill="#575988"/><circle data-name="Ellipse 94" cx=".6" cy=".6" r=".6" transform="translate(212 209)" fill="#575988"/><circle data-name="Ellipse 95" cx=".6" cy=".6" r=".6" transform="translate(212 210)" fill="#575988"/><path data-name="Path 825" d="M262 250s-21 27-38 11c0 0 27 4 38-11z" opacity=".1"/><path data-name="Path 826" d="M275 264s-13 0-15 4v4a2 2 0 003 0c1-1 9-5 12-3z" opacity=".1"/><path data-name="Path 827" d="M275 264s-13 0-14 4v4a2 2 0 002 0c1-1 9-5 11-3z" fill="#fdbc00"/><path data-name="Path 828" d="M268 236a42 42 0 01-5 8 34 34 0 01-8 8l13-16z" opacity=".1"/><path data-name="Path 829" d="M272 221s-2 9-8 12z" opacity=".1"/><path data-name="Path 830" d="M275 222s2 7-7 11c0 0 4-1 7-11z" opacity=".1"/><path data-name="Path 831" d="M219 216s-5 2-6 4c0 0 3-5 6-4z" opacity=".1"/><path data-name="Path 832" d="M248 209a2 2 0 01-1 2 2 2 0 01-1 0l-10-1a4 4 0 01-2-1 6 6 0 01-1-3 33 33 0 00-2-5 16 16 0 01-1-8 6 6 0 011-3l4-3 3-3a7 7 0 014-1 23 23 0 018 3 4 4 0 003 1 4 4 0 002-1 11 11 0 011 5 2 2 0 000 1c1 1 2 3 1 4l-1 1-1 3a2 2 0 010 1 1 1 0 01-1 0 4 4 0 00-2 0 2 2 0 00-1 1 18 18 0 00-3 7z" fill="#3f3d56"/><g data-name="Group 1303" opacity=".1"><path data-name="Path 833" d="M234 208a4 4 0 001 1l11 1a2 2 0 001 0 2 2 0 001-2 18 18 0 013-7 2 2 0 011-1 4 4 0 011 1 1 1 0 002-1 2 2 0 000-1v-3l2-1a2 2 0 000-2 3 3 0 010 3l-1 1-1 3a2 2 0 010 1 1 1 0 01-1 0 4 4 0 00-2 0 2 2 0 00-1 1 18 18 0 00-3 7 2 2 0 01-2 2l-10-1a4 4 0 01-2-1 3 3 0 010-1z"/><path data-name="Path 834" d="M256 191a2 2 0 010-1 11 11 0 00-1-4 11 11 0 011 5z"/></g><path data-name="Path 835" d="M250 216s-14 2-16 0" opacity=".1"/><path data-name="Path 836" d="M222 210s-8 0-9 3" opacity=".1"/><path data-name="Path 37" d="M169 44l11 11-11 11-3-3 9-8-9-8z" fill="#6c63ff"/><path data-name="Path 38" d="M160 44l-11 11 11 11 2-3-8-8 8-8z" fill="#6c63ff"/><path data-name="Path 37" d="M431 209l10 10-10 11-3-3 8-8-8-8z" fill="#6c63ff"/><path data-name="Path 38" d="M422 209l-11 10 11 11 2-3-8-8 8-8z" fill="#6c63ff"/><path data-name="Path 37" d="M208 257l11 10-11 11-2-2 8-9-9-8z" fill="#6c63ff"/><path data-name="Path 38" d="M199 257l-10 10 10 11 3-2-8-9 8-8z" fill="#6c63ff"/></svg>