<svg xmlns="http://www.w3.org/2000/svg" width="1351.139" height="650.577" viewBox="0 0 1351.139 650.577">
  <g id="speech-bubbles" transform="translate(-688.189 -4472.167)">
    <path id="Path_708" data-name="Path 708" d="M66.649,183.536c-6.236,9.846-8.941,21.519-9.555,33.053-.589,11.032,2.031,36.069-15.746,35.442,4.93,2.959,10.721,4.065,16.382,5.07,25.728,4.557,52.013,7.993,77.943,4.761,14.187-1.768,28.548-5.768,39.853-14.9,6.688-5.405,12.056-12.638,14.4-20.91,2.6-9.157,1.387-18.993-1.1-28.177-3.14-11.594-8.685-23.123-18.436-30.136-8.513-6.124-19.279-8.148-29.726-9.05C115.407,156.505,81.614,159.9,66.649,183.536Z" transform="translate(646.841 4859.613)" fill="#ef2678" opacity="0.15"/>
    <path id="Path_709" data-name="Path 709" d="M452.4,212.9c-4.662,7.362-6.686,16.091-7.146,24.714-.44,8.25,1.519,26.971-11.773,26.5,3.687,2.213,8.016,3.041,12.25,3.792,19.239,3.409,38.891,5.977,58.279,3.56,10.609-1.323,21.347-4.314,29.8-11.144a31.612,31.612,0,0,0,10.766-15.636c1.942-6.845,1.039-14.2-.821-21.069-2.349-8.67-6.494-17.29-13.786-22.533-6.367-4.577-14.416-6.091-22.227-6.768C488.856,192.688,463.59,195.229,452.4,212.9Z" transform="translate(1493.667 4729.78)" fill="#ef2678" opacity="0.15"/>
    <path id="Path_710" data-name="Path 710" d="M386.859,128.23c-4.662,7.362-6.683,16.091-7.143,24.714-.44,8.25,1.519,26.971-11.773,26.5,3.685,2.213,8.013,3.041,12.247,3.792,19.239,3.406,38.893,5.977,58.281,3.56,10.609-1.323,21.345-4.314,29.8-11.146a31.6,31.6,0,0,0,10.768-15.634c1.939-6.845,1.037-14.2-.823-21.069-2.347-8.67-6.494-17.29-13.787-22.533-6.365-4.58-14.413-6.091-22.225-6.768C423.318,108.017,398.05,110.56,386.859,128.23Z" transform="translate(1196.258 4362.937)" fill="#ef2678" opacity="0.15"/>
    <path id="Path_711" data-name="Path 711" d="M163.393,77.081c-4.662,7.362-6.683,16.091-7.146,24.714-.44,8.25,1.522,26.971-11.773,26.5,3.687,2.213,8.016,3.041,12.25,3.792,19.239,3.409,38.893,5.977,58.281,3.56,10.609-1.323,21.345-4.314,29.8-11.144a31.617,31.617,0,0,0,10.768-15.636c1.939-6.845,1.037-14.2-.823-21.069-2.347-8.667-6.494-17.29-13.786-22.533-6.365-4.577-14.413-6.091-22.225-6.765C199.852,56.87,174.584,59.411,163.393,77.081Z" transform="translate(819.119 4553.917)" fill="#ef2678" opacity="0.15"/>
  </g>
</svg>
