<svg xmlns="http://www.w3.org/2000/svg" width="550" height="312.291"><g data-name="Background Complete"><g data-name="Group 476"><g data-name="Group 454"><path data-name="Path 242" d="M153.599 13.398a6.453 6.453 0 003.845-5.971 6.064 6.064 0 10-12.1-.056 6.444 6.444 0 003.857 6.027c-9.314 1.4-8.891 11.524-8.891 11.524l22.023.1s.498-10.23-8.734-11.624z" fill="#e0e0e0"/></g><g data-name="Group 455"><path data-name="Path 243" d="M511.156 66.644l-10.221-11 3.31-3.077 7.056 7.59 14.817-14.578 3.169 3.221z" fill="#f5f5f5"/></g><path data-name="Path 244" d="M363.019 126.728c0-7.513-7.9-12.273-15.943-8.507a9.141 9.141 0 00-4.235 4.059c-2.025 3.923-1.131 8.4.705 12.121l6.264 15.876a2.7 2.7 0 005.03-.021l6.142-15.958c2.127-4.861 2.037-7.57 2.037-7.57zm-7.562 6.538c-5.41 3.146-10.894-2.669-7.928-8.408a4.506 4.506 0 011.719-1.822c5.41-3.147 10.9 2.668 7.928 8.408a4.506 4.506 0 01-1.719 1.822z" fill="#ebebeb"/><g data-name="Group 467"><g data-name="Group 456"><path data-name="Path 245" d="M456.093 235.796c-16.867-15.4-17.832-39.822-14.165-61.147.613-3.561.731-7.387 2.884-10.288s6.468-4.493 9.507-2.54c2.52 1.619 3.271 4.87 4.427 7.633a21.3 21.3 0 007.4 9.181c2.146 1.5 4.9 2.613 7.35 1.686 3.359-1.272 4.31-5.483 4.775-9.046q1.3-9.952 2.595-19.906c.464-3.561.949-7.194 2.533-10.416s4.487-6.019 8.046-6.5 7.532 2.058 7.779 5.639a32.8 32.8 0 01-.505 4.444c-.1 1.49.373 3.22 1.737 3.827 1.381.614 2.961-.2 4.182-1.089 4.211-3.082 7.369-7.361 10.357-11.639s5.923-8.672 9.834-12.127 9.006-5.917 14.206-5.5 10.271 4.322 10.892 9.5-3.039 9.876-6.82 13.492a80.654 80.654 0 01-18.9 13.459 6.63 6.63 0 00-3.21 2.589c-1.106 2.263.849 4.933 3.113 6.039 2.567 1.252 5.519 1.377 8.284 2.089s5.643 2.354 6.349 5.122c.978 3.84-2.625 7.227-6 9.307a69.744 69.744 0 01-21.986 8.817c-2.783.594-5.687 1.05-8.076 2.595s-4.118 4.565-3.169 7.247 4.155 3.944 7 3.818 5.536-1.273 8.318-1.895c5.206-1.165 11.555.052 14.15 4.712 1.7 3.064 1.36 6.957-.148 10.122a26.127 26.127 0 01-6.665 8.04 69.9 69.9 0 01-32.4 16.46c-12.029 2.353-22.82 1.955-33.674-3.735" fill="#002fbb" opacity=".1"/></g><g data-name="Group 458"><g data-name="Group 457"><path data-name="Path 246" d="M457.433 244.475c1.952-8.376 1.457-10.96 6.152-21.319a319.58 319.58 0 0117.516-32.55l5.036-8.3c1.659-2.721 3.3-5.417 5.076-7.955a160.519 160.519 0 0111.039-14.011c3.731-4.288 7.429-8.222 10.916-11.878s6.817-6.989 9.976-9.906a128.8 128.8 0 0115.931-12.654 129.07 129.07 0 014.652-3l1.231-.744c.279-.165.43-.238.43-.238s-.13.1-.4.285l-1.2.789a180.736 180.736 0 00-4.591 3.081 134.685 134.685 0 00-15.788 12.761c-3.137 2.927-6.436 6.277-9.912 9.935s-7.151 7.609-10.865 11.9a161.343 161.343 0 00-10.979 13.986c-1.763 2.53-3.392 5.207-5.052 7.935s-3.333 5.5-5.032 8.3a326.09 326.09 0 00-17.525 32.477c-4.708 10.322-4.24 12.861-6.236 21.2" fill="#e0e0e0"/></g></g><g data-name="Group 460"><g data-name="Group 459"><path data-name="Path 247" d="M491.358 174.318a8.614 8.614 0 01-.12-1.567c-.047-1.009-.071-2.471-.076-4.276-.015-3.612.13-8.6.3-14.1s.231-10.481.139-14.083c-.041-1.8-.092-3.26-.142-4.267a8.585 8.585 0 01-.013-1.57 8.774 8.774 0 01.223 1.555c.116 1 .225 2.463.314 4.267.193 3.61.194 8.607.021 14.114l-.464 14.087c-.039 1.727-.07 3.162-.1 4.271a8.655 8.655 0 01-.082 1.569z" fill="#e0e0e0"/></g></g><g data-name="Group 462"><g data-name="Group 461"><path data-name="Path 248" d="M538.865 172.137a1.658 1.658 0 01-.487.012l-1.388-.071c-1.2-.068-2.944-.169-5.1-.223-4.305-.144-10.262-.125-16.83.186s-12.5.871-16.777 1.4c-2.141.249-3.867.5-5.061.664l-1.377.186a1.677 1.677 0 01-.487.029 1.634 1.634 0 01.468-.137l1.361-.285a93.561 93.561 0 015.045-.838c4.273-.624 10.217-1.235 16.8-1.559s12.557-.269 16.872-.026c2.156.1 3.9.263 5.1.395l1.381.172a1.658 1.658 0 01.48.095z" fill="#e0e0e0"/></g></g><g data-name="Group 464"><g data-name="Group 463"><path data-name="Path 249" d="M464.222 222.368a2.855 2.855 0 01-.228-.6l-.556-1.767c-.478-1.536-1.114-3.774-1.866-6.549-1.508-5.549-3.355-13.276-5.284-21.829s-3.716-16.288-5.128-21.855c-.7-2.731-1.28-4.965-1.7-6.588l-.457-1.792a2.879 2.879 0 01-.124-.636 2.994 2.994 0 01.229.606c.144.459.327 1.044.555 1.766.478 1.535 1.113 3.774 1.864 6.549 1.509 5.549 3.356 13.276 5.286 21.831s3.716 16.284 5.127 21.852c.7 2.73 1.279 4.964 1.7 6.587l.457 1.794a2.933 2.933 0 01.125.631z" fill="#e0e0e0"/></g></g><g data-name="Group 466"><g data-name="Group 465"><path data-name="Path 250" d="M528.476 211.243a3.244 3.244 0 01-.647.153l-1.871.333-6.887 1.184c-5.812 1.006-13.824 2.493-22.672 4.159s-16.88 3.1-22.713 4.006c-2.917.457-5.279.8-6.917 1.013l-1.886.234a3.023 3.023 0 01-.663.044 3.1 3.1 0 01.648-.152l1.87-.333 6.885-1.182c5.813-1.006 13.825-2.5 22.676-4.161s16.877-3.095 22.708-4c2.917-.456 5.28-.8 6.917-1.013l1.887-.235a3.1 3.1 0 01.665-.05z" fill="#e0e0e0"/></g></g></g><g data-name="Group 475"><path data-name="Path 251" d="M1.792 128.389s5.213-5.932 17.1 7.165 17.206 21.071 17.206 21.071 2.915 2.629 4.537-.049 3.012-9.4 7.022-9.349c4.158.053 6.6 4.014 7.585 10.54s3.669 20.747 3.916 22.032c.243 1.262 1.446 2.89 2.843 1.243s8.287-15.343 14.59-11.685 6.061 22.292 6.073 24.329.606 2.748 1.636 2.972 2.913-4.6 5.031-8.412 5.245-7.867 8.7-5.452 7.824 15.16 1.21 39.588L95.436 233.5l-11.544 2.463c-25.026 3.764-37.186-2.034-39.187-5.748s2.382-6.354 6.415-8.021 9.04-2.983 8.935-4.032-.743-1.72-2.766-1.967-20.561-2.145-23.471-8.827 11.487-11.952 13.283-13.151.318-2.581-.908-2.967c-1.248-.394-15.066-4.693-21.437-6.421s-10.023-4.609-9.6-8.745c.409-3.988 7.247-4.6 10.093-5.9s.57-4.5.57-4.5-7.306-6.2-18.952-19.513-4.968-17.89-4.968-17.89" fill="#002fbb" opacity=".1"/><g data-name="Group 468"><path data-name="Path 252" d="M12.456 140.101a1.747 1.747 0 01.229.228l.641.7 2.429 2.711 8.894 10.007 29.467 32.9c11.537 12.829 21.927 24.492 29.376 33l8.785 10.1 2.364 2.767.607.727a1.7 1.7 0 01.194.258 1.649 1.649 0 01-.23-.228l-.64-.7-2.429-2.711-8.893-10.006c-7.51-8.45-17.936-20.077-29.473-32.906s-21.922-24.484-29.37-32.99l-8.785-10.1-2.365-2.768-.606-.727a1.622 1.622 0 01-.195-.262z" fill="#e0e0e0"/></g><g data-name="Group 469"><path data-name="Path 253" d="M46.089 156.707a24.146 24.146 0 01.157 3.157l.238 7.616c.1 2.975.17 5.672.16 7.625a47.097 47.097 0 01-.06 2.314 3.048 3.048 0 01-.1.846 29.24 29.24 0 01-.161-3.155l-.293-7.616c-.1-2.976-.134-5.675-.105-7.628.016-.977.038-1.766.072-2.312a3.133 3.133 0 01.092-.847z" fill="#e0e0e0"/></g><g data-name="Group 470"><path data-name="Path 254" d="M45.497 178.75c0 .126-5.57.148-12.435.05s-12.433-.281-12.433-.405 5.569-.149 12.436-.051 12.434.28 12.432.406z" fill="#e0e0e0"/></g><g data-name="Group 471"><path data-name="Path 255" d="M66.912 200.424a3.248 3.248 0 01-.8.341c-.523.194-1.289.45-2.24.754a103.447 103.447 0 01-15.175 3.521c-.985.15-1.786.252-2.341.311a3.262 3.262 0 01-.869.045 25.874 25.874 0 013.156-.673c1.954-.376 4.65-.912 7.606-1.6s5.612-1.392 7.534-1.911a25.679 25.679 0 013.129-.788z" fill="#e0e0e0"/></g><g data-name="Group 472"><path data-name="Path 256" d="M71.836 180.603a19.21 19.21 0 01-.6 2.923c-.426 1.791-1.046 4.257-1.758 6.973s-1.382 5.171-1.889 6.941a19.154 19.154 0 01-.911 2.841 19.485 19.485 0 01.6-2.922c.427-1.792 1.047-4.258 1.759-6.975s1.381-5.17 1.888-6.939a19.447 19.447 0 01.911-2.842z" fill="#e0e0e0"/></g><g data-name="Group 473"><path data-name="Path 257" d="M93.172 197.336a4.46 4.46 0 01-.184 1.012c-.179.734-.4 1.642-.664 2.715-.58 2.287-1.412 5.438-2.358 8.911s-1.826 6.612-2.486 8.878l-.8 2.676a4.469 4.469 0 01-.354.965 4.445 4.445 0 01.184-1.012l.664-2.715c.58-2.287 1.412-5.438 2.358-8.913s1.827-6.61 2.486-8.876l.8-2.677a4.422 4.422 0 01.354-.964z" fill="#e0e0e0"/></g><g data-name="Group 474"><path data-name="Path 258" d="M86.315 221.845a5.185 5.185 0 01-1.039.367c-.676.21-1.66.488-2.881.818a169.013 169.013 0 01-19.361 3.94c-1.252.177-2.268.3-2.971.375a5.186 5.186 0 01-1.1.067 5.062 5.062 0 011.074-.243l2.947-.517c2.488-.431 5.923-1.042 9.7-1.813s7.175-1.548 9.634-2.121l2.915-.677a5.049 5.049 0 011.082-.196z" fill="#e0e0e0"/></g></g></g></g><g data-name="Group 479"><path data-name="Path 261" d="M470.215 48.387a8.829 8.829 0 005.262-8.169 8.3 8.3 0 10-16.563-.077 8.818 8.818 0 005.277 8.246c-12.744 1.919-12.166 15.771-12.166 15.771l30.136.139s.688-14.002-11.946-15.91z" fill="#fdbc00"/></g><g data-name="Group 483"><g data-name="Group 481"><path data-name="Rectangle 103" fill="#fff" d="M242.753 21.829l48.87-4.636 3.125 32.94-48.87 4.636z"/><g data-name="Group 480"><path data-name="Path 262" d="M294.749 50.133s-.033-.213-.078-.609l-.186-1.747-.677-6.635-2.367-23.932.2.165-48.861 4.68c-.049.053.384-.468.2-.243v.061l.006.069.013.137.026.275.052.549.1 1.1q.1 1.095.207 2.181l.409 4.315q.4 4.282.795 8.423l1.488 15.833-.227-.188 35.179-3.234 10.077-.9 2.689-.229.7-.054a2.034 2.034 0 01.246-.011 1.278 1.278 0 01-.219.033l-.673.076-2.644.277-10.014.996-35.3 3.452-.207.02-.02-.208-1.517-15.83q-.394-4.135-.8-8.422-.2-2.141-.41-4.315-.1-1.087-.207-2.18l-.1-1.1-.052-.55-.025-.275-.013-.137-.007-.069V21.846c-.185.219.249-.308.208-.253l48.871-4.59.182-.018.017.182 2.186 24.062.58 6.6.142 1.717c.026.398.031.587.031.587z" fill="#455a64"/></g></g><g data-name="Group 482"><path data-name="Path 263" d="M291.622 17.193a3.2 3.2 0 01-.378.487l-1.152 1.342-4.309 4.894-14.457 16.168-.129.144-.164-.1-1.3-.829-19.129-12.271-5.769-3.762-1.556-1.042a3.564 3.564 0 01-.525-.389 3.506 3.506 0 01.575.312l1.6.971 5.847 3.64 19.2 12.159 1.3.829-.291.04 14.565-16.081 4.415-4.8 1.213-1.286a3.3 3.3 0 01.444-.426z" fill="#455a64"/></g></g><g data-name="Group 486"><g data-name="Group 484"><path data-name="Path 264" d="M182.973 56.501a22.159 22.159 0 00-.494-3.164 12.479 12.479 0 00-1.46-3.433 12.88 12.88 0 00-15.465-5.459 12.866 12.866 0 00-5.954 4.477 12.771 12.771 0 000 15.158 12.872 12.872 0 005.955 4.477 12.922 12.922 0 0015.466-5.459 12.474 12.474 0 001.459-3.433 22.121 22.121 0 00.494-3.164.758.758 0 01.012.212l-.009.623a5.991 5.991 0 01-.081 1.009 9.089 9.089 0 01-.245 1.363 12.308 12.308 0 01-1.413 3.521 13.171 13.171 0 01-8.869 6.274 13.252 13.252 0 01-6.959-.55 13.247 13.247 0 01-6.171-4.608 13.179 13.179 0 010-15.688 13.247 13.247 0 016.17-4.606 13.24 13.24 0 016.959-.55 13.172 13.172 0 018.87 6.273 12.344 12.344 0 011.413 3.521 9.224 9.224 0 01.245 1.363 5.912 5.912 0 01.081 1.01l.009.623a.748.748 0 01-.013.21z" fill="#263238"/></g><g data-name="Group 485"><path data-name="Path 265" d="M200.502 78.281c-.071.105-4.687-2.871-10.31-6.644s-10.127-6.92-10.057-7.024 4.686 2.871 10.311 6.645 10.126 6.919 10.056 7.023z" fill="#263238"/></g></g><g data-name="Group 487"><path data-name="Path 266" d="M239.191 102.345l-10.221-11 3.31-3.077 7.056 7.59 14.817-14.578 3.169 3.221z" fill="#fdbc00"/></g><g data-name="Speech Bubbles"><g data-name="Group 493"><g data-name="Group 488"><path data-name="Path 267" d="M525.966 91.816s.167-.005.5 0l.611.021c.242.022.522.069.84.112a11.156 11.156 0 015.117 2.244 11.466 11.466 0 014.3 7.656 26.5 26.5 0 01.086 2.723q0 1.4.008 2.893l.016 6.3q.009 3.319.014 6.961 0 1.819.007 3.713a13.433 13.433 0 01-.385 3.872 11.448 11.448 0 01-8.641 8.314 20.067 20.067 0 01-4.42.277l-39.066.025.159-.066-8.816 8.818-.389.389v-9.367l.227.228a21.8 21.8 0 01-2.9-.107 11.478 11.478 0 01-2.809-.73 11.527 11.527 0 01-7.021-8.431 14.7 14.7 0 01-.227-2.776v-2.722q0-5.418.006-10.628v-5.147a39.847 39.847 0 01.157-5.051 11.494 11.494 0 019.636-9.578 34.156 34.156 0 014.5-.14l16.317.028 23.557.071 6.388.042 1.659.022c.374.008.565.023.565.023s-.191.016-.565.023l-1.659.022-6.388.042-23.557.072-16.317.027a34.274 34.274 0 00-4.443.148 11.06 11.06 0 00-9.284 9.264 39.837 39.837 0 00-.144 4.986v5.147q0 5.205.006 10.628a32.253 32.253 0 00.221 5.41 11.08 11.08 0 006.75 8.1 11.03 11.03 0 002.7.7 21.263 21.263 0 002.839.1h.228v9.046l-.389-.16 8.818-8.817.067-.066h.094l39.066.025a19.778 19.778 0 004.336-.257 11.087 11.087 0 008.381-8.025 13.054 13.054 0 00.386-3.782q0-1.894.007-3.713l.014-6.961q.006-3.325.016-6.3l.009-2.893a26.357 26.357 0 00-.067-2.7 11.284 11.284 0 00-9.2-9.843c-.315-.049-.592-.1-.832-.132l-.607-.041c-.315-.017-.482-.039-.482-.039z" fill="#263238"/></g><g data-name="Group 492"><g data-name="Group 489"><path data-name="Path 268" d="M491.259 115.766a4.2 4.2 0 01-.165-.592 2.514 2.514 0 00-.926-1.279 2.365 2.365 0 00-2.209-.293 2.31 2.31 0 000 4.329 2.365 2.365 0 002.209-.294 2.513 2.513 0 00.926-1.278 4.152 4.152 0 01.165-.592c.024 0 .077.225.008.635a2.506 2.506 0 01-.9 1.491 2.663 2.663 0 01-2.547.432 2.711 2.711 0 010-5.118 2.658 2.658 0 012.547.432 2.5 2.5 0 01.9 1.491c.065.411.012.638-.008.636z" fill="#263238"/></g><g data-name="Group 490"><path data-name="Path 269" d="M502.858 115.653a4.161 4.161 0 01-.165-.592 2.513 2.513 0 00-.926-1.278 2.365 2.365 0 00-2.209-.294 2.31 2.31 0 000 4.329 2.367 2.367 0 002.209-.293 2.518 2.518 0 00.926-1.279 4.208 4.208 0 01.165-.592c.024 0 .077.226.008.635a2.5 2.5 0 01-.9 1.491 2.659 2.659 0 01-2.547.432 2.712 2.712 0 010-5.118 2.663 2.663 0 012.547.432 2.5 2.5 0 01.9 1.491c.069.411.016.637-.008.636z" fill="#263238"/></g><g data-name="Group 491"><path data-name="Path 270" d="M514.461 115.653a4.151 4.151 0 01-.165-.592 2.513 2.513 0 00-.926-1.278 2.365 2.365 0 00-2.209-.294 2.31 2.31 0 000 4.329 2.367 2.367 0 002.209-.293 2.518 2.518 0 00.926-1.279 4.2 4.2 0 01.165-.592c.024 0 .077.226.008.635a2.5 2.5 0 01-.9 1.491 2.658 2.658 0 01-2.547.432 2.711 2.711 0 010-5.118 2.663 2.663 0 012.547.432 2.5 2.5 0 01.9 1.491c.069.411.016.637-.008.636z" fill="#263238"/></g></g></g><g data-name="Group 495"><g data-name="Group 494"><path data-name="Path 272" d="M114.656 81.502h.006s.042.1.109.29.163.48.286.846l1.091 3.308 4.126 12.688.056.173-.179-.033-17.637-3.229-.122-.022v-.124l.238.119a43.921 43.921 0 01-20.4 8.418 44.422 44.422 0 01-6.255.417 48.13 48.13 0 01-6.5-.544 46.741 46.741 0 01-6.6-1.476l-3.26-1.189a12.424 12.424 0 01-1.609-.7l-1.595-.767a45.335 45.335 0 01-11.778-8.537 43.457 43.457 0 01-8.656-12.6 44.1 44.1 0 0141.842-62.489 43.994 43.994 0 0142.332 41.3 41.893 41.893 0 01-1.2 13.462 42.846 42.846 0 01-2.9 8.05c-.429.88-.77 1.548-1.017 1.969l-.382.669.335-.668c.236-.458.567-1.123.98-2.009a44.427 44.427 0 002.815-8.053 42.009 42.009 0 001.117-13.4 43.855 43.855 0 00-68.06-33.582 43.723 43.723 0 00-15.451 54.562 43.064 43.064 0 008.559 12.485 44.96 44.96 0 0011.655 8.469l1.579.762a12.032 12.032 0 001.593.694l3.228 1.184a46.5 46.5 0 006.534 1.474 47.87 47.87 0 006.44.552 43.747 43.747 0 0026.478-8.695l.238-.179v.3l-.122-.145 17.622 3.307-.123.14c-1.744-5.508-3.1-9.793-4.028-12.719l-1.039-3.326c-.111-.368-.2-.652-.259-.855s-.081-.3-.081-.3h-.006z" fill="#263238"/></g></g><g data-name="Group 506"><g data-name="Group 503"><g data-name="Group 496"><path data-name="Path 273" d="M398.399 44.772a6.921 6.921 0 01-.176-1.555 12.848 12.848 0 00-.208-1.868 18.335 18.335 0 00-.491-2.509 23.5 23.5 0 00-2.605-6.455 24.185 24.185 0 00-6-6.915 23.919 23.919 0 00-22.546-3.874 22.414 22.414 0 00-6.1 3.11 21.767 21.767 0 00-5.148 4.942 23.726 23.726 0 00-.684 28.127 21.776 21.776 0 004.9 5.187 22.425 22.425 0 005.941 3.4 24.1 24.1 0 0029.04-9.392 23.507 23.507 0 002.916-6.321 18.172 18.172 0 00.611-2.482 12.752 12.752 0 00.3-1.855 6.918 6.918 0 01.251-1.545 6.809 6.809 0 01.018 1.568 10.831 10.831 0 01-.174 1.9 16.945 16.945 0 01-.5 2.556 23 23 0 01-2.784 6.582 24.8 24.8 0 01-16.993 11.484 25.03 25.03 0 01-13.133-1.338 23.535 23.535 0 01-6.28-3.545 22.977 22.977 0 01-5.193-5.446 24.933 24.933 0 01.723-29.688 22.991 22.991 0 015.451-5.186 23.546 23.546 0 016.444-3.236 25.026 25.026 0 0113.181-.7 24.794 24.794 0 0116.413 12.294 23.014 23.014 0 012.462 6.709 17.06 17.06 0 01.377 2.578 10.937 10.937 0 01.081 1.9 6.8 6.8 0 01-.094 1.573z" fill="#455a64"/></g><g data-name="Group 497"><path data-name="Path 274" d="M393.506 29.49c.054.076-.387.459-1.239 1.093l-1.574 1.13c-.312.214-.639.455-1 .683l-1.2.629a27.608 27.608 0 01-14.38 3.622l-2.177-.1-2.089-.326c-.341-.058-.682-.1-1.015-.171l-.975-.259c-.641-.179-1.276-.329-1.881-.522a31.5 31.5 0 01-6.1-2.812c-3.278-1.981-4.874-3.784-4.75-3.9.132-.151 1.914 1.358 5.216 3.072a36.726 36.726 0 006.005 2.458c.585.171 1.2.3 1.814.458l.937.233.973.146 2 .294 2.074.084a29.769 29.769 0 0013.916-3.129l1.218-.529c.371-.194.708-.4 1.033-.581l1.669-.921c.928-.489 1.472-.728 1.525-.652z" fill="#455a64"/></g><g data-name="Group 498"><path data-name="Path 275" d="M354.373 59.23c-.054-.075.387-.459 1.239-1.092l1.574-1.13c.312-.214.639-.455 1-.683l1.2-.63a27.609 27.609 0 0114.38-3.622l2.177.1 2.089.326c.341.058.682.1 1.015.171l.975.26c.642.178 1.276.329 1.881.522a31.557 31.557 0 016.1 2.811c3.278 1.982 4.874 3.785 4.75 3.9-.132.151-1.914-1.357-5.216-3.072a36.8 36.8 0 00-6.005-2.458c-.586-.17-1.2-.3-1.814-.457l-.937-.233-.973-.147-2-.294-2.074-.083a29.769 29.769 0 00-13.925 3.127l-1.218.529c-.371.194-.708.4-1.033.581l-1.669.92c-.919.492-1.458.73-1.516.654z" fill="#455a64"/></g><g data-name="Group 499"><path data-name="Path 276" d="M398.385 45.339c-.009.371-10.966.406-24.47.079s-24.448-.9-24.44-1.266 10.964-.406 24.473-.078 24.446.894 24.437 1.265z" fill="#455a64"/></g><g data-name="Group 500"><path data-name="Path 277" d="M372.803 68.61c-.371-.009-.406-10.963-.078-24.461s.894-24.441 1.266-24.432.406 10.96.079 24.464-.896 24.439-1.267 24.429z" fill="#455a64"/></g><g data-name="Group 501"><path data-name="Path 278" d="M372.804 68.573c-.092.143-2.787-1.685-5.9-5.821a32.9 32.9 0 01-4.372-7.938 29.5 29.5 0 01-1.892-10.96 28.044 28.044 0 012.469-10.849 34.018 34.018 0 014.777-7.693c3.294-3.98 6.011-5.745 6.1-5.6.132.153-2.329 2.155-5.353 6.189a36.623 36.623 0 00-4.388 7.6 28.189 28.189 0 00-2.262 10.382 29.8 29.8 0 001.712 10.508 35.29 35.29 0 003.984 7.813c2.835 4.167 5.259 6.221 5.125 6.369z" fill="#455a64"/></g><g data-name="Group 502"><path data-name="Path 279" d="M374.538 19.724c.093-.142 2.787 1.685 5.9 5.822a32.9 32.9 0 014.372 7.937 29.491 29.491 0 011.893 10.96 28.057 28.057 0 01-2.47 10.849 33.98 33.98 0 01-4.777 7.693c-3.294 3.98-6.011 5.745-6.1 5.6-.132-.152 2.329-2.155 5.353-6.188a36.631 36.631 0 004.389-7.6 28.175 28.175 0 002.261-10.382 29.776 29.776 0 00-1.712-10.508 35.336 35.336 0 00-3.983-7.814c-2.839-4.166-5.263-6.221-5.126-6.369z" fill="#455a64"/></g></g><g data-name="Group 505"><g data-name="Group 504"><path data-name="Path 280" d="M349.495 80.608v.006s-.1.032-.3.081l-.868.211-3.392.792-13 2.983-.178.041.049-.176 4.785-17.28.032-.118.123.011-.139.226a43.922 43.922 0 01-6.572-21.07 44.478 44.478 0 01.141-6.267 48.292 48.292 0 011.119-6.424 46.814 46.814 0 012.057-6.439l1.475-3.141a12.276 12.276 0 01.838-1.54l.9-1.52a45.326 45.326 0 019.55-10.972 43.435 43.435 0 0113.321-7.5 44.1 44.1 0 0158.528 47.233 43.991 43.991 0 01-44.9 38.493 41.887 41.887 0 01-13.3-2.39 42.97 42.97 0 01-7.76-3.608c-.838-.506-1.473-.9-1.87-1.188l-.633-.439.635.392c.435.277 1.069.665 1.914 1.155a44.338 44.338 0 007.772 3.52 42.011 42.011 0 0013.251 2.3 43.855 43.855 0 0039.5-64.81A43.722 43.722 0 00359.6 2.93a43.054 43.054 0 00-13.2 7.416 44.968 44.968 0 00-9.472 10.856l-.9 1.5a12.051 12.051 0 00-.833 1.525l-1.466 3.11a46.563 46.563 0 00-2.049 6.378 47.822 47.822 0 00-1.123 6.365 44.159 44.159 0 00-.154 6.215 43.708 43.708 0 006.461 20.932l.158.253-.3-.027.156-.108-4.861 17.258-.129-.135 13.027-2.882 3.4-.739.875-.182c.2-.039.3-.053.3-.053z" fill="#263238"/></g></g></g></g><g data-name="Character 3"><g data-name="Group 542"><path data-name="Path 281" d="M386.367 101.646c-4.278 1-7.021 5.332-7.934 9.63s-.468 8.758-.878 13.132-1.942 9.022-5.623 11.42l3.664 1.06a10 10 0 01-4.3 5.516 8.164 8.164 0 005.005 1.706c-2.156.572-2.752 3.648-1.561 5.534s3.456 2.774 5.618 3.324a14.751 14.751 0 007.789.236c3.549-1.057 6.2-4.175 7.556-7.619s1.605-7.215 1.71-10.916c.263-9.273-.277-18.636-2.643-27.605-.572-2.169-1.364-4.472-3.208-5.75s-5-.76-5.554 1.414" fill="#ffc107"/><path data-name="Path 282" d="M483.106 235.429c-1.015-3.873-6.935-25.659-12.223-39.893-5.869-15.799-17.977-19.057-17.977-19.057-27.261-9.3-51.759-9.357-77.919-.289-.838.261-1.651.538-2.43.842l-.086.03c-19.4 7.616-21.4 28.11-21.4 28.11l-8.152 49.735a10.982 10.982 0 00-.2 1.193l-.078.472h.034a11.646 11.646 0 006.667 11.23c11.393 5.244 22.267 4 31.61.142l-6.788 9.89h80.854l-5.412-13.072 1.8-7.86 12.524 15.071a11.658 11.658 0 005.765 3.759c14.438 1.679 16.775-19.826 14.059-32.337" fill="#002fbb"/><path data-name="Path 283" d="M431.875 171.055s-13.041 65.621-17.64 65.134-26.15-63.894-26.15-63.894 27.55-7.349 43.79-1.24z" fill="#ffbe9d"/><g data-name="Group 530"><g data-name="Group 529"><g data-name="Group 528"><g data-name="Group 522"><g data-name="Group 507"><path data-name="Path 284" d="M394.874 175.904c-.069-7.555-.28-15.507-.28-15.507s-9.742-1.557-11.836-14.243c-2-12.1-.171-40.074-.171-40.074a36.492 36.492 0 0140.646 9.055l-.45 61.369c-.053 7.124-6.219 12.753-13.847 12.639-7.703-.121-13.996-6.039-14.062-13.239z" fill="#ffbe9d"/></g><g data-name="Group 511"><g data-name="Group 508"><path data-name="Path 285" d="M385.817 127.248a1.628 1.628 0 001.581 1.633 1.556 1.556 0 001.669-1.478 1.629 1.629 0 00-1.578-1.635 1.559 1.559 0 00-1.672 1.48z" fill="#263238"/></g><g data-name="Group 510"><g data-name="Group 509"><path data-name="Path 286" d="M383.67 126.091c.2.211 1.431-.709 3.184-.715 1.75-.032 3.041.862 3.23.647.093-.1-.115-.478-.677-.882a4.469 4.469 0 00-2.588-.781 4.293 4.293 0 00-2.533.835c-.536.414-.716.802-.616.896z" fill="#263238"/></g></g></g><g data-name="Group 515"><g data-name="Group 512"><path data-name="Path 287" d="M403.54 128.099a1.628 1.628 0 001.581 1.633 1.556 1.556 0 001.669-1.478 1.629 1.629 0 00-1.578-1.635 1.559 1.559 0 00-1.672 1.48z" fill="#263238"/></g><g data-name="Group 514"><g data-name="Group 513"><path data-name="Path 288" d="M401.958 126.616c.2.211 1.434-.709 3.185-.715 1.75-.032 3.041.862 3.23.647.093-.1-.113-.478-.678-.882a4.47 4.47 0 00-2.587-.781 4.3 4.3 0 00-2.533.835c-.534.414-.716.802-.617.896z" fill="#263238"/></g></g></g><g data-name="Group 517"><g data-name="Group 516"><path data-name="Path 289" d="M395.679 139.65a11.636 11.636 0 00-2.85-.5c-.447-.044-.872-.13-.949-.435a2.278 2.278 0 01.291-1.329l1.3-3.415c1.808-4.863 3.114-8.859 2.917-8.93s-1.821 3.811-3.629 8.675c-.435 1.2-.851 2.341-1.247 3.435a2.6 2.6 0 00-.221 1.757 1.126 1.126 0 00.74.65 3.048 3.048 0 00.76.1 11.37 11.37 0 002.888-.008z" fill="#263238"/></g></g><g data-name="Group 518"><path data-name="Path 290" d="M394.596 160.395a32.3 32.3 0 0016.978-4.64s-4.072 8.748-16.788 7.637z" fill="#eb996e"/></g><g data-name="Group 519"><path data-name="Path 291" d="M396.444 143.87a3.158 3.158 0 012.823-1.19 2.879 2.879 0 012 1.056 1.826 1.826 0 01.152 2.087 2.121 2.121 0 01-2.294.6 6.635 6.635 0 01-2.248-1.323 1.939 1.939 0 01-.5-.515.588.588 0 010-.653" fill="#eb996e"/></g><g data-name="Group 521"><g data-name="Group 520"><path data-name="Path 292" d="M400.842 140.832c-.285-.015-.277 1.887-1.9 3.247s-3.646 1.163-3.659 1.429c-.026.119.453.367 1.309.385a4.738 4.738 0 003.055-1.086 4.126 4.126 0 001.469-2.722c.072-.795-.143-1.265-.274-1.253z" fill="#263238"/></g></g></g><g data-name="Group 523"><path data-name="Path 293" d="M416.391 104.905c-4.528 6.707-16.706 13.735-25.485 15.472 1-1.372 6.356-4.8 7.359-6.174-3.94 3.052-9.582 7.141-14.873 7.5a3.217 3.217 0 01-1.826-.251 2.456 2.456 0 01-.961-1.978 52.957 52.957 0 01.164-11.511 12.737 12.737 0 014.436-8.29c3.347-2.681 8.192-3.413 12.765-3.6a29.031 29.031 0 0111.328 1.32c3.532 1.323 6.581 4.007 7.152 7.289" fill="#ffc107"/></g><g data-name="Group 524"><path data-name="Path 294" d="M431.402 135.617a71.964 71.964 0 001.118-8.509c.258-6.559 2.221-30.229-20.333-27.884l1.277 6.365s-4.2 14.735 5.479 24.676c0 0-2.759 20.763 3.979 27.472 0 0 7.232-15.042 8.481-22.12" fill="#ffc107"/></g><g data-name="Group 525"><path data-name="Path 295" d="M418.655 129.167a7.575 7.575 0 014.089.237 5.287 5.287 0 013.009 2.7 5.523 5.523 0 01.06 4.059 9.357 9.357 0 01-2.292 3.428 6.34 6.34 0 01-2.456 1.651 3.025 3.025 0 01-2.83-.422" fill="#ffbe9d"/></g><g data-name="Group 527"><g data-name="Group 526"><path data-name="Path 296" d="M419.459 137.394c-.155.052.44.869 1.68.527a2.671 2.671 0 001.526-1.349 6.045 6.045 0 00.662-2.257 3.552 3.552 0 00-.589-2.387 2.361 2.361 0 00-1.791-1.042c-1.277-.021-1.667.866-1.522.891.1.1.6-.356 1.433-.16a2.29 2.29 0 011.431 2.614c-.143 1.4-.672 2.68-1.414 3-.775.402-1.335.047-1.416.163z" fill="#eb996e"/></g></g></g></g></g><g data-name="Group 531"><path data-name="Path 297" d="M374.162 237.024c-.126 0-.228-5.156-.228-11.514s.1-11.514.228-11.514.228 5.154.228 11.514-.102 11.514-.228 11.514z" fill="#fff"/></g><g data-name="Group 533"><g data-name="Group 532" fill="#ffbe9d"><path data-name="Path 298" d="M407.022 213.525s-11.35.125-12.067 2.638c-1.189 4.171.936 27.035.936 27.035l10.456 3.472s5.043-1.163 2.716-10.862a70.917 70.917 0 00-6.913-17.457s13.9.388 13.508-2.716-8.636-2.11-8.636-2.11z"/><path data-name="Path 299" d="M402.506 220.272c.626-.119 14.517-1.269 13.644.951S402.506 224 402.506 224z"/></g><path data-name="Path 300" d="M447.128 186.643l-1.713 43.383-6.337 16.648-38.93.807-1.573-53.727z" fill="#263238"/></g><g data-name="Group 534"><path data-name="Path 301" d="M394.055 228.813a2.4 2.4 0 01-.477.246l-1.4.625-5.185 2.22-17.173 7.164-9.476 3.894a54.873 54.873 0 00-7.567 3.48 14.711 14.711 0 00-4.233 3.6c-.8 1.053-1.09 1.74-1.137 1.714a2.333 2.333 0 01.207-.5 8.372 8.372 0 01.788-1.325 14.166 14.166 0 014.208-3.77 51.842 51.842 0 017.575-3.593l9.462-3.928 17.224-7.041 5.241-2.086 1.434-.546a2.334 2.334 0 01.509-.154z" fill="#fff"/></g><g data-name="Group 535"><path data-name="Path 302" d="M406.925 245.81a7.645 7.645 0 01-.852 1.044 59.591 59.591 0 01-2.516 2.668c-2.175 2.206-5.326 5.106-8.949 8.138s-7.023 5.631-9.526 7.452a104.505 104.505 0 01-2.991 2.117 7.645 7.645 0 01-1.141.714 7.693 7.693 0 011.037-.859l2.9-2.231c2.451-1.884 5.808-4.521 9.427-7.544s6.79-5.877 9.015-8.018c1.12-1.062 2-1.947 2.613-2.559a7.585 7.585 0 01.983-.922z" fill="#fff"/></g><g data-name="Group 536"><path data-name="Path 303" d="M465.557 273.571c-.1.082-5.807-6.462-12.755-14.616s-12.506-14.83-12.41-14.912 5.806 6.461 12.757 14.617 12.504 14.829 12.408 14.911z" fill="#fff"/></g><g data-name="Group 537"><path data-name="Path 304" d="M476.56 242.052a7.524 7.524 0 01-1.266-.45c-.8-.314-1.955-.8-3.364-1.435-2.819-1.263-6.652-3.155-10.737-5.514s-7.636-4.741-10.137-6.553a78.845 78.845 0 01-2.922-2.2 7.672 7.672 0 01-1.021-.872 7.589 7.589 0 011.127.729l3 2.079c2.543 1.741 6.111 4.067 10.18 6.423s7.866 4.281 10.644 5.617l3.3 1.564a7.57 7.57 0 011.196.612z" fill="#fff"/></g><g data-name="Group 538"><path data-name="Path 305" d="M456.413 232.539c-.125.016-.808-4.615-1.525-10.341s-1.2-10.384-1.074-10.4.808 4.614 1.525 10.343 1.2 10.378 1.074 10.398z" fill="#fff"/></g><g data-name="Group 539"><path data-name="Path 306" d="M423.482 137.31a2.674 2.674 0 01-.36.555l-1.108 1.49-4.031 5.229-.033-.281 6.573 5.164.6.471-.319.038 5.687-7.126.031.263-4.282-3.489-1.174-.993c-.266-.234-.4-.365-.389-.381a2.012 2.012 0 01.46.292l1.237.913 4.381 3.363.149.115-.117.15-5.625 7.175-.141.179-.179-.142-.6-.47-6.538-5.207-.158-.127.125-.154 4.161-5.128 1.2-1.421a2.72 2.72 0 01.45-.478z" fill="#263238"/></g><g data-name="Group 541"><g data-name="Group 540"><path data-name="Path 307" d="M440.182 243.393a154.338 154.338 0 01-18.795-2.014c-7.365-1.177-7.285-1.845-7.023-2.687.7-2.261 13.023 1.576 10.813-.793s-15.565-2.931-14.733-5.262c1.085-3.037 13.914 1.218 15.024 1.5 1.078.272 1.511-1.327.5-1.524-1.458-.285-16.708-3.661-15.671-6.656.575-1.659 3.447-.269 3.447-.269s14.064 4.217 14.506 2.786c.45-1.453-7.731-4.208-10.55-4.942-2.786-.725-3.608-2.353-2.295-3.327.9-.665 9.578 1.375 12.35 2.166s10.342 3.095 7.454-1.094c-.046-.066-.08-.131-.123-.2-2.956-4.047-3.893-8.144-3.357-9.514a1.732 1.732 0 013.115.01 1.758 1.758 0 01.285.669c.02.108.074.247.106.364a24.982 24.982 0 002.553 4.455 13.52 13.52 0 003.189 3.3c1.438 1.046 5.065 4.879 6.159 5.561" fill="#ffbe9d"/></g></g></g></g><g data-name="Character 2"><g data-name="Group 583"><g data-name="Group 568"><g data-name="Group 555"><g data-name="Group 554"><g data-name="Group 549"><g data-name="Group 548"><g data-name="Group 543"><path data-name="Path 308" d="M179.731 191.797a15.36 15.36 0 01-15.075-14.891c-.206-6.822-.361-13.39-.361-13.39s-12.523-1.163-13.441-13.556-.526-41-.526-41a43.188 43.188 0 0143.647 2.772l1.925 1.3-.532 63.54a15.358 15.358 0 01-15.637 15.225z" fill="#ffbe9d"/></g><g data-name="Group 545"><g data-name="Group 544"><path data-name="Path 309" d="M163.982 142.323a8.3 8.3 0 00-2.8-.415c-.45-.021-.807-.1-.854-.339a2.446 2.446 0 01.242-1.3l1.136-3.554c1.561-5.06 2.619-9.225 2.361-9.3s-1.73 3.957-3.292 9.017l-1.063 3.577a2.859 2.859 0 00-.13 1.872 1.172 1.172 0 00.814.666 2.85 2.85 0 00.768.053 8.3 8.3 0 002.818-.277z" fill="#263238"/></g></g><g data-name="Group 546"><path data-name="Path 310" d="M169.651 143.868a41.788 41.788 0 01-8.226 2.95 4.728 4.728 0 005.686 1.535c3.624-1.586 2.54-4.485 2.54-4.485z" fill="#fff"/></g><g data-name="Group 547"><path data-name="Path 311" d="M164.263 163.338a28.9 28.9 0 0015.883-5.591s-3.271 9.161-15.716 8.808z" fill="#eb996e"/></g></g></g><g data-name="Group 553"><g data-name="Group 550"><path data-name="Path 312" d="M195.211 128.355a1.873 1.873 0 011.79-1.877c2.314-.064 6.1.855 6.455 7.241.508 9.123-8.268 6.847-8.3 6.587-.022-.205.031-8.406.055-11.951z" fill="#ffbe9d"/></g><g data-name="Group 552"><g data-name="Group 551"><path data-name="Path 313" d="M197.168 136.721c.038-.031.165.1.441.211a1.6 1.6 0 001.189-.042c.943-.408 1.67-1.983 1.623-3.629a5.249 5.249 0 00-.572-2.251 1.839 1.839 0 00-1.263-1.153.81.81 0 00-.914.487c-.109.263-.04.441-.088.459-.025.025-.2-.142-.152-.523a1.016 1.016 0 01.327-.591 1.2 1.2 0 01.866-.282 2.239 2.239 0 011.739 1.322 5.415 5.415 0 01.692 2.512c.044 1.841-.8 3.615-2.1 4.07a1.7 1.7 0 01-1.468-.161c-.291-.21-.351-.411-.32-.429z" fill="#eb996e"/></g></g></g></g></g><g data-name="Group 559"><g data-name="Group 556"><path data-name="Path 314" d="M154.209 129.965a1.685 1.685 0 001.741 1.58 1.611 1.611 0 001.623-1.637 1.685 1.685 0 00-1.738-1.581 1.613 1.613 0 00-1.626 1.638z" fill="#263238"/></g><g data-name="Group 558"><g data-name="Group 557"><path data-name="Path 315" d="M151.351 128.278c.224.2 1.43-.828 3.238-.951 1.8-.15 3.2.686 3.377.451.089-.105-.151-.485-.759-.865a4.621 4.621 0 00-2.723-.632 4.433 4.433 0 00-2.557 1.031c-.525.466-.685.876-.576.966z" fill="#263238"/></g></g></g><g data-name="Group 563"><g data-name="Group 560"><path data-name="Path 316" d="M172.179 129.654a1.685 1.685 0 001.741 1.58 1.61 1.61 0 001.623-1.637 1.684 1.684 0 00-1.738-1.581 1.612 1.612 0 00-1.626 1.638z" fill="#263238"/></g><g data-name="Group 562"><g data-name="Group 561"><path data-name="Path 317" d="M169.702 128.278c.224.2 1.431-.828 3.238-.951 1.8-.15 3.2.686 3.377.451.089-.105-.149-.485-.759-.865a4.622 4.622 0 00-2.723-.632 4.438 4.438 0 00-2.558 1.031c-.522.466-.683.876-.575.966z" fill="#263238"/></g></g></g><path data-name="Path 319" d="M181.662 104.673a10.859 10.859 0 002.065 11.641c1.223 1.266 2.759 2.227 3.817 3.634 2.192 2.914 1.835 6.92 2.177 10.55a7.024 7.024 0 001.79 4.61c1.238 1.146 3.547 1.225 4.408-.226a4.385 4.385 0 00.455-1.456l2.28-12.127c.57-3.032 1.141-6.142.616-9.182a12.965 12.965 0 00-16.2-10.3" fill="#263238"/><path data-name="Path 320" d="M183.565 102.112c-4.208-.806-6.571-2.15-9.548-3.492a14 14 0 00-9.484-1.077c-2.118.6-4.124 1.871-6.307 1.85-2.165-.021-4.108-1.309-6.18-1.964a11.02 11.02 0 00-8.565.876 7.325 7.325 0 00-4.04 5.571c-.172 2.447 2.013 4.983 4.2 4.288-2.289.8-3.221 4.167-2.076 6.421a5.878 5.878 0 006.168 2.9 11.161 11.161 0 006.178-3.766c.055 2.729 2.791 4.648 5.325 4.566s4.832-1.6 6.925-3.166 4.211-3.272 6.7-3.826a52.542 52.542 0 015.283-.389 5.553 5.553 0 004.48-2.651c.85-1.678 4.217-3.6 2.452-3.647" fill="#263238"/><g data-name="Group 565"><path data-name="Path 321" d="M158.647 115.55a10.057 10.057 0 00.935.5 4.476 4.476 0 002.808-.009 7.511 7.511 0 001.809-.8c.613-.368 1.232-.836 1.9-1.318a15.654 15.654 0 012.2-1.4 6.317 6.317 0 012.749-.69c1.949-.035 3.712.491 5.307.347a4.805 4.805 0 003.572-1.939 5.278 5.278 0 001.062-2.624c.07-.678 0-1.062.046-1.067.016 0 .041.09.077.272a3.489 3.489 0 01.054.808 5.156 5.156 0 01-.98 2.8 5.212 5.212 0 01-1.512 1.432 5.1 5.1 0 01-2.282.734c-1.7.17-3.487-.35-5.329-.31a8.263 8.263 0 00-4.715 1.979c-.67.471-1.3.933-1.951 1.3a7.571 7.571 0 01-1.916.782 4.451 4.451 0 01-2.96-.139 2.679 2.679 0 01-.68-.449c-.143-.13-.206-.202-.194-.209z" fill="#263238"/></g><g data-name="Group 566"><path data-name="Path 322" d="M182.29 97.787a17.828 17.828 0 00.253 2.906 17.9 17.9 0 001.142 2.685 5 5 0 01-1.4-5.591z" fill="#263238"/></g><g data-name="Group 567"><path data-name="Path 323" d="M186.957 97.596c.1.1-1.033 1.169-1.877 2.842-.865 1.664-1.073 3.2-1.21 3.185a7.319 7.319 0 013.088-6.027z" fill="#263238"/></g></g><path data-name="Path 324" d="M245.472 227.364l19.051 49.021h-29.162l-13.591-34.9z" fill="#b78876"/><path data-name="Path 325" d="M142.204 187.563s-25.1 25.863-35.98 25.863c-3.551 0-6.337-43.075-6.38-55.492a16.029 16.029 0 012.443-4.459 20.758 20.758 0 013.155-3.486 21.718 21.718 0 014.926-3.18c1.7-.6 1.838-2.92.294-3.383s-6.262 1.069-10.482 5.073-2.956-4.954-2.555-8.224 1.169-13.438.26-14.331c-1.334-1.31-3.027-.094-3.353 3.18-.329 3.314-1.993 13.042-3.713 12.791-1.7-.246.578-16.876.578-16.876s1.062-3.491-.915-3.846c-3.565-.642-4.677 17.181-4.741 18.878-.044 1.181-1.925.976-1.809-.29.119-1.3 2.653-16.546-.969-17.233-2.78-.528-1.053 14.655-3.335 17.571s-.131-11.677-2.811-12.072c-1-.146-1.764-.117-1.79 8.409-.014 4.582 1.747 11.505 1.069 20.33 1.16 26.043-.12 99.188 28.863 90.517 31.872-9.536 53.644-30.412 53.644-30.412z" fill="#ffbe9d"/><g data-name="Group 569"><path data-name="Path 326" d="M212.546 210.742a4.724 4.724 0 01.285 1.029c.156.669.355 1.641.581 2.847.453 2.411.983 5.761 1.4 9.483s.625 7.109.71 9.561c.043 1.226.06 2.219.054 2.9a4.793 4.793 0 01-.053 1.067 4.792 4.792 0 01-.124-1.061l-.2-2.894c-.166-2.443-.431-5.815-.84-9.528s-.889-7.059-1.26-9.48l-.438-2.868a4.876 4.876 0 01-.115-1.056z" fill="#263238"/></g><g data-name="Group 582"><g data-name="Group 575"><g data-name="Group 574"><g data-name="Group 573"><g data-name="Group 572"><g data-name="Group 571"><g data-name="Group 570"><path data-name="Path 327" d="M137.948 276.384l80.275.409-2.705-16.947a130.732 130.732 0 00-.119-24.167l4.064 11.022 33.179-16.589s-12.062-32.163-22.157-43.055c-12.758-13.764-35.707-12.4-35.707-12.4l-15.51 10.536-14.275-10.053a69.368 69.368 0 00-22.056 6.42l-.735.214.006.153c-8.419 4.4-20.428 15.119-31.872 25.523l13.207 12.857 14.629 13.625a12.18 12.18 0 012.5-.108c.247 1.441-2.724 42.56-2.724 42.56z" fill="#002fbb"/></g></g></g></g></g><path data-name="Path 328" d="M212.936 205.606l10.907 38.9-4.38 2.19-4.064-11.022s-3.947-23.06-2.463-30.068z" opacity=".2"/></g><path data-name="Path 329" d="M164.106 174.959v-4.2s12.535-.971 15.074 13.836c0 0 4.084-13.836 16.247-15.221l1.734 6.468s-5.762 18.017-6.6 18.171-11.383 3.234-11.383 3.234l-6.11-1.388-6.787-7.724z" fill="#002fbb"/><g data-name="Group 576"><path data-name="Path 330" d="M197.449 175.345a4.4 4.4 0 01-.692.733c-.458.457-1.125 1.11-1.911 1.953a44.655 44.655 0 00-5.434 7.148 46.859 46.859 0 00-1.072 1.855l-.2.364-.194-.363-3.565-6.678a2.952 2.952 0 00-.8-.913 1.788 1.788 0 00-.843-.307 1.894 1.894 0 00-.765.136c-.018 0 .2-.281.77-.3a1.861 1.861 0 01.962.273 3.064 3.064 0 01.925.948c.99 1.651 2.251 3.973 3.712 6.622h-.395c.333-.613.69-1.247 1.078-1.88a38.631 38.631 0 015.592-7.134 33.476 33.476 0 012.023-1.861 4.248 4.248 0 01.809-.596z" fill="#263238"/></g><g data-name="Group 577"><path data-name="Path 331" d="M163.296 176.091a3.227 3.227 0 01.6.631c.361.425.873 1.048 1.5 1.826a395.06 395.06 0 014.8 6.125l.3.386-.38.029a15.7 15.7 0 001.032-3.9 4.62 4.62 0 011.732-2.92 2.556 2.556 0 012.258-.29 1.643 1.643 0 01.529.34c.095.109.137.169.126.179a3.836 3.836 0 00-.712-.356 2.453 2.453 0 00-2.026.389 4.41 4.41 0 00-1.5 2.751 14.891 14.891 0 01-1.036 4.028l-.165.31-.216-.281-.3-.385a373.423 373.423 0 01-4.694-6.208 90.102 90.102 0 01-1.382-1.913 3.185 3.185 0 01-.466-.741z" fill="#263238"/></g><g data-name="Group 578"><path data-name="Path 332" d="M172.207 276.384a.906.906 0 01-.007-.238l.027-.7.146-2.674.622-9.831 2.226-32.424 2.36-32.422.767-9.821c.1-1.132.176-2.023.232-2.668l.072-.693a.916.916 0 01.04-.235.938.938 0 01.006.238l-.026.7-.146 2.675-.623 9.83-2.226 32.428-2.359 32.415-.768 9.822c-.1 1.132-.176 2.024-.232 2.669l-.072.694a.946.946 0 01-.039.235z" fill="#263238"/></g><g data-name="Group 579"><path data-name="Path 333" d="M143.395 198.531a8.3 8.3 0 01-.077 1.392l-.3 3.779c-.241 3.193-.482 7.609-.756 12.49s-.567 9.3-.89 12.493a80.304 80.304 0 01-.445 3.772 8.1 8.1 0 01-.254 1.371 8.294 8.294 0 01.077-1.392l.3-3.779c.241-3.192.482-7.609.756-12.491s.567-9.3.89-12.491c.154-1.6.315-2.885.445-3.772a8.1 8.1 0 01.254-1.372z" fill="#263238"/></g><g data-name="Group 580" fill="#ffc107"><path data-name="Path 334" d="M178.29 182.483s-4.3 5.622-3.674 6.467 3.674 4.9 3.674 4.9h2.614s2.452-6.878 1.821-7.751a38.627 38.627 0 00-4.435-3.616z"/><path data-name="Path 335" d="M184.898 180.963l-4.75 3.718 1.821 3.487 4.888-3.6z"/><path data-name="Path 336" d="M170.943 183.308l4.332 3.618 2.4-3.618-5.471-4.156z"/><path data-name="Path 337" d="M178.288 193.853l-6.612 59.207 6.5 20.591 8.674-20.4-5.709-60.1z"/></g><g data-name="Group 581"><path data-name="Path 338" d="M224.521 182.839a6 6 0 00-.857-.586 3.7 3.7 0 00-2.719-.154 8.446 8.446 0 00-3.389 2.391 20 20 0 00-3.1 4.138 20.933 20.933 0 00-2.624 8.975c-.145 2.42.167 3.914.069 3.925a4.776 4.776 0 01-.228-1.04 17.206 17.206 0 01-.164-2.9 19.961 19.961 0 012.548-9.184 19.34 19.34 0 013.2-4.211 8.483 8.483 0 013.6-2.4 3.756 3.756 0 012.894.306 2.486 2.486 0 01.621.509c.113.144.16.231.149.231z" fill="#263238"/></g></g></g></g><g data-name="Character 1"><g data-name="Group 622"><path data-name="Path 339" d="M287.069 109.585c-5.6 3.439-9.5 9.192-11.812 15.346s-3.186 12.745-3.87 19.286a375.46 375.46 0 00-1.813 52.01c21.212 2.684 42.584 5.374 63.915 3.922-3.7-24.358-6.041-48.686-3.078-73.143" fill="#263238"/><g data-name="Group 597"><g data-name="Group 585"><g data-name="Group 584"><path data-name="Path 340" d="M334.709 312.019l-15.44-31.232 5.9-22.84c.692 4.84 1.308 9.041 1.308 9.041l33.127-1.752a2.1 2.1 0 001.971-2.395L355.1 217.15s-2.07-21.194-22.135-29.07c-.03-.01-.059-.019-.088-.031-.806-.314-1.648-.6-2.513-.871-27.055-9.378-52.389-9.322-80.582.3 0 0-12.524 3.369-18.594 19.707s-12.275 40.36-12.275 40.36l28.127 9.932.186-4.749 6.216 23.768-13.634 34.622 47.565 1.174z" fill="#ffc107"/></g></g><path data-name="Path 341" d="M218.974 247.258l-3.156 14.918c-2.713 12.823 6.78 25.986 19.8 27.459l69.23 7.107a27.509 27.509 0 0030.5-24.936l-87.289-8.324.547-8.376z" fill="#ffc107"/><path data-name="Path 342" d="M305.55 262.482l5.377-1s12.746-13.941 15.135-14.139c1.967-.164 12.81-.058 16.586-.016a1.313 1.313 0 011.3 1.315 1.314 1.314 0 01-1.263 1.313l-12.81.5-.061 1.031 12.828.171c1.306.1 2.143 2.169-2.037 2.542l-10.73.382v.668l10.879 1.52c.55.077 2 .358 2.009.913 0 0 .658 1.364-2.442 1.751-1.063.133-10.508-.181-10.508-.181l.364.85 9.778 2.109a1.389 1.389 0 011.083 1.552 1.389 1.389 0 01-1.5 1.19l-10.453-.971-10.252 8.189h-13.71z" fill="#ffbe9d"/><path data-name="Path 343" d="M271.525 180.768s13.487 68.962 18.243 68.459 27.043-66.078 27.043-66.078-28.491-8.698-45.286-2.381z" fill="#fafafa"/><g data-name="Group 586"><path data-name="Path 344" d="M331.21 247.522c-.126 0-.228-4.756-.228-10.621s.1-10.622.228-10.622.228 4.755.228 10.622-.102 10.621-.228 10.621z" fill="#263238"/></g><g data-name="Group 587"><path data-name="Path 345" d="M248.414 247.969a20.433 20.433 0 01.283-3.057c.232-1.882.585-4.478 1-7.342s.82-5.454 1.133-7.324a20.422 20.422 0 01.6-3.013 20.571 20.571 0 01-.283 3.06c-.233 1.882-.585 4.477-1 7.34s-.819 5.45-1.133 7.32a20.627 20.627 0 01-.6 3.016z" fill="#263238"/></g><g data-name="Group 588"><path data-name="Path 346" d="M287.374 312.291a3.32 3.32 0 01-.041-.638l-.031-1.833c-.013-1.59 0-3.893.058-6.736.105-5.688.412-13.54.8-22.208s.749-16.517.936-22.2c.084-2.8.153-5.089.2-6.729l.055-1.83a3.335 3.335 0 01.051-.639 3.432 3.432 0 01.041.639c.008.464.017 1.072.031 1.832.012 1.59 0 3.893-.058 6.736-.105 5.688-.413 13.541-.8 22.211s-.749 16.514-.936 22.2c-.084 2.8-.153 5.089-.2 6.729l-.055 1.831a3.413 3.413 0 01-.051.635z" fill="#263238"/></g><g data-name="Group 589"><path data-name="Path 347" d="M316.697 183.011c.023 0 .046.3.149.857a12.5 12.5 0 00.69 2.381 26.585 26.585 0 001.746 3.523 47.959 47.959 0 012.481 4.621 11.133 11.133 0 011.05 6.264 8.06 8.06 0 01-1.406 3.3 22.04 22.04 0 01-2.471 2.855 43.9 43.9 0 00-5.248 6.024 14.311 14.311 0 00-2.708 7.923 9.8 9.8 0 00.926 4.151 37 37 0 011.7 3.926 5.88 5.88 0 01.277 2.125 4.409 4.409 0 01-.663 2.011 10.947 10.947 0 01-2.912 2.733l-10.964 8.08-7.416 5.415-2.03 1.454-.535.369a.856.856 0 01-.192.113.84.84 0 01.164-.151l.508-.405 1.98-1.522 7.329-5.532 10.907-8.158a10.635 10.635 0 002.793-2.626 3.954 3.954 0 00.591-1.813 5.447 5.447 0 00-.263-1.963 37.378 37.378 0 00-1.686-3.874 10.239 10.239 0 01-.967-4.333 14.712 14.712 0 012.794-8.173 43.737 43.737 0 015.319-6.069c1.792-1.784 3.448-3.689 3.8-5.925a10.865 10.865 0 00-.974-6.071 49.986 49.986 0 00-2.408-4.624 25.28 25.28 0 01-1.69-3.584 11.249 11.249 0 01-.614-2.43 5.9 5.9 0 01-.059-.649.812.812 0 01.002-.223z" fill="#263238"/></g><g data-name="Group 590"><path data-name="Path 348" d="M289.715 248.523a.731.731 0 01-.214-.024l-.618-.116a20.983 20.983 0 01-2.334-.64 23.436 23.436 0 01-7.7-4.415 22.719 22.719 0 01-7.06-11.02 23.539 23.539 0 01-.914-7.757 26.461 26.461 0 01.55-4.1 9.421 9.421 0 00.115-4.092 3.335 3.335 0 00-1.062-1.652 5.584 5.584 0 00-1.8-.9c-.65-.22-1.326-.4-1.978-.67a5.716 5.716 0 01-1.773-1.149 6.97 6.97 0 01-1.8-3.617 14.807 14.807 0 01-.213-3.846 53.432 53.432 0 016.547-20.963c.52-.912.938-1.611 1.243-2.072l.345-.526c.08-.116.124-.174.131-.17a.819.819 0 01-.091.2l-.306.548a74.753 74.753 0 00-1.166 2.11 57.992 57.992 0 00-3.529 8.115 53.816 53.816 0 00-2.755 12.789 14.452 14.452 0 00.22 3.732 6.547 6.547 0 001.687 3.387 5.252 5.252 0 001.633 1.051c.616.256 1.28.431 1.95.656a6 6 0 011.942.979 3.786 3.786 0 011.21 1.877 9.763 9.763 0 01-.107 4.3 26.261 26.261 0 00-.55 4.042 23.234 23.234 0 00.871 7.618 22.671 22.671 0 006.868 10.893 24.039 24.039 0 007.543 4.491c.983.353 1.764.579 2.3.718l.607.159a.768.768 0 01.208.064z" fill="#263238"/></g><path data-name="Path 349" d="M326.137 262.578l-57.993-1.874.088 19.243 38.4 8.444 27.017 4.313c16.79 0 30.222-15.411 27.621-32l-.071.019z" fill="#ffc107"/><g data-name="Group 591"><path data-name="Path 350" d="M342.102 262.209a4.675 4.675 0 01-.752.053l-2.156.061-7.929.144c-6.7.1-15.947.211-26.166.114s-19.474-.47-26.157-.922c-3.341-.223-6.044-.439-7.907-.627l-2.145-.22a4.633 4.633 0 01-.746-.108 4.672 4.672 0 01.754.016l2.151.135c1.868.133 4.571.3 7.913.481 6.684.37 15.927.688 26.143.789s19.462.035 26.158.02h7.93l2.156.025a4.674 4.674 0 01.753.039z" fill="#263238"/></g><path data-name="Path 351" d="M267.652 262.482l-5.376-1s-12.746-13.941-15.136-14.139c-1.967-.164-12.81-.058-16.586-.016a1.313 1.313 0 00-1.3 1.315 1.315 1.315 0 001.264 1.313l12.81.5.06 1.031-12.828.171c-1.307.1-2.143 2.169 2.037 2.542l10.73.382v.668l-10.879 1.52c-.55.077-2 .358-2.009.913 0 0-.659 1.364 2.441 1.751 1.064.133 10.508-.181 10.508-.181l-.363.85-9.778 2.109a1.389 1.389 0 00-1.083 1.552 1.389 1.389 0 001.5 1.19l10.454-.971 10.252 8.189h13.706z" fill="#ffbe9d"/><g data-name="Group 592"><path data-name="Path 352" d="M332.618 292.398a3.533 3.533 0 01-.658-.039l-1.877-.2c-1.63-.18-3.982-.48-6.885-.882-5.807-.8-13.808-2.074-22.587-3.793s-16.67-3.568-22.35-5.018a271.668 271.668 0 01-6.708-1.783l-1.814-.522a3.611 3.611 0 01-.624-.212 3.441 3.441 0 01.648.123l1.835.439 6.741 1.642c5.7 1.369 13.589 3.161 22.361 4.884s16.754 3.038 22.546 3.922l6.861 1.026 1.866.285a3.754 3.754 0 01.645.128z" fill="#263238"/></g><g data-name="Group 593"><path data-name="Path 353" d="M268.752 280.035a14.831 14.831 0 01-.5-2.741c-.234-1.7-.479-4.072-.614-6.7s-.135-5-.077-6.723a14.938 14.938 0 01.217-2.779 19.247 19.247 0 01.105 2.78c.025 1.716.076 4.085.21 6.7s.328 4.974.48 6.683a19.329 19.329 0 01.179 2.78z" fill="#263238"/></g><g data-name="Group 594"><path data-name="Path 354" d="M275.094 280.788a2.54 2.54 0 01-.255-.731c-.137-.477-.3-1.175-.486-2.044a49.759 49.759 0 01-.84-13.81c.074-.884.156-1.6.235-2.088a2.554 2.554 0 01.164-.756 24.5 24.5 0 01-.076 2.864c-.067 1.763-.091 4.2.071 6.888s.485 5.1.765 6.845a24.759 24.759 0 01.422 2.832z" fill="#263238"/></g><g data-name="Group 595"><path data-name="Path 355" d="M269.737 264.177c.049.053-.286.294-.274.845a1.042 1.042 0 00.354.781.94.94 0 001.435-.828 1.038 1.038 0 00-.5-.7c-.471-.287-.846-.118-.868-.186-.052-.03.353-.377 1.015-.1a1.313 1.313 0 01.765.91 1.33 1.33 0 01-2.121 1.222 1.317 1.317 0 01-.4-1.118c.091-.709.596-.885.594-.826z" fill="#263238"/></g><g data-name="Group 596"><path data-name="Path 356" d="M280.28 283.636a3.028 3.028 0 01-.6.019 47.09 47.09 0 00-1.7.005 46.527 46.527 0 00-6.224.585 91.6 91.6 0 00-9.061 2.012c-3.382.892-7.082 1.976-11.043 2.838a47.235 47.235 0 01-11.355 1.231 28.4 28.4 0 01-9.158-1.751 20.47 20.47 0 01-5.479-3.085 14.394 14.394 0 01-1.273-1.146 2.849 2.849 0 01-.4-.438c.038-.039.6.557 1.784 1.443a21.58 21.58 0 005.483 2.924 28.766 28.766 0 009.057 1.633 48.079 48.079 0 0011.246-1.257c3.939-.858 7.639-1.927 11.033-2.8a84.756 84.756 0 019.119-1.924 40.794 40.794 0 016.272-.444c.742.017 1.318.041 1.707.081a2.925 2.925 0 01.592.074z" fill="#263238"/></g></g><g data-name="Group 621"><g data-name="Group 620"><g data-name="Group 619"><g data-name="Group 613"><g data-name="Group 598"><path data-name="Path 357" d="M305.79 188.889c1.379-7.69 2.971-15.761 2.971-15.761s10.2.1 14.534-12.471c4.131-11.988 7.115-40.828 7.115-40.828a37.74 37.74 0 00-43.01 2.192l-10.169 62.645c-1.181 7.272 4.133 14.079 11.929 15.284 7.874 1.216 15.316-3.733 16.63-11.061z" fill="#ffbe9d"/></g><g data-name="Group 602"><g data-name="Group 599"><path data-name="Path 358" d="M322.822 141.433a1.684 1.684 0 01-1.894 1.392 1.611 1.611 0 01-1.447-1.8 1.685 1.685 0 011.892-1.393 1.613 1.613 0 011.449 1.801z" fill="#263238"/></g><g data-name="Group 601"><g data-name="Group 600"><path data-name="Path 359" d="M325.835 140.046c-.243.18-1.336-.971-3.122-1.28-1.779-.335-3.251.352-3.406.1-.078-.114.2-.467.844-.782a4.618 4.618 0 012.773-.348 4.436 4.436 0 012.437 1.29c.48.517.596.941.474 1.02z" fill="#263238"/></g></g></g><g data-name="Group 606"><g data-name="Group 603"><path data-name="Path 360" d="M304.496 138.527a1.683 1.683 0 01-1.894 1.392 1.611 1.611 0 01-1.446-1.8 1.685 1.685 0 011.892-1.393 1.612 1.612 0 011.448 1.801z" fill="#263238"/></g><g data-name="Group 605"><g data-name="Group 604"><path data-name="Path 361" d="M307.107 137.414c-.244.179-1.338-.971-3.123-1.281-1.779-.334-3.25.353-3.406.1-.078-.113.2-.466.845-.782a4.621 4.621 0 012.773-.347 4.442 4.442 0 012.438 1.29c.467.517.585.941.473 1.02z" fill="#263238"/></g></g></g><g data-name="Group 608"><g data-name="Group 607"><path data-name="Path 362" d="M311.248 151.79a12.045 12.045 0 012.991-.012c.464.033.911.018 1.042-.278a2.36 2.36 0 00-.066-1.4l-.737-3.708c-1-5.27-1.641-9.572-1.428-9.61s1.2 4.2 2.2 9.473l.676 3.719a2.683 2.683 0 01-.079 1.83 1.161 1.161 0 01-.867.535 3.143 3.143 0 01-.793-.029 11.769 11.769 0 01-2.939-.52z" fill="#263238"/></g></g><g data-name="Group 609"><path data-name="Path 363" d="M308.76 173.128a33.405 33.405 0 01-16.506-7.671s2.637 9.624 15.794 10.694z" fill="#eb996e"/></g><g data-name="Group 610"><path data-name="Path 364" d="M309.736 155.959a3.267 3.267 0 00-2.673-1.7 2.981 2.981 0 00-2.219.731 1.888 1.888 0 00-.516 2.1 2.191 2.191 0 002.235 1 6.857 6.857 0 002.521-.959 2 2 0 00.6-.438.606.606 0 00.115-.665" fill="#eb996e"/></g><g data-name="Group 612"><g data-name="Group 611"><path data-name="Path 365" d="M305.778 152.1c.293.034-.045 1.973 1.371 3.639s3.516 1.818 3.483 2.091c.006.126-.526.3-1.4.165a4.894 4.894 0 01-2.927-1.636 4.264 4.264 0 01-1.026-3.03c.067-.822.368-1.264.499-1.229z" fill="#263238"/></g></g></g><g data-name="Group 614"><path data-name="Path 366" d="M296.148 112.779c3.454 7.622 14.654 16.9 23.3 20.189-.787-1.573-5.648-6-6.434-7.569 3.488 3.794 8.533 8.94 13.865 10.226a3.328 3.328 0 001.9.06 2.543 2.543 0 001.323-1.851 54.787 54.787 0 001.827-11.764 13.174 13.174 0 00-3.088-9.22c-2.948-3.313-7.76-4.9-12.39-5.886a30.031 30.031 0 00-11.778-.616c-3.83.737-7.4 2.945-8.553 6.192" fill="#263238"/></g><g data-name="Group 615"><path data-name="Path 367" d="M275.525 141.489a74.239 74.239 0 01.333-8.869c.872-6.731 2.97-31.2 25.56-24.907l-2.4 6.268s1.735 15.752-9.86 24.209c0 0 .05 15.721-7.981 21.394 0 0-5.6-10.661-5.648-18.1" fill="#263238"/></g><g data-name="Group 616"><path data-name="Path 368" d="M289.638 137.122a7.828 7.828 0 00-4.21-.466 5.463 5.463 0 00-3.535 2.228 5.712 5.712 0 00-.763 4.127 9.658 9.658 0 001.743 3.893 6.545 6.545 0 002.217 2.108 3.13 3.13 0 002.959.061" fill="#ffbe9d"/></g><g data-name="Group 618"><g data-name="Group 617"><path data-name="Path 369" d="M287.397 145.372c.15.079-.6.81-1.8.247a2.764 2.764 0 01-1.322-1.64 6.265 6.265 0 01-.284-2.416 3.668 3.668 0 011.014-2.331 2.442 2.442 0 012.006-.753c1.306.2 1.55 1.172 1.4 1.173-.123.087-.545-.466-1.433-.412a2.369 2.369 0 00-1.912 2.417c-.1 1.45.221 2.849.922 3.307.71.539 1.343.279 1.409.408z" fill="#eb996e"/></g></g></g></g><path data-name="Path 370" d="M287.374 149.044c-3.509 20.928-.649 42.319-.024 63.53a12.268 12.268 0 01-.846 5.976c-1.4 2.74-4.647 4.07-7.717 4.26s-6.118-.529-9.183-.779q-.5-3.052-.992-6.1l-3.064 7.034q2.026-22.326 4.431-44.615" fill="#263238"/></g></g></g></svg>