<svg xmlns="http://www.w3.org/2000/svg" width="598" height="423.066" viewBox="0 0 598 423.066">
  <g id="speaker" transform="translate(0 38)">
    <path id="Path_16" data-name="Path 16" d="M792.829,692.7l3.107-38.619,8.878,40.838s-.117,10.3-.411,21.588H793.029C792.645,703.606,792.829,692.7,792.829,692.7Z" transform="translate(-628.719 -331.441)" fill="#f2f2f2"/>
    <path id="Path_17" data-name="Path 17" d="M515.636,704.879a78.641,78.641,0,0,0,1.847-10.979l1.243-13.359c.523-3.659,1.059-6.882,1.6-9.728,3.958-20.288,8.043-21.021,8.043-21.021.175.134.346.283.522.437a13.156,13.156,0,0,1,1.338,1.411c6.507,8.27,10.921,29.721,13.24,43.95,1.281,7.86,1.919,13.516,1.919,13.516s-.58,2.409-1.371,5.846H514.324A52.791,52.791,0,0,1,515.636,704.879Z" transform="translate(-191.766 -329.886)" fill="#f2f2f2"/>
    <path id="Path_18" data-name="Path 18" d="M729,110V442.678c0,49.714-40.675,90.389-90.388,90.389H506.374l1.706-8.034s4.389-28.323,0-50.406a165.778,165.778,0,0,1-2.912-20.993,126.465,126.465,0,0,0-3.887-23.571c-.116-.445-.246-.887-.367-1.331,1.07-.291,1.562-.524,1.314-.671-.686-.405-1.063-1.646-1.251-3.219a154.1,154.1,0,0,0-6.654-30.662c4.435,2.784,7.38,3.08,9.307,2,6.774-1.85,3.962-17.086,3.962-17.086s-4.21-32.954-5.608-44.886c-.8-6.859-11.105-10.745-20.224-12.855a10.128,10.128,0,0,1-1.214-6.316c.03-.147.072-.289.111-.432,1.159-2.575,3.516-4.694,4.4-7.361a7.766,7.766,0,0,0,.818-2.3c.783-4.572-3.492-8.522-4.725-12.92a10.642,10.642,0,0,0,2.734-4.384c1.879-3.853.963-8.477-5.07-12.048-1.2-.713-2.48-1.342-3.777-1.946a5.873,5.873,0,0,0-1.533-.7c-4.316-1.952-8.655-3.842-11.238-7.643a6.785,6.785,0,0,0-2.325-2.629,4.483,4.483,0,0,0-1.6-.358c-8.317-.638-15.847,6.494-24.124,5.471-2.507-.31-5.067-1.364-7.474-.605a8.848,8.848,0,0,0-3.879,2.969,30.6,30.6,0,0,0-6.637,25.2c1.05,5.453,3.6,11.073,1.763,16.319-1.351,3.855-4.969,6.983-4.995,11.061-.021,3.355,2.361,6.033,4.662,8.644q-.449.459-.875.943c-5.624,6.407-4.561,11.876-3.768,14.065h0l2.892,27.907,2.439,18.722s.6,7.683,6.282,9.369a9.157,9.157,0,0,0,6.671.1c1.849-.563,3.406-1.125,4.729-1.671-1.25,3.991-3.4,12.138-3.051,20.046.488,11.041-.975,12-.975,12a1.981,1.981,0,0,0,.31.307c-5.793,12.8-5.846,25.931.177,39.058,6.828,14.882-.488,49.446-.488,49.446s-.521,5.392-.755,11.394H326.508c1.666-15.889,3.667-31.8,4.556-33.573,1.466-2.931-.4-51.222-1.09-68,.309-.078.61-.157.895-.239.495-.142.94-.29,1.352-.441a9.852,9.852,0,0,1-.268,2.537c-.616,1.438.862,2.5,3.374,3.217-1.461,7.131-3.266,20.4,2.84,22.972,6.281,2.645,6.407-13.421,6.062-21.8.792.029,1.587.045,2.372.045,7.546,0-2.219-87.447-1.776-93.217s-3.551-29.3-3.551-29.3-1.332-4.883-5.327-5.771-23.082-11.985-23.082-11.985a14.256,14.256,0,0,0-4-3.782v-.657a14.634,14.634,0,0,0-1.584-1.282c.233-3.879.758-8.882,1.14-12.263a15.493,15.493,0,0,0,4.165-7.969,24.459,24.459,0,0,0,2.324-2.065,12.11,12.11,0,0,0,2.977-7.558,23.888,23.888,0,0,0-1.184-8.16,9.767,9.767,0,0,0-1.028-2.492,9.018,9.018,0,0,0-2.324-2.3c-.27-.2-.548-.387-.825-.576a7.774,7.774,0,0,0-2.512-2.851c-2.266-1.487-5.181-1.366-7.89-1.3h-.123q-.754-.121-1.513-.2a1.552,1.552,0,0,1-1.214-1.189l-1.1,1.057q-.825-.012-1.65.028a11.8,11.8,0,0,0-.856-1.607l-.6,1.72c-.552.059-1.1.133-1.65.228l-1.294-1.029c-.1-.076-.439,1.047-.613,1.433-.3.076-.593.157-.886.248-.459-.021-.968-.107-1.251-.1a8.371,8.371,0,0,0-4.461,1.112,9.58,9.58,0,0,0-2.835,3.273,21.2,21.2,0,0,0-3.165,9.13,10.584,10.584,0,0,0-1.756,3.924c-.733,4.456,3.5,8.18,4.341,12.617.448,2.367-.063,4.989,1.142,7.075a7.386,7.386,0,0,0,2.033,2.132,15.338,15.338,0,0,0,1.5.99,38.585,38.585,0,0,1-.919,7.979l-.571,2.19c-.888.64-1.846,1.38-2.9,2.249,0,0-12.429,5.327-16.868,7.99-3.9,2.341-8.145,2.627-9.416,5.677l-.35.093s-4.439,49.272-4.883,57.706-5.771,60.369-4.883,62.589c.329.821,2.422,1.764,4.949,2.514-1.475,6.741-3.856,21.4,2.6,24.12,6.542,2.755,6.407-14.786,6.017-22.8.872-.079,1.444-.307,1.529-.731.072-.361.3-1.991.638-4.476.553.086,1.126.175,1.737.268l.376.056c-5.628,17.7,6.836,64.653,9.234,73.843,1.253,4.8,2.6,16.676,3.822,28.691h-54.9c-49.714,0-90.388-40.675-90.388-90.389V110Z" transform="translate(-131 -148)" fill="#f2f2f2"/>
    <ellipse id="Ellipse_10" data-name="Ellipse 10" cx="60.565" cy="55.114" rx="60.565" ry="55.114" transform="translate(403.554 52.628)" fill="#3f3d56"/>
    <path id="Path_19" data-name="Path 19" d="M504.432,568.548h0s-20.4-14.026-20.4-20.4-14.026-47.815-21.676-29.326,10.838,44.627,10.838,44.627,20.4,36.976,32.514,43.352,22.313,2.55,22.313,2.55V592.136l-11.655-17.249A14.4,14.4,0,0,0,504.432,568.548Z" transform="translate(-140.085 -280.704)" fill="#ffb9b9"/>
    <path id="Path_20" data-name="Path 20" d="M464.85,446.336s-30.573,9.667-33.761,14.13-4.463-3.188-13.388,26.139a306.513,306.513,0,0,0-11.157,57.7s21.995,7.332,19.445,36.02,3.825,59.927,3.825,59.927h7.959l17.542-54.19-21.038-82.241S464.185,453.245,464.85,446.336Z" transform="translate(-42.516 -256.139)" fill="#575a89"/>
    <circle id="Ellipse_11" data-name="Ellipse 11" cx="38.252" cy="38.252" r="38.252" transform="translate(394.31 87.022)" fill="#ffb9b9"/>
    <path id="Path_21" data-name="Path 21" d="M338.626,381.044s10.838,35.7,1.275,40.8S319.5,449.9,319.5,449.9l16.576,18.488h38.252L391.54,449.26l7.013-32.514-9.563-7.65s-10.2-25.5-10.2-38.889S338.626,381.044,338.626,381.044Z" transform="translate(79.273 -227.082)" fill="#ffb9b9"/>
    <path id="Path_22" data-name="Path 22" d="M328.585,444.437s7.65-1.913,3.188,5.738-8.925,21.676,7.013,22.313,31.876-7.65,36.977-24.864,7.013-15.938,8.925-15.3S407,454,407,454l-7.013,39.527-2.55,141.531H304.359s-3.825-40.8,2.55-50.365-5.738-33.789-5.738-33.789-10.838-16.576-2.55-48.452S325.4,444.437,328.585,444.437Z" transform="translate(86.126 -250.948)" fill="#fdbc00"/>
    <path id="Path_23" data-name="Path 23" d="M256.822,431.764a16.778,16.778,0,0,1,17.851,3.188c8.288,7.65,26.776,14.026,26.776,17.851s-15.938,112.842-5.1,131.968S318.662,634.5,318.662,634.5H265.484s-8.662-31.876-17.587-49.09-8.288-65.665-5.738-80.328S256.822,431.764,256.822,431.764Z" transform="translate(209.529 -250.388)" fill="#002fbb"/>
    <path id="Path_24" data-name="Path 24" d="M156.061,544.788l-3.1,33.789H118.5l3.135-42.077Z" transform="translate(366.392 -194.467)" fill="#ffb9b9"/>
    <path id="Path_25" data-name="Path 25" d="M572.971,491.777l-8.288,51.64H380.438L364.5,439.5Z" transform="translate(-207.35 -159.307)" fill="#3f3d56"/>
    <path id="Path_26" data-name="Path 26" d="M333.413,428.5l-1.913,9.563L569.935,495.44v-8.288Z" transform="translate(-183.275 -155.32)" fill="#3f3d56"/>
    <path id="Path_27" data-name="Path 27" d="M555.251,454.413l1.275,10.838L542.5,463.338l5.738-10.838Z" transform="translate(-304.384 -164.019)" fill="#3f3d56"/>
    <path id="Path_28" data-name="Path 28" d="M636.244,431.476s-28.051-1.913-35.7,19.763-25.5,60.565-32.514,66.3S553.365,538.58,554.64,543.68" transform="translate(-308.236 -250.737)" fill="none" stroke="#3f3d56" stroke-miterlimit="10" stroke-width="5"/>
    <path id="Path_29" data-name="Path 29" d="M536,427.919c0,2.993,3.183,5.419,8.288,5.419s7.65-2.426,7.65-5.419-2.545-5.419-7.65-5.419S536,424.926,536,427.919Z" transform="translate(-212.136 -247.499)" fill="#fdbc00"/>
    <path id="Path_30" data-name="Path 30" d="M407.823,536.013s-4.781-20.082,4.144-49.408,10.2-21.676,13.388-26.139,33.761-14.13,33.761-14.13c-.219,2.27-3.595,9.255-8.03,17.611a33.911,33.911,0,0,1,3.595-8.581c4.463-7.65-3.188-5.738-3.188-5.738-3.188,0-21.676,26.139-29.964,58.015s2.55,48.452,2.55,48.452Z" transform="translate(-36.782 -256.139)" fill="#002fbb"/>
    <path id="Path_31" data-name="Path 31" d="M436.256,446s-3.774,14.317-6.987,16.4S407,484.286,407,484.286l2.48-15.972,10.2-15.3,2.713-1.969Z" transform="translate(-14.213 -256.017)" fill="#000056"/>
    <path id="Path_32" data-name="Path 32" d="M270.851,496.333l-.889-32.833s20.971,8.925,22.884,47.177-3.188,110.292-10.2,110.93-40.164-7.013-40.164-7.013-5.1-92.441-3.188-104.554S270.851,496.333,270.851,496.333Z" transform="translate(235.983 -262.36)" opacity="0.1"/>
    <path id="Path_33" data-name="Path 33" d="M257.795,463.5h5.168s20.971,8.925,22.884,47.177-3.188,110.292-10.2,110.93-40.164-7.013-40.164-7.013-5.1-92.441-3.188-104.554S257.795,463.5,257.795,463.5Z" transform="translate(247.445 -262.36)" fill="#002fbb"/>
    <ellipse id="Ellipse_12" data-name="Ellipse 12" cx="39.5" cy="43.5" rx="39.5" ry="43.5" transform="translate(439 72)" fill="#3f3d56"/>
    <ellipse id="Ellipse_13" data-name="Ellipse 13" cx="8" cy="11.5" rx="8" ry="11.5" transform="translate(442 128)" fill="#ffb9b9"/>
    <ellipse id="Ellipse_14" data-name="Ellipse 14" cx="33" cy="32.5" rx="33" ry="32.5" transform="translate(485 38)" fill="#3f3d56"/>
    <path id="Path_34" data-name="Path 34" d="M206.658,285.136a32.511,32.511,0,0,0,47.108-25.892,32.51,32.51,0,1,1-64.5,1.81A32.464,32.464,0,0,0,206.658,285.136Z" transform="translate(306.812 -188.323)" fill="#3f3d56"/>
    <path id="Path_35" data-name="Path 35" d="M232.808,238.319a32.511,32.511,0,0,0-16.373-51.2,32.51,32.51,0,1,1-10.6,63.651A32.463,32.463,0,0,0,232.808,238.319Z" transform="translate(302.701 -162.179)" fill="#3f3d56"/>
    <ellipse id="Ellipse_15" data-name="Ellipse 15" cx="22.5" cy="16" rx="22.5" ry="16" transform="translate(408 80)" fill="#3f3d56"/>
  </g>
</svg>
