<svg xmlns="http://www.w3.org/2000/svg" width="598.8" height="424.2"><path data-name="Rectangle 126" d="M0 0h598v375a48 48 0 01-48 48H48a48 48 0 01-48-48V0z" fill="#f2f2f2"/><g data-name="Group 2111"><path data-name="Rectangle 12" fill="#9a98b3" d="M130.5 45.4H271v4H130.5z"/></g><g data-name="Group 1310"><path data-name="Path 104" d="M46.8 422.1c-15-19-21.8-47.5-17.6-73.6s19.5-49.1 39.2-59.4c8.6-4.4 17.8-6.5 26.2-11.4 29.3-17 40.2-60.6 56.8-95.1 24-50.2 66.8-87.2 113.5-92.8s96 22.3 120.2 72.4c13 27 18.9 59.3 34.6 84.1a85.2 85.2 0 0043.7 36c15 5 31 4.7 46.3 9 23.5 6.4 45.8 25.2 55.1 53s2.8 64-17.7 80z" fill="#fff"/><path data-name="Path 105" d="M94.3 422.6c-11.2-12.4-16.3-31-13.1-48s14.4-32 29.1-38.6c6.4-2.9 13.3-4.3 19.5-7.5 21.8-11 29.9-39.4 42.2-61.9 17.9-32.6 49.6-56.7 84.4-60.4s71.4 14.5 89.4 47.2c9.7 17.6 14 38.6 25.7 54.7a62.3 62.3 0 0032.5 23.4c11.2 3.3 23 3.1 34.4 5.9 17.5 4.2 34 16.5 41 34.5s2 41.7-13.2 52z" fill="#f2f2f2" opacity=".5"/></g><g data-name="Group 1311"><path data-name="Rectangle 69" d="M33.5 107h69.4a3.6 3.6 0 013.6 3.5V146a3.6 3.6 0 01-3.6 3.6H33.5a3.6 3.6 0 01-3.6-3.6v-35.4a3.6 3.6 0 013.6-3.6z" fill="#1a26cc" opacity=".2"/><path data-name="Rectangle 70" d="M31.6 105h69.5a3.6 3.6 0 013.6 3.6v35.3a3.6 3.6 0 01-3.6 3.6H31.6A3.6 3.6 0 0128 144v-35.3a3.6 3.6 0 013.6-3.6z" fill="#f3f1ff"/><path data-name="Path 169" d="M31.6 105h69.5a3.6 3.6 0 013.6 3.6v5a1 1 0 01-1 1H29a1 1 0 01-1-1v-5a3.6 3.6 0 013.6-3.6z" fill="#1a26cc" fill-rule="evenodd"/><path data-name="Path 184" d="M86.2 111.5a1.7 1.7 0 10-1.7-1.7 1.7 1.7 0 001.7 1.7z" fill="#fff" fill-rule="evenodd"/><path data-name="Path 185" d="M92.4 111.5a1.7 1.7 0 10-1.7-1.7 1.7 1.7 0 001.7 1.7z" fill="#fff" fill-rule="evenodd"/><path data-name="Path 186" d="M98.7 111.5a1.7 1.7 0 10-1.8-1.7 1.7 1.7 0 001.8 1.7z" fill="#fff" fill-rule="evenodd"/><text transform="translate(66 138)" fill="#3441af" font-size="19" font-family="Rubik-Bold, Rubik" font-weight="700" opacity=".5"><tspan x="-12.7" y="0">JS</tspan></text></g><path data-name="Path 837" d="M390.6 35a4 4 0 11-4-4 4 4 0 014 4z" fill="none" stroke="#fdbc00" stroke-linecap="round" stroke-miterlimit="10" stroke-width="2"/><path data-name="Path 838" d="M572.6 85a4 4 0 11-4-4 4 4 0 014 4z" fill="none" stroke="#fdbc00" stroke-linecap="round" stroke-miterlimit="10" stroke-width="2"/><path data-name="Path 839" d="M61.6 201a4 4 0 11-4-4 4 4 0 014 4z" fill="none" stroke="#fdbc00" stroke-linecap="round" stroke-miterlimit="10" stroke-width="2"/><g data-name="Group 1312" fill="none" stroke="#a1c7ff" stroke-linecap="round" stroke-miterlimit="10" stroke-width="3"><path data-name="Line 19" d="M265.4 37.9v11.2"/><path data-name="Line 20" d="M271 43.5h-11.2"/></g><g data-name="Group 1313" fill="none" stroke="#a1c7ff" stroke-linecap="round" stroke-miterlimit="10" stroke-width="3"><path data-name="Line 19" d="M523.4 215.9v11.2"/><path data-name="Line 20" d="M529 221.5h-11.2"/></g><g data-name="Group 1314" fill="none" stroke="#a1c7ff" stroke-linecap="round" stroke-miterlimit="10" stroke-width="3"><path data-name="Line 19" d="M143.4 121.9v11.2"/><path data-name="Line 20" d="M149 127.5h-11.2"/></g><g data-name="Group 1316" fill="#766ee7"><path data-name="Path 1" d="M198 341.9v10.6h-2.7v-8h-15.9v6.7h8v2.6h-10.6v-9.3h-17.2V342h8v-16h-8v-2.5H178v2.6h-8v15.9z"/><path data-name="Path 2" d="M159.6 388.2v2.7H149V314h84.7v2.6h-17.2v8h-2.6v-8h-25.2v8H186v-8h-34.5v16h8v2.6h-8v15.9h18.5v9.2H198V379h16v-6.7h-9.3v-11.9h9.3v-25.1h-6.7v8h-2.6V326h-6.7v9.4h-19.5v-2.6h17v-9.4h11.8v9.2h9.3v9.3h6.6v-7.8h2.7v10.4h-9.3v18.6h-9.3v6.6h9.3v9.3h6.6v-9.3h9.3v-16h-6.6v8H223v-10.5h9.3V326h-8v-2.6H235V400h-84.7v-2.6h26.5v-8h2.6v8h16V391H186v-9.3h-16v8h-2.6V379h18.6v-6.7h-8v-2.6h10.6v18.5h17.2v2.7h-8v6.6h16v-9.3h9.2v-6.6h-27.8V363h-27.8v-9.3h-15.9v16h6.7v-8h2.6v7.9h8v2.6h-8v8h-2.6v-8h-6.7v16zm56.9 2.7v6.6h15.9v-25.2h-6.6V391z"/></g><g data-name="Group 1317"><path data-name="Path 208" d="M83.6 315c-1.3 4-2.5 8.8-3.4 11.3-7 19.4-4.9 20.3 10.3 19.1a234.3 234.3 0 0023.5-2.2c1.7-.2.9.6 1.7 1.4s-6.5 6.6-6.5 6.6l-13.5 14.3c-10.4-1.1-25.6-4.3-32.2-9.1-10.2-8.7 4.6-33 9.8-45 .4-1 3.2-.3 3.4-1 1.6.5 7.7 2.2 6.9 4.6z" fill="#ffb700" fill-rule="evenodd"/><path data-name="Path 209" d="M87.6 311.3a9.4 9.4 0 014.8-1.6c1 0 0-3.9-3.3-2.3 0 0-1.8.2-2-.6s6.2-8.9 6.9-9.8a1.2 1.2 0 00-.7-1.8c-.5 0-1.5 1.2-2.8 2.8a24 24 0 01-3.3 3.3c-.2 0-.6-.3-.2-1.4s3-7.4 2.8-8a1.2 1.2 0 00-2-.1c-.6.8-3 7.2-3.5 8s-1.2 0-1.1-.6 1.6-8 1.4-8.6a1 1 0 00-1.8.2c-.5 1-2.2 8-2.6 8.3s-1.2.2-1.4-1.2-.5-4.3-.8-4.6-1.6.2-1.6 1.7l-.2 5.6c-.4 2.9-1.6 5.3-1.7 7.6a5.5 5.5 0 00.6 2.4 7.9 7.9 0 004.8 4c3.5 1 5-1.4 7.7-3.3z" fill="#f4ad85" fill-rule="evenodd"/><path data-name="Path 210" d="M87.6 311.3a9.4 9.4 0 014.8-1.6c.4 0 .5-.5.3-1-.5-.2-3.2.4-5.6 1.5-3.6 1.6-7.7 3.5-10.8-.8-.8-1.1-1.1-4.3-.8-5.6a18 18 0 00-1 4.4 5.5 5.5 0 00.6 2.4c-1.8 2.9 2.2 5.5 5.5 5.5 1.3 0 1.2-1 2.5-1.5 1.6-.6 2.8-2 4.5-3.3z" fill="#f19879" fill-rule="evenodd"/><path data-name="Path 211" d="M151.4 347.4a19.9 19.9 0 015.8 5c2.2 2.5 13 21.3 16.9 39.3.8 4-5 19.8-15.7 27.3l9.5 2.1c-1-1.9-21.5-1.2-22.8-4.1-4-8.5 10.5-22.6 10.5-22.6z" fill="#ffb700" fill-rule="evenodd"/><path data-name="Path 212" d="M125.8 340.7c5.6 1.4 22.2 5.9 23 6.8 1.2 1.1 6.1 28.1 6.1 30.7 0 2.5-5.7 35.9-6.6 45H99.8c-.9-9.1-6.6-42.5-6.6-45 0-2.6 5-29.7 6-30.7s10.3-2.9 15.9-4.3l7 9.1h1l1 1.8 1-1.8h1z" fill="#ffb700" fill-rule="evenodd"/><path data-name="Path 213" d="M94.3 387.3c-.8-4.8-1.4-8.3-1.4-9 0-1.6 1.8-11 3.6-19 1.3.6.6 4.4.7 10.3a100 100 0 01-2.9 17.7z" fill="#ffb700" fill-rule="evenodd"/><path data-name="Path 214" d="M126 340.7c6.1 1.4 24.5 5.9 25.5 6.8a222 222 0 016.6 30.7c0 1-.8 5.8-1.9 12.1-9.3 2.4-17 4-17 4s15.4-17.6 14.1-25.4-2.3-15-3.6-15.8a92.8 92.8 0 00-12-4.3c-2.3-.6-2.7 1.2-2.7 1.2l-2 7.4c-.3 1.3-1 1.7-1.7 1.4s-4.6-3.3-4.8-3.2a30.8 30.8 0 00-1.9 3l-1.1-1.4-1-2.4-5 4a1.2 1.2 0 01-1.8-.5l-2-9.7 1.3-6.2 7-1.7-.2 11.6h1.1l1.2 1.8 1-1.8h1.2z" fill="#ffb700" fill-rule="evenodd"/><path data-name="Path 215" d="M123.5 353.2l.6 1 .5-1V370a.6.6 0 11-1.1 0z" fill="#ffb700" fill-rule="evenodd"/><path data-name="Path 216" d="M123.8 321.5h.1c4.5 0 8.1 4.6 8.2 10.4l.1 12.4a11.6 11.6 0 01-3.7 9v-1h-3.3l-1.1 1.8-1.2-1.8h-2.7v1.4a11.3 11.3 0 01-4.3-9.2l-.1-12.4c0-5.8 3.5-10.6 8-10.6z" fill="#f4ad85" fill-rule="evenodd"/><path data-name="Path 217" d="M123.7 319.4a5.5 5.5 0 00-1.1-2.9l-8.6 6.9a5.5 5.5 0 002.6 1.8l7.1-5.8zM122 316l-8.5 6.8a5.5 5.5 0 01-.6-1.4l7.8-6.3a5.5 5.5 0 011.3 1z" fill="#f6bb98" fill-rule="evenodd"/><path data-name="Path 218" d="M100.7 314.3l-3.2 1.6c-2.7 9 4 24.6 16.6 19 5-2.2-4.3-20.9-4.3-20.9z" fill="#3f3d56" fill-rule="evenodd"/><path data-name="Path 220" d="M144 297.1c6 5 14.6 21.8 5.7 27.5-2.9 1.8-5 4.4-10 2.2s-4.5-28.6-4.5-28.6 5.9-2.6 8.9-1z" fill="#3f3d56" fill-rule="evenodd"/><g data-name="Group 87" fill="#f4ad85" fill-rule="evenodd"><path data-name="Path 223" d="M109 312.6h-.4a5.2 5.2 0 104.1 1.8c0 1.5-.6 3.3-2.6 3.2l.6-3a1.8 1.8 0 00-1.7-2z"/><path data-name="Path 224" d="M146 318.8l.5.1a5.2 5.2 0 11-4.5.4c-.4 1.5-.5 3.4 1.4 3.9l.5-3a1.8 1.8 0 012.2-1.4z"/></g><path data-name="Path 225" d="M131.9 290a17.9 17.9 0 00-20.6 14.7l-2.7 16a17.9 17.9 0 0014.7 20.5 17.9 17.9 0 0020.5-14.6l2.7-16a17.9 17.9 0 00-14.6-20.5z" fill="#f4ad85" fill-rule="evenodd"/><path data-name="Path 227" d="M140.6 303.7s-1 7.2 3.5 10l-.8 4.7c-.2 1 .2 2.8 1.4 3l.4-2.5 1.7-2.2 1-11.6-4-7.9-3.5-.8.3 7.3z" fill="#2c1e56" fill-rule="evenodd"/><path data-name="Path 228" d="M142.7 297.8l-3.6 4.2s-5.9-.2-8-1 4.3-13.2 4.3-13.2a30.6 30.6 0 014.3.7c.3.3.9 4.8.9 4.8z" fill="#2c1e56" fill-rule="evenodd"/><path data-name="Path 232" d="M117 312.7a4.6 4.6 0 014.3.7.6.6 0 10.8-.8 5.8 5.8 0 00-5.4-1 .6.6 0 10.4 1.1z" fill-rule="evenodd"/><path data-name="Path 236" d="M141.4 415.7l4.3-2.8a4 4 0 014 0 63.3 63.3 0 015.7 4.7c.7.6-3 2.1-3.4 2.1s-10.6-4-10.6-4z" fill="#ef8871" fill-rule="evenodd"/><g data-name="Group 89"><path data-name="Path 238" d="M130.6 329a5 5 0 01-9.8-1.8.9.9 0 011-.7l8.1 1.5a.9.9 0 01.7 1z" fill="#fff" fill-rule="evenodd"/></g><path data-name="Path 243" d="M139 302c1.4-7.7-4.8-9.6-6.9-2.2-3.2 11.3-8.5 26.4-29.7 18.3l-4.9-2.2c5.3-15 20.4-30.8 37-31.4 5-.2 11.1 8 11.5 9.3a14 14 0 01-.7 6.2s-4.2 4-4.7 3.7-1.5-1.7-1.5-1.7z" fill="#3f3d56" fill-rule="evenodd"/><path data-name="Path 246" d="M167.1 374.4H80.7a2 2 0 00-2 2.4l6.6 43.8A2.8 2.8 0 0088 423h71.8a2.8 2.8 0 002.7-2.4l6.6-43.8a2 2 0 00-2-2.4z" fill="#3f3d56" fill-rule="evenodd"/><path data-name="Path 247" d="M132.1 342.1s-1.7 4.3-2.3 5.4-4.6 4.8-4.6 4.8-.1.4 0 .5l6 5s.6.4 1-.3a64.3 64.3 0 002.3-9 44.6 44.6 0 00-.7-6.7l-1.6-.8z" fill="#fff" fill-rule="evenodd"/><path data-name="Path 248" d="M116 342.1s1.8 4.3 2.4 5.4 4.5 4.8 4.5 4.8.2.4 0 .5l-6 5s-.6.4-1-.3a64.5 64.5 0 01-2.3-9 40.3 40.3 0 01.5-5.9l1.8-1.6z" fill="#fff" fill-rule="evenodd"/><path data-name="Path 252" d="M123.9 411.7c5 0 9.2-3.4 9.2-7.6s-4.1-7.7-9.2-7.7-9.2 3.4-9.2 7.7 4.1 7.6 9.2 7.6z" fill="#fff" fill-rule="evenodd"/><path data-name="Path 254" d="M97 357a77 77 0 01-14.4.7c-14.4-.4-22.6-4.2-21.8-16.6-1.4 6.4-1.2 12 2.7 15.3 6.5 4.7 21.3 7.9 31.7 9a469.5 469.5 0 011.7-8.5z" fill="#ffb700" fill-rule="evenodd"/></g><g data-name="Group 1318"><path data-name="Rectangle 69" d="M528.6 334h43.3a3.6 3.6 0 013.6 3.5V373a3.6 3.6 0 01-3.6 3.6h-43.3a3.6 3.6 0 01-3.6-3.6v-35.4a3.6 3.6 0 013.6-3.6z" fill="#1a26cc" opacity=".2"/><path data-name="Rectangle 70" d="M530.5 332h43.3a3.6 3.6 0 013.6 3.6v35.3a3.6 3.6 0 01-3.6 3.6h-43.3a3.6 3.6 0 01-3.6-3.6v-35.3a3.6 3.6 0 013.6-3.6z" fill="#f3f1ff"/><path data-name="Path 169" d="M575 332h-45.8c-1.3 0-2.3 1.6-2.3 3.6v5c0 .5.3 1 .6 1h49.2c.4 0 .7-.5.7-1v-5c0-2-1-3.6-2.4-3.6z" fill="#1a26cc" fill-rule="evenodd"/><path data-name="Path 184" d="M545.4 338.5a1.7 1.7 0 111.7-1.7 1.7 1.7 0 01-1.7 1.7z" fill="#fff" fill-rule="evenodd"/><path data-name="Path 185" d="M539.1 338.5a1.7 1.7 0 111.7-1.7 1.7 1.7 0 01-1.7 1.7z" fill="#fff" fill-rule="evenodd"/><path data-name="Path 186" d="M532.9 338.5a1.7 1.7 0 111.7-1.7 1.7 1.7 0 01-1.7 1.7z" fill="#fff" fill-rule="evenodd"/><text transform="translate(552 362)" fill="#3441af" font-size="14" font-family="Rubik-Bold, Rubik" font-weight="700" opacity=".5"><tspan x="-10.1" y="0">NG</tspan></text></g><path data-name="Path 1283" d="M329.6 64.4l-12 13 12 13.2h-37.5V64.4h37.5z" fill="#ffb700"/><path data-name="Path 1284" d="M295 59.5a3 3 0 00-3-3 3 3 0 00-2.8 3 3.2 3.2 0 001.5 2.6v57h3V62a3.1 3.1 0 001.4-2.6z" fill="#2c1e56"/><path data-name="Polygon 1" d="M292.5 102l11.5 19h-23z" fill="#2c1e56"/><g data-name="Group 1320"><path data-name="Path 327" d="M363.4 311.2l1.1-150.8h3.8v8.8h33.2v-8.8h3.8l-1.1 152a.5.5 0 010 .2c0 1.3-4 1.5-30.2 1.5s-30.3-.2-30.3-1.5c0-1 3-1.4 19.7-1.4zm3.9-12.7h33.2l.2-17.8h-33.3zm.1-21.5h33.3l.1-17.8h-33.2zm.2-21.6h33.3l.1-17.8h-33.3zm.1-21.5H401l.2-17.8h-33.3zm.2-21.6h33.3l.1-17.8H368zm.3-39.4l-.1 17.9h33.2l.2-17.9zm32.3 138.6v-9.2h-33.3v8.9h6.8c14.8 0 22.5 0 26.5.3z" fill="#d0eeed" style="mix-blend-mode:multiply;isolation:isolate"/><g data-name="Group 132"><path data-name="Path 335" d="M368.3 160.4l-1 8.8h33.3l1-8.8h3.7l-17 152.2h-3.6l1.1-10.3h-33.3l-1.1 10.3h-3.8l17-152.2zm-1.4 12.5l-2 17.9h33.3l2-17.9zm24.1 82.5l2-17.8h-33.3l-2 17.8zm-33.7 3.8l-2 17.8h33.3l2-17.8zm36.1-25.3l2-17.8H362l-2 17.8zm2.4-21.6l2-17.8h-33.3l-2 17.8zm-9.6 86.2l2-17.8h-33.3l-2 17.8z" fill="#fdbc00"/></g></g><g data-name="Group 2108"><path data-name="Rectangle 25" d="M256.3 249.7H269a2.4 2.4 0 012.4 2.3v12.6a2.4 2.4 0 01-2.4 2.4h-12.6a2.4 2.4 0 01-2.3-2.4V252a2.4 2.4 0 012.3-2.3z" fill="#9cc6e0"/><path data-name="Rectangle 26" d="M256.3 271.5H269a2.4 2.4 0 012.4 2.3v12.6a2.4 2.4 0 01-2.4 2.4h-12.6a2.4 2.4 0 01-2.3-2.4v-12.6a2.4 2.4 0 012.3-2.3z" fill="#9cc6e0"/><path data-name="Rectangle 27" d="M256.3 293.2H269a2.4 2.4 0 012.4 2.4v12.6a2.4 2.4 0 01-2.4 2.3h-12.6a2.4 2.4 0 01-2.3-2.3v-12.6a2.4 2.4 0 012.3-2.4z" fill="#9cc6e0"/><path data-name="Rectangle 28" d="M256.3 315H269a2.4 2.4 0 012.4 2.4V330a2.4 2.4 0 01-2.4 2.3h-12.6a2.4 2.4 0 01-2.3-2.3v-12.6a2.4 2.4 0 012.3-2.4z" fill="#9cc6e0"/><path data-name="Rectangle 29" d="M254.4 248h12.5a2.4 2.4 0 012.4 2.4v12.5a2.4 2.4 0 01-2.4 2.4h-12.5a2.4 2.4 0 01-2.4-2.4v-12.5a2.4 2.4 0 012.4-2.4z" fill="#fff"/><path data-name="Rectangle 30" d="M254.4 269.8h12.5a2.4 2.4 0 012.4 2.3v12.6a2.4 2.4 0 01-2.4 2.4h-12.5a2.4 2.4 0 01-2.4-2.4v-12.6a2.4 2.4 0 012.4-2.3z" fill="#fff"/><path data-name="Rectangle 31" d="M254.4 291.6h12.5a2.4 2.4 0 012.4 2.3v12.6a2.4 2.4 0 01-2.4 2.4h-12.5a2.4 2.4 0 01-2.4-2.4V294a2.4 2.4 0 012.4-2.3z" fill="#fff"/><path data-name="Rectangle 32" d="M254.4 313.4h12.5a2.4 2.4 0 012.4 2.3v12.6a2.4 2.4 0 01-2.4 2.4h-12.5a2.4 2.4 0 01-2.4-2.4v-12.6a2.4 2.4 0 012.4-2.3z" fill="#fff"/><path data-name="Path 126" d="M255.7 258.6a1 1 0 011.5-1.5l1.9 2 4.9-7a1 1 0 011.7 1l-5.6 8.1a1.2 1.2 0 01-.2.2 1 1 0 01-1.4 0z" fill="#78c9d9" fill-rule="evenodd"/><path data-name="Path 127" d="M258.3 282.9a1 1 0 11-1.6-1.4l2.6-3-2.6-3.2a1 1 0 111.6-1.3l2.3 2.8 2.4-2.8a1 1 0 111.6 1.3l-2.6 3.1 2.6 3.1a1 1 0 11-1.6 1.4l-2.4-2.9z" fill="#d84f50" fill-rule="evenodd"/><path data-name="Path 128" d="M255.7 302.1a1 1 0 011.5-1.4l1.9 2 4.9-7.1a1 1 0 011.7 1.2l-5.6 8a1.2 1.2 0 01-.2.2 1 1 0 01-1.4 0z" fill="#78c9d9" fill-rule="evenodd"/></g><g data-name="Group 2109"><path data-name="Path 1209" d="M180 171.3v36a4.3 4.3 0 003.4 4.2 4.2 4.2 0 004.9-4V197a4.2 4.2 0 014.2-4.2c2 0 4 1.4 4 3.2v35a4.3 4.3 0 003.5 4.3 4.1 4.1 0 004.8-4.1v-27a4.2 4.2 0 014.3-4.3 4.2 4.2 0 014 4.2v8.2a4.3 4.3 0 003.5 4.3 4.2 4.2 0 004.8-4v-48.5z" fill="#3f3d56"/><path data-name="Path 1210" d="M181 67.5h42l11.2-24a8 8 0 00-8-11.5 8 8 0 00-3.8 1.4l-20.4 14-20.5-14a8 8 0 00-3.7-1.4 8 8 0 00-8 11.4z" fill="#002fbb"/><g data-name="Group 2109" fill="#ffbe9d"><path data-name="Path 1211" d="M134 180.3l10.8-11.8-2.6-2.4-10.7 11.8a1.8 1.8 0 002.6 2.4z"/><path data-name="Path 1212" d="M148.6 170l-.5 1.4a30.6 30.6 0 00-8 19v.5a2.8 2.8 0 01-3.5 2.6 2.8 2.8 0 01-2.2-2.4 30.6 30.6 0 015.7-21.2l5-6.8z"/></g><g data-name="Group 2110"><path data-name="Path 1213" d="M272 180.3l-10.8-11.8 2.6-2.4 10.8 11.8a1.8 1.8 0 11-2.7 2.4z" fill="#ffbe9d"/><path data-name="Path 1214" d="M257.4 170l.6 1.4a30.6 30.6 0 018 19v.5a2.8 2.8 0 003.4 2.6 2.8 2.8 0 002.2-2.4 30.6 30.6 0 00-5.7-21.2L261 163z" fill="#ffbe9d"/><path data-name="Path 1215" d="M263.3 166l-36-48.5-4.4-50-2.9-.8a63.9 63.9 0 00-35.5-.2l-3.5 1-2.7 50.5-35.5 48 5.5 5.3 27.2-28.5A38 38 0 01203 131a38 38 0 0127.5 11.7l27.2 28.3z" fill="#fdbc00"/></g><path data-name="Path 1216" d="M178.8 164.5c-.1 6.4 5.6 14 13.9 16.2a18.8 18.8 0 0020.8-8.2l.7-1.2a18.8 18.8 0 002-15.3l-5.4-13.6v-9.6l-7.8-5.9-7.9 5.9-.1 10.4h-7.3a9.3 9.3 0 00-9.2 9.3v4.3z" fill="#ffbe9d"/><path data-name="Path 1217" d="M186.4 153.1a4.1 4.1 0 018.2 0" fill="#fff"/><path data-name="Path 1218" d="M205.6 162.7l-27.6 5.9a14.5 14.5 0 001 4.2 21.1 21.1 0 0025.6 13.3c10-2.5 16.8-11.6 16.8-20.9S213 148 213 148z" fill="#3f3d56"/><path data-name="Path 1219" d="M202.2 159.4a4.7 4.7 0 114.7 4.7 4.7 4.7 0 01-4.7-4.7z" fill="#e8505b"/></g><g data-name="Group 1309"><path data-name="Rectangle 12" fill="#9a98b3" d="M296.5 312.4h302.2v4H296.5z"/></g><g data-name="Group 1319"><path data-name="Path 1190" d="M456.6 359.6l4 8.2h-25.2a6.1 6.1 0 016.8-4.6l3 .5a3 3 0 002.8-4.1h8.6z"/><path data-name="Path 1191" d="M435.3 359.6l4 8.2H414a6.1 6.1 0 016.9-4.6l3 .5a3 3 0 002.7-4.1h8.7z"/><g data-name="Group 2106"><g data-name="Group 2105"><path data-name="Path 1192" d="M438 360.3l22.3-57.5 25.7-13 29.1 15.7 8.2-12.5-31.8 3.5L449 287a10.7 10.7 0 00-6.7 8.1L423 360.3z" fill="#002fbb"/><path data-name="Path 1193" d="M464.5 288.3a10.7 10.7 0 00-5.6 8.4l-14.7 63.6h14l20.6-54.2s26 6.3 43.9 6.3c7.8 0 16.4-7.4 16.4-16.4v-3z" fill="#002fbb"/><path data-name="Path 1194" d="M478.6 286.3l-7.7-11.7 18-37.8a15.8 15.8 0 0114.3-9h23a19.3 19.3 0 0116.7 9.7l19.8 29.8a8.5 8.5 0 01-3.6 12.5l-20 9v7.7l-43.6-5.2 1.2-40.9zm65.8-14a3 3 0 001.2-4.7l-6.5-8.7v15.7z" fill="#fdbc00"/><path data-name="Path 1195" d="M493.5 195c-.1-6.2 5.4-13.5 13.4-15.6a18.2 18.2 0 0120.2 8l.7 1a18.2 18.2 0 012 14.9l-5.4 15.6v8.8l-7.8 3.8-7.3-3.8-.2-9.5h-7a9 9 0 01-8.9-9v-6.7z" fill="#ffbe9d"/><path data-name="Path 1196" d="M500.8 208.6a4 4 0 008 0" fill="#fff"/><g data-name="Group 2104" fill="#ffbe9d"><g data-name="Group 2103"><path data-name="Path 1197" d="M512 288.4a2 2 0 01.7-2.6l7.5-3.9 5 2.5-10.7 4.8a2 2 0 01-2.6-.8z"/><path data-name="Path 1198" d="M512.2 292.7a2 2 0 01.8-2.6l11.4-6 1.8 3.3-11.4 6.1a2 2 0 01-2.6-.8z"/><path data-name="Path 1199" d="M515.5 295.2a2 2 0 01.8-2.6l9.9-5.2 1.8 3.4-10 5.2a2 2 0 01-2.5-.8z"/><path data-name="Path 1200" d="M522 296.1a2 2 0 01.7-2.6l5.3-2.7 1.7 3.4-5.2 2.7a2 2 0 01-2.6-.8z"/></g><path data-name="Path 1201" d="M527.7 295.2l2.5-1.2a4.9 4.9 0 001.5-1.3l1.6-2-4.4-9.1-.2-.1a11.4 11.4 0 00-9.3.9z"/></g><path data-name="Path 1202" d="M517.7 173.7a20 20 0 00-24.2 12.5 13.8 13.8 0 00-1 4l7.8.5 2.8-5 1.3 5.2 13.5 1 8.9 21c2.8-4.7 3.7-8.1 5.1-12a20.6 20.6 0 00-14.2-27.2z" fill="#3f3d56"/><path data-name="Path 1203" d="M518 202.5a3.6 3.6 0 103.6-3.7 3.6 3.6 0 00-3.6 3.7z" fill="#ffbe9d"/><path data-name="Path 1205" d="M517.2 185v24.2a20.2 20.2 0 002.9-14c-1.5-7.9-2.9-10.3-2.9-10.3z" fill="#2c1e56"/></g></g><g data-name="Group 2107"><path data-name="Path 1206" d="M441.7 292.3h53a5.3 5.3 0 00-5.4-5.3h-47.6z" fill="#3f3d56"/><path data-name="Path 1207" d="M431.1 292h46.6a4.3 4.3 0 004.2-5.2l-6.4-30a4.3 4.3 0 00-4.2-3.4h-46.6a4.3 4.3 0 00-4.2 5.3l6.4 29.9a4.3 4.3 0 004.2 3.4z" fill="#3f3d56"/><path data-name="Path 1208" d="M447.2 272.7a4 4 0 104-4 4 4 0 00-4 4z" fill="#fff"/></g></g><path data-name="Path 1285" d="M399.4 126.2l-5.1-5-1 7.1-6.3 3.3 6.5 3 1.2 7.1 4.9-5.2 7 1-3.4-6.2 3.2-6.4z" fill="#fff" stroke="#a1c7ff" stroke-linecap="round" stroke-linejoin="round" stroke-width="2"/><path data-name="Path 1286" d="M415 81l-2.5-2.5-.5 3.5-3.2 1.7 3.3 1.5.6 3.5 2.4-2.6 3.6.6-1.8-3.2 1.6-3.2z" fill="#fff" stroke="#fdbc00" stroke-linecap="round" stroke-linejoin="round" stroke-width="2"/><g data-name="Group 2112"><path data-name="Rectangle 69" d="M168.6 250h43.3a3.6 3.6 0 013.6 3.5V289a3.6 3.6 0 01-3.6 3.6h-43.3a3.6 3.6 0 01-3.6-3.6v-35.4a3.6 3.6 0 013.6-3.6z" fill="#1a26cc" opacity=".2"/><path data-name="Rectangle 70" d="M170.5 248h43.3a3.6 3.6 0 013.6 3.6v35.3a3.6 3.6 0 01-3.6 3.6h-43.3a3.6 3.6 0 01-3.6-3.6v-35.3a3.6 3.6 0 013.6-3.6z" fill="#f3f1ff"/><path data-name="Path 169" d="M215 248h-45.8c-1.3 0-2.3 1.6-2.3 3.6v5c0 .5.3 1 .6 1h49.2c.4 0 .7-.5.7-1v-5c0-2-1-3.6-2.4-3.6z" fill="#1a26cc" fill-rule="evenodd"/><path data-name="Path 184" d="M185.4 254.5a1.7 1.7 0 111.7-1.7 1.7 1.7 0 01-1.7 1.7z" fill="#fff" fill-rule="evenodd"/><path data-name="Path 185" d="M179.1 254.5a1.7 1.7 0 111.7-1.7 1.7 1.7 0 01-1.7 1.7z" fill="#fff" fill-rule="evenodd"/><path data-name="Path 186" d="M172.9 254.5a1.7 1.7 0 111.7-1.7 1.7 1.7 0 01-1.7 1.7z" fill="#fff" fill-rule="evenodd"/><text transform="translate(192 276)" fill="#3441af" font-size="11" font-family="Rubik-Bold, Rubik" font-weight="700" opacity=".5"><tspan x="-16.1" y="0">React</tspan></text></g><g data-name="Group 2113"><path data-name="Rectangle 69" d="M455.5 118h69.4a3.6 3.6 0 013.6 3.5V157a3.6 3.6 0 01-3.6 3.6h-69.4a3.6 3.6 0 01-3.6-3.6v-35.4a3.6 3.6 0 013.6-3.6z" fill="#1a26cc" opacity=".2"/><path data-name="Path 1273" d="M453.6 116h69.5a3.6 3.6 0 013.6 3.6v35.3a3.6 3.6 0 01-3.6 3.6h-69.5a3.6 3.6 0 01-3.6-3.6v-35.3a3.6 3.6 0 013.6-3.6z" fill="#f3f1ff"/><path data-name="Path 169" d="M453.6 116h69.5a3.6 3.6 0 013.6 3.6v5a1 1 0 01-1 1H451a1 1 0 01-1-1v-5a3.6 3.6 0 013.6-3.6z" fill="#1a26cc" fill-rule="evenodd"/><path data-name="Path 184" d="M508.2 122.5a1.7 1.7 0 10-1.7-1.7 1.7 1.7 0 001.7 1.7z" fill="#fff" fill-rule="evenodd"/><path data-name="Path 185" d="M514.4 122.5a1.7 1.7 0 10-1.7-1.7 1.7 1.7 0 001.7 1.7z" fill="#fff" fill-rule="evenodd"/><path data-name="Path 186" d="M520.7 122.5a1.7 1.7 0 10-1.8-1.7 1.7 1.7 0 001.8 1.7z" fill="#fff" fill-rule="evenodd"/><text transform="translate(488 146)" fill="#3441af" font-size="14" font-family="Rubik-Bold, Rubik" font-weight="700" opacity=".5"><tspan x="-14.9" y="0">UXD</tspan></text></g><path data-name="Line 21" fill="none" stroke="#9a98b3" d="M143.5 45.5V.5"/><path data-name="Line 22" fill="none" stroke="#9a98b3" d="M259.5 45.5V.5"/></svg>