<svg xmlns="http://www.w3.org/2000/svg" width="290.965" height="358.751" viewBox="0 0 290.965 358.751">
  <g id="img-knowledge" transform="translate(-506 -1534)">
    <g id="Group_453" data-name="Group 453" transform="translate(506 1534)">
      <g id="Background_Complete" data-name="Background Complete" transform="translate(29.896 34.287)">
        <g id="Group_72" data-name="Group 72" transform="translate(175.664)">
          <g id="Group_71" data-name="Group 71">
            <g id="Group_70" data-name="Group 70">
              <g id="Group_69" data-name="Group 69">
                <g id="Group_68" data-name="Group 68">
                  <g id="Group_67" data-name="Group 67">
                    <path id="Path_96" data-name="Path 96" d="M332.181,89.318h53.762s-4.755-8.652-18.593-7.393c-13.217,1.2-13.889-4.256-20.609-4.928S334.421,81.478,332.181,89.318Z" transform="translate(-332.181 -76.939)" fill="#fff" opacity="0.46"/>
                  </g>
                </g>
              </g>
            </g>
          </g>
        </g>
        <g id="Group_163" data-name="Group 163" transform="translate(0 43.011)">
          <g id="Group_88" data-name="Group 88" transform="translate(33.336 110.76)">
            <g id="Group_73" data-name="Group 73">
              <path id="Path_97" data-name="Path 97" d="M159.919,265.734s-5.386,2.913,2.455,14.162a158.708,158.708,0,0,0,12.944,16.65s1.482,2.657-.822,3.42-7.626.649-8.28,3.688c-.679,3.152,1.891,5.683,6.653,7.557s15.044,6.363,15.972,6.772c.911.4,1.934,1.594.447,2.364s-13.029,3.608-11.356,9,15.8,8.438,17.335,8.8,1.972.933,1.963,1.751-3.978,1.406-7.228,2.347-6.853,2.6-5.626,5.635,10.1,8.536,29.708,7.765l9.061-.952L227,346.4c7.176-18.261,4.9-28.454,2.437-30.609s-5.214.7-7.172,3.46-3.818,6.315-4.594,6.054-1.171-.859-1.007-2.43,1.936-15.909-2.609-19.265-11.02,6.612-12.238,7.763-2-.207-2.085-1.2c-.081-1.011-.939-12.2-1.142-17.311s-1.749-8.373-4.949-8.768c-3.084-.381-4.729,4.681-6.206,6.607s-3.5-.349-3.5-.349a158.7,158.7,0,0,0-11.466-17.7c-8.044-11.1-12.66-6.85-12.66-6.85" transform="translate(-158.115 -265)" fill="#fff"/>
            </g>
            <g id="Group_75" data-name="Group 75" transform="translate(8.809 10.82)">
              <g id="Group_74" data-name="Group 74">
                <path id="Path_98" data-name="Path 98" d="M225.87,359.167c-5.876-8.178-16.074-22.89-24.9-35.475s-16.814-23.963-22.648-32.171c-2.917-4.093-5.279-7.41-6.919-9.713-.81-1.14-1.442-2.028-1.88-2.642l-.482-.692c-.108-.157-.157-.241-.157-.241s.065.074.18.224l.506.675,1.922,2.611c1.667,2.27,4.056,5.572,6.993,9.662,5.876,8.178,13.9,19.545,22.716,32.125s18.994,27.313,24.828,35.521" transform="translate(-168.888 -278.233)" fill="#e0e0e0"/>
              </g>
            </g>
            <g id="Group_77" data-name="Group 77" transform="translate(15.538 39.107)">
              <g id="Group_76" data-name="Group 76">
                <path id="Path_99" data-name="Path 99" d="M177.118,312.833a2.952,2.952,0,0,1,.653.088c.418.074,1.017.2,1.757.357,1.48.322,3.511.819,5.743,1.409l5.708,1.53,1.732.452a2.912,2.912,0,0,1,.63.192,3.014,3.014,0,0,1-.654-.084c-.417-.074-1.017-.2-1.756-.366-1.477-.338-3.5-.861-5.733-1.451l-5.717-1.488-1.735-.444A2.972,2.972,0,0,1,177.118,312.833Z" transform="translate(-177.118 -312.828)" fill="#e0e0e0"/>
              </g>
            </g>
            <g id="Group_79" data-name="Group 79" transform="translate(32.295 23.626)">
              <g id="Group_78" data-name="Group 78">
                <path id="Path_100" data-name="Path 100" d="M197.616,312.747c-.076-.016.765-4.25,1.879-9.455s2.079-9.414,2.155-9.4-.765,4.249-1.878,9.456S197.693,312.763,197.616,312.747Z" transform="translate(-197.611 -293.895)" fill="#e0e0e0"/>
              </g>
            </g>
            <g id="Group_81" data-name="Group 81" transform="translate(44.972 47.082)">
              <g id="Group_80" data-name="Group 80">
                <path id="Path_101" data-name="Path 101" d="M213.117,337.911a3.147,3.147,0,0,1,.289-.608c.233-.431.522-.97.868-1.609.73-1.36,1.73-3.242,2.758-5.359s1.9-4.063,2.518-5.478l.733-1.675a3.076,3.076,0,0,1,.3-.6,3.023,3.023,0,0,1-.2.643c-.144.407-.363.993-.65,1.711-.571,1.437-1.412,3.4-2.448,5.523s-2.061,4-2.838,5.333c-.39.667-.713,1.2-.946,1.567A3.037,3.037,0,0,1,213.117,337.911Z" transform="translate(-213.115 -322.581)" fill="#e0e0e0"/>
              </g>
            </g>
            <g id="Group_83" data-name="Group 83" transform="translate(29.142 62.176)">
              <g id="Group_82" data-name="Group 82">
                <path id="Path_102" data-name="Path 102" d="M193.756,341.569a2.623,2.623,0,0,1,.618-.074l1.688-.1c1.425-.07,3.395-.148,5.572-.216s4.148-.114,5.575-.132l1.691-.008a2.639,2.639,0,0,1,.621.036,2.619,2.619,0,0,1-.617.074l-1.688.1c-1.426.07-3.4.147-5.572.215s-4.147.114-5.575.132l-1.69.008A2.6,2.6,0,0,1,193.756,341.569Z" transform="translate(-193.756 -341.041)" fill="#e0e0e0"/>
              </g>
            </g>
            <g id="Group_85" data-name="Group 85" transform="translate(38.096 80.876)">
              <g id="Group_84" data-name="Group 84">
                <path id="Path_103" data-name="Path 103" d="M204.706,364.759a4.233,4.233,0,0,1,.791-.087l2.163-.133c1.827-.1,4.351-.219,7.139-.333s5.315-.2,7.143-.249l2.166-.044a4.327,4.327,0,0,1,.8.023,4.266,4.266,0,0,1-.792.087l-2.162.133c-1.827.1-4.351.219-7.14.333s-5.314.2-7.142.25l-2.166.043A4.323,4.323,0,0,1,204.706,364.759Z" transform="translate(-204.706 -363.911)" fill="#e0e0e0"/>
              </g>
            </g>
            <g id="Group_87" data-name="Group 87" transform="translate(57.803 61.077)">
              <g id="Group_86" data-name="Group 86">
                <path id="Path_104" data-name="Path 104" d="M228.81,359.4a4.939,4.939,0,0,1,.347-.779l1.026-2.08c.864-1.757,2.048-4.189,3.28-6.91s2.29-5.212,3.04-7.021l.89-2.141a4.958,4.958,0,0,1,.356-.774,4.842,4.842,0,0,1-.253.814c-.181.518-.455,1.262-.808,2.177-.7,1.83-1.729,4.339-2.967,7.064s-2.449,5.148-3.36,6.884c-.458.867-.835,1.565-1.106,2.041A4.988,4.988,0,0,1,228.81,359.4Z" transform="translate(-228.808 -339.697)" fill="#e0e0e0"/>
              </g>
            </g>
          </g>
          <g id="Group_118" data-name="Group 118" transform="translate(159.463)">
            <g id="Group_92" data-name="Group 92">
              <g id="Group_91" data-name="Group 91">
                <g id="Group_90" data-name="Group 90">
                  <g id="Group_89" data-name="Group 89">
                    <path id="Path_105" data-name="Path 105" d="M320.083,200.415c-9.735-10.913-8.8-26.668-5.115-40.157.614-2.252.932-4.7,2.483-6.44s4.393-2.5,6.2-1.062c1.5,1.193,1.768,3.328,2.327,5.173a13.651,13.651,0,0,0,4.119,6.346c1.268,1.092,2.948,1.975,4.561,1.526,2.213-.617,3.085-3.267,3.606-5.528l2.912-12.642a21.619,21.619,0,0,1,2.269-6.543,7.2,7.2,0,0,1,5.522-3.693c2.291-.092,4.653,1.774,4.583,4.092a21.317,21.317,0,0,1-.6,2.826,2.442,2.442,0,0,0,.86,2.565,2.806,2.806,0,0,0,2.724-.449,30.844,30.844,0,0,0,7.316-6.859,42.8,42.8,0,0,1,7.016-7.206c2.7-1.985,6.095-3.262,9.371-2.68s6.249,3.395,6.314,6.762-2.557,6.166-5.187,8.264a51.783,51.783,0,0,1-12.862,7.516,4.265,4.265,0,0,0-2.2,1.472c-.847,1.388.225,3.222,1.594,4.068,1.549.959,3.417,1.217,5.128,1.841s3.434,1.852,3.706,3.674c.379,2.527-2.124,4.488-4.4,5.622a44.375,44.375,0,0,1-14.523,4.349,14.976,14.976,0,0,0-5.294,1.182c-1.616.85-2.9,2.688-2.472,4.469s2.388,2.784,4.2,2.873a30.858,30.858,0,0,0,5.4-.719c3.38-.436,7.336.727,8.689,3.879a7.344,7.344,0,0,1-.737,6.5,16.932,16.932,0,0,1-4.744,4.769,44.611,44.611,0,0,1-21.621,8.635c-7.788.792-14.617-.113-21.15-4.423" transform="translate(-312.368 -129.541)" fill="#fff"/>
                  </g>
                </g>
              </g>
            </g>
            <g id="Group_97" data-name="Group 97" transform="translate(9.688 3.034)">
              <g id="Group_96" data-name="Group 96">
                <g id="Group_95" data-name="Group 95">
                  <g id="Group_94" data-name="Group 94">
                    <g id="Group_93" data-name="Group 93">
                      <path id="Path_106" data-name="Path 106" d="M324.216,202.4c1.769-5.271-.082-2.625,3.558-9a207.683,207.683,0,0,1,13.189-19.877l3.724-5.033c1.227-1.649,2.442-3.285,3.731-4.81a103.578,103.578,0,0,1,7.905-8.345c2.643-2.533,5.243-4.84,7.689-6.979s4.776-4.083,6.97-5.767a82.4,82.4,0,0,1,10.931-7.169c1.352-.742,2.419-1.284,3.149-1.641l.831-.4a1.7,1.7,0,0,1,.289-.123,1.612,1.612,0,0,1-.27.163l-.812.439c-.715.383-1.769.948-3.108,1.711a87.072,87.072,0,0,0-10.828,7.264c-2.176,1.7-4.482,3.65-6.921,5.794s-5.023,4.463-7.652,7a104.831,104.831,0,0,0-7.855,8.33c-1.28,1.519-2.483,3.141-3.711,4.8l-3.721,5.031A213.21,213.21,0,0,0,328.113,193.6c-3.646,6.35-1.814,3.666-3.612,8.906" transform="translate(-324.216 -133.251)" fill="#e0e0e0"/>
                    </g>
                  </g>
                </g>
              </g>
            </g>
            <g id="Group_102" data-name="Group 102" transform="translate(33.993 7.854)">
              <g id="Group_101" data-name="Group 101">
                <g id="Group_100" data-name="Group 100">
                  <g id="Group_99" data-name="Group 99">
                    <g id="Group_98" data-name="Group 98">
                      <path id="Path_107" data-name="Path 107" d="M353.961,164.764a4.683,4.683,0,0,1,.007-1.015c.029-.652.1-1.594.21-2.756.213-2.324.617-5.523,1.076-9.047s.816-6.722.993-9.043c.092-1.159.157-2.1.194-2.749a4.671,4.671,0,0,1,.105-1.01,4.53,4.53,0,0,1,.061,1.013c.014.652,0,1.6-.059,2.764-.1,2.333-.411,5.547-.872,9.077-.461,3.477-.879,6.622-1.2,9.026-.137,1.087-.253,2-.345,2.738A4.668,4.668,0,0,1,353.961,164.764Z" transform="translate(-353.941 -139.146)" fill="#e0e0e0"/>
                    </g>
                  </g>
                </g>
              </g>
            </g>
            <g id="Group_107" data-name="Group 107" transform="translate(34.012 32.916)">
              <g id="Group_106" data-name="Group 106">
                <g id="Group_105" data-name="Group 105">
                  <g id="Group_104" data-name="Group 104">
                    <g id="Group_103" data-name="Group 103">
                      <path id="Path_108" data-name="Path 108" d="M384.275,171.8a6.371,6.371,0,0,1-1.19-.135c-.76-.11-1.86-.276-3.225-.436-2.726-.343-6.509-.684-10.7-.879s-7.992-.195-10.741-.12c-1.375.026-2.487.078-3.257.11a6.42,6.42,0,0,1-1.2.01,6.393,6.393,0,0,1,1.187-.177c.767-.082,1.88-.181,3.258-.248,2.754-.152,6.568-.192,10.772-.006a105.163,105.163,0,0,1,10.72,1.008c1.364.2,2.46.411,3.213.573A6.381,6.381,0,0,1,384.275,171.8Z" transform="translate(-353.965 -169.798)" fill="#e0e0e0"/>
                    </g>
                  </g>
                </g>
              </g>
            </g>
            <g id="Group_112" data-name="Group 112" transform="translate(7.889 22.199)">
              <g id="Group_111" data-name="Group 111">
                <g id="Group_110" data-name="Group 110">
                  <g id="Group_109" data-name="Group 109">
                    <g id="Group_108" data-name="Group 108">
                      <path id="Path_109" data-name="Path 109" d="M327.856,197.222a1.5,1.5,0,0,1-.115-.4l-.248-1.168c-.21-1.016-.477-2.491-.782-4.321-.613-3.657-1.3-8.734-1.983-14.348s-1.323-10.693-1.859-14.357c-.266-1.783-.485-3.249-.647-4.339-.068-.473-.124-.862-.169-1.182a1.549,1.549,0,0,1-.031-.418,1.53,1.53,0,0,1,.115.4l.248,1.167c.211,1.016.477,2.491.783,4.321.612,3.657,1.3,8.734,1.983,14.351s1.323,10.691,1.858,14.356c.267,1.782.485,3.249.647,4.338.069.473.124.863.17,1.182A1.56,1.56,0,0,1,327.856,197.222Z" transform="translate(-322.016 -156.69)" fill="#e0e0e0"/>
                    </g>
                  </g>
                </g>
              </g>
            </g>
            <g id="Group_117" data-name="Group 117" transform="translate(13.728 59.417)">
              <g id="Group_116" data-name="Group 116">
                <g id="Group_115" data-name="Group 115">
                  <g id="Group_114" data-name="Group 114">
                    <g id="Group_113" data-name="Group 113">
                      <path id="Path_110" data-name="Path 110" d="M370.672,202.228a1.588,1.588,0,0,1-.419.067l-1.209.11-4.447.361c-3.756.3-8.937.786-14.662,1.325s-10.918.973-14.68,1.2c-1.881.114-3.4.191-4.458.223l-1.213.029a1.535,1.535,0,0,1-.424-.02,1.607,1.607,0,0,1,.42-.068c.325-.029.724-.065,1.208-.11l4.447-.36c3.755-.3,8.937-.786,14.664-1.325s10.916-.973,14.679-1.2c1.881-.114,3.4-.191,4.458-.222l1.213-.029A1.5,1.5,0,0,1,370.672,202.228Z" transform="translate(-329.158 -202.207)" fill="#e0e0e0"/>
                    </g>
                  </g>
                </g>
              </g>
            </g>
          </g>
          <g id="Group_144" data-name="Group 144" transform="translate(198.457 141.573)">
            <g id="Group_123" data-name="Group 123" transform="translate(1.511 1.078)">
              <g id="Group_122" data-name="Group 122">
                <g id="Group_121" data-name="Group 121">
                  <g id="Group_120" data-name="Group 120">
                    <g id="Group_119" data-name="Group 119">
                      <path id="Path_111" data-name="Path 111" d="M408.846,304a2.31,2.31,0,0,1-.137.382l-.447,1.09c-.416.979-1,2.364-1.746,4.11-1.536,3.555-3.707,8.579-6.3,14.577l-.038.088-.1.016-19.8,3.271-6.639,1.086-.3.049.075-.3c1.614-6.369,3.1-12.234,4.362-17.215l.093.191-11.637-5.2-3.211-1.463-.836-.395a1.487,1.487,0,0,1-.28-.15,1.526,1.526,0,0,1,.3.1l.856.351,3.247,1.38L378,311.049l.127.056-.034.136c-1.242,4.986-2.7,10.857-4.293,17.233l-.227-.247,6.639-1.091,19.81-3.222-.134.1,6.434-14.518c.781-1.73,1.4-3.1,1.836-4.07.209-.448.374-.8.5-1.069A2.189,2.189,0,0,1,408.846,304Z" transform="translate(-361.905 -304.002)" fill="#e0e0e0"/>
                    </g>
                  </g>
                </g>
              </g>
            </g>
            <g id="Group_127" data-name="Group 127" transform="translate(11.608 22.841)">
              <g id="Group_126" data-name="Group 126">
                <g id="Group_125" data-name="Group 125">
                  <g id="Group_124" data-name="Group 124">
                    <path id="Path_112" data-name="Path 112" d="M378.213,331.136l-.541,1.425.867,1.254-1.523-.074-.924,1.212-.4-1.471-1.438-.5,1.275-.835.035-1.524,1.188.955Z" transform="translate(-374.254 -330.618)" fill="#e0e0e0"/>
                  </g>
                </g>
              </g>
            </g>
            <g id="Group_131" data-name="Group 131">
              <g id="Group_130" data-name="Group 130">
                <g id="Group_129" data-name="Group 129">
                  <g id="Group_128" data-name="Group 128">
                    <path id="Path_113" data-name="Path 113" d="M362.027,302.941l-.269.709.431.624-.757-.037-.46.6-.2-.732-.715-.251.635-.415.018-.758.591.475Z" transform="translate(-360.057 -302.684)" fill="#e0e0e0"/>
                  </g>
                </g>
              </g>
            </g>
            <g id="Group_135" data-name="Group 135" transform="translate(38.406 20.087)">
              <g id="Group_134" data-name="Group 134">
                <g id="Group_133" data-name="Group 133">
                  <g id="Group_132" data-name="Group 132">
                    <path id="Path_114" data-name="Path 114" d="M409,327.508l-.269.709.431.624-.757-.037-.46.6-.2-.732-.715-.251.635-.415.018-.758.591.475Z" transform="translate(-407.028 -327.25)" fill="#e0e0e0"/>
                  </g>
                </g>
              </g>
            </g>
            <g id="Group_139" data-name="Group 139" transform="translate(16.244 7.334)">
              <g id="Group_138" data-name="Group 138">
                <g id="Group_137" data-name="Group 137">
                  <g id="Group_136" data-name="Group 136">
                    <path id="Path_115" data-name="Path 115" d="M381.893,311.911l-.269.709.431.624-.757-.037-.46.6-.2-.732-.716-.251.634-.415.018-.758.591.475Z" transform="translate(-379.923 -311.653)" fill="#e0e0e0"/>
                  </g>
                </g>
              </g>
            </g>
            <g id="Group_143" data-name="Group 143" transform="translate(47.404 0.112)">
              <g id="Group_142" data-name="Group 142">
                <g id="Group_141" data-name="Group 141">
                  <g id="Group_140" data-name="Group 140">
                    <path id="Path_116" data-name="Path 116" d="M420,303.078l-.269.709.431.624-.757-.037-.46.6-.2-.732-.716-.251.635-.415.018-.758.591.475Z" transform="translate(-418.032 -302.82)" fill="#e0e0e0"/>
                  </g>
                </g>
              </g>
            </g>
          </g>
          <g id="Group_150" data-name="Group 150" transform="translate(0 191.588)">
            <g id="Group_149" data-name="Group 149">
              <g id="Group_148" data-name="Group 148">
                <g id="Group_147" data-name="Group 147">
                  <g id="Group_146" data-name="Group 146">
                    <g id="Group_145" data-name="Group 145">
                      <path id="Path_117" data-name="Path 117" d="M117.345,373.708h42.8s-3.785-6.888-14.8-5.886c-10.523.957-11.058-3.388-16.409-3.924S119.128,367.466,117.345,373.708Z" transform="translate(-117.345 -363.852)" fill="#fff" opacity="0.46"/>
                    </g>
                  </g>
                </g>
              </g>
            </g>
          </g>
          <g id="Group_156" data-name="Group 156" transform="translate(8.499 23.056)">
            <g id="Group_155" data-name="Group 155">
              <g id="Group_154" data-name="Group 154">
                <g id="Group_153" data-name="Group 153">
                  <g id="Group_152" data-name="Group 152">
                    <g id="Group_151" data-name="Group 151">
                      <path id="Path_118" data-name="Path 118" d="M127.739,167.6h42.8s-3.785-6.889-14.8-5.886c-10.523.957-11.058-3.389-16.409-3.924S129.522,161.352,127.739,167.6Z" transform="translate(-127.739 -157.739)" fill="#f5f5f5" opacity="0.42"/>
                    </g>
                  </g>
                </g>
              </g>
            </g>
          </g>
          <g id="Group_162" data-name="Group 162" transform="translate(225.899 54.582)">
            <g id="Group_161" data-name="Group 161">
              <g id="Group_160" data-name="Group 160">
                <g id="Group_159" data-name="Group 159">
                  <g id="Group_158" data-name="Group 158">
                    <g id="Group_157" data-name="Group 157">
                      <path id="Path_119" data-name="Path 119" d="M393.619,204.392h35.169s-3.11-5.66-12.163-4.836c-8.646.787-9.086-2.784-13.482-3.224S395.084,199.263,393.619,204.392Z" transform="translate(-393.619 -196.294)" fill="#fff" opacity="0.46"/>
                    </g>
                  </g>
                </g>
              </g>
            </g>
          </g>
        </g>
      </g>
      <g id="Pencil" transform="translate(61.423 0)">
        <g id="Group_170" data-name="Group 170" transform="translate(22.244 1.714)">
          <g id="Group_165" data-name="Group 165" transform="translate(0 104.299)">
            <path id="Path_120" data-name="Path 120" d="M285.008,268.041c1.746-13.179-7.519-24.052-19.1-30.586s-25.009-8.72-37.8-12.354c-12.061-3.427-24.056-8.426-32.989-17.224s-14.292-22.024-11.08-34.144c.806-3.043,2.247-6.1,4.86-7.854s6.6-1.711,8.552.761c4.151,5.264-3.938,14.693,1.128,19.085,1.163,1.008,2.762,1.379,3.966,2.339,3.2,2.554,2.166,7.52,2.618,11.592.894,8.052,8.445,13.644,15.861,16.908,9.933,4.37,20.694,6.424,31.232,9.015s21.164,5.854,29.943,12.232,16.4,16.363,16.335,27.215c-.017,3.032-.4,6.761-2.306,9.122a5.367,5.367,0,0,1-7.071,1.56c-2.744-1.291-4.664-3.288-4.155-7.666" transform="translate(-183.107 -164.66)" fill="#fff" opacity="0.55"/>
          </g>
          <g id="Group_167" data-name="Group 167" transform="translate(45.856 2.739)">
            <path id="Path_122" data-name="Path 122" d="M239.222,140.632c-.417-4.881,3.219-9.132,7.356-11.411s8.872-3.2,13.136-5.227c10.587-5.019,17.318-16.83,17.815-28.945s-4.753-24.223-12.971-33.121c-3.339-3.616-7.446-7.4-7.495-12.337-.052-5.148,4.941-9.2,9.928-9.139s9.581,3.4,12.567,7.6,4.637,9.2,6.244,14.117c-1.146-2.054,1.207-4.6,3.473-4.379s4.056,2.11,5.455,3.993a42.55,42.55,0,0,1,8.152,28.49A40.123,40.123,0,0,1,290.21,116.4c-8.067,7.352-18.742,10.8-29.088,14.067l-21.6,6.815" transform="translate(-239.189 -40.452)" fill="#fff" opacity="0.45"/>
          </g>
          <g id="Group_169" data-name="Group 169" transform="translate(37.11)">
            <path id="Path_124" data-name="Path 124" d="M231.263,37.446a4.576,4.576,0,1,0,.753-.242" transform="translate(-228.492 -37.102)" fill="#e8505b"/>
            <g id="Group_168" data-name="Group 168" opacity="0.8">
              <path id="Path_125" data-name="Path 125" d="M231.263,37.446a4.576,4.576,0,1,0,.753-.242" transform="translate(-228.492 -37.102)" fill="#fff"/>
            </g>
          </g>
        </g>
        <g id="Group_172" data-name="Group 172" transform="translate(73.391 224.264)">
          <path id="Path_126" data-name="Path 126" d="M261.025,402.135c-2.647-5.489-.339-12.33,3.879-16.729s9.979-6.91,15.556-9.366c12.309-5.423,25.342-11.884,31.6-23.789a62.165,62.165,0,0,0,4.5-12.812c2.3-8.474,4.451-18.1-.169-25.563-1.329-2.147-3.327-4.058-5.814-4.5-2.831-.5-5.743,1.057-7.487,3.343a16.5,16.5,0,0,0-2.854,8.032c-.687,5.427-.118,10.947-.688,16.387s-2.561,11.129-7.048,14.258c-5.449,3.8-13.226,2.946-18.518,6.96-4.273,3.241-5.9,8.863-9.242,13.057-2.809,3.526-6.74,5.935-10.341,8.647s-7.083,6.02-8.307,10.359a12.271,12.271,0,0,0,17.081,14.413" transform="translate(-245.659 -309.281)" fill="#fff" opacity="0.55"/>
        </g>
        <g id="Group_180" data-name="Group 180">
          <g id="Group_174" data-name="Group 174">
            <path id="Path_128" data-name="Path 128" d="M162.79,74.949a17.038,17.038,0,0,1,.495-27.722c2.514-1.729,5.5-2.787,7.731-4.864,1.988-1.847,3.28-4.41,5.5-5.963a8.014,8.014,0,0,1,12.136,9.266c-1.025,2.869-3.6,4.966-4.677,7.817-1.159,3.069-.412,6.506-.843,9.758A13.474,13.474,0,0,1,165.087,74.1" transform="translate(-155.903 -35.007)" fill="#fff" opacity="0.45"/>
          </g>
          <g id="Group_175" data-name="Group 175" transform="translate(7.201 13.197)">
            <path id="Rectangle_102" data-name="Rectangle 102" d="M0,0H10.049a0,0,0,0,1,0,0V20.117a5.025,5.025,0,0,1-5.025,5.025h0A5.025,5.025,0,0,1,0,20.117V0A0,0,0,0,1,0,0Z" transform="translate(0 9.216)" fill="#06f"/>
            <path id="Path_130" data-name="Path 130" d="M164.71,60.362l5.024-9.216,5.025,9.216Z" transform="translate(-164.71 -51.146)" fill="#ffbe9d"/>
            <path id="Path_131" data-name="Path 131" d="M168.421,54.8s1.526,2.3,3.98,0l-1.99-3.65Z" transform="translate(-165.387 -51.146)" fill="#e8505b"/>
            <line id="Line_7" data-name="Line 7" x2="2.157" transform="translate(1.488 9.216)" fill="#fff" opacity="0.3"/>
          </g>
          <g id="Group_176" data-name="Group 176" transform="translate(7.173 41.916)">
            <path id="Path_132" data-name="Path 132" d="M174.892,86.473a32.342,32.342,0,0,1-5.108.2,32.334,32.334,0,0,1-5.108-.2,32.331,32.331,0,0,1,5.108-.2A32.339,32.339,0,0,1,174.892,86.473Z" transform="translate(-164.676 -86.27)" fill="#263238"/>
          </g>
          <g id="Group_177" data-name="Group 177" transform="translate(7.276 40.376)">
            <path id="Path_133" data-name="Path 133" d="M174.812,84.589a30.878,30.878,0,0,1-5,.2,30.893,30.893,0,0,1-5.006-.2,31.066,31.066,0,0,1,5.006-.2A31.051,31.051,0,0,1,174.812,84.589Z" transform="translate(-164.801 -84.386)" fill="#263238"/>
          </g>
          <g id="Group_178" data-name="Group 178" transform="translate(9.948 22.56)">
            <path id="Path_134" data-name="Path 134" d="M168.272,62.6c.112,0,.2,4.011.2,8.958s-.092,8.959-.2,8.959-.2-4.011-.2-8.959S168.16,62.6,168.272,62.6Z" transform="translate(-168.069 -62.597)" fill="#fafafa"/>
          </g>
          <g id="Group_179" data-name="Group 179" transform="translate(14.013 22.56)">
            <path id="Path_135" data-name="Path 135" d="M173.244,62.6c.112,0,.2,4.011.2,8.958s-.092,8.959-.2,8.959-.2-4.011-.2-8.959S173.132,62.6,173.244,62.6Z" transform="translate(-173.041 -62.597)" fill="#fafafa"/>
          </g>
        </g>
      </g>
      <g id="Notebook" transform="translate(107.765 298.2)">
        <g id="Group_189" data-name="Group 189">
          <path id="Path_136" data-name="Path 136" d="M263.194,408.718l45.654,1.953,1.1,2.66L280.028,461.9l-54.016-1.575Z" transform="translate(-215.029 -401.348)" fill="#263238"/>
          <path id="Path_137" data-name="Path 137" d="M223.506,456.911l54.342,3.1,28.382-44.047-19.93,1.62-50.444,17.764Z" transform="translate(-214.572 -402.669)" fill="#e0e0e0"/>
          <g id="Group_182" data-name="Group 182" transform="translate(0 5.675)">
            <path id="Path_138" data-name="Path 138" d="M213.892,451.987l49.9.788c-2.074-6.384,2.815-15.376,9.524-18.4,4.446-2,12.814-4.6,17.13-6.816,8.2-4.209,15.617-12.177,14.968-19.016l-20.495-.653-26.158-1.011c-2.187,6.489-6.866,10.74-13.979,13.3-6.365,2.289-13.61,2.283-19.819,4.883-9.993,4.186-14.795,17.746-11.074,26.927" transform="translate(-212.59 -406.687)" fill="#ebebeb"/>
            <g id="Group_181" data-name="Group 181">
              <path id="Path_139" data-name="Path 139" d="M213.882,451.944s-.047-.106-.126-.321-.194-.546-.342-.963a11.161,11.161,0,0,1-.424-1.616,16.461,16.461,0,0,1-.344-2.271,22.968,22.968,0,0,1,.4-6.344,23.657,23.657,0,0,1,3.2-7.92,19.11,19.11,0,0,1,1.436-2.006c.271-.325.525-.67.818-.987l.922-.934a8.567,8.567,0,0,1,1-.9c.353-.282.7-.588,1.069-.859a18.213,18.213,0,0,1,2.43-1.449c3.458-1.743,7.589-2.479,11.89-3.258,2.157-.392,4.378-.8,6.608-1.417a30.857,30.857,0,0,0,6.578-2.647,21.657,21.657,0,0,0,3.07-2.014,18.314,18.314,0,0,0,2.725-2.573,19.694,19.694,0,0,0,3.792-6.692l.045-.133.14.006,21.8.831c7.557.3,15.384.5,23.4.771l1.461.047.181.006.016.178a11.145,11.145,0,0,1-.66,4.612,17.36,17.36,0,0,1-.914,2.126,22.675,22.675,0,0,1-1.193,1.962,30.238,30.238,0,0,1-6.183,6.536,36.626,36.626,0,0,1-7.46,4.609c-2.633,1.183-5.3,2.148-7.908,3.114s-5.191,1.88-7.641,2.947a15.041,15.041,0,0,0-3.357,2.038c-.531.379-.974.858-1.458,1.281-.427.482-.9.919-1.281,1.433a18.511,18.511,0,0,0-3.49,6.559,12.157,12.157,0,0,0-.123,6.982l.067.221-.227,0-36.291-.643-10.064-.2-2.64-.066c-.6-.018-.9-.04-.9-.04s.307-.012.9-.011l2.64.017,10.065.114,36.294.5-.16.217a12.478,12.478,0,0,1,.1-7.181,18.836,18.836,0,0,1,3.543-6.691c.387-.524.869-.971,1.3-1.463a19.636,19.636,0,0,1,1.487-1.312,15.456,15.456,0,0,1,3.434-2.092c2.472-1.079,5.052-2,7.66-2.966s5.269-1.935,7.878-3.11a36.259,36.259,0,0,0,7.374-4.563,29.867,29.867,0,0,0,6.1-6.449,22.274,22.274,0,0,0,1.169-1.924,16.718,16.718,0,0,0,.89-2.072,10.733,10.733,0,0,0,.639-4.441l.2.184-1.461-.047c-8.012-.268-15.839-.476-23.4-.779l-21.8-.854.185-.128a20.042,20.042,0,0,1-3.873,6.811,18.712,18.712,0,0,1-2.779,2.615,22.074,22.074,0,0,1-3.122,2.038,31.171,31.171,0,0,1-6.657,2.662c-2.25.612-4.481,1.02-6.64,1.406-4.3.765-8.411,1.487-11.823,3.194a18.012,18.012,0,0,0-2.4,1.417c-.369.266-.707.567-1.057.844a8.2,8.2,0,0,0-.988.88l-.915.917c-.291.312-.543.653-.812.972a19.028,19.028,0,0,0-1.431,1.978,23.6,23.6,0,0,0-3.22,7.834,23.179,23.179,0,0,0-.448,6.3,16.994,16.994,0,0,0,.314,2.262,11.722,11.722,0,0,0,.394,1.617l.312.97C213.854,451.83,213.882,451.944,213.882,451.944Z" transform="translate(-212.579 -406.644)" fill="#263238"/>
            </g>
          </g>
          <g id="Group_183" data-name="Group 183" transform="translate(49.435)">
            <path id="Path_140" data-name="Path 140" d="M283.794,406.38c-.036-.011.065-.32.113-.892a5.059,5.059,0,0,0-.392-2.357,4.841,4.841,0,0,0-2.359-2.527,5.448,5.448,0,0,0-4.2-.151,5.505,5.505,0,0,0-3.038,2.924,6.04,6.04,0,0,0-.481,3.476,5.93,5.93,0,0,0,.853,2.246c.309.485.54.715.514.739a2.219,2.219,0,0,1-.643-.648,5.559,5.559,0,0,1-1.006-2.286,6.169,6.169,0,0,1,.421-3.68,5.8,5.8,0,0,1,3.236-3.15,5.738,5.738,0,0,1,4.512.195,5.046,5.046,0,0,1,2.461,2.757,4.843,4.843,0,0,1,.283,2.482,3.29,3.29,0,0,1-.167.659C283.843,406.312,283.807,406.385,283.794,406.38Z" transform="translate(-273.038 -399.704)" fill="#263238"/>
          </g>
          <g id="Group_184" data-name="Group 184" transform="translate(57.256)">
            <path id="Path_141" data-name="Path 141" d="M293.359,406.38c-.036-.011.065-.32.113-.892a5.057,5.057,0,0,0-.392-2.357,4.841,4.841,0,0,0-2.359-2.527,5.448,5.448,0,0,0-4.2-.151,5.505,5.505,0,0,0-3.038,2.924,6.04,6.04,0,0,0-.481,3.476,5.929,5.929,0,0,0,.853,2.246c.309.485.54.715.514.739a2.219,2.219,0,0,1-.643-.648,5.559,5.559,0,0,1-1.006-2.286,6.169,6.169,0,0,1,.421-3.68,5.7,5.7,0,0,1,7.748-2.956,5.046,5.046,0,0,1,2.461,2.757,4.843,4.843,0,0,1,.283,2.482,3.288,3.288,0,0,1-.167.659C293.408,406.312,293.372,406.385,293.359,406.38Z" transform="translate(-282.603 -399.704)" fill="#263238"/>
          </g>
          <g id="Group_185" data-name="Group 185" transform="translate(63.167 0.687)">
            <path id="Path_142" data-name="Path 142" d="M300.618,406.94c-.037-.009.047-.324.061-.9a5.043,5.043,0,0,0-.524-2.331,4.846,4.846,0,0,0-2.5-2.39,5.394,5.394,0,0,0-7.074,3.178,6.043,6.043,0,0,0-.283,3.5,5.915,5.915,0,0,0,.979,2.194c.336.467.579.683.555.709a2.215,2.215,0,0,1-.679-.611,5.565,5.565,0,0,1-1.134-2.225,6.184,6.184,0,0,1,.213-3.7,5.7,5.7,0,0,1,7.569-3.391,5.052,5.052,0,0,1,2.613,2.614,4.843,4.843,0,0,1,.422,2.461,3.32,3.32,0,0,1-.128.668C300.662,406.869,300.631,406.943,300.618,406.94Z" transform="translate(-289.833 -400.544)" fill="#263238"/>
          </g>
          <g id="Group_186" data-name="Group 186" transform="translate(69.522 1.315)">
            <path id="Path_143" data-name="Path 143" d="M308.4,407.442c-.038-.007.03-.325.015-.9a5.066,5.066,0,0,0-.648-2.3,4.847,4.847,0,0,0-2.621-2.254,5.449,5.449,0,0,0-4.2.31,5.509,5.509,0,0,0-2.7,3.239,6.037,6.037,0,0,0-.1,3.507,5.914,5.914,0,0,0,1.093,2.14c.361.448.615.651.592.679a2.231,2.231,0,0,1-.711-.575,5.563,5.563,0,0,1-1.249-2.162,6.175,6.175,0,0,1,.016-3.7,5.7,5.7,0,0,1,7.379-3.786,5.052,5.052,0,0,1,2.748,2.471,4.844,4.844,0,0,1,.552,2.436,3.285,3.285,0,0,1-.093.674C308.443,407.368,308.417,407.445,308.4,407.442Z" transform="translate(-297.604 -401.312)" fill="#263238"/>
          </g>
          <g id="Group_187" data-name="Group 187" transform="translate(75.901 1.305)">
            <path id="Path_144" data-name="Path 144" d="M316.206,407.29c-.038-.006.02-.326-.011-.9a5.049,5.049,0,0,0-.711-2.28,4.847,4.847,0,0,0-2.684-2.18,5.4,5.4,0,0,0-6.793,3.741,6.038,6.038,0,0,0,0,3.509,5.936,5.936,0,0,0,1.153,2.107c.374.438.634.634.611.662a2.247,2.247,0,0,1-.726-.554,5.559,5.559,0,0,1-1.31-2.126,6.174,6.174,0,0,1-.088-3.7,5.7,5.7,0,0,1,7.269-3.993,5.049,5.049,0,0,1,2.817,2.394,4.845,4.845,0,0,1,.621,2.419,3.289,3.289,0,0,1-.074.676C316.245,407.215,316.22,407.293,316.206,407.29Z" transform="translate(-305.405 -401.3)" fill="#263238"/>
          </g>
          <g id="Group_188" data-name="Group 188" transform="translate(81.281 1.822)">
            <path id="Path_145" data-name="Path 145" d="M322.783,408.123c-.038-.007.034-.325.025-.9a5.055,5.055,0,0,0-.621-2.307,4.842,4.842,0,0,0-2.594-2.285,5.449,5.449,0,0,0-4.2.26,5.51,5.51,0,0,0-2.738,3.207,6.042,6.042,0,0,0-.138,3.506,5.92,5.92,0,0,0,1.068,2.152c.355.452.608.658.584.685a2.22,2.22,0,0,1-.7-.583,5.567,5.567,0,0,1-1.224-2.177,6.174,6.174,0,0,1,.06-3.7,5.8,5.8,0,0,1,2.913-3.452,5.74,5.74,0,0,1,4.509-.247,5.051,5.051,0,0,1,2.719,2.5,4.84,4.84,0,0,1,.523,2.442,3.211,3.211,0,0,1-.1.672C322.824,408.049,322.8,408.125,322.783,408.123Z" transform="translate(-311.986 -401.932)" fill="#263238"/>
          </g>
        </g>
      </g>
      <g id="Air_Balloon" data-name="Air Balloon" transform="translate(188.472 138.694)">
        <g id="Group_198" data-name="Group 198">
          <path id="Path_146" data-name="Path 146" d="M346.967,204.648a44.78,44.78,0,0,0-6.76.306A28.139,28.139,0,0,0,315.646,233a49.9,49.9,0,0,0,1.748,13.366c3.931,13.946,5.144,26.241,4.69,32.227l13.161,7.074s6.094-8.754,11.98-12.53,25.48-13.87,33.238-24.249c5-6.69,5.962-20.42-5.96-32.429A40.414,40.414,0,0,0,346.967,204.648Z" transform="translate(-312.079 -204.628)" fill="#06f"/>
          <path id="Path_147" data-name="Path 147" d="M315.059,313.712l11.89,6.426-7.74,9.829-7.926-3.6Z" transform="translate(-311.283 -224.518)" fill="#455a64"/>
          <g id="Group_190" data-name="Group 190" transform="translate(4.346 73.964)">
            <path id="Path_148" data-name="Path 148" d="M316.606,310.712c-.105-.038,1.074-3.567,2.635-7.882s2.912-7.783,3.017-7.744-1.074,3.567-2.635,7.882S316.711,310.75,316.606,310.712Z" transform="translate(-316.599 -295.086)" fill="#263238"/>
          </g>
          <g id="Group_191" data-name="Group 191" transform="translate(14.913 80.451)">
            <path id="Path_149" data-name="Path 149" d="M329.525,317.705c-.1-.057,1.766-3.391,4.16-7.445s4.415-7.3,4.511-7.24-1.766,3.39-4.161,7.446S329.622,317.762,329.525,317.705Z" transform="translate(-329.522 -303.02)" fill="#263238"/>
          </g>
          <g id="Group_192" data-name="Group 192" transform="translate(14.241 0.379)" opacity="0.4">
            <path id="Path_150" data-name="Path 150" d="M353.313,205.106c-.534.029-7.076,7.688-9.971,12.871-9.737,17.438-10.174,34.409-12.877,54.2-.386,2.827-1.792,8.922-1.765,8.78a52.314,52.314,0,0,0,6.282,3.377s4.566-5.511,6.381-8.284c7.267-11.1,15.155-19.751,21.375-31.47s12.206-22.11,6.45-34.062C369.188,210.515,359.219,204.775,353.313,205.106Z" transform="translate(-328.701 -205.092)"/>
          </g>
          <g id="Group_193" data-name="Group 193" transform="translate(3.218 18.637)">
            <path id="Path_151" data-name="Path 151" d="M380.436,254.8a2.132,2.132,0,0,1-.17-.377c-.11-.249-.235-.631-.455-1.105a20.161,20.161,0,0,0-7.348-8.577,19.24,19.24,0,0,0-8.285-3.066l-.079-.011-.047-.063a46.076,46.076,0,0,0-5.312-6.1,26.612,26.612,0,0,0-7.252-4.993,18.767,18.767,0,0,0-8.571-1.634,14.187,14.187,0,0,0-7.5,2.5l-.119.084-.11-.1a14.758,14.758,0,0,0-8.011-3.56,14.491,14.491,0,0,0-6.811.868,15.106,15.106,0,0,0-3.912,2.2c-.412.321-.719.583-.918.766a2.2,2.2,0,0,1-.317.265,2.08,2.08,0,0,1,.276-.307,10.82,10.82,0,0,1,.886-.814,14.653,14.653,0,0,1,10.829-3.282,15,15,0,0,1,8.219,3.588l-.227-.011a14.508,14.508,0,0,1,7.693-2.6,19.066,19.066,0,0,1,8.759,1.659,26.8,26.8,0,0,1,7.358,5.076,45.77,45.77,0,0,1,5.334,6.168l-.126-.073a19.4,19.4,0,0,1,8.409,3.177,20,20,0,0,1,5.059,4.834,18.739,18.739,0,0,1,2.228,3.951c.205.484.312.876.4,1.131A2.117,2.117,0,0,1,380.436,254.8Z" transform="translate(-315.219 -227.421)" fill="#263238"/>
          </g>
          <g id="Group_194" data-name="Group 194" transform="translate(6.921 45.59)">
            <path id="Path_152" data-name="Path 152" d="M356.795,278.186a8.4,8.4,0,0,0-1.134-2.86,7.81,7.81,0,0,0-2.527-2.426,7.06,7.06,0,0,0-4.356-1.032l-.165.016-.025-.164a11.509,11.509,0,0,0-2.159-5.083,11.336,11.336,0,0,0-4.882-3.791,11.665,11.665,0,0,0-9.653.5l-.125.066-.1-.1a8.289,8.289,0,0,0-4.571-2.475,9.162,9.162,0,0,0-4.1.128,9.723,9.723,0,0,0-3.253,1.615c-.007-.007.052-.068.174-.177a6.628,6.628,0,0,1,.558-.462,8.065,8.065,0,0,1,2.462-1.186,9.21,9.21,0,0,1,4.212-.217,8.544,8.544,0,0,1,4.787,2.527l-.222-.038a11.94,11.94,0,0,1,9.975-.557,11.633,11.633,0,0,1,5.047,3.935,11.753,11.753,0,0,1,2.19,5.265l-.19-.147a7.3,7.3,0,0,1,4.541,1.137,7.845,7.845,0,0,1,2.549,2.559,6.868,6.868,0,0,1,.872,2.153,5.922,5.922,0,0,1,.085.606A.584.584,0,0,1,356.795,278.186Z" transform="translate(-319.748 -260.385)" fill="#263238"/>
          </g>
          <g id="Group_195" data-name="Group 195" transform="translate(2.481 93.351)">
            <path id="Path_153" data-name="Path 153" d="M325.2,324.161c-.03.024-.129-.163-.436-.289a2.105,2.105,0,0,0-1.391.042,3.954,3.954,0,0,1-1.052.193,1.657,1.657,0,0,1-1.175-.519c-.631-.657-.871-1.607-1.467-2.262a1.362,1.362,0,0,0-1.1-.462,6.937,6.937,0,0,0-1.239.248,2.748,2.748,0,0,1-1.246.066,2.2,2.2,0,0,1-.975-.5,2.321,2.321,0,0,1-.783-1.321c-.061-.364,0-.564.017-.561a4.81,4.81,0,0,1,.137.522,2.356,2.356,0,0,0,.81,1.137,1.964,1.964,0,0,0,.859.39,2.477,2.477,0,0,0,1.09-.1,6.609,6.609,0,0,1,1.313-.282,1.755,1.755,0,0,1,1.407.581c.691.787.908,1.721,1.442,2.282a1.318,1.318,0,0,0,.914.442,3.971,3.971,0,0,0,.975-.135,2.108,2.108,0,0,1,1.529.095C325.171,323.928,325.222,324.16,325.2,324.161Z" transform="translate(-314.318 -318.797)" fill="#263238"/>
          </g>
          <g id="Group_196" data-name="Group 196" transform="translate(3.319 90.715)">
            <path id="Path_154" data-name="Path 154" d="M326.754,321.664a102.811,102.811,0,0,1-11.411-6.087,102.976,102.976,0,0,1,11.411,6.087Z" transform="translate(-315.343 -315.572)" fill="#263238"/>
          </g>
          <g id="Group_197" data-name="Group 197" transform="translate(1.92 95.241)">
            <path id="Path_155" data-name="Path 155" d="M324.081,325.674c.007.031-.166.082-.453.215-.145.064-.311.163-.537.254a1.845,1.845,0,0,1-.819.108,3.416,3.416,0,0,1-1.96-.756,2.719,2.719,0,0,1-.747-1.028,3.919,3.919,0,0,0-.576-1.07,2.752,2.752,0,0,0-2.154-.617,4.988,4.988,0,0,1-2.068-.2,1.92,1.92,0,0,1-1.045-.958c-.133-.321-.086-.518-.066-.515.035,0,.047.181.207.443a1.906,1.906,0,0,0,1.007.762,5.161,5.161,0,0,0,1.95.092,3.033,3.033,0,0,1,2.469.718,4.01,4.01,0,0,1,.639,1.182,2.4,2.4,0,0,0,.63.908,3.279,3.279,0,0,0,1.74.751,2.441,2.441,0,0,0,1.275-.223C323.891,325.648,324.077,325.65,324.081,325.674Z" transform="translate(-313.632 -321.108)" fill="#263238"/>
          </g>
        </g>
      </g>
      <g id="Character" transform="translate(56.557 50.675)">
        <g id="Group_335" data-name="Group 335">
          <g id="Group_199" data-name="Group 199" transform="translate(51.121 94.484)">
            <path id="Path_156" data-name="Path 156" d="M215.864,229.511l20.56-3.049-9.83-13.926-5.272.312a9.4,9.4,0,0,0-8.082,5.666h0a9.407,9.407,0,0,0-.6,5.505Z" transform="translate(-212.473 -212.535)" fill="#002fbb"/>
          </g>
          <g id="Group_334" data-name="Group 334">
            <g id="Group_200" data-name="Group 200" transform="translate(121.454 78.722)">
              <path id="Path_158" data-name="Path 158" d="M319.869,248.78c.212.589.443,1.285.677,2.119a6.5,6.5,0,0,1,.222,2.2,9.981,9.981,0,0,1-.463,2.72c-.339.779.447,1.565,1.114,1.175s1.651-2.516,1.59-5.253,2.731.544,3.769,1.72,4.424,4.668,5.038,4.635c.9-.047,1.017-1.023-.048-2.174s-4.015-4.829-3.366-5.348,5.845,5.554,5.845,5.554.9,1.477,1.672.9c1.387-1.036-4.623-7.074-5.209-7.635-.408-.39.276-.979.691-.537s5.052,6.17,6.475,5.129c1.091-.8-4.9-5.014-5.2-6.733s4.216,3.658,5.227,2.852c.376-.3.616-.576-2.424-3.289-1.475-1.316-7.083-5.241-7.083-5.241l-16.876-48.321-13.033,7.464Z" transform="translate(-298.489 -193.259)" fill="#ffbe9d"/>
            </g>
            <path id="Path_159" data-name="Path 159" d="M192.324,142.528l-18.859-22.505h0a13.019,13.019,0,0,0-.922-2.244,7.031,7.031,0,0,0-4.449-3.711c-1.2-.262-2.565-.137-3.5-.922-.419-.352-.7-.853-1.138-1.179s-1.173-.389-1.453.081a1.272,1.272,0,0,0,.078,1.122,10.5,10.5,0,0,0,3.274,4.226c-1.769.537-4.294,1.35-4.294,1.35s-3.986-4.325-6.029-4.312,1.65,3.862,1.65,3.862-3.27-3.021-4.284-2.17,1.585,3.095,1.585,3.095a4.335,4.335,0,0,0-2.653-.742c-.923.153-1.718,1.243-1.221,2.036a2.158,2.158,0,0,0,.83.666l5.02,2.8a6.072,6.072,0,0,0,2.684.979c2.545.078,4.482-1.5,7.029-1.431,0,0,14.221,29.936,15.659,31.48s32.68,3.646,32.68,3.646l18.082-15.58Z" transform="translate(-149.952 -99.667)" fill="#ffbe9d"/>
            <g id="Group_208" data-name="Group 208" transform="translate(93.896 205.925)">
              <path id="Path_160" data-name="Path 160" d="M269.9,348.827l19.258,8.388-10.313,24.013c-2.233-1.125-1.5-15.527-1.5-15.527l-12.559-4.868Z" transform="translate(-264.786 -348.827)" fill="#06f"/>
              <g id="Group_201" data-name="Group 201" transform="translate(14.504 8.622)" opacity="0.6">
                <path id="Path_161" data-name="Path 161" d="M282.728,359.751a1.067,1.067,0,0,1,1.41-.2,1.025,1.025,0,0,1,.208,1.4,1.126,1.126,0,0,1-1.495.2,1.065,1.065,0,0,1-.055-1.477" transform="translate(-282.524 -359.372)" fill="#fff"/>
              </g>
              <path id="Path_162" data-name="Path 162" d="M292.117,358.913l-1.974-.769-9.15,23.312s.006,1.268.81,1.471Z" transform="translate(-267.741 -350.526)" fill="#fff" opacity="0.6"/>
              <g id="Group_202" data-name="Group 202" transform="translate(12.236 15.535)">
                <path id="Path_163" data-name="Path 163" d="M279.785,369.5c.119.047.424-.517,1.048-.932.614-.432,1.25-.51,1.249-.639.024-.118-.752-.244-1.5.271S279.667,369.481,279.785,369.5Z" transform="translate(-279.75 -367.827)" fill="#263238"/>
              </g>
              <g id="Group_203" data-name="Group 203" transform="translate(12.21 19.137)">
                <path id="Path_164" data-name="Path 164" d="M279.739,373.271c.1.076.519-.347,1.186-.531.661-.205,1.241-.075,1.286-.194.065-.1-.586-.478-1.411-.232S279.628,373.221,279.739,373.271Z" transform="translate(-279.719 -372.232)" fill="#263238"/>
              </g>
              <g id="Group_204" data-name="Group 204" transform="translate(12.22 22.416)">
                <path id="Path_165" data-name="Path 165" d="M282.142,376.728c.071-.1-.445-.51-1.217-.485s-1.262.464-1.186.555c.068.108.565-.1,1.2-.111C281.571,376.661,282.08,376.839,282.142,376.728Z" transform="translate(-279.731 -376.242)" fill="#263238"/>
              </g>
              <g id="Group_205" data-name="Group 205" transform="translate(9.408 13.336)">
                <path id="Path_166" data-name="Path 166" d="M276.416,367.585c.128,0,.2-.611.527-1.254s.76-1.07.686-1.175c-.056-.1-.706.213-1.083.976S276.3,367.6,276.416,367.585Z" transform="translate(-276.292 -365.137)" fill="#263238"/>
              </g>
              <g id="Group_206" data-name="Group 206" transform="translate(6.109 9.691)">
                <path id="Path_167" data-name="Path 167" d="M273.076,364.977a2.452,2.452,0,0,0,.511-1.205,5.91,5.91,0,0,0,.154-1.424,6.178,6.178,0,0,0-.07-.848,1.6,1.6,0,0,0-.127-.485.556.556,0,0,0-.6-.321.7.7,0,0,0-.488.4,1.715,1.715,0,0,0-.132.478,4.742,4.742,0,0,0-.065.859,4.589,4.589,0,0,0,.252,1.421c.276.779.633,1.157.673,1.127.061-.036-.19-.465-.372-1.215a5.219,5.219,0,0,1-.143-1.332,4.792,4.792,0,0,1,.083-.782c.043-.284.133-.5.275-.518.053,0,.072,0,.123.085a1.3,1.3,0,0,1,.092.355,6.782,6.782,0,0,1,.09.792,7.188,7.188,0,0,1-.053,1.354A9.123,9.123,0,0,0,273.076,364.977Z" transform="translate(-272.257 -360.68)" fill="#263238"/>
              </g>
              <g id="Group_207" data-name="Group 207" transform="translate(2.903 12.665)">
                <path id="Path_168" data-name="Path 168" d="M272.594,365.559c.036-.034-.285-.446-1.025-.816a4.267,4.267,0,0,0-1.387-.4,4.317,4.317,0,0,0-.862-.007,1.084,1.084,0,0,0-.937.507.612.612,0,0,0,.12.646,1.776,1.776,0,0,0,.388.313,2.918,2.918,0,0,0,.809.348,3.011,3.011,0,0,0,1.463.02c.824-.2,1.174-.631,1.139-.658a10.81,10.81,0,0,1-1.2.349,3.024,3.024,0,0,1-1.294-.1,2.7,2.7,0,0,1-.685-.321c-.24-.147-.4-.331-.337-.416.049-.12.329-.24.575-.251a4.314,4.314,0,0,1,.779-.018,4.72,4.72,0,0,1,1.3.282C272.164,365.3,272.549,365.615,272.594,365.559Z" transform="translate(-268.336 -364.316)" fill="#263238"/>
              </g>
            </g>
            <g id="Group_216" data-name="Group 216" transform="translate(84.182 234.684)">
              <path id="Path_169" data-name="Path 169" d="M252.906,388.229l7.965,16.689,2.495,15.016a1.9,1.9,0,0,0,2.306,1.533h0a1.883,1.883,0,0,0,1.317-1.128c1.464-3.626,6.784-16.989,6.133-18.178-.755-1.376-7.234-18.161-7.234-18.161Z" transform="translate(-252.906 -383.999)" fill="#06f"/>
              <path id="Path_170" data-name="Path 170" d="M268.518,425.262l6.939-20.444.321.715a2.854,2.854,0,0,1,.141,1.964c-.505,1.74-2.006,6.514-6.033,16.615a1.893,1.893,0,0,1-1.369,1.15Z" transform="translate(-255.753 -387.795)" fill="#fff" opacity="0.6"/>
              <g id="Group_209" data-name="Group 209" transform="translate(13.648 12.633)" opacity="0.6">
                <path id="Path_171" data-name="Path 171" d="M269.747,399.954a1.147,1.147,0,0,0,.328,1.495,1.1,1.1,0,0,0,1.483-.312,1.208,1.208,0,0,0-.355-1.58,1.143,1.143,0,0,0-1.508.495" transform="translate(-269.598 -399.449)" fill="#fff"/>
              </g>
              <g id="Group_210" data-name="Group 210" transform="translate(9.126 27.31)">
                <path id="Path_172" data-name="Path 172" d="M268.248,418.454a4.09,4.09,0,0,0-4.177-.146c-.033-.034.122-.262.491-.495a3.018,3.018,0,0,1,3.231.112C268.146,418.184,268.284,418.421,268.248,418.454Z" transform="translate(-264.067 -417.399)" fill="#263238"/>
              </g>
              <g id="Group_211" data-name="Group 211" transform="translate(9.551 30.679)">
                <path id="Path_173" data-name="Path 173" d="M268.158,422a15.374,15.374,0,0,0-1.82-.054,15.306,15.306,0,0,0-1.742.528c-.087-.065.563-.787,1.689-.931A2.1,2.1,0,0,1,268.158,422Z" transform="translate(-264.587 -421.519)" fill="#263238"/>
              </g>
              <g id="Group_212" data-name="Group 212" transform="translate(8.673 23.779)">
                <path id="Path_174" data-name="Path 174" d="M269.083,413.766a19.105,19.105,0,0,0-2.8-.272,19,19,0,0,0-2.765.541,5.182,5.182,0,0,1,5.567-.269Z" transform="translate(-263.512 -413.08)" fill="#263238"/>
              </g>
              <g id="Group_213" data-name="Group 213" transform="translate(7.755 19.086)">
                <path id="Path_175" data-name="Path 175" d="M266.881,407.445c0,.121-1.106.15-2.339.652-1.24.485-2.062,1.225-2.146,1.137a4.7,4.7,0,0,1,4.484-1.788Z" transform="translate(-262.39 -407.341)" fill="#263238"/>
              </g>
              <g id="Group_214" data-name="Group 214" transform="translate(5.584 14.056)">
                <path id="Path_176" data-name="Path 176" d="M264.182,401.365a6.02,6.02,0,0,0-4.437,2.182c-.043-.023.046-.317.334-.717a4.132,4.132,0,0,1,3.332-1.638C263.9,401.207,264.19,401.317,264.182,401.365Z" transform="translate(-259.735 -401.19)" fill="#263238"/>
              </g>
              <g id="Group_215" data-name="Group 215" transform="translate(3.526 9.792)">
                <path id="Path_177" data-name="Path 177" d="M260.877,400.073a1.611,1.611,0,0,1-.31-.628,4.859,4.859,0,0,1-.244-1.9,2.149,2.149,0,0,1,.421-1.317.76.76,0,0,1,.852-.2,1.237,1.237,0,0,1,.609.641,2.678,2.678,0,0,1-1.125,3.222,3.106,3.106,0,0,1-3.449-.231,1.079,1.079,0,0,1-.414-.8.747.747,0,0,1,.55-.681,2.652,2.652,0,0,1,1.371.078,5.444,5.444,0,0,1,1.74.793c.37.26.536.448.521.466a8.652,8.652,0,0,0-2.326-.98,2.475,2.475,0,0,0-1.2-.038.4.4,0,0,0-.3.369.741.741,0,0,0,.3.509,2.773,2.773,0,0,0,2.993.165,2.325,2.325,0,0,0,.994-2.721.9.9,0,0,0-.406-.466.413.413,0,0,0-.472.1,1.945,1.945,0,0,0-.377,1.109A7.181,7.181,0,0,0,260.877,400.073Z" transform="translate(-257.218 -395.974)" fill="#263238"/>
              </g>
            </g>
            <g id="Group_221" data-name="Group 221" transform="translate(33.709 105.835)">
              <path id="Path_178" data-name="Path 178" d="M268.489,328.546l-21.837-14.7,7.227-70.968L233.195,230.8l-18.915-4.383s-7.9,16.434-11.413,26.955c-7.472,22.375-12.716,30.394-11.518,46.613.379,5.133,19.335,17.974,31.306,25.108a37.75,37.75,0,0,0,.635,4.249c4.092,18.492,16.577,43.086,16.577,43.086l18.977-8.823-6.123-20.97,6.378,3.72ZM221.55,282.785,224.1,271.41c-.539,7.232-1.031,14.778-1.383,22.014A22.486,22.486,0,0,1,221.55,282.785Z" transform="translate(-191.178 -226.417)" fill="#263238"/>
              <g id="Group_217" data-name="Group 217" transform="translate(30.301 20.35)">
                <path id="Path_179" data-name="Path 179" d="M246.625,376.967a1.914,1.914,0,0,1-.147-.3c-.1-.219-.226-.515-.392-.9-.344-.81-.836-1.973-1.468-3.461-1.26-3.011-3.065-7.376-5.237-12.795s-4.732-11.881-7.321-19.156c-.646-1.819-1.279-3.7-1.872-5.631-.263-.98-.594-1.947-.766-2.984-.05-.256-.108-.513-.15-.77l-.091-.774q-.086-.776-.173-1.56-.334-3.135-.544-6.388-.1-1.625-.17-3.276c-.038-1.1-.088-2.216-.025-3.33.321-8.917,1.071-17.37,1.687-25.064.643-7.687,1.222-14.61,1.709-20.432.471-5.817.8-10.527.987-13.785.1-1.629.158-2.894.2-3.752.022-.414.04-.738.052-.975a1.994,1.994,0,0,1,.033-.333,2.109,2.109,0,0,1,.009.334c0,.239-.007.563-.012.977-.012.86-.043,2.128-.12,3.758-.139,3.262-.424,7.978-.859,13.8-.462,5.824-1.011,12.751-1.622,20.44-.6,7.692-1.334,16.153-1.653,25.042-.064,1.111-.014,2.205.025,3.306s.1,2.186.168,3.266q.2,3.242.536,6.372.087.781.172,1.556l.089.773c.042.253.1.5.146.75.163,1,.492,1.972.751,2.942.586,1.926,1.213,3.8,1.854,5.618,2.567,7.271,5.11,13.74,7.236,19.174l5.116,12.841,1.4,3.49c.151.386.269.688.356.911A1.979,1.979,0,0,1,246.625,376.967Z" transform="translate(-228.236 -251.305)" fill="#455a64"/>
              </g>
              <g id="Group_218" data-name="Group 218" transform="translate(31.736 2.415)">
                <path id="Path_180" data-name="Path 180" d="M232.349,244.908c-.018.021-.192-.12-.5-.4a5.162,5.162,0,0,1-.923-1.484,16.035,16.035,0,0,1-.931-5.63,47.871,47.871,0,0,1,.271-5.686,13.658,13.658,0,0,1,.329-2.333,13.411,13.411,0,0,1-.043,2.355c-.073,1.449-.191,3.451-.15,5.656a18.153,18.153,0,0,0,.791,5.534,6.169,6.169,0,0,0,.777,1.487C232.229,244.7,232.366,244.886,232.349,244.908Z" transform="translate(-229.991 -229.371)" fill="#455a64"/>
              </g>
              <g id="Group_219" data-name="Group 219" transform="translate(18.96 1.061)">
                <path id="Path_181" data-name="Path 181" d="M221.333,227.715a4.825,4.825,0,0,1,.163,1.986,9.132,9.132,0,0,1-5.223,7.664,4.809,4.809,0,0,1-1.907.575c-.02-.067.717-.258,1.778-.831a9.664,9.664,0,0,0,5.066-7.435C221.355,228.478,221.264,227.722,221.333,227.715Z" transform="translate(-214.366 -227.715)" fill="#455a64"/>
              </g>
              <g id="Group_220" data-name="Group 220" transform="translate(54.666 42.321)">
                <path id="Path_182" data-name="Path 182" d="M263.228,278.176a.822.822,0,0,1,0,.217c-.014.165-.031.373-.053.63-.059.585-.14,1.395-.243,2.423-.233,2.134-.563,5.168-.971,8.9-.854,7.54-2.028,17.907-3.324,29.357a53.5,53.5,0,0,0,1.075,16.111,56.154,56.154,0,0,0,1.977,6.791l2.044,5.838,2.934,8.462.778,2.308.192.6a.859.859,0,0,1,.053.21.871.871,0,0,1-.092-.2c-.06-.155-.137-.349-.231-.59-.2-.55-.489-1.313-.85-2.282l-3.056-8.42-2.091-5.821a55.212,55.212,0,0,1-2.025-6.822,53.176,53.176,0,0,1-1.115-16.227c1.277-11.482,2.545-21.84,3.443-29.353.461-3.73.835-6.76,1.1-8.89.136-1.025.242-1.833.319-2.415.038-.257.07-.463.093-.627A.913.913,0,0,1,263.228,278.176Z" transform="translate(-258.034 -278.176)" fill="#455a64"/>
              </g>
            </g>
            <g id="Group_225" data-name="Group 225" transform="translate(50.071 39.33)">
              <path id="Path_183" data-name="Path 183" d="M219.431,224.342l3.35-8.559,7.643,11.4-10.19-2.548" transform="translate(-212.691 -157.973)" fill="#030925"/>
              <path id="Path_184" data-name="Path 184" d="M297.914,185.843l-9.072-20.336c-1.084-3.27-3.119-3.778-4.823-5.675l-22.725-12.817c-16.562-6.783-25.579,15.967-25.579,15.967l-15.053,34.335c-17.7,5.868-5.168,19.463-5.168,19.463s-4.816-8.37-.08-11.389c4.958-3.162,10.455,5.168,15.737,13.081,6.236,9.341,26.5,15.409,26.5,15.409,2.37-2.5,1.707-11.244,3.563-15.935.589-1.487,14.62-33.987,14.62-33.987l5.439,13.177s6.972-8.174,10.352-9.473A38.337,38.337,0,0,1,297.914,185.843Z" transform="translate(-211.188 -145.204)" fill="#06f"/>
              <g id="Group_222" data-name="Group 222" transform="translate(27.161 52.111)">
                <path id="Path_185" data-name="Path 185" d="M263.7,211.793a2.919,2.919,0,0,1-.688.481,12.978,12.978,0,0,1-2.068.98,14.8,14.8,0,0,1-14.355-2.216,12.892,12.892,0,0,1-1.676-1.558,2.972,2.972,0,0,1-.511-.665c.056-.054.82.871,2.36,1.993a15.379,15.379,0,0,0,14.087,2.174C262.659,212.377,263.667,211.726,263.7,211.793Z" transform="translate(-244.405 -208.813)" fill="#030925"/>
              </g>
              <path id="Path_186" data-name="Path 186" d="M221.9,167.925h0l14.025,1.324,22.435-23.714-13.195-.453-23.5,2.319A60.872,60.872,0,0,1,221.9,167.925Z" transform="translate(-213.098 -145.082)" fill="#06f"/>
              <g id="Group_223" data-name="Group 223" transform="translate(9.472 10.349)">
                <path id="Path_187" data-name="Path 187" d="M241.579,157.739a2.092,2.092,0,0,1-.172.434c-.148.316-.334.718-.563,1.21l-2.081,4.444c-1.744,3.758-4.058,8.993-6.566,14.8s-4.79,11.061-6.514,14.832c-.861,1.886-1.572,3.406-2.083,4.446l-.594,1.2a2.01,2.01,0,0,1-.232.406,2.086,2.086,0,0,1,.158-.44l.525-1.227,1.964-4.5c1.657-3.851,3.913-9.088,6.4-14.876,2.509-5.805,4.867-11.028,6.679-14.758.9-1.867,1.656-3.367,2.2-4.392l.631-1.177A1.958,1.958,0,0,1,241.579,157.739Z" transform="translate(-222.772 -157.739)" fill="#030925"/>
              </g>
              <g id="Group_224" data-name="Group 224" transform="translate(63.626 17.242)">
                <path id="Path_188" data-name="Path 188" d="M296.457,166.172c.039.069-.83.522-2.016,1.532a14.638,14.638,0,0,0-1.9,1.959,14.948,14.948,0,0,0-2.889,5.961,14.644,14.644,0,0,0-.364,2.7c-.058,1.557.125,2.52.047,2.532a2.243,2.243,0,0,1-.171-.667,5.191,5.191,0,0,1-.11-.8,8.793,8.793,0,0,1-.054-1.07,13.129,13.129,0,0,1,.287-2.778,14.159,14.159,0,0,1,2.963-6.115,13.142,13.142,0,0,1,2-1.946,8.9,8.9,0,0,1,.873-.621,5.284,5.284,0,0,1,.7-.41A2.225,2.225,0,0,1,296.457,166.172Z" transform="translate(-289.002 -166.168)" fill="#030925"/>
              </g>
            </g>
            <g id="Group_333" data-name="Group 333" transform="translate(95.108)">
              <g id="Group_331" data-name="Group 331" transform="translate(0 1.935)">
                <g id="Group_327" data-name="Group 327">
                  <g id="Group_326" data-name="Group 326">
                    <g id="Group_242" data-name="Group 242">
                      <g id="Group_241" data-name="Group 241">
                        <g id="Group_240" data-name="Group 240">
                          <g id="Group_232" data-name="Group 232">
                            <g id="Group_231" data-name="Group 231">
                              <g id="Group_230" data-name="Group 230">
                                <g id="Group_229" data-name="Group 229">
                                  <g id="Group_228" data-name="Group 228">
                                    <g id="Group_227" data-name="Group 227">
                                      <g id="Group_226" data-name="Group 226">
                                        <path id="Path_189" data-name="Path 189" d="M296.231,121.419l-13.157,24.593a8.674,8.674,0,0,1-11.192,3.826h0a8.674,8.674,0,0,1-4.125-11.971c1.24-2.346,2.27-4.261,2.27-4.261s-5.72-3.707-3.046-9.888c2.387-5.514,11.15-21.079,13.01-24.37l11.089,4.962A12.463,12.463,0,0,1,296.231,121.419Z" transform="translate(-266.269 -99.348)" fill="#ffbe9d"/>
                                      </g>
                                    </g>
                                  </g>
                                </g>
                              </g>
                            </g>
                          </g>
                          <g id="Group_239" data-name="Group 239" transform="translate(3.06 34.164)">
                            <g id="Group_238" data-name="Group 238">
                              <g id="Group_237" data-name="Group 237">
                                <g id="Group_236" data-name="Group 236">
                                  <g id="Group_235" data-name="Group 235">
                                    <g id="Group_234" data-name="Group 234">
                                      <g id="Group_233" data-name="Group 233">
                                        <path id="Path_190" data-name="Path 190" d="M270.739,141.131a15.662,15.662,0,0,0,9.033,1.308s-3.874,3.576-9.76.278Z" transform="translate(-270.012 -141.131)" fill="#eb996e"/>
                                      </g>
                                    </g>
                                  </g>
                                </g>
                              </g>
                            </g>
                          </g>
                        </g>
                      </g>
                    </g>
                    <g id="Group_309" data-name="Group 309" transform="translate(7.922 10.668)">
                      <g id="Group_308" data-name="Group 308">
                        <g id="Group_293" data-name="Group 293" transform="translate(0 2.663)">
                          <g id="Group_292" data-name="Group 292">
                            <g id="Group_291" data-name="Group 291">
                              <g id="Group_258" data-name="Group 258">
                                <g id="Group_249" data-name="Group 249" transform="translate(0 0.674)">
                                  <g id="Group_248" data-name="Group 248">
                                    <g id="Group_247" data-name="Group 247">
                                      <g id="Group_246" data-name="Group 246">
                                        <g id="Group_245" data-name="Group 245">
                                          <g id="Group_244" data-name="Group 244">
                                            <g id="Group_243" data-name="Group 243">
                                              <path id="Path_191" data-name="Path 191" d="M276.049,116.972a.962.962,0,0,0,.45,1.265.921.921,0,0,0,1.259-.387.963.963,0,0,0-.449-1.265A.921.921,0,0,0,276.049,116.972Z" transform="translate(-275.957 -116.476)" fill="#263238"/>
                                            </g>
                                          </g>
                                        </g>
                                      </g>
                                    </g>
                                  </g>
                                </g>
                                <g id="Group_257" data-name="Group 257" transform="translate(0.138)">
                                  <g id="Group_256" data-name="Group 256">
                                    <g id="Group_255" data-name="Group 255">
                                      <g id="Group_254" data-name="Group 254">
                                        <g id="Group_253" data-name="Group 253">
                                          <g id="Group_252" data-name="Group 252">
                                            <g id="Group_251" data-name="Group 251">
                                              <g id="Group_250" data-name="Group 250">
                                                <path id="Path_192" data-name="Path 192" d="M276.129,116.04c.058.163.943-.032,1.886.393s1.424,1.208,1.579,1.138c.073-.029.055-.285-.149-.64a2.642,2.642,0,0,0-1.2-1.052,2.532,2.532,0,0,0-1.566-.17C276.29,115.8,276.1,115.964,276.129,116.04Z" transform="translate(-276.126 -115.652)" fill="#263238"/>
                                              </g>
                                            </g>
                                          </g>
                                        </g>
                                      </g>
                                    </g>
                                  </g>
                                </g>
                              </g>
                              <g id="Group_274" data-name="Group 274" transform="translate(8.837 4.332)">
                                <g id="Group_265" data-name="Group 265" transform="translate(0 0.689)">
                                  <g id="Group_264" data-name="Group 264">
                                    <g id="Group_263" data-name="Group 263">
                                      <g id="Group_262" data-name="Group 262">
                                        <g id="Group_261" data-name="Group 261">
                                          <g id="Group_260" data-name="Group 260">
                                            <g id="Group_259" data-name="Group 259">
                                              <path id="Path_193" data-name="Path 193" d="M286.857,122.289a.961.961,0,0,0,.451,1.264.919.919,0,0,0,1.258-.386.962.962,0,0,0-.449-1.265A.92.92,0,0,0,286.857,122.289Z" transform="translate(-286.765 -121.793)" fill="#263238"/>
                                            </g>
                                          </g>
                                        </g>
                                      </g>
                                    </g>
                                  </g>
                                </g>
                                <g id="Group_273" data-name="Group 273" transform="translate(0.507)">
                                  <g id="Group_272" data-name="Group 272">
                                    <g id="Group_271" data-name="Group 271">
                                      <g id="Group_270" data-name="Group 270">
                                        <g id="Group_269" data-name="Group 269">
                                          <g id="Group_268" data-name="Group 268">
                                            <g id="Group_267" data-name="Group 267">
                                              <g id="Group_266" data-name="Group 266">
                                                <path id="Path_194" data-name="Path 194" d="M287.388,121.337c.058.163.944-.031,1.886.394s1.424,1.207,1.579,1.137c.073-.029.056-.285-.149-.64a2.641,2.641,0,0,0-1.2-1.052,2.536,2.536,0,0,0-1.565-.171C287.549,121.1,287.358,121.261,287.388,121.337Z" transform="translate(-287.385 -120.95)" fill="#263238"/>
                                              </g>
                                            </g>
                                          </g>
                                        </g>
                                      </g>
                                    </g>
                                  </g>
                                </g>
                              </g>
                              <g id="Group_282" data-name="Group 282" transform="translate(0.606 2.51)">
                                <g id="Group_281" data-name="Group 281">
                                  <g id="Group_280" data-name="Group 280">
                                    <g id="Group_279" data-name="Group 279">
                                      <g id="Group_278" data-name="Group 278">
                                        <g id="Group_277" data-name="Group 277">
                                          <g id="Group_276" data-name="Group 276">
                                            <g id="Group_275" data-name="Group 275">
                                              <path id="Path_195" data-name="Path 195" d="M278.877,126.4a6.873,6.873,0,0,0-1.41-.963c-.231-.133-.437-.283-.4-.466.021-.2.238-.415.481-.643l1.536-1.518a34.539,34.539,0,0,0,3.751-4.088,34.742,34.742,0,0,0-4.072,3.776q-.79.807-1.51,1.542a1.528,1.528,0,0,0-.549.89.666.666,0,0,0,.239.531,1.792,1.792,0,0,0,.384.24A6.729,6.729,0,0,0,278.877,126.4Z" transform="translate(-276.698 -118.721)" fill="#263238"/>
                                            </g>
                                          </g>
                                        </g>
                                      </g>
                                    </g>
                                  </g>
                                </g>
                              </g>
                              <g id="Group_290" data-name="Group 290" transform="translate(1.136 12.083)">
                                <g id="Group_289" data-name="Group 289">
                                  <g id="Group_288" data-name="Group 288">
                                    <g id="Group_287" data-name="Group 287">
                                      <g id="Group_286" data-name="Group 286">
                                        <g id="Group_285" data-name="Group 285">
                                          <g id="Group_284" data-name="Group 284">
                                            <g id="Group_283" data-name="Group 283">
                                              <path id="Path_196" data-name="Path 196" d="M281.483,130.434c-.15-.078-.611.947-1.814,1.281s-2.245-.266-2.316-.126c-.043.058.154.307.61.527a2.793,2.793,0,0,0,1.908.164,2.436,2.436,0,0,0,1.455-1.1C281.556,130.764,281.555,130.459,281.483,130.434Z" transform="translate(-277.347 -130.43)" fill="#263238"/>
                                            </g>
                                          </g>
                                        </g>
                                      </g>
                                    </g>
                                  </g>
                                </g>
                              </g>
                            </g>
                          </g>
                        </g>
                        <g id="Group_300" data-name="Group 300" transform="translate(10.76 3.337)">
                          <g id="Group_299" data-name="Group 299">
                            <g id="Group_298" data-name="Group 298">
                              <g id="Group_297" data-name="Group 297">
                                <g id="Group_296" data-name="Group 296">
                                  <g id="Group_295" data-name="Group 295">
                                    <g id="Group_294" data-name="Group 294">
                                      <path id="Path_197" data-name="Path 197" d="M289.117,116.71c-.022.3.975.6,2.025,1.228,1.061.608,1.81,1.333,2.06,1.168.115-.081.067-.392-.183-.8a4.114,4.114,0,0,0-3.111-1.826C289.427,116.46,289.132,116.57,289.117,116.71Z" transform="translate(-289.117 -116.476)" fill="#263238"/>
                                    </g>
                                  </g>
                                </g>
                              </g>
                            </g>
                          </g>
                        </g>
                        <g id="Group_307" data-name="Group 307" transform="translate(1.71)">
                          <g id="Group_306" data-name="Group 306">
                            <g id="Group_305" data-name="Group 305">
                              <g id="Group_304" data-name="Group 304">
                                <g id="Group_303" data-name="Group 303">
                                  <g id="Group_302" data-name="Group 302">
                                    <g id="Group_301" data-name="Group 301">
                                      <path id="Path_198" data-name="Path 198" d="M278.05,112.867c.07.289.82.357,1.608.7.8.312,1.381.791,1.634.635.115-.079.107-.341-.092-.673a2.536,2.536,0,0,0-2.612-1.074C278.214,112.55,278.024,112.729,278.05,112.867Z" transform="translate(-278.048 -112.395)" fill="#263238"/>
                                    </g>
                                  </g>
                                </g>
                              </g>
                            </g>
                          </g>
                        </g>
                      </g>
                    </g>
                    <g id="Group_325" data-name="Group 325" transform="translate(22.885 25.757)">
                      <g id="Group_316" data-name="Group 316">
                        <g id="Group_315" data-name="Group 315">
                          <g id="Group_314" data-name="Group 314">
                            <g id="Group_313" data-name="Group 313">
                              <g id="Group_312" data-name="Group 312">
                                <g id="Group_311" data-name="Group 311">
                                  <g id="Group_310" data-name="Group 310">
                                    <path id="Path_199" data-name="Path 199" d="M297.2,130.849c.125,0,4.783.641,2.768,4.783s-5.758,1.265-5.707,1.143S297.2,130.849,297.2,130.849Z" transform="translate(-294.257 -130.849)" fill="#ffbe9d"/>
                                  </g>
                                </g>
                              </g>
                            </g>
                          </g>
                        </g>
                      </g>
                      <g id="Group_324" data-name="Group 324" transform="translate(2.012 2.008)">
                        <g id="Group_323" data-name="Group 323">
                          <g id="Group_322" data-name="Group 322">
                            <g id="Group_321" data-name="Group 321">
                              <g id="Group_320" data-name="Group 320">
                                <g id="Group_319" data-name="Group 319">
                                  <g id="Group_318" data-name="Group 318">
                                    <g id="Group_317" data-name="Group 317">
                                      <path id="Path_200" data-name="Path 200" d="M296.735,136.269c.025,0,.047.086.142.2a.8.8,0,0,0,.534.273,1.985,1.985,0,0,0,1.606-1.2,2.647,2.647,0,0,0,.3-1.132.925.925,0,0,0-.273-.818.409.409,0,0,0-.522-.01c-.111.089-.125.184-.15.181s-.056-.113.061-.267a.509.509,0,0,1,.289-.181.608.608,0,0,1,.451.089,1.127,1.127,0,0,1,.442,1.009,2.731,2.731,0,0,1-.312,1.276,2.082,2.082,0,0,1-1.922,1.276.856.856,0,0,1-.607-.431C296.694,136.373,296.717,136.27,296.735,136.269Z" transform="translate(-296.717 -133.305)" fill="#eb996e"/>
                                    </g>
                                  </g>
                                </g>
                              </g>
                            </g>
                          </g>
                        </g>
                      </g>
                    </g>
                  </g>
                </g>
                <g id="Group_330" data-name="Group 330" transform="translate(15.073 2.661)">
                  <g id="Group_329" data-name="Group 329">
                    <g id="Group_328" data-name="Group 328">
                      <path id="Path_201" data-name="Path 201" d="M297.858,126.6a2.42,2.42,0,0,0-2.487.131c-.542.478-.906,1.131-1.447,1.61a1.628,1.628,0,0,1-1.974.307,1.415,1.415,0,0,1-.446-1.351,3.889,3.889,0,0,1,.594-1.361c1.126-1.852,2.41-3.613,3.373-5.554a11.064,11.064,0,0,0,1.316-6.27,6.05,6.05,0,0,0-3.679-4.963c-1.353-.479-2.856-.334-4.235-.733a5.625,5.625,0,0,1-3.629-3.333,10.717,10.717,0,0,0-.54-.93c.046-.1.535-.936,1.024-1.1,3.639-1.229,8.576.182,11.593,2.56a13.433,13.433,0,0,1,5.167,10.045c.037,3.841-2.38,8.079-4.629,10.943" transform="translate(-284.703 -102.602)" fill="#263238"/>
                    </g>
                  </g>
                </g>
              </g>
              <g id="Group_332" data-name="Group 332" transform="translate(11.381)">
                <path id="Path_202" data-name="Path 202" d="M297.074,125.163c1.15-1.958,3.018-3.376,4.443-5.142s2.4-4.257,1.39-6.288c-.347-.693-.9-1.275-1.191-1.994a9.85,9.85,0,0,1-.4-2.3,8,8,0,0,0-3.959-5.748c-1.455-.812-3.135-1.145-4.61-1.92-2.337-1.228-4.046-3.5-6.5-4.475a3.13,3.13,0,0,0-2.546-.077,1.53,1.53,0,0,0-.63,2.2,1.331,1.331,0,0,0-1.836-.888,2.015,2.015,0,0,0-1.039,1.971,4.359,4.359,0,0,0,.892,2.163,11.009,11.009,0,0,0,6.3,4.336l5.644-.44,4.627,3.429,3.425,5.451-6.21,8.069Z" transform="translate(-280.188 -96.982)" fill="#263238"/>
              </g>
            </g>
          </g>
        </g>
      </g>
      <g id="Light_Bulb" data-name="Light Bulb" transform="translate(104.793 28.033)">
        <g id="Group_343" data-name="Group 343">
          <g id="Group_337" data-name="Group 337">
            <path id="Path_203" data-name="Path 203" d="M248.771,87.939a19.934,19.934,0,1,0-27.205,19.831c.152,2.357.325,5.018.325,5.018l17.434-1.127s-.077-2.823-.2-5.34A19.925,19.925,0,0,0,248.771,87.939Z" transform="translate(-208.944 -69.29)" fill="#06f"/>
            <g id="Group_336" data-name="Group 336" transform="translate(9.69 20.208)">
              <path id="Path_204" data-name="Path 204" d="M235.175,116.492s0-.083,0-.246.02-.413.034-.723c.037-.635.088-1.572.187-2.777s.24-2.678.512-4.375a29.562,29.562,0,0,1,1.447-5.653,18.967,18.967,0,0,1,1.443-3.083,3.682,3.682,0,0,1,1.281-1.309,2.053,2.053,0,0,1,1.893-.061,1.357,1.357,0,0,1,.68.747,1.391,1.391,0,0,1-.017,1.026,2.838,2.838,0,0,1-1.451,1.424,5.454,5.454,0,0,1-4.155-.025,5.526,5.526,0,0,1-3.023-3.138,4.168,4.168,0,0,1-.266-2.287,1.79,1.79,0,0,1,1.718-1.5,1.287,1.287,0,0,1,1.058.636,1.8,1.8,0,0,1,.239,1.216,3.9,3.9,0,0,1-1.271,2.067,5.949,5.949,0,0,1-4.55,1.645,5.181,5.181,0,0,1-4.031-2.619,3.009,3.009,0,0,1-.29-2.4,1.524,1.524,0,0,1,.815-.936,1.492,1.492,0,0,1,1.232.034,1.987,1.987,0,0,1,.9.818,3.1,3.1,0,0,1,.377,1.126,5.735,5.735,0,0,1-.155,2.294,5.932,5.932,0,0,1-2.588,3.517,6.042,6.042,0,0,1-4.08.832,3.161,3.161,0,0,1-1.852-.833,1.544,1.544,0,0,1-.234-1.909,1.3,1.3,0,0,1,.865-.495,1.882,1.882,0,0,1,.962.123,2.891,2.891,0,0,1,1.306,1.286c.569,1.047,1.038,2.07,1.509,3.044,1.85,3.906,3.192,7.137,4.1,9.377.451,1.121.788,2,1.015,2.59.108.291.192.516.252.679s.078.234.078.234-.038-.075-.1-.225l-.274-.67-1.057-2.572c-.93-2.227-2.3-5.446-4.164-9.339-.473-.966-.954-2-1.516-3.022a2.708,2.708,0,0,0-1.217-1.2,1.194,1.194,0,0,0-1.367,1.954,2.957,2.957,0,0,0,1.733.765,5.82,5.82,0,0,0,3.927-.811,5.706,5.706,0,0,0,2.482-3.386,5.5,5.5,0,0,0,.146-2.2,2.165,2.165,0,0,0-1.137-1.762,1.252,1.252,0,0,0-1.037-.031,1.283,1.283,0,0,0-.684.795,2.771,2.771,0,0,0,.276,2.205,4.941,4.941,0,0,0,3.84,2.491,5.708,5.708,0,0,0,4.36-1.579,3.667,3.667,0,0,0,1.2-1.926,1.568,1.568,0,0,0-.2-1.053,1.045,1.045,0,0,0-.862-.523,1.4,1.4,0,0,0-.968.383,1.716,1.716,0,0,0-.509.927,3.949,3.949,0,0,0,.253,2.153,5.3,5.3,0,0,0,2.891,3.012,5.246,5.246,0,0,0,3.976.038,2.631,2.631,0,0,0,1.347-1.3,1.176,1.176,0,0,0-.561-1.516,1.859,1.859,0,0,0-1.7.052,3.487,3.487,0,0,0-1.216,1.239,18.867,18.867,0,0,0-1.442,3.042,29.748,29.748,0,0,0-1.474,5.614c-.284,1.689-.437,3.159-.552,4.361s-.178,2.128-.232,2.772l-.06.721C235.189,116.41,235.175,116.492,235.175,116.492Z" transform="translate(-220.796 -94.005)" fill="#263238"/>
            </g>
            <path id="Path_205" data-name="Path 205" d="M241.108,124.662l-14.969.967a1.126,1.126,0,0,1-1.2-1.051h0a1.126,1.126,0,0,1,1.051-1.2l14.97-.967a1.125,1.125,0,0,1,1.2,1.051h0A1.126,1.126,0,0,1,241.108,124.662Z" transform="translate(-211.861 -78.977)" fill="#263238"/>
            <path id="Path_206" data-name="Path 206" d="M241.218,126.363l-14.97.967a1.125,1.125,0,1,0,.146,2.246l1.643-.105,2.448,4.008a1.447,1.447,0,0,0,1.328.689l5.348-.346a1.446,1.446,0,0,0,1.234-.868l1.851-4.272,1.117-.073a1.125,1.125,0,1,0-.145-2.246Z" transform="translate(-211.907 -79.696)" fill="#263238"/>
          </g>
          <g id="Group_338" data-name="Group 338" transform="translate(2.127 4.018)" opacity="0.2">
            <path id="Path_207" data-name="Path 207" d="M215.754,78.272a14.67,14.67,0,0,1,3.813-2.906,10.572,10.572,0,0,1,3.008-1.088c.747-.127,1.181-.082,1.227.074.11.356-1.364.988-3.307,2.477a16.391,16.391,0,0,0-6.419,16.545c.432,2.41,1.093,3.871.772,4.059-.14.084-.49-.174-.957-.773a10.581,10.581,0,0,1-1.486-2.832,14.659,14.659,0,0,1-.856-4.716,15.519,15.519,0,0,1,1.021-5.841" transform="translate(-211.546 -74.204)" fill="#fff"/>
          </g>
          <g id="Group_339" data-name="Group 339" transform="translate(16.639 2.262)" opacity="0.2">
            <path id="Path_208" data-name="Path 208" d="M231.878,74.509c-1.262.069-2.4-.2-2.568-.863-.077-.327.133-.7.571-1a4,4,0,0,1,3.76-.223c.471.25.724.591.686.925" transform="translate(-229.294 -72.057)" fill="#fff"/>
          </g>
          <g id="Group_340" data-name="Group 340" transform="translate(19.151 52.95)">
            <path id="Path_209" data-name="Path 209" d="M239.446,134.729c-.016.038-.4-.11-1.048-.25a8.339,8.339,0,0,0-5.047.473c-.608.258-.962.475-.984.441a3.059,3.059,0,0,1,.912-.6,7.3,7.3,0,0,1,5.161-.484A3.06,3.06,0,0,1,239.446,134.729Z" transform="translate(-232.366 -134.048)" fill="#455a64"/>
          </g>
          <g id="Group_341" data-name="Group 341" transform="translate(16.285 49.016)">
            <path id="Path_210" data-name="Path 210" d="M240.949,129.256c0,.067-2.7.3-6.036.513s-6.047.335-6.052.268,2.7-.3,6.037-.513S240.945,129.188,240.949,129.256Z" transform="translate(-228.861 -129.237)" fill="#455a64"/>
          </g>
          <g id="Group_342" data-name="Group 342" transform="translate(17.467 50.857)">
            <path id="Path_211" data-name="Path 211" d="M240.391,131.5a8.465,8.465,0,0,1-1.464.245c-.909.116-2.168.25-3.562.36s-2.658.175-3.574.2a8.56,8.56,0,0,1-1.485-.013,9.433,9.433,0,0,1,1.475-.16l3.565-.273,3.563-.289A9.4,9.4,0,0,1,240.391,131.5Z" transform="translate(-230.306 -131.489)" fill="#455a64"/>
          </g>
        </g>
      </g>
      <g id="Book" transform="translate(0 122.331)">
        <g id="Group_350" data-name="Group 350">
          <path id="Path_212" data-name="Path 212" d="M110.8,252.276l3.251,5.208s13.868-12.762,27.626-9.155C141.676,248.329,129.312,237.845,110.8,252.276Z" transform="translate(-86.256 -195.563)" fill="#06f"/>
          <path id="Path_213" data-name="Path 213" d="M148.561,246.4s10.18-11.054,25.106-8.532l4.071.613-1.3-2.352S150.478,227.237,148.561,246.4Z" transform="translate(-93.141 -193.634)" fill="#06f"/>
          <g id="Group_345" data-name="Group 345" transform="translate(0 14.538)">
            <path id="Path_214" data-name="Path 214" d="M114.753,203.374s-20.391-3.509-33.765,3.727l21.236,39.984s17.383-16.756,34.016-6.437Z" transform="translate(-80.82 -202.42)" fill="#f5f5f5"/>
            <g id="Group_344" data-name="Group 344">
              <path id="Path_215" data-name="Path 215" d="M114.716,203.351a1.074,1.074,0,0,1,.109.163c.076.125.177.29.3.5L116.3,206l4.42,7.569,15.634,26.962a.18.18,0,0,1-.065.246.184.184,0,0,1-.186,0,22.564,22.564,0,0,0-7.817-3,24.266,24.266,0,0,0-4.407-.306,27.186,27.186,0,0,0-4.515.568,38.81,38.81,0,0,0-16.866,9.006l-.175.163a.2.2,0,0,1-.287,0,.227.227,0,0,1-.034-.046l-21.2-40a.164.164,0,0,1,.063-.223l0,0a41.006,41.006,0,0,1,13.591-4.023,68.425,68.425,0,0,1,10.877-.473c3.01.1,5.358.342,6.95.538.8.1,1.4.19,1.811.258l.463.083a.665.665,0,0,1,.153.038,1.03,1.03,0,0,1-.16-.013l-.463-.056c-.41-.051-1.019-.128-1.815-.209-1.594-.164-3.94-.375-6.944-.446a69.919,69.919,0,0,0-10.837.549,40.962,40.962,0,0,0-13.468,4.049L81.1,207l21.268,39.967-.321-.051.182-.169a42.974,42.974,0,0,1,8.13-5.7,34.033,34.033,0,0,1,8.928-3.388,27.479,27.479,0,0,1,4.586-.57,24.581,24.581,0,0,1,4.483.319,22.9,22.9,0,0,1,7.942,3.069l-.25.243-15.464-26.983-4.346-7.637-1.141-2.03-.289-.527A1.232,1.232,0,0,1,114.716,203.351Z" transform="translate(-80.783 -202.397)" fill="#263238"/>
            </g>
          </g>
          <g id="Group_347" data-name="Group 347" transform="translate(34.024 4.521)">
            <path id="Path_216" data-name="Path 216" d="M154.393,192.934s-15.424-9.831-31.79,8.2l21.487,37.273s4.385-15.128,30.038-9.867Z" transform="translate(-122.432 -190.167)" fill="#f5f5f5"/>
            <g id="Group_346" data-name="Group 346">
              <path id="Path_217" data-name="Path 217" d="M154.355,192.913a.849.849,0,0,1,.1.156l.283.482,1.082,1.9,4.062,7.227,14.362,25.761a.178.178,0,0,1-.07.243.175.175,0,0,1-.115.02h-.008l-3.819-.628a16.893,16.893,0,0,0-1.973-.219l-2.014-.16a14.981,14.981,0,0,0-2.048-.049l-2.08.026c-.7.016-1.393.142-2.1.208a14.689,14.689,0,0,0-2.109.319l-2.108.477-2.062.721c-.692.24-1.328.621-2,.926a6.186,6.186,0,0,0-.963.552l-.939.6c-.62.415-1.175.924-1.76,1.394a18.392,18.392,0,0,0-1.546,1.655,12.975,12.975,0,0,0-2.287,3.925l0,.011a.2.2,0,0,1-.258.124.2.2,0,0,1-.109-.09l-.867-1.5L122.417,201.2a.171.171,0,0,1,.021-.2,36.079,36.079,0,0,1,11.64-8.751,23.156,23.156,0,0,1,10.98-2.061,22.259,22.259,0,0,1,7.024,1.574,16.642,16.642,0,0,1,1.718.808l.421.245a.772.772,0,0,1,.133.1.838.838,0,0,1-.148-.073l-.431-.222c-.384-.187-.957-.463-1.732-.758a22.787,22.787,0,0,0-7-1.473,23.086,23.086,0,0,0-10.855,2.117,35.962,35.962,0,0,0-11.5,8.727l.022-.2,20.648,35.755c.3.515.592,1.029.866,1.5l-.371.045a13.294,13.294,0,0,1,2.364-4.068,18.548,18.548,0,0,1,1.586-1.7c.6-.482,1.169-1,1.8-1.427l.962-.615a6.379,6.379,0,0,1,.984-.563c.686-.312,1.337-.7,2.042-.942l2.1-.732,2.141-.482a15.03,15.03,0,0,1,2.138-.32c.712-.066,1.417-.192,2.123-.207l2.1-.023a15.131,15.131,0,0,1,2.068.054l2.029.166a16.937,16.937,0,0,1,1.987.226l3.841.642-.192.262-14.213-25.8-3.981-7.287q-.673-1.251-1.041-1.934c-.11-.211-.2-.375-.262-.5A1.114,1.114,0,0,1,154.355,192.913Z" transform="translate(-122.394 -190.147)" fill="#263238"/>
            </g>
          </g>
          <g id="Group_349" data-name="Group 349" transform="translate(5.911)">
            <path id="Path_218" data-name="Path 218" d="M88.012,184.617l23,44.278s18.689-.818,26.6,8.289L116.3,200.109S103.8,184.617,88.012,184.617Z" transform="translate(-88.012 -184.617)" fill="#f5f5f5"/>
            <g id="Group_348" data-name="Group 348">
              <path id="Path_219" data-name="Path 219" d="M88.012,184.617s.19,0,.584.019l1.773.072c.2.012.4.014.621.037l.671.11,1.537.256a13.521,13.521,0,0,1,1.761.42c.617.188,1.3.315,1.973.584,5.5,1.83,12.866,6.262,19.493,13.89l.012.016,0,0,21.343,37.058a.2.2,0,0,1-.319.244l-.011-.011-.9-.9a19.557,19.557,0,0,0-5.886-3.89,34,34,0,0,0-6.578-2.155,54.822,54.822,0,0,0-13.071-1.291h-.006a.19.19,0,0,1-.172-.1L94.35,197l-4.693-9.142c-.534-1.045-.948-1.856-1.237-2.421l-.312-.619a1.888,1.888,0,0,1-.1-.2s.047.078.124.221.2.366.339.635l1.291,2.446,4.807,9.148,16.6,31.74-.177-.1a55.005,55.005,0,0,1,13.177,1.28,34.246,34.246,0,0,1,6.656,2.177,19.917,19.917,0,0,1,6,3.968l.925.921-.33.235-21.281-37.094.015.022a53.878,53.878,0,0,0-10.065-9.109,38.766,38.766,0,0,0-9.231-4.81c-.669-.275-1.343-.407-1.954-.6a13.516,13.516,0,0,0-1.747-.44l-1.526-.277-.667-.122c-.211-.026-.411-.032-.6-.048Z" transform="translate(-88.011 -184.617)" fill="#263238"/>
            </g>
          </g>
        </g>
      </g>
      <g id="Stars" transform="translate(28.972 57.221)">
        <g id="Group_358" data-name="Group 358" transform="translate(0 22.034)">
          <g id="Group_357" data-name="Group 357">
            <g id="Group_356" data-name="Group 356">
              <g id="Group_355" data-name="Group 355">
                <path id="Path_221" data-name="Path 221" d="M119.6,131.934l.494.82a5.614,5.614,0,0,0,2.324,2.14l.859.425-.821.493a5.621,5.621,0,0,0-2.14,2.325l-.424.858-.494-.82a5.619,5.619,0,0,0-2.324-2.14l-.859-.425.82-.494a5.616,5.616,0,0,0,2.141-2.324Z" transform="translate(-116.215 -131.934)" fill="#e8505b"/>
              </g>
            </g>
          </g>
        </g>
        <g id="Group_362" data-name="Group 362" transform="translate(209.801 51.132)">
          <g id="Group_361" data-name="Group 361">
            <g id="Group_360" data-name="Group 360">
              <g id="Group_359" data-name="Group 359">
                <path id="Path_222" data-name="Path 222" d="M376.186,167.521l.493.82A5.623,5.623,0,0,0,379,170.482l.859.424-.821.494a5.614,5.614,0,0,0-2.14,2.324l-.424.859-.494-.821a5.622,5.622,0,0,0-2.325-2.14l-.858-.424.82-.494a5.619,5.619,0,0,0,2.14-2.324Z" transform="translate(-372.801 -167.521)" fill="#e8505b"/>
              </g>
            </g>
          </g>
        </g>
        <g id="Group_370" data-name="Group 370" transform="translate(192.997 232.835)">
          <g id="Group_369" data-name="Group 369">
            <g id="Group_368" data-name="Group 368">
              <g id="Group_367" data-name="Group 367">
                <path id="Path_224" data-name="Path 224" d="M352.379,389.743l.236.095a1.5,1.5,0,0,0,.836.082l.251-.047-.1.236a1.5,1.5,0,0,0-.082.836l.047.25-.236-.095a1.492,1.492,0,0,0-.836-.082l-.25.047.095-.236a1.486,1.486,0,0,0,.082-.836Z" transform="translate(-352.25 -389.743)" fill="#e8505b"/>
              </g>
            </g>
          </g>
        </g>
        <g id="Group_374" data-name="Group 374" transform="translate(207.263 19.48)">
          <g id="Group_373" data-name="Group 373">
            <g id="Group_372" data-name="Group 372">
              <g id="Group_371" data-name="Group 371">
                <path id="Path_225" data-name="Path 225" d="M369.826,128.811l.236.1a1.5,1.5,0,0,0,.836.082l.25-.047-.095.236a1.5,1.5,0,0,0-.082.836l.047.25-.236-.095a1.485,1.485,0,0,0-.836-.082l-.25.047.095-.236a1.493,1.493,0,0,0,.082-.836Z" transform="translate(-369.697 -128.811)" fill="#e8505b"/>
              </g>
            </g>
          </g>
        </g>
        <g id="Group_378" data-name="Group 378" transform="translate(12.475)">
          <g id="Group_377" data-name="Group 377">
            <g id="Group_376" data-name="Group 376">
              <g id="Group_375" data-name="Group 375">
                <path id="Path_226" data-name="Path 226" d="M131.6,104.987l.236.095a1.492,1.492,0,0,0,.836.082l.25-.047-.095.236a1.493,1.493,0,0,0-.082.836l.047.25-.236-.095a1.5,1.5,0,0,0-.836-.082l-.25.047.095-.236a1.5,1.5,0,0,0,.082-.836Z" transform="translate(-131.472 -104.987)" fill="#e8505b"/>
              </g>
            </g>
          </g>
        </g>
        <g id="Group_382" data-name="Group 382" transform="translate(36.515 166.126)">
          <g id="Group_381" data-name="Group 381">
            <g id="Group_380" data-name="Group 380">
              <g id="Group_379" data-name="Group 379">
                <path id="Path_227" data-name="Path 227" d="M161,308.158l.236.1a1.5,1.5,0,0,0,.836.082l.251-.047-.1.236a1.5,1.5,0,0,0-.082.836l.047.25-.236-.095a1.484,1.484,0,0,0-.836-.082l-.25.047.095-.236a1.486,1.486,0,0,0,.082-.836Z" transform="translate(-160.873 -308.158)" fill="#e8505b"/>
              </g>
            </g>
          </g>
        </g>
        <g id="Group_408" data-name="Group 408" transform="translate(11.392 227.597)">
          <g id="Group_387" data-name="Group 387" transform="translate(2.256 2.742)">
            <g id="Group_386" data-name="Group 386">
              <g id="Group_385" data-name="Group 385">
                <g id="Group_384" data-name="Group 384">
                  <g id="Group_383" data-name="Group 383">
                    <path id="Path_228" data-name="Path 228" d="M181.966,386.69s-.071.085-.222.238l-.68.675-2.642,2.573-9.8,9.453.038-.1c.466,10.26,1.1,24.2,1.8,39.712l.016.351-.292-.195-3.54-2.366-22.441-15.024-.046-.03-.017-.052c-3.348-10-6.173-18.433-8.166-24.385-.979-2.96-1.754-5.3-2.289-6.921l-.594-1.836-.146-.474a.863.863,0,0,1-.041-.163.84.84,0,0,1,.066.155c.043.118.1.27.171.465.15.428.365,1.037.641,1.821l2.374,6.892,8.288,24.343-.063-.082,22.461,14.994,3.538,2.366-.276.155c-.664-15.509-1.261-29.456-1.7-39.716l0-.058.042-.039,9.88-9.371,2.688-2.525.7-.649C181.878,386.757,181.966,386.69,181.966,386.69Z" transform="translate(-132.906 -386.69)" fill="#e8505b"/>
                  </g>
                </g>
              </g>
            </g>
          </g>
          <g id="Group_391" data-name="Group 391" transform="translate(36.094 50.627)">
            <g id="Group_390" data-name="Group 390">
              <g id="Group_389" data-name="Group 389">
                <g id="Group_388" data-name="Group 388">
                  <path id="Path_229" data-name="Path 229" d="M179.066,445.254l-.072,2.315,1.866,1.371-2.224.647-.728,2.2-1.3-1.915-2.316-.012,1.419-1.831-.7-2.207,2.18.784Z" transform="translate(-174.29 -445.254)" fill="#e8505b"/>
                </g>
              </g>
            </g>
          </g>
          <g id="Group_395" data-name="Group 395" transform="translate(10.935 34.916)">
            <g id="Group_394" data-name="Group 394">
              <g id="Group_393" data-name="Group 393">
                <g id="Group_392" data-name="Group 392">
                  <path id="Path_230" data-name="Path 230" d="M146.423,426.039l.045,1.5,1.26.813-1.411.506-.383,1.449-.917-1.186-1.5.083.844-1.239-.542-1.4,1.439.42Z" transform="translate(-143.52 -426.039)" fill="#e8505b"/>
                </g>
              </g>
            </g>
          </g>
          <g id="Group_407" data-name="Group 407" transform="translate(36.186 14.02)">
            <g id="Group_406" data-name="Group 406">
              <g id="Group_405" data-name="Group 405">
                <g id="Group_404" data-name="Group 404">
                  <path id="Path_233" data-name="Path 233" d="M175.8,400.483l.721.926,1.172-.069-.658.972.428,1.093-1.128-.325-.908.745-.039-1.173-.989-.633,1.1-.4Z" transform="translate(-174.403 -400.483)" fill="#e8505b"/>
                </g>
              </g>
            </g>
          </g>
        </g>
      </g>
      <g id="Planets" transform="translate(7.92 48.921)">
        <g id="Group_435" data-name="Group 435" transform="translate(0 150.126)">
          <g id="Group_421" data-name="Group 421" transform="translate(10.449 5.335)">
            <g id="Group_412" data-name="Group 412">
              <g id="Group_411" data-name="Group 411">
                <g id="Group_410" data-name="Group 410">
                  <g id="Group_409" data-name="Group 409">
                    <circle id="Ellipse_63" data-name="Ellipse 63" cx="16.308" cy="16.308" r="16.308" fill="#06f"/>
                  </g>
                </g>
              </g>
            </g>
            <g id="Group_416" data-name="Group 416" transform="translate(8.869 18.738)" opacity="0.3">
              <g id="Group_415" data-name="Group 415">
                <g id="Group_414" data-name="Group 414">
                  <g id="Group_413" data-name="Group 413">
                    <path id="Path_234" data-name="Path 234" d="M119.414,310.542a2.66,2.66,0,1,1-2.66-2.66A2.66,2.66,0,0,1,119.414,310.542Z" transform="translate(-114.094 -307.882)" fill="#fff"/>
                  </g>
                </g>
              </g>
            </g>
            <g id="Group_420" data-name="Group 420" transform="translate(7.322 12.176)" opacity="0.3">
              <g id="Group_419" data-name="Group 419">
                <g id="Group_418" data-name="Group 418">
                  <g id="Group_417" data-name="Group 417">
                    <path id="Path_235" data-name="Path 235" d="M115.3,301.4a1.547,1.547,0,1,1-1.547-1.547A1.547,1.547,0,0,1,115.3,301.4Z" transform="translate(-112.202 -299.856)" fill="#fff"/>
                  </g>
                </g>
              </g>
            </g>
          </g>
          <g id="Group_425" data-name="Group 425">
            <g id="Group_424" data-name="Group 424">
              <g id="Group_423" data-name="Group 423">
                <g id="Group_422" data-name="Group 422">
                  <path id="Path_236" data-name="Path 236" d="M101.405,304.049c.073.283-13.958,13.745-10.341,16.613s18.83-4.49,31.8-14.965,24.816-23.2,21.573-26.563-19.45,6.6-19.45,6.6l1.937,1.235s9.8-6.287,12.9-3.846S134.087,295.1,121.616,304.2,97.1,319.7,95.226,317.2s6.956-10.814,6.956-10.814Z" transform="translate(-90.468 -278.441)" fill="#fff"/>
                </g>
              </g>
            </g>
          </g>
          <g id="Group_434" data-name="Group 434" transform="translate(11.649 10.142)" opacity="0.3">
            <g id="Group_433" data-name="Group 433">
              <g id="Group_432" data-name="Group 432">
                <g id="Group_431" data-name="Group 431">
                  <g id="Group_430" data-name="Group 430">
                    <path id="Path_238" data-name="Path 238" d="M110.837,290.857c.132.158-.974,1.1-2.225,2.979a15.008,15.008,0,0,0-.329,16.493c1.175,1.931,2.242,2.913,2.1,3.065-.083.114-1.393-.643-2.844-2.566a14.057,14.057,0,0,1-1.98-3.711,14.144,14.144,0,0,1,.2-10.179,14.089,14.089,0,0,1,2.127-3.63C109.418,291.445,110.758,290.74,110.837,290.857Z" transform="translate(-104.715 -290.845)" fill="#fff"/>
                  </g>
                </g>
              </g>
            </g>
          </g>
        </g>
        <g id="Group_452" data-name="Group 452" transform="translate(187.439)">
          <g id="Group_439" data-name="Group 439">
            <g id="Group_438" data-name="Group 438">
              <g id="Group_437" data-name="Group 437">
                <g id="Group_436" data-name="Group 436">
                  <circle id="Ellipse_64" data-name="Ellipse 64" cx="13.453" cy="13.453" r="13.453" transform="translate(0 18.615) rotate(-43.779)" fill="#06f"/>
                </g>
              </g>
            </g>
          </g>
          <g id="Group_443" data-name="Group 443" transform="translate(23.403 11.726)" opacity="0.4">
            <g id="Group_442" data-name="Group 442">
              <g id="Group_441" data-name="Group 441">
                <g id="Group_440" data-name="Group 440">
                  <path id="Path_239" data-name="Path 239" d="M348.328,111.32a2.194,2.194,0,1,1,2.141,2.245A2.194,2.194,0,0,1,348.328,111.32Z" transform="translate(-348.327 -109.178)"/>
                </g>
              </g>
            </g>
          </g>
          <g id="Group_447" data-name="Group 447" transform="translate(27.791 17.744)" opacity="0.4">
            <g id="Group_446" data-name="Group 446">
              <g id="Group_445" data-name="Group 445">
                <g id="Group_444" data-name="Group 444">
                  <path id="Path_240" data-name="Path 240" d="M353.694,117.784a1.276,1.276,0,1,1,1.246,1.307A1.276,1.276,0,0,1,353.694,117.784Z" transform="translate(-353.694 -116.539)"/>
                </g>
              </g>
            </g>
          </g>
          <g id="Group_451" data-name="Group 451" transform="translate(25.598 22.909)" opacity="0.4">
            <g id="Group_450" data-name="Group 450">
              <g id="Group_449" data-name="Group 449">
                <g id="Group_448" data-name="Group 448">
                  <path id="Path_241" data-name="Path 241" d="M351.493,122.855a.471.471,0,1,1-.482.46A.472.472,0,0,1,351.493,122.855Z" transform="translate(-351.011 -122.855)"/>
                </g>
              </g>
            </g>
          </g>
        </g>
      </g>
    </g>
  </g>
</svg>
