<svg xmlns="http://www.w3.org/2000/svg" width="127.661" height="39.17" viewBox="0 0 127.661 39.17">
  <g id="logo-uifocus" transform="translate(1.5 1.5)">
    <path id="Path_688" data-name="Path 688" d="M7.982.26c4.212,0,6.942-2.392,6.942-6.76v-9.464h-4.16V-6.89c0,2.262-1.066,3.432-2.782,3.432-1.742,0-2.808-1.17-2.808-3.432v-9.074H1.014v9.438C1.014-2.132,3.77.26,7.982.26ZM21.788-15.964H17.6V0h4.186ZM35.048,0V-5.642h6.526V-9.178H35.048V-12.35h7.1v-3.614H30.914V0ZM59.384-7.982c0-4.784-3.2-8.242-7.826-8.242-4.6,0-7.774,3.458-7.774,8.242,0,4.758,3.172,8.242,7.774,8.242C56.186.26,59.384-3.224,59.384-7.982Zm-4.212,0c0,2.756-1.456,4.576-3.614,4.576S48-5.226,48-7.982s1.4-4.576,3.562-4.576S55.172-10.738,55.172-7.982Zm5.928,0C61.1-3.016,64.428.26,69.29.26A7.2,7.2,0,0,0,73.346-.832V-4.888a5.916,5.916,0,0,1-3.718,1.274,4.036,4.036,0,0,1-4.342-4.368,4.043,4.043,0,0,1,4.342-4.394,5.946,5.946,0,0,1,3.718,1.3v-4.056a7.2,7.2,0,0,0-4.056-1.092C64.428-16.224,61.1-12.948,61.1-7.982ZM82.732.26c4.212,0,6.942-2.392,6.942-6.76v-9.464h-4.16V-6.89c0,2.262-1.066,3.432-2.782,3.432-1.742,0-2.808-1.17-2.808-3.432v-9.074h-4.16v9.438C75.764-2.132,78.52.26,82.732.26Zm9.334-1.3A10.638,10.638,0,0,0,97.292.26c3.588,0,6.526-1.534,6.526-4.992,0-2.444-1.326-3.978-4.238-4.888l-2.418-.728c-.832-.26-1.326-.546-1.326-1.274,0-.806.91-1.144,2.106-1.144a8.341,8.341,0,0,1,4.836,1.586v-3.848a9.931,9.931,0,0,0-5.018-1.2c-3.354,0-6.032,1.742-6.032,4.914,0,2.652,1.482,3.978,4.16,4.758l2.418.7c.858.312,1.352.572,1.352,1.352,0,.988-1.144,1.274-2.47,1.274a9.679,9.679,0,0,1-5.122-1.664Z" transform="translate(10.278 26.364)" fill="#fff"/>
    <path id="Path_3" data-name="Path 3" d="M-6316.1-2593.54h-40.18v-36.17h22.212" transform="translate(6356.278 2629.71)" fill="none" stroke="#ffc107" stroke-width="3"/>
    <path id="Path_4" data-name="Path 4" d="M-6399.541-2593.54h76.924v-36.17h-90.435" transform="translate(6447.278 2629.71)" fill="none" stroke="#ffc107" stroke-width="3"/>
    <circle id="Ellipse_65" data-name="Ellipse 65" cx="3" cy="3" r="3" transform="translate(33.778 21)" fill="#ffc107"/>
  </g>
</svg>
